<svg width="18" height="20" viewBox="0 0 18 20" fill="none" xmlns="http://www.w3.org/2000/svg">
<g id="24 / basic / more-vertical">
<path id="icon" fill-rule="evenodd" clip-rule="evenodd" d="M7.5 4.14016C7.5 5.05478 8.17157 5.79622 9 5.79622C9.82843 5.79622 10.5 5.05478 10.5 4.14016C10.5 3.22554 9.82843 2.4841 9 2.4841C8.17157 2.4841 7.5 3.22554 7.5 4.14016ZM9 11.5924C8.17157 11.5924 7.5 10.851 7.5 9.93638C7.5 9.02176 8.17157 8.28032 9 8.28032C9.82843 8.28032 10.5 9.02176 10.5 9.93638C10.5 10.851 9.82843 11.5924 9 11.5924ZM9 17.3887C8.17157 17.3887 7.5 16.6472 7.5 15.7326C7.5 14.818 8.17157 14.0765 9 14.0765C9.82843 14.0765 10.5 14.818 10.5 15.7326C10.5 16.6472 9.82843 17.3887 9 17.3887Z" fill="#6DB247"/>
</g>
</svg>
