<svg width="18" height="20" viewBox="0 0 18 20" fill="none" xmlns="http://www.w3.org/2000/svg">
<g id="24 / basic / thumbs-up">
<path id="icon" fill-rule="evenodd" clip-rule="evenodd" d="M16.5 9.93561C16.5 8.54247 15.6522 7.45152 14.25 7.45152H11.9452L11.9661 7.38882C11.9869 7.32662 12.0456 7.15587 12.1026 6.98996L12.1027 6.98967C12.1532 6.8427 12.2024 6.69959 12.2228 6.63914C12.3654 6.21656 12.4695 5.87607 12.5537 5.53888C12.6809 5.02923 12.75 4.57006 12.75 4.1394C12.75 2.92053 12.0689 2.16348 11.0612 1.83953C10.6067 1.69342 10.2111 1.65523 9.75 1.6553H9.39037L9.1652 1.96489C8.91085 2.31461 8.41126 2.94489 7.83528 3.67153L7.83525 3.67156C6.77269 5.01208 5.45017 6.68055 4.92776 7.52058C4.79221 7.47613 4.64863 7.45227 4.5 7.45227H3C2.17157 7.45227 1.5 8.19371 1.5 9.10833V16.5606C1.5 17.4752 2.17157 18.2167 3 18.2167H4.5C5.01535 18.2167 5.46999 17.9297 5.74003 17.4927C5.96755 17.6552 6.22141 17.7908 6.49734 17.8998C7.12908 18.1493 7.75564 18.2259 8.2758 18.2154L13.5 18.2159C15.5664 18.2159 16.5 14.8571 16.5 9.93561ZM7.00266 16.3405C6.33897 16.0783 6 15.6509 6 14.9038V9.10833V9.10757C6 8.90868 6.03332 8.73256 6.10628 8.54449C6.23734 8.20667 7.42645 6.70888 8.55351 5.28925L8.55357 5.28917L8.55365 5.28907C9.13528 4.55645 9.70037 3.84467 10.095 3.32388C10.2835 3.3395 10.4613 3.37149 10.6419 3.42954C11.0716 3.56771 11.25 3.76596 11.25 4.13938C11.25 4.40152 11.202 4.72092 11.1076 5.09875C11.0371 5.38108 10.9458 5.67983 10.8172 6.06096C10.7989 6.11505 10.7534 6.24758 10.705 6.3885L10.7046 6.3895L10.7043 6.39039C10.6455 6.5616 10.5826 6.74472 10.5592 6.81438C10.4617 7.10553 10.3974 7.3199 10.3535 7.5147C10.1667 8.34276 10.3541 9.10757 11.25 9.10757H14.25C14.7684 9.10757 15 9.40557 15 9.9356C15 13.9025 14.2613 16.5598 13.5 16.5598H8.25L8.2223 16.5604C7.89403 16.5669 7.43297 16.5105 7.00266 16.3405ZM3 16.5606V9.10833H4.5V16.5606H3Z" fill="#6DB247"/>
</g>
</svg>
