<svg width="13" height="20" viewBox="0 0 13 20" fill="none" xmlns="http://www.w3.org/2000/svg">
<path d="M3.5743 16.1699H9.42475C9.43437 16.0015 9.44649 15.804 9.46157 15.588H3.53748C3.55255 15.804 3.56467 16.0015 3.5743 16.1699Z" fill="white"/>
<path d="M7.19177 14.8194V11.1378C7.19177 11.0503 7.21737 10.9647 7.26541 10.8916L7.94088 9.8637V7.96124C7.94088 7.75385 7.8097 7.57032 7.6138 7.50303L7.50436 7.46942L6.76866 8.02031C6.60945 8.1395 6.39058 8.1395 6.2313 8.02031L5.4956 7.46942L5.38617 7.50303C5.19033 7.57032 5.05908 7.75385 5.05908 7.96124V9.8637L5.73455 10.8916C5.78266 10.9648 5.80819 11.0503 5.80819 11.1378V14.8195H7.19177V14.8194Z" fill="white"/>
<path d="M3.62219 16.9383C3.82188 19.0501 5.49304 19.0516 6.50021 19.0516C7.50737 19.0516 9.17853 19.0501 9.37822 16.9383H3.62219Z" fill="white"/>
<path d="M6.50033 4.40268C6.22668 4.40268 6.00403 4.62533 6.00403 4.89898C6.00403 5.17263 6.22668 5.39529 6.50033 5.39529C6.77398 5.39529 6.99664 5.17263 6.99664 4.89898C6.99664 4.62533 6.77398 4.40268 6.50033 4.40268Z" fill="white"/>
<path d="M6.49994 0C2.91586 0 0 2.91592 0 6.49994C0 8.38515 1.00563 9.63646 1.97816 10.8467C2.28311 11.2261 2.59846 11.6185 2.88225 12.0292C3.19695 12.4846 3.37451 13.7243 3.47593 14.8195H4.91166V11.2719L4.23619 10.2439C4.18808 10.1708 4.16255 10.0853 4.16255 9.9978V7.96127C4.16255 7.36586 4.54205 6.83934 5.10692 6.65107C5.11032 6.64991 5.45037 6.54548 5.45037 6.54548C5.58732 6.50353 5.73595 6.52925 5.85058 6.61521L6.5 7.10144L7.14942 6.61521C7.26399 6.52938 7.41255 6.50359 7.54964 6.54548C7.54964 6.54548 7.88974 6.64991 7.89308 6.65107C8.45796 6.83934 8.83745 7.36579 8.83745 7.96127V9.9978C8.83745 10.0853 8.81185 10.1709 8.76381 10.2439L8.08834 11.2719V14.8195H9.52408C9.62549 13.7243 9.80305 12.4846 10.1178 12.0292C10.4015 11.6186 10.717 11.2261 11.0218 10.8467C11.9944 9.63646 13 8.38515 13 6.49994C12.9999 2.91592 10.084 0 6.49994 0V0ZM6.49994 6.29184C5.73191 6.29184 5.10712 5.66705 5.10712 4.89902C5.10712 4.13099 5.73191 3.5062 6.49994 3.5062C7.26797 3.5062 7.89276 4.13099 7.89276 4.89902C7.89276 5.66705 7.26797 6.29184 6.49994 6.29184Z" fill="white"/>
</svg>
