<svg width="17" height="18" viewBox="0 0 17 18" fill="none" xmlns="http://www.w3.org/2000/svg">
<circle cx="7.72819" cy="10.1686" r="6.72819" stroke="white" stroke-width="2"/>
<rect x="8.13477" y="2.44046" width="7.32144" height="8.13494" fill="#6DB247"/>
<path d="M13.0159 0C11.2218 0 9.76208 1.45976 9.76208 3.25402C9.76208 3.72203 9.85788 4.16888 10.0467 4.58226C10.8602 6.3625 12.42 8.24206 12.8788 8.77565C12.9132 8.81554 12.9633 8.83852 13.016 8.83852C13.0687 8.83852 13.1189 8.81554 13.1532 8.77565C13.6118 8.24215 15.1716 6.36268 15.9855 4.58226C16.1743 4.16888 16.27 3.72203 16.27 3.25402C16.2699 1.45976 14.8101 0 13.0159 0ZM13.0159 4.94417C12.084 4.94417 11.3257 4.18589 11.3257 3.25393C11.3257 2.32188 12.084 1.5636 13.0159 1.5636C13.9479 1.5636 14.7062 2.32188 14.7062 3.25393C14.7063 4.18589 13.948 4.94417 13.0159 4.94417Z" fill="white"/>
<path d="M2.89553 9.99205C2.89553 9.99205 3.78058 8.70796 1.47946 8.99331C-0.821665 9.27865 3.42676 16.2699 5.37374 16.2699C7.32073 16.2699 8.91387 15.2711 8.73686 13.559C8.55985 11.8469 6.96676 11.9895 6.96676 11.2762C6.96676 10.5628 8.73686 9.84939 8.91387 9.27866C9.09087 8.70794 8.58851 8.19387 7.49779 8.13723C5.5224 8.03466 5.37367 11.4188 4.48862 11.7042C3.60358 11.9896 2.89553 11.5615 2.54151 11.1335C2.18749 10.7054 2.89553 9.99205 2.89553 9.99205Z" fill="white"/>
</svg>
