<svg width="15" height="16" viewBox="0 0 15 16" fill="none" xmlns="http://www.w3.org/2000/svg">
<path d="M13.4867 1.62H11.8916V0.735221C11.8916 0.329152 11.5625 0 11.1563 0H11.0397C10.6336 0 10.3046 0.329152 10.3046 0.735221V1.62H4.67663V0.735221C4.67663 0.329152 4.34747 0 3.94153 0H3.82481C3.41874 0 3.08971 0.329152 3.08971 0.735221V1.62H1.51317C0.678938 1.62 0 2.2987 0 3.13317V13.7253C0 14.5593 0.678938 15.2384 1.51317 15.2384H13.4868C14.3209 15.2384 15 14.5594 15 13.7253V3.13317C14.9999 2.2987 14.3208 1.62 13.4867 1.62ZM13.2893 13.5278H1.71059V5.28256H13.2893V13.5278Z" fill="white"/>
</svg>
