<svg width="19" height="16" viewBox="0 0 19 16" fill="none" xmlns="http://www.w3.org/2000/svg">
<path d="M10.8683 2.60137C11.701 3.12349 12.2849 4.00702 12.3912 5.0326C12.7308 5.19128 13.1078 5.28253 13.5074 5.28253C14.9663 5.28253 16.1488 4.10007 16.1488 2.64138C16.1488 1.18246 14.9663 0 13.5074 0C12.0624 0.00044952 10.8903 1.16178 10.8683 2.60137ZM9.13783 8.00954C10.5967 8.00954 11.7792 6.82685 11.7792 5.36816C11.7792 3.90947 10.5965 2.72701 9.13783 2.72701C7.67914 2.72701 6.49601 3.9097 6.49601 5.36839C6.49601 6.82708 7.67914 8.00954 9.13783 8.00954ZM10.2583 8.18957H8.01696C6.15212 8.18957 4.635 9.70693 4.635 11.5718V14.3127L4.64196 14.3556L4.83076 14.4147C6.61041 14.9708 8.15653 15.1562 9.42912 15.1562C11.9147 15.1562 13.3555 14.4476 13.4442 14.4024L13.6207 14.3132H13.6395V11.5718C13.6402 9.70693 12.1231 8.18957 10.2583 8.18957ZM14.6283 5.46279H12.4043C12.3802 6.35261 12.0004 7.15388 11.3996 7.73016C13.0572 8.22306 14.27 9.76019 14.27 11.5758V12.4205C16.4659 12.34 17.7313 11.7176 17.8147 11.6758L17.9911 11.5864H18.01V8.84452C18.01 6.97992 16.4929 5.46279 14.6283 5.46279ZM4.50306 5.28298C5.01978 5.28298 5.50055 5.13216 5.90781 4.87526C6.03727 4.03084 6.48994 3.29296 7.13657 2.79039C7.13927 2.74095 7.14399 2.69195 7.14399 2.64205C7.14399 1.18314 5.9613 0.00067423 4.50306 0.00067423C3.04392 0.00067423 1.86169 1.18314 1.86169 2.64205C1.86169 4.10029 3.04392 5.28298 4.50306 5.28298ZM6.87518 7.73016C6.27732 7.1568 5.89882 6.3598 5.87117 5.47537C5.78869 5.4693 5.7071 5.46279 5.62304 5.46279H3.38196C1.51713 5.46279 0 6.97992 0 8.84452V11.5859L0.00696755 11.6282L0.195766 11.6877C1.62344 12.1334 2.8976 12.3389 4.00432 12.4036V11.5758C4.00477 9.76019 5.21712 8.22351 6.87518 7.73016Z" fill="white"/>
</svg>
