<svg width="13" height="19" viewBox="0 0 13 19" fill="none" xmlns="http://www.w3.org/2000/svg">
<path d="M11.6828 0.430695H9.98611V1.05087C9.98497 2.24101 9.08924 3.20563 7.98411 3.20687H5.01589C3.91076 3.20563 3.01504 2.24101 3.01389 1.05087V0.430695H1.31722C0.590015 0.431723 0.000955332 1.06609 0 1.84923V16.8608C0.000764268 17.6439 0.590015 18.2785 1.31722 18.2793H11.6828C12.41 18.2785 12.9992 17.6439 13 16.8608V1.84923C12.9992 1.06609 12.41 0.431723 11.6828 0.430695ZM9.50176 8.47814L5.94868 12.2138C5.81569 12.3535 5.60342 12.3535 5.47044 12.2138L3.49824 10.1401C3.36297 9.99791 3.36029 9.76437 3.49251 9.61869C3.62454 9.47301 3.8414 9.47013 3.97668 9.61252L5.70965 11.4346L9.02332 7.95035C9.1586 7.80817 9.37546 7.81084 9.50749 7.95653C9.63971 8.10241 9.63703 8.33575 9.50176 8.47814Z" fill="white"/>
</svg>
