<svg width="16" height="14" viewBox="0 0 16 14" fill="none" xmlns="http://www.w3.org/2000/svg">
<path d="M14.5584 2.6119C14.1638 2.2174 13.6879 2.02009 13.1302 2.02009H11.3627L10.9604 0.947032C10.8604 0.689311 10.6777 0.467021 10.4119 0.280191C10.1462 0.093443 9.874 0 9.59516 0H5.55506C5.27625 0 5.00399 0.093443 4.73831 0.280191C4.47263 0.467021 4.28989 0.689311 4.18993 0.947032L3.78752 2.02009H2.02001C1.46231 2.02009 0.986333 2.2174 0.59175 2.6119C0.19725 3.00643 0 3.48246 0 4.0401V11.1102C0 11.6678 0.19725 12.1439 0.59175 12.5384C0.986333 12.9329 1.46234 13.1302 2.02001 13.1302H13.13C13.6877 13.1302 14.1636 12.9329 14.5582 12.5384C14.9527 12.1439 15.15 11.6678 15.15 11.1102V4.0401C15.1501 3.48246 14.9528 3.00643 14.5584 2.6119ZM10.0724 10.0726C9.38069 10.7644 8.5483 11.1104 7.57504 11.1104C6.60178 11.1104 5.76945 10.7644 5.07765 10.0726C4.38585 9.38097 4.04002 8.54839 4.04002 7.57535C4.04002 6.602 4.38596 5.76969 5.07765 5.0779C5.76936 4.3861 6.60181 4.04027 7.57504 4.04027C8.54827 4.04027 9.38069 4.38618 10.0724 5.0779C10.7642 5.76961 11.1101 6.602 11.1101 7.57535C11.1101 8.54839 10.7642 9.38089 10.0724 10.0726Z" fill="white"/>
</svg>
