<svg width="13" height="18" viewBox="0 0 13 18" fill="none" xmlns="http://www.w3.org/2000/svg">
<path d="M6.36473 0C2.85539 0 0 2.85539 0 6.36509C0 7.28056 0.187375 8.15462 0.55664 8.96322C2.148 12.4455 5.19908 16.122 6.0965 17.1658C6.16374 17.2438 6.26176 17.2888 6.36491 17.2888C6.46806 17.2888 6.56609 17.2438 6.63332 17.1658C7.53039 16.1222 10.5815 12.4458 12.1734 8.96322C12.5428 8.15462 12.73 7.28056 12.73 6.36509C12.7296 2.85539 9.87426 0 6.36473 0ZM6.36473 9.67114C4.54176 9.67114 3.05851 8.18788 3.05851 6.36491C3.05851 4.54177 4.54176 3.05851 6.36473 3.05851C8.1877 3.05851 9.67096 4.54177 9.67096 6.36491C9.67113 8.18788 8.18788 9.67114 6.36473 9.67114Z" fill="white"/>
</svg>
