<svg width="16" height="16" viewBox="0 0 16 16" fill="none" xmlns="http://www.w3.org/2000/svg">
<path d="M6.59375 8.46875H9.40625V9.40625H6.59375V8.46875Z" fill="white"/>
<path d="M12.9806 9.40625H10.3438V9.875C10.3438 10.134 10.134 10.3437 9.875 10.3437H6.125C5.86597 10.3437 5.65625 10.134 5.65625 9.875V9.40625H3.01941C2.41333 9.40625 1.87732 9.0199 1.68542 8.44495L0 3.38782V13.625C0 14.4004 0.630859 15.0312 1.40625 15.0312H14.5938C15.3691 15.0312 16 14.4004 16 13.625V3.38818L14.3145 8.44495C14.1227 9.0199 13.5867 9.40625 12.9806 9.40625Z" fill="white"/>
<path d="M9.875 0.96875H6.125C5.34961 0.96875 4.71875 1.59961 4.71875 2.375V2.84375H0.806519L2.57446 8.14832C2.63855 8.34009 2.81751 8.46875 3.01941 8.46875H5.65625V8C5.65625 7.74097 5.86597 7.53125 6.125 7.53125H9.875C10.134 7.53125 10.3438 7.74097 10.3438 8V8.46875H12.9806C13.1825 8.46875 13.3615 8.34009 13.4255 8.14832L15.1936 2.84375H11.2813V2.375C11.2813 1.59961 10.6504 0.96875 9.875 0.96875ZM5.65625 2.84375V2.375C5.65625 2.11633 5.86633 1.90625 6.125 1.90625H9.875C10.1337 1.90625 10.3438 2.11633 10.3438 2.375V2.84375H5.65625Z" fill="white"/>
</svg>
