<svg width="136" height="47" viewBox="0 0 136 47" fill="none" xmlns="http://www.w3.org/2000/svg">
<path d="M7.29319 2.89498V7.92349C7.29319 8.19218 7.29319 8.61442 7.2548 9.22859C7.2548 9.84276 7.21642 10.5337 7.13965 11.263C7.06287 11.9924 6.98611 12.7601 6.83256 13.4894C6.71741 14.2187 6.52548 14.8329 6.29517 15.2935C5.91131 16.138 5.4123 16.7905 4.79813 17.2512C4.18396 17.7118 3.45464 17.9805 2.61015 17.9805H2.495V15.4854C2.99401 15.4471 3.37786 15.2935 3.64656 15.0632C3.91526 14.7945 4.14557 14.4874 4.3375 14.1036C4.49104 13.7581 4.6062 13.3358 4.68297 12.8752C4.75974 12.3762 4.83651 11.8772 4.8749 11.3398C4.91328 10.8024 4.95167 10.2266 4.99006 9.65084C4.99006 9.07505 5.02844 8.49927 5.02844 7.96187V0.707001H12.2065V18.0189H9.71148V2.89498H7.29319Z" fill="white"/>
<path d="M12.3986 18.2108H9.51965V3.1253H7.5236V7.96188C7.5236 8.23058 7.5236 8.65282 7.48522 9.30537C7.48522 9.91954 7.44683 10.6105 7.37006 11.3782C7.29329 12.1075 7.21652 12.8752 7.06298 13.6045C6.94782 14.3339 6.75589 14.9864 6.52558 15.4854C6.14172 16.3299 5.60433 17.0209 4.99016 17.5199C4.3376 18.0189 3.56989 18.2876 2.68702 18.2876H2.34155V15.4087H2.53348C2.95572 15.3703 3.30119 15.2551 3.5315 15.0248C3.8002 14.7945 3.99213 14.4874 4.14568 14.1036C4.29922 13.7965 4.41437 13.3742 4.49114 12.9136C4.56791 12.4146 4.64469 11.9156 4.68307 11.3782C4.72146 10.8408 4.75984 10.265 4.79823 9.68923C4.79823 9.11344 4.83661 8.53766 4.83661 8.00027V0.553467H12.437V18.2108H12.3986ZM9.94189 17.7886H12.0147V0.898934H5.22047V7.92349C5.22047 8.46089 5.22047 9.03667 5.18208 9.61245C5.18208 10.1882 5.1437 10.764 5.06693 11.3398C5.02854 11.8772 4.95177 12.4146 4.875 12.9136C4.79823 13.4126 4.64469 13.8349 4.49114 14.1803C4.29922 14.6026 4.0689 14.948 3.76182 15.2167C3.49312 15.4854 3.10926 15.639 2.68702 15.6774V17.7502C3.45473 17.7502 4.14567 17.5199 4.68307 17.0976C5.25885 16.637 5.71948 16.0228 6.10334 15.2167C6.33365 14.7561 6.48719 14.1419 6.60235 13.451C6.7175 12.7217 6.83266 11.9924 6.90943 11.263C6.9862 10.5337 7.02459 9.84277 7.02459 9.2286C7.02459 8.61443 7.06298 8.1538 7.06298 7.92349V2.70305H9.90351V17.7886H9.94189Z" fill="white"/>
<path d="M20.3058 18.0189V6.77192H20.2674L17.0046 18.0189H14.548V0.707001H17.0046V11.954H17.043L20.3058 0.707001H22.8009V18.0189H20.3058Z" fill="white"/>
<path d="M22.9932 18.2108H20.1143V8.07703L17.1586 18.2108H14.3181V0.515076H17.197V10.6873L20.1527 0.515076H22.9932V18.2108ZM20.5366 17.7886H22.6094V0.898931H20.4982L17.2354 12.1459H16.8132V0.898931H14.7404V17.7886H16.8516L20.1143 6.57999H20.5366V17.7886Z" fill="white"/>
<path d="M26.1408 18.0189V20.7059H23.9912V15.8309H25.2579C25.4115 15.5238 25.5266 15.1784 25.6802 14.7561C25.7953 14.3723 25.9105 13.95 26.0256 13.4894C26.1408 13.0672 26.2176 12.6065 26.2943 12.1459C26.3711 11.6853 26.4479 11.2247 26.4863 10.8024C26.5247 10.457 26.563 10.0731 26.563 9.65086C26.6014 9.22862 26.6014 8.80638 26.6398 8.34575C26.6398 7.88512 26.6782 7.46288 26.6782 7.00226C26.6782 6.54163 26.6782 6.11938 26.6782 5.73553V0.66864H33.7795V15.7925H35.1998V20.6675H33.0502V17.9805H26.1408V18.0189ZM29.0197 2.895V5.73553C29.0197 5.96584 29.0197 6.27293 28.9813 6.73355C28.9813 7.15579 28.9429 7.61642 28.9046 8.11544C28.8662 8.61445 28.8278 9.11346 28.7894 9.65086C28.751 10.1499 28.7126 10.6105 28.6742 10.9944C28.6359 11.3014 28.5975 11.6853 28.5207 12.1075C28.4439 12.5298 28.3672 12.952 28.252 13.3743C28.1369 13.7965 28.0601 14.2571 27.9449 14.6794C27.8298 15.1016 27.7146 15.4855 27.5611 15.8309H31.2845V2.895H29.0197Z" fill="white"/>
<path d="M35.4296 20.8978H32.8578V18.2108H26.3322V20.8978H23.7604V15.639H25.1039C25.219 15.3703 25.3342 15.0632 25.4493 14.7177C25.5645 14.3339 25.6797 13.9116 25.7948 13.4894C25.8716 13.0672 25.9867 12.6065 26.0635 12.1459C26.1403 11.6853 26.2171 11.2246 26.2554 10.8024C26.2938 10.4569 26.3322 10.0731 26.3322 9.68923C26.3706 9.26698 26.3706 8.84475 26.409 8.38412C26.409 7.92349 26.4474 7.50125 26.4474 7.04063C26.4474 6.58 26.4474 6.15775 26.4474 5.77389V0.515076H33.9709V15.639H35.3912V20.8978H35.4296ZM33.28 20.4756H35.0073V16.0228H33.5871V0.898931H26.8696V5.73551C26.8696 6.15775 26.8696 6.58 26.8696 7.00224C26.8696 7.46286 26.8312 7.8851 26.8312 8.34573C26.8312 8.80636 26.7928 9.2286 26.7545 9.65084C26.7161 10.0731 26.7161 10.4569 26.6777 10.8024C26.6393 11.263 26.5625 11.7237 26.4858 12.1843C26.409 12.6449 26.2938 13.1055 26.2171 13.5278C26.1019 13.9884 25.9867 14.4106 25.8716 14.7945C25.7564 15.2167 25.6029 15.5622 25.4493 15.8693L25.411 15.9845H24.221V20.4372H25.9484V17.7502H33.28V20.4756ZM31.5143 16.0228H27.2535L27.3686 15.7157C27.5222 15.3703 27.6373 15.0248 27.7525 14.6026C27.8676 14.1803 27.9828 13.7581 28.0596 13.2975C28.1363 12.8752 28.2515 12.453 28.3283 12.0307C28.405 11.6085 28.4434 11.263 28.4818 10.9559C28.5202 10.5721 28.5586 10.1115 28.597 9.61245L28.7121 8.07703C28.7505 7.57802 28.7505 7.11739 28.7889 6.69515C28.7889 6.2729 28.8273 5.92743 28.8273 5.73551V2.70305H31.5526V16.0228H31.5143ZM27.906 15.6006H31.1304V3.12529H29.2495V5.77389C29.2495 6.00421 29.2495 6.34968 29.2111 6.77192C29.2111 7.19416 29.1727 7.65479 29.1344 8.19219L29.0192 9.72761C28.9808 10.2266 28.9424 10.6873 28.904 11.0711C28.8657 11.3782 28.8273 11.762 28.7505 12.1843C28.6737 12.6065 28.597 13.0288 28.4818 13.451C28.3666 13.8732 28.2899 14.3339 28.1747 14.7561C28.0979 15.0632 27.9828 15.3319 27.906 15.6006Z" fill="white"/>
<path d="M36.4663 18.0189V0.707001H43.8363V3.04852H38.9614V8.11541H43.2222V10.4569H38.9614V15.5238H43.8363V18.0189H36.4663Z" fill="white"/>
<path d="M44.0667 18.2108H36.2744V0.515076H44.0667V3.27883H39.1533V7.92349H43.4141V10.6873H39.1533V15.3319H44.0667V18.2108ZM36.6967 17.7886H43.6828V15.7157H38.7695V10.2266H43.0303V8.30734H38.7695V2.81821H43.6828V0.898931H36.6967V17.7886Z" fill="white"/>
<path d="M45.4485 18.0189V0.707001H49.1719C49.8628 0.707001 50.4386 0.783771 50.976 0.975698C51.475 1.16763 51.974 1.47471 52.3963 1.93534C52.8185 2.39596 53.1256 2.93336 53.2791 3.50915C53.4327 4.12332 53.5095 4.92941 53.5095 5.96582C53.5095 6.73353 53.4711 7.38609 53.3943 7.92349C53.3175 8.46088 53.1256 8.95989 52.8185 9.42052C52.473 9.9963 52.0124 10.4185 51.475 10.7256C50.8992 11.0327 50.1699 11.1863 49.2487 11.1863H47.9819V17.9421H45.4485V18.0189ZM47.9435 3.04852V8.92151H49.1335C49.6325 8.92151 50.0164 8.84474 50.2851 8.6912C50.5538 8.53765 50.7457 8.34572 50.8992 8.07703C51.0144 7.84671 51.0912 7.53963 51.1295 7.19416C51.1679 6.84869 51.1679 6.42645 51.1679 6.00421C51.1679 5.58197 51.1679 5.19811 51.1295 4.85264C51.1295 4.50717 51.0528 4.1617 50.8992 3.893C50.7841 3.6243 50.5922 3.39399 50.3235 3.27883C50.0548 3.12529 49.7093 3.04852 49.2103 3.04852H47.9435Z" fill="white"/>
<path d="M48.1355 18.2108H45.2566V0.515076H49.1719C49.8629 0.515076 50.5154 0.591846 51.0528 0.783773C51.5902 0.975701 52.0892 1.32117 52.5498 1.7818C53.0105 2.24243 53.3176 2.81821 53.4711 3.47076C53.6246 4.08493 53.7398 4.92942 53.7398 6.00421C53.7398 6.77192 53.7014 7.46287 53.5863 8.00026C53.5095 8.57605 53.2792 9.07505 52.9721 9.57406C52.6266 10.1498 52.1276 10.6489 51.5518 10.9559C50.9377 11.3014 50.1699 11.455 49.2103 11.455H48.1739V18.2108H48.1355ZM45.6788 17.7886H47.7517V11.0327H49.2103C50.0932 11.0327 50.8225 10.8792 51.3599 10.5721C51.8973 10.265 52.3195 9.84277 52.6266 9.30537C52.8953 8.84474 53.0872 8.38411 53.164 7.8851C53.2408 7.3477 53.2792 6.69515 53.2792 5.96582C53.2792 4.9678 53.2024 4.12332 53.0489 3.54754C52.8953 2.97175 52.6266 2.47274 52.2044 2.0505C51.8205 1.62826 51.3599 1.32117 50.8993 1.16763C50.4003 1.01409 49.8245 0.898931 49.1719 0.898931H45.6788V17.7886ZM49.1335 9.15183H47.7517V2.8566H49.2487C49.7861 2.8566 50.1699 2.93336 50.477 3.08691C50.7841 3.24045 51.0144 3.50915 51.1296 3.81624C51.2831 4.12332 51.3599 4.46879 51.3599 4.85264C51.3599 5.2365 51.3983 5.62036 51.3983 6.00421C51.3983 6.46484 51.3983 6.84869 51.3599 7.19416C51.3215 7.57802 51.2447 7.92349 51.0912 8.19219C50.9377 8.49928 50.7073 8.72958 50.4003 8.88313C50.0932 9.07505 49.6709 9.15183 49.1335 9.15183ZM48.1355 8.72959H49.1335C49.5942 8.72959 49.9396 8.65282 50.2083 8.53766C50.4386 8.4225 50.6306 8.23057 50.7073 8.03864C50.8225 7.80833 50.8993 7.53964 50.8993 7.23255C50.9377 6.88708 50.9377 6.50322 50.9377 6.0426C50.9377 5.65874 50.9377 5.27489 50.8993 4.89103C50.8993 4.54556 50.8225 4.27686 50.7073 4.00816C50.5922 3.77785 50.4386 3.58592 50.2083 3.47076C49.978 3.35561 49.6325 3.27883 49.2103 3.27883H48.1355V8.72959Z" fill="white"/>
<path d="M55.3519 0.707001H57.8469V7.80833H58.7682C59.6127 7.80833 60.342 7.92349 60.9178 8.1538C61.4935 8.38411 61.9542 8.72959 62.2996 9.15183C62.6835 9.61245 62.9138 10.0731 62.9906 10.6105C63.1057 11.1479 63.1441 11.6853 63.1441 12.3378V13.2975C63.1441 14.8329 62.7603 15.9845 62.0309 16.7906C61.3016 17.5966 60.1117 18.0189 58.4995 18.0189H55.3135V0.707001H55.3519ZM57.8085 9.9963V15.5238H58.6914C59.1904 15.5238 59.5743 15.4471 59.8814 15.2935C60.1501 15.14 60.3804 14.948 60.5339 14.6793C60.6874 14.4106 60.7642 14.1036 60.8026 13.7581C60.841 13.4126 60.841 13.0288 60.841 12.6065C60.841 12.1843 60.8026 11.8004 60.7642 11.4933C60.7258 11.1863 60.6107 10.9176 60.4571 10.6873C60.3036 10.4569 60.0733 10.3034 59.8046 10.1498C59.5359 10.0347 59.152 9.95792 58.7298 9.95792H57.8085V9.9963ZM64.4109 0.707001H66.9059V18.0189H64.4109V0.707001Z" fill="white"/>
<path d="M67.0983 18.2108H64.2194V0.515076H67.0983V18.2108ZM64.6416 17.7886H66.7145V0.898931H64.6416V17.7886ZM58.5383 18.2108H55.1604V0.515076H58.0393V7.61641H58.7686C59.6515 7.61641 60.3808 7.73156 60.995 8.00026C61.6092 8.23058 62.1082 8.61443 62.4537 9.03667C62.8375 9.53568 63.1062 10.0347 63.2214 10.5721C63.3365 11.1095 63.3749 11.6853 63.4133 12.3378V13.2975C63.4133 14.8713 63.0294 16.0996 62.2617 16.9441C61.4556 17.7886 60.1889 18.2108 58.5383 18.2108ZM55.5443 17.7886H58.4999C60.0354 17.7886 61.1869 17.4047 61.8779 16.637C62.5688 15.8693 62.9143 14.7561 62.9143 13.2975V12.3378C62.9143 11.7237 62.8375 11.1479 62.7607 10.6489C62.684 10.1499 62.4537 9.72761 62.1082 9.26698C61.7627 8.88313 61.3405 8.57604 60.8031 8.34573C60.2657 8.11542 59.5747 8.00026 58.7303 8.00026H57.6171V0.898931H55.5443V17.7886ZM58.6919 15.7541H57.6171V9.80438H58.7303C59.1909 9.80438 59.6131 9.88115 59.9202 9.99631C60.2273 10.1498 60.496 10.3418 60.6495 10.5721C60.8031 10.8408 60.9182 11.1095 60.995 11.455C61.0334 11.762 61.0718 12.1459 61.0718 12.6065C61.0718 13.0288 61.0718 13.4126 61.0334 13.7965C60.995 14.1803 60.9182 14.5258 60.7263 14.7945C60.5728 15.1016 60.3041 15.3319 59.997 15.4854C59.6515 15.6774 59.2293 15.7541 58.6919 15.7541ZM58.0393 15.3319H58.6919C59.1525 15.3319 59.5364 15.2551 59.7667 15.14C59.997 15.0248 60.1889 14.8329 60.3424 14.6026C60.4576 14.3723 60.5728 14.1036 60.5728 13.7581C60.6112 13.4126 60.6111 13.0288 60.6111 12.6065C60.6111 12.1843 60.5728 11.8004 60.5344 11.5317C60.496 11.263 60.4192 10.9943 60.2657 10.8024C60.1121 10.6105 59.9586 10.4569 59.6899 10.3418C59.4596 10.2266 59.1141 10.1882 58.6919 10.1882H58.0009V15.3319H58.0393Z" fill="white"/>
<path d="M73.7388 18.0189V0.707001H77.4622C78.1531 0.707001 78.7289 0.783771 79.2663 0.975698C79.7653 1.16763 80.2643 1.47471 80.6866 1.93534C81.1088 2.39596 81.4159 2.93336 81.5694 3.50915C81.723 4.12332 81.7997 4.92941 81.7997 5.96582C81.7997 6.73353 81.7613 7.38609 81.6846 7.92349C81.6078 8.46088 81.4159 8.95989 81.1088 9.42052C80.7633 9.9963 80.3027 10.4185 79.7653 10.7256C79.1895 11.0327 78.4602 11.1863 77.5389 11.1863H76.2722V17.9421H73.7388V18.0189ZM76.2338 3.04852V8.92151H77.4238C77.9228 8.92151 78.3067 8.84474 78.5754 8.6912C78.844 8.53765 79.036 8.34572 79.1895 8.07703C79.3047 7.84671 79.3814 7.53963 79.4198 7.19416C79.4582 6.84869 79.4582 6.42645 79.4582 6.00421C79.4582 5.58197 79.4582 5.19811 79.4198 4.85264C79.4198 4.50717 79.3431 4.1617 79.1895 3.893C79.0744 3.6243 78.8824 3.39399 78.6137 3.27883C78.345 3.12529 77.9996 3.04852 77.5005 3.04852H76.2338Z" fill="white"/>
<path d="M76.4258 18.2108H73.5469V0.515076H77.4622C78.1531 0.515076 78.8057 0.591846 79.3431 0.783773C79.8805 0.975701 80.3795 1.32117 80.8401 1.7818C81.3008 2.24243 81.6078 2.81821 81.7614 3.47076C81.9149 4.08493 82.0301 4.92942 82.0301 6.00421C82.0301 6.77192 81.9917 7.46287 81.8765 8.00026C81.7998 8.57605 81.5695 9.07505 81.2624 9.57406C80.9169 10.1498 80.4179 10.6489 79.8421 10.9559C79.2279 11.3014 78.4602 11.455 77.5006 11.455H76.4642V18.2108H76.4258ZM73.9691 17.7886H76.0419V11.0327H77.5006C78.3834 11.0327 79.1128 10.8792 79.6502 10.5721C80.1876 10.265 80.6098 9.84277 80.9169 9.30537C81.1856 8.84474 81.3775 8.38411 81.4543 7.8851C81.5311 7.3477 81.5695 6.69515 81.5695 5.96582C81.5695 4.9678 81.4927 4.12332 81.3391 3.54754C81.1856 2.97175 80.9169 2.47274 80.4947 2.0505C80.1108 1.62826 79.6502 1.32117 79.1895 1.16763C78.6905 1.01409 78.1147 0.898931 77.4622 0.898931H73.9691V17.7886ZM77.4238 9.15183H76.0419V2.8566H77.539C78.0764 2.8566 78.4602 2.93336 78.7673 3.08691C79.0744 3.24045 79.3047 3.50915 79.4199 3.81624C79.5734 4.12332 79.6502 4.46879 79.6502 4.85264C79.6502 5.2365 79.6886 5.62036 79.6886 6.00421C79.6886 6.46484 79.6886 6.84869 79.6502 7.19416C79.6118 7.57802 79.535 7.92349 79.3815 8.19219C79.2279 8.49928 78.9976 8.72958 78.6905 8.88313C78.3835 9.07505 77.9612 9.15183 77.4238 9.15183ZM76.4258 8.72959H77.4238C77.8844 8.72959 78.2299 8.65282 78.4986 8.53766C78.7289 8.4225 78.9208 8.23057 78.9976 8.03864C79.1128 7.80833 79.1895 7.53964 79.1895 7.23255C79.2279 6.88708 79.2279 6.50322 79.2279 6.0426C79.2279 5.65874 79.2279 5.27489 79.1895 4.89103C79.1895 4.54556 79.1128 4.27686 78.9976 4.00816C78.8825 3.77785 78.7289 3.58592 78.4986 3.47076C78.2683 3.35561 77.9228 3.27883 77.5006 3.27883H76.4258V8.72959Z" fill="white"/>
<path d="M83.4886 4.81427C83.4886 4.12333 83.6038 3.50916 83.8341 2.97177C84.0644 2.43437 84.4099 1.97374 84.7938 1.62827C85.1776 1.2828 85.6382 1.0141 86.0989 0.860561C86.5979 0.668634 87.0969 0.591858 87.5959 0.591858C88.0949 0.591858 88.5939 0.668634 89.0929 0.860561C89.592 1.05249 90.0526 1.2828 90.4364 1.62827C90.8203 1.97374 91.1274 2.43437 91.3961 2.97177C91.6264 3.50916 91.7415 4.12333 91.7415 4.81427V13.95C91.7415 14.6794 91.6264 15.2935 91.3961 15.8309C91.1658 16.3683 90.8203 16.7906 90.4364 17.136C90.0142 17.4815 89.592 17.7502 89.0929 17.9421C88.5939 18.1341 88.0949 18.2108 87.5959 18.2108C87.0969 18.2108 86.5979 18.1341 86.0989 17.9421C85.5998 17.7502 85.1776 17.4815 84.7938 17.136C84.3715 16.7906 84.0644 16.3683 83.8341 15.8309C83.6038 15.3319 83.4886 14.6794 83.4886 13.95V4.81427ZM85.9837 13.9116C85.9837 14.5258 86.1372 14.9481 86.4827 15.2168C86.8282 15.4855 87.212 15.639 87.6727 15.639C88.1333 15.639 88.5172 15.4855 88.8626 15.2168C89.2081 14.9481 89.3616 14.4874 89.3616 13.9116V4.77588C89.3616 4.16171 89.2081 3.73947 88.8626 3.47077C88.5172 3.20208 88.1333 3.04854 87.6727 3.04854C87.212 3.04854 86.8282 3.20208 86.4827 3.47077C86.1372 3.73947 85.9837 4.2001 85.9837 4.77588V13.9116Z" fill="white"/>
<path d="M87.6339 18.3644C87.0965 18.3644 86.5975 18.2876 86.0601 18.0957C85.5611 17.9037 85.0621 17.635 84.6782 17.2512C84.256 16.9057 83.9105 16.4451 83.6418 15.9077C83.3731 15.3703 83.2579 14.7177 83.2579 13.95V4.81426C83.2579 4.08494 83.3731 3.43238 83.6418 2.89499C83.9105 2.3192 84.256 1.85858 84.6782 1.47472C85.1004 1.12925 85.5611 0.860557 86.0601 0.668629C87.0965 0.284773 88.1713 0.284773 89.2077 0.668629C89.7067 0.860557 90.2057 1.12925 90.628 1.47472C91.0502 1.85858 91.3957 2.3192 91.626 2.89499C91.8947 3.47077 92.0098 4.12332 92.0098 4.81426V13.95C92.0098 14.7177 91.8947 15.3703 91.626 15.9077C91.3573 16.4451 91.0502 16.9057 90.628 17.2512C90.2057 17.635 89.7451 17.9037 89.2077 18.0957C88.7087 18.2876 88.1713 18.3644 87.6339 18.3644ZM87.6339 0.783781C87.1733 0.783781 86.6743 0.860557 86.2136 1.05248C85.753 1.20603 85.3308 1.47472 84.9469 1.78181C84.563 2.12728 84.256 2.54952 84.0256 3.04853C83.7953 3.54754 83.6802 4.16171 83.6802 4.81426V13.95C83.6802 14.641 83.7953 15.2551 84.0256 15.7158C84.256 16.2148 84.563 16.5986 84.9469 16.9441C85.3308 17.2896 85.753 17.5583 86.2136 17.7118C87.1349 18.0573 88.1329 18.0573 89.0542 17.7118C89.5148 17.5583 89.937 17.2896 90.3209 16.9441C90.7047 16.637 90.9734 16.2148 91.2037 15.7158C91.4341 15.2167 91.5492 14.641 91.5492 13.95V4.81426C91.5492 4.16171 91.4341 3.54754 91.2037 3.04853C90.9734 2.54952 90.6663 2.12728 90.3209 1.78181C89.937 1.47472 89.5148 1.20603 89.0542 1.05248C88.5935 0.860557 88.1329 0.783781 87.6339 0.783781ZM87.6339 15.8693C87.1349 15.8693 86.6742 15.7158 86.3288 15.4087C85.9449 15.1016 85.753 14.6026 85.753 13.9116V4.77588C85.753 4.12332 85.9449 3.62431 86.3288 3.27884C86.7126 2.97176 87.1349 2.81822 87.6339 2.81822C88.1329 2.81822 88.5935 2.97176 88.939 3.27884C89.3229 3.58593 89.5148 4.08494 89.5148 4.77588V13.9116C89.5148 14.5642 89.3229 15.0632 88.939 15.4087C88.5935 15.7158 88.1329 15.8693 87.6339 15.8693ZM87.6339 3.24046C87.2116 3.24046 86.9046 3.35562 86.5975 3.62432C86.3288 3.85463 86.1752 4.23848 86.1752 4.77588V13.9116C86.1752 14.449 86.3288 14.8329 86.5975 15.0632C86.9046 15.3319 87.25 15.4471 87.6339 15.4471C88.0177 15.4471 88.3632 15.3319 88.6703 15.0632C88.939 14.8329 89.0925 14.449 89.0925 13.9116V4.77588C89.0925 4.23848 88.939 3.85463 88.6703 3.62432C88.4016 3.394 88.0561 3.24046 87.6339 3.24046Z" fill="white"/>
<path d="M101.876 13.0672V14.142C101.876 14.6794 101.76 15.1784 101.569 15.6774C101.377 16.138 101.07 16.5986 100.724 16.9441C100.379 17.328 99.9563 17.5966 99.4573 17.827C98.9967 18.0573 98.4593 18.1724 97.9219 18.1724C97.4613 18.1724 96.9623 18.0957 96.5016 17.9805C96.0026 17.8654 95.5804 17.635 95.1965 17.2896C94.8127 16.9825 94.5056 16.5602 94.2369 16.0228C93.9682 15.5238 93.853 14.8713 93.853 14.0652V4.54556C93.853 3.96978 93.9682 3.47077 94.1601 2.97176C94.352 2.47275 94.6207 2.0505 95.0046 1.70503C95.3501 1.35956 95.7723 1.05248 96.2713 0.860552C96.7703 0.668625 97.3077 0.553467 97.9219 0.553467C99.0735 0.553467 100.033 0.937322 100.762 1.70503C101.108 2.08889 101.415 2.51113 101.607 3.01014C101.799 3.50915 101.914 4.08494 101.914 4.66072V5.62036H99.4189V4.77587C99.4189 4.27686 99.2654 3.85462 98.9967 3.50915C98.728 3.16368 98.3441 2.97176 97.8835 2.97176C97.2693 2.97176 96.8471 3.16369 96.6552 3.54754C96.4632 3.9314 96.3481 4.39202 96.3481 5.00619V13.8349C96.3481 14.3339 96.4632 14.7561 96.6936 15.1016C96.9239 15.4471 97.3077 15.6006 97.8835 15.6006C98.0371 15.6006 98.229 15.5622 98.4209 15.5238C98.6128 15.4854 98.7664 15.3703 98.9583 15.2551C99.1118 15.14 99.227 14.9481 99.3038 14.7177C99.4189 14.4874 99.4573 14.2187 99.4573 13.8733V13.0288H101.876V13.0672Z" fill="white"/>
<path d="M97.9211 18.3643C97.4221 18.3643 96.9231 18.2876 96.424 18.1724C95.925 18.0189 95.426 17.7886 95.0422 17.4431C94.6199 17.0976 94.2744 16.6754 94.0441 16.138C93.7754 15.6006 93.6603 14.9096 93.6603 14.1035V4.58393C93.6603 4.00815 93.7754 3.43236 93.9674 2.93335C94.1593 2.43434 94.4664 1.97371 94.8502 1.58986C95.2341 1.206 95.6947 0.937301 96.1937 0.706988C96.6927 0.476675 97.3069 0.399902 97.9211 0.399902C99.1494 0.399902 100.147 0.822146 100.915 1.58986C101.299 1.97371 101.568 2.43434 101.798 2.97174C102.028 3.50914 102.105 4.08492 102.105 4.69909V5.88904H99.2262V4.85263C99.2262 4.392 99.111 4.04653 98.8423 3.70106C98.612 3.39398 98.3049 3.24044 97.8827 3.24044C97.3453 3.24044 96.9998 3.39398 96.8463 3.70106C96.6543 4.04653 96.5776 4.50716 96.5776 5.04456V13.8732C96.5776 14.3339 96.6927 14.7177 96.8847 15.0248C97.0766 15.2935 97.3837 15.447 97.8827 15.447C98.0362 15.447 98.1898 15.4087 98.3433 15.3703C98.4969 15.3319 98.6504 15.2551 98.8039 15.1399C98.9191 15.0248 99.0343 14.8713 99.111 14.6793C99.1878 14.4874 99.2262 14.2187 99.2262 13.9116V12.8368H102.105V14.1035C102.105 14.6793 101.99 15.2167 101.798 15.7157C101.568 16.2147 101.299 16.6754 100.915 17.0592C100.531 17.4431 100.109 17.7502 99.61 17.9805C99.0343 18.2492 98.4969 18.3643 97.9211 18.3643ZM97.8827 0.783758C97.3069 0.783758 96.8079 0.898919 96.3089 1.05246C95.8483 1.24439 95.426 1.51308 95.1189 1.85855C94.7735 2.20402 94.5048 2.58788 94.3512 3.04851C94.1593 3.50914 94.0825 4.00814 94.0825 4.54554V14.0652C94.0825 14.8329 94.1977 15.447 94.428 15.946C94.6583 16.4451 94.9654 16.8289 95.3492 17.136C95.6947 17.4431 96.117 17.635 96.5776 17.7886C97.5756 18.0573 98.5736 18.0573 99.4181 17.6734C99.8787 17.4815 100.263 17.1744 100.608 16.8289C100.954 16.4835 101.222 16.0612 101.414 15.6006C101.606 15.14 101.683 14.6793 101.683 14.1803V13.3358H99.61V13.9884C99.61 14.3722 99.5717 14.6793 99.4565 14.9096C99.3413 15.1783 99.2262 15.3703 99.0343 15.5238C98.8423 15.6773 98.6504 15.7925 98.4201 15.8309C98.2282 15.9077 98.0362 15.9077 97.8443 15.9077C97.1917 15.9077 96.7311 15.7157 96.5008 15.2935C96.2705 14.9096 96.1553 14.449 96.1553 13.9116V5.08294C96.1553 4.46877 96.2705 3.93138 96.5008 3.54752C96.7311 3.0869 97.2301 2.85658 97.9211 2.85658C98.4585 2.85658 98.8807 3.04851 99.1878 3.47075C99.4949 3.8546 99.6484 4.31523 99.6484 4.85263V5.4668H101.721V4.69909C101.721 4.12331 101.606 3.58591 101.414 3.12528C101.222 2.62627 100.954 2.20402 100.608 1.85855C99.8787 1.12923 98.9575 0.783758 97.8827 0.783758Z" fill="white"/>
<path d="M111.51 13.0672V14.142C111.51 14.6794 111.395 15.1784 111.203 15.6774C111.011 16.138 110.704 16.5986 110.358 16.9441C110.013 17.328 109.591 17.5966 109.092 17.827C108.631 18.0573 108.094 18.1724 107.556 18.1724C107.096 18.1724 106.597 18.0957 106.136 17.9805C105.637 17.8654 105.215 17.635 104.831 17.2896C104.447 16.9825 104.14 16.5602 103.871 16.0228C103.602 15.5238 103.487 14.8713 103.487 14.0652V4.54556C103.487 3.96978 103.602 3.47077 103.794 2.97176C103.986 2.47275 104.255 2.0505 104.639 1.70503C104.984 1.35956 105.407 1.05248 105.906 0.860552C106.405 0.668625 106.942 0.553467 107.556 0.553467C108.708 0.553467 109.667 0.937322 110.397 1.70503C110.742 2.08889 111.049 2.51113 111.241 3.01014C111.433 3.50915 111.548 4.08494 111.548 4.66072V5.62036H109.053V4.77587C109.053 4.27686 108.9 3.85462 108.631 3.50915C108.362 3.16368 107.978 2.97176 107.518 2.97176C106.904 2.97176 106.481 3.16369 106.289 3.54754C106.098 3.9314 105.982 4.39202 105.982 5.00619V13.8349C105.982 14.3339 106.098 14.7561 106.328 15.1016C106.558 15.4471 106.942 15.6006 107.518 15.6006C107.671 15.6006 107.863 15.5622 108.055 15.5238C108.247 15.4854 108.401 15.3703 108.593 15.2551C108.746 15.14 108.861 14.9481 108.938 14.7177C109.053 14.4874 109.092 14.2187 109.092 13.8733V13.0288H111.51V13.0672Z" fill="white"/>
<path d="M107.556 18.3643C107.057 18.3643 106.558 18.2876 106.059 18.1724C105.56 18.0189 105.061 17.7886 104.677 17.4431C104.255 17.0976 103.91 16.6754 103.679 16.138C103.411 15.6006 103.295 14.9096 103.295 14.1035V4.58393C103.295 4.00815 103.411 3.43236 103.602 2.93335C103.794 2.43434 104.102 1.97371 104.485 1.58986C104.869 1.206 105.33 0.937301 105.829 0.706988C106.328 0.476675 106.942 0.399902 107.556 0.399902C108.785 0.399902 109.783 0.822146 110.55 1.58986C110.934 1.97371 111.203 2.43434 111.433 2.97174C111.663 3.50914 111.74 4.08492 111.74 4.69909V5.88904H108.823V4.85263C108.823 4.392 108.708 4.04653 108.439 3.70106C108.209 3.39398 107.902 3.24044 107.479 3.24044C106.942 3.24044 106.597 3.39398 106.443 3.70106C106.251 4.04653 106.174 4.50716 106.174 5.04456V13.8732C106.174 14.3339 106.289 14.7177 106.481 15.0248C106.673 15.2935 106.98 15.447 107.479 15.447C107.633 15.447 107.787 15.4087 107.94 15.3703C108.094 15.3319 108.247 15.2551 108.401 15.1399C108.516 15.0248 108.631 14.8713 108.708 14.6793C108.785 14.4874 108.823 14.2187 108.823 13.9116V12.8368H111.702V14.1035C111.702 14.6793 111.587 15.2167 111.395 15.7157C111.164 16.2147 110.896 16.6754 110.512 17.0592C110.128 17.4431 109.706 17.7502 109.207 17.9805C108.708 18.2492 108.132 18.3643 107.556 18.3643ZM107.518 0.783758C106.942 0.783758 106.443 0.898919 105.944 1.05246C105.483 1.24439 105.061 1.51308 104.754 1.85855C104.409 2.20402 104.14 2.58788 103.986 3.04851C103.794 3.50914 103.718 4.00814 103.718 4.54554V14.0652C103.718 14.8329 103.833 15.447 104.063 15.946C104.293 16.4451 104.601 16.8289 104.984 17.136C105.33 17.4431 105.752 17.635 106.213 17.7886C107.211 18.0573 108.209 18.0573 109.053 17.6734C109.514 17.4815 109.898 17.1744 110.243 16.8289C110.589 16.4835 110.857 16.0612 111.049 15.6006C111.241 15.14 111.318 14.6793 111.318 14.1803V13.3358H109.245V13.9884C109.245 14.3722 109.207 14.6793 109.092 14.9096C108.976 15.1783 108.861 15.3703 108.669 15.5238C108.477 15.6773 108.286 15.7925 108.055 15.8309C107.863 15.9077 107.671 15.9077 107.479 15.9077C106.827 15.9077 106.366 15.7157 106.136 15.2935C105.906 14.9096 105.79 14.449 105.79 13.9116V5.08294C105.79 4.46877 105.906 3.93138 106.136 3.54752C106.366 3.0869 106.865 2.85658 107.556 2.85658C108.094 2.85658 108.516 3.04851 108.823 3.47075C109.13 3.8546 109.284 4.31523 109.284 4.85263V5.4668H111.356V4.69909C111.356 4.12331 111.241 3.58591 111.049 3.12528C110.857 2.62627 110.589 2.20402 110.243 1.85855C109.514 1.12923 108.631 0.783758 107.518 0.783758Z" fill="white"/>
<path d="M119.303 18.0189V6.77192H119.264L116.001 18.0189H113.506V0.707001H116.001V11.954H116.04L119.303 0.707001H121.759V18.0189H119.303Z" fill="white"/>
<path d="M121.989 18.2108H119.111V8.07703L116.155 18.2108H113.314V0.515076H116.193V10.6873L119.149 0.515076H121.989V18.2108ZM119.494 17.7886H121.567V0.898931H119.456L116.193 12.1459H115.771V0.898931H113.698V17.7886H115.809L119.072 6.57999H119.494V17.7886Z" fill="white"/>
<path d="M129.896 18.0189V6.77192H129.858L126.595 18.0189H124.1V0.707001H126.595V11.954H126.634L129.896 0.707001H132.353V18.0189H129.896Z" fill="white"/>
<path d="M132.584 18.2108H129.705V8.07703L126.749 18.2108H123.909V0.515076H126.788V10.6873L129.743 0.515076H132.584V18.2108ZM130.089 17.7886H132.162V0.898931H130.05L126.788 12.1459H126.365V0.898931H124.293V17.7886H126.404L129.667 6.57999H130.089V17.7886Z" fill="white"/>
<path d="M10.2105 31.876C9.98022 31.876 9.78829 31.9144 9.63475 31.9528C9.48121 31.9912 9.36605 32.1063 9.21251 32.2599C9.09735 32.4134 8.9822 32.567 8.94381 32.7973C8.90543 32.9892 8.86704 33.2579 8.82865 33.4882L8.59834 35.5227C8.59834 35.7146 8.55995 35.9449 8.52157 36.0984C8.48318 36.252 8.4448 36.4439 8.40641 36.5975C8.36803 36.751 8.32964 36.9045 8.25287 37.0581C8.13771 37.2884 8.02256 37.4803 7.9074 37.6723C7.75386 37.8258 7.6387 37.9793 7.52355 38.0561L10.0954 46.8464H7.56193L5.37396 39.1309H4.03046V46.8464H1.5354V29.5345H4.03046V36.9429H4.87494C5.18203 36.9429 5.41234 36.9045 5.56588 36.8278C5.75781 36.751 5.87297 36.6358 5.98812 36.4823C6.10328 36.3288 6.18005 36.1752 6.21844 35.9833C6.25682 35.7914 6.29521 35.5994 6.33359 35.3691L6.56391 33.2963C6.56391 33.2195 6.60229 33.1044 6.64068 32.9125C6.67907 32.7205 6.71745 32.4902 6.75583 32.2215C6.83261 31.9528 6.90938 31.6841 7.02454 31.4154C7.13969 31.1467 7.29323 30.878 7.44678 30.6477C7.75386 30.2639 8.13772 29.9951 8.55996 29.8032C9.02058 29.6497 9.5196 29.5345 10.1338 29.5345V31.876H10.2105Z" fill="white"/>
<path d="M15.2777 31.7226V36.7511C15.2777 37.0198 15.2777 37.442 15.2394 38.0562C15.2394 38.6704 15.201 39.3613 15.1242 40.0906C15.0474 40.8199 14.9707 41.5877 14.8171 42.317C14.702 43.0463 14.51 43.6605 14.2797 44.1211C13.8959 44.9656 13.3969 45.6181 12.7827 46.0788C12.1685 46.5394 11.4392 46.8081 10.5947 46.8081H10.4412V44.313C10.9402 44.2746 11.324 44.1211 11.5927 43.8908C11.8614 43.6221 12.0917 43.315 12.2837 42.9312C12.4372 42.5857 12.5524 42.1634 12.6291 41.7028C12.7059 41.2038 12.7827 40.7048 12.8211 40.129C12.8595 39.5916 12.8978 39.0158 12.9362 38.44C12.9362 37.8643 12.9746 37.2885 12.9746 36.7511V29.4962H20.1527V46.8081H17.6576V31.6842H15.2777V31.7226Z" fill="white"/>
<path d="M22.8008 44.5049C23.0311 44.5049 23.2998 44.4665 23.5685 44.4281C23.8756 44.3897 24.0675 44.2746 24.2594 44.121C24.3746 44.0059 24.5281 43.7756 24.6817 43.5069C24.8352 43.2382 24.9888 42.8159 25.1039 42.3169L25.3342 41.3573L21.6108 29.5345H24.2211L26.5626 37.6723H26.601L28.4051 29.5345H31.0153L27.4454 42.6624C27.2151 43.4685 26.9848 44.1594 26.7161 44.7736C26.4474 45.3878 26.1019 45.8868 25.6413 46.2706C25.2575 46.5777 24.8352 46.808 24.413 46.8848C23.9907 46.9616 23.4917 46.9999 22.9927 46.9999H22.6472V44.5049H22.8008Z" fill="white"/>
<path d="M32.3592 29.5345H39.4605V31.876H34.8542V36.6358H35.8139C36.6584 36.6358 37.3877 36.751 37.9635 36.9813C38.5393 37.2116 38.9999 37.5187 39.3454 37.941C39.7292 38.4016 39.9595 38.9006 40.0363 39.3996C40.1515 39.937 40.1898 40.5128 40.1898 41.127V42.0866C40.1898 43.622 39.806 44.7736 39.0767 45.5797C38.3473 46.3858 37.1574 46.808 35.5452 46.808H32.3208V29.5345H32.3592ZM34.8542 38.8238V44.3513H35.7755C36.2745 44.3513 36.6584 44.2746 36.9655 44.121C37.2342 43.9675 37.4645 43.7756 37.618 43.5069C37.7715 43.2382 37.8483 42.9311 37.8867 42.5856C37.9251 42.2401 37.9251 41.8563 37.9251 41.434C37.9251 41.0118 37.8867 40.6279 37.8483 40.2825C37.8099 39.937 37.6948 39.6683 37.5029 39.4764C37.3493 39.2845 37.119 39.0925 36.8887 38.9774C36.62 38.8622 36.2745 38.8238 35.8139 38.8238H34.8542Z" fill="white"/>
<path d="M50.7073 35.2156V37.7107L48.2506 40.129L50.7073 42.5472V45.0423L45.7939 40.129L50.7073 35.2156ZM55.1984 35.2156V37.7107L52.7417 40.129L55.1984 42.5472V45.0423L50.2851 40.129L55.1984 35.2156Z" fill="white"/>
<path d="M59.1904 36.943H62.2612V33.8721C62.2612 33.2963 62.1461 32.7973 61.9157 32.4135C61.6854 32.0296 61.3016 31.8377 60.6874 31.8377C60.1884 31.8377 59.8045 32.0296 59.5742 32.3751C59.3055 32.7206 59.1904 33.1428 59.1904 33.6418V34.4863H56.6953V33.757C56.6953 33.1428 56.8105 32.567 57.0408 31.9528C57.2711 31.3771 57.5398 30.878 57.8853 30.4942C58.2307 30.1103 58.653 29.8416 59.152 29.6497C59.651 29.4578 60.15 29.3426 60.6874 29.3426C61.2632 29.3426 61.8006 29.4578 62.2996 29.6497C62.7986 29.8416 63.2592 30.1487 63.6047 30.4942C63.9502 30.8397 64.2189 31.2619 64.4492 31.7609C64.6411 32.2599 64.7563 32.7589 64.7563 33.3347V42.6624C64.7563 43.4685 64.6411 44.1594 64.3724 44.7352C64.1037 45.311 63.7966 45.7716 63.4128 46.0787C63.0289 46.3858 62.6067 46.6161 62.1077 46.7697C61.6471 46.9232 61.148 46.9616 60.6874 46.9616C60.15 46.9616 59.6126 46.8464 59.1136 46.6161C58.6146 46.3858 58.1923 46.1171 57.8469 45.7333C57.5014 45.3494 57.2327 44.9272 57.0024 44.4665C56.8105 44.0059 56.6953 43.4685 56.6953 42.9311V41.8947H59.1904V42.7392C59.1904 43.0847 59.2288 43.3533 59.3055 43.5837C59.3823 43.814 59.4975 44.0059 59.651 44.1211C59.8045 44.2362 59.9965 44.3514 60.1884 44.3898C60.3803 44.4281 60.5339 44.4665 60.7258 44.4665C61.3016 44.4665 61.6854 44.2746 61.9157 43.9291C62.1461 43.5837 62.2612 43.1614 62.2612 42.624V39.0926H59.1904V36.943Z" fill="white"/>
<path d="M70.3605 31.7226V36.7511C70.3605 37.0198 70.3605 37.442 70.3221 38.0562C70.3221 38.6704 70.2837 39.3613 70.207 40.0906C70.1302 40.8199 70.0534 41.5877 69.8999 42.317C69.7847 43.0463 69.5928 43.6605 69.3625 44.1211C68.9786 44.9656 68.4796 45.6181 67.8654 46.0788C67.2513 46.5394 66.522 46.8081 65.6775 46.8081H65.5239V44.313C66.0229 44.2746 66.4068 44.1211 66.6755 43.8908C66.9442 43.6221 67.1745 43.315 67.3664 42.9312C67.52 42.5857 67.6351 42.1634 67.7119 41.7028C67.7887 41.2038 67.8654 40.7048 67.9038 40.129C67.9422 39.5916 67.9806 39.0158 68.019 38.44C68.019 37.8643 68.0574 37.2885 68.0574 36.7511V29.4962H75.2355V46.8081H72.7404V31.6842H70.3605V31.7226Z" fill="white"/>
<path d="M77.5774 29.5345H80.0725V36.6358H80.9937C81.8382 36.6358 82.5675 36.751 83.1433 36.9813C83.7191 37.2116 84.1797 37.5571 84.5252 37.9793C84.909 38.44 85.1393 38.9006 85.2545 39.438C85.3697 39.9754 85.408 40.5128 85.408 41.1653V42.125C85.408 43.6604 85.0242 44.812 84.2949 45.6181C83.5655 46.4242 82.3756 46.8464 80.7634 46.8464H77.5774V29.5345ZM80.0725 38.8238V44.3513H80.9553C81.4543 44.3513 81.8382 44.2746 82.1453 44.121C82.414 43.9675 82.6443 43.7756 82.7978 43.5069C82.9514 43.2382 83.0281 42.9311 83.0665 42.5856C83.1049 42.2401 83.1049 41.8563 83.1049 41.434C83.1049 40.5512 82.9514 39.8986 82.6827 39.4764C82.5291 39.2461 82.2988 39.0925 82.0685 38.9774C81.7998 38.8622 81.4543 38.8238 80.9937 38.8238H80.0725Z" fill="white"/>
<path d="M87.3655 29.5345H94.4669V31.876H89.8606V36.6358H90.8202C91.6647 36.6358 92.394 36.751 92.9698 36.9813C93.5456 37.2116 94.0062 37.5187 94.3517 37.941C94.7356 38.4016 94.9659 38.9006 95.0426 39.3996C95.1578 39.937 95.1962 40.5128 95.1962 41.127V42.0866C95.1962 43.622 94.8123 44.7736 94.083 45.5797C93.3537 46.3858 92.1637 46.808 90.5515 46.808H87.3271V29.5345H87.3655ZM89.8222 38.8238V44.3513H90.7435C91.2425 44.3513 91.6263 44.2746 91.9334 44.121C92.2021 43.9675 92.4324 43.7756 92.586 43.5069C92.7395 43.2382 92.8163 42.9311 92.8547 42.5856C92.8931 42.2401 92.8931 41.8563 92.8931 41.434C92.8931 41.0118 92.8547 40.6279 92.8163 40.2825C92.7779 39.937 92.6627 39.6683 92.4708 39.4764C92.3173 39.2845 92.087 39.0925 91.8566 38.9774C91.5879 38.8622 91.2425 38.8238 90.7818 38.8238H89.8222Z" fill="white"/>
<path d="M97.1538 46.8464V29.5345H100.877C101.568 29.5345 102.144 29.6113 102.681 29.8032C103.18 29.9951 103.679 30.3022 104.102 30.7629C104.524 31.2235 104.831 31.7609 104.984 32.3367C105.138 32.9508 105.215 33.7569 105.215 34.7933C105.215 35.5611 105.176 36.2136 105.1 36.751C105.023 37.2884 104.831 37.7874 104.524 38.248C104.178 38.8238 103.718 39.2461 103.18 39.5531C102.605 39.8602 101.875 40.0138 100.954 40.0138H99.6873V46.7696H97.1538V46.8464ZM99.6489 31.876V37.749H100.839C101.338 37.749 101.722 37.6723 101.99 37.5187C102.259 37.3652 102.451 37.1732 102.605 36.9045C102.72 36.6742 102.796 36.3672 102.835 36.0217C102.873 35.6762 102.873 35.254 102.873 34.8317C102.873 34.4095 102.873 34.0256 102.835 33.6802C102.835 33.3347 102.758 32.9892 102.605 32.7205C102.489 32.4518 102.297 32.2215 102.029 32.1064C101.76 31.9528 101.415 31.876 100.916 31.876H99.6489Z" fill="white"/>
<path d="M107.096 44.5049C107.326 44.5049 107.595 44.4665 107.863 44.4281C108.17 44.3897 108.362 44.2746 108.554 44.121C108.669 44.0059 108.823 43.7756 108.976 43.5069C109.13 43.2382 109.284 42.8159 109.399 42.3169L109.629 41.3573L105.906 29.5345H108.516L110.857 37.6723H110.896L112.7 29.5345H115.31L111.702 42.6624C111.472 43.4685 111.241 44.1594 110.973 44.7736C110.704 45.3878 110.358 45.8868 109.898 46.2706C109.514 46.5777 109.092 46.808 108.669 46.8848C108.247 46.9616 107.748 46.9999 107.249 46.9999H106.904V44.5049H107.096Z" fill="white"/>
<path d="M124.407 41.8947V42.9695C124.407 43.5069 124.292 44.0059 124.1 44.5049C123.908 44.9655 123.601 45.4262 123.256 45.7716C122.91 46.1555 122.488 46.4242 121.989 46.6545C121.528 46.8848 120.991 47 120.454 47C119.993 47 119.494 46.9232 119.033 46.808C118.534 46.6929 118.112 46.4626 117.728 46.1171C117.344 45.81 117.037 45.3878 116.769 44.8504C116.5 44.3514 116.385 43.6988 116.385 42.8927V33.3731C116.385 32.7973 116.5 32.2983 116.692 31.7993C116.884 31.3003 117.152 30.878 117.536 30.5326C117.882 30.1871 118.304 29.88 118.803 29.6881C119.302 29.4962 119.839 29.381 120.454 29.381C121.605 29.381 122.565 29.7649 123.294 30.5326C123.64 30.9164 123.947 31.3387 124.139 31.8377C124.331 32.3367 124.446 32.9125 124.446 33.4883V34.4479H121.951V33.6034C121.951 33.1044 121.797 32.6822 121.528 32.3367C121.26 31.9912 120.876 31.7993 120.415 31.7993C119.801 31.7993 119.379 31.9912 119.187 32.3751C118.995 32.7589 118.88 33.2196 118.88 33.8337V42.6624C118.88 43.1614 118.995 43.5837 119.225 43.9291C119.456 44.2746 119.839 44.4282 120.415 44.4282C120.569 44.4282 120.761 44.3898 120.953 44.3514C121.145 44.313 121.298 44.1978 121.49 44.0827C121.644 43.9675 121.759 43.7756 121.836 43.5453C121.951 43.315 121.989 43.0463 121.989 42.7008V41.8947H124.407Z" fill="white"/>
<path d="M125.943 45.0039V42.5089L128.4 40.0906L125.943 37.6723V35.1772L130.856 40.0906L125.943 45.0039ZM130.434 45.0039V42.5089L132.891 40.0906L130.434 37.6723V35.1772L135.348 40.0906L130.434 45.0039Z" fill="white"/>
<path d="M136 23.508H0V24.3525H136V23.508Z" fill="white"/>
</svg>
