<svg width="375" height="667" viewBox="0 0 375 667" fill="none" xmlns="http://www.w3.org/2000/svg">
<g clip-path="url(#clip0)">
<rect width="375" height="667" fill="white"/>
<path d="M375.869 -1.62207H1V667H375.869V-1.62207Z" fill="#F9FAF9"/>
<path fill-rule="evenodd" clip-rule="evenodd" d="M345.5 9.5H364.5C365.881 9.5 367 10.6193 367 12V18.5C367 19.8807 365.881 21 364.5 21H345.5C344.119 21 343 19.8807 343 18.5V12C343 10.6193 344.119 9.5 345.5 9.5ZM345.5 10.5C344.672 10.5 344 11.1716 344 12V18.5C344 19.3284 344.672 20 345.5 20H364.5C365.328 20 366 19.3284 366 18.5V12C366 11.1716 365.328 10.5 364.5 10.5H345.5Z" fill="black" fill-opacity="0.38"/>
<path fill-rule="evenodd" clip-rule="evenodd" d="M368 12.7998C368.89 13.255 369.5 14.1813 369.5 15.2499C369.5 16.3186 368.89 17.2449 368 17.7001V12.7998Z" fill="black" fill-opacity="0.49"/>
<path fill-rule="evenodd" clip-rule="evenodd" d="M346 11.5H364C364.552 11.5 365 11.9477 365 12.5V18C365 18.5523 364.552 19 364 19H346C345.448 19 345 18.5523 345 18V12.5C345 11.9477 345.448 11.5 346 11.5Z" fill="black"/>
<path d="M314.131 12.1641H314.107L311.869 13.7754V12.6621L314.119 11.0449H315.15V19.5H314.131V12.1641ZM320.254 19.6406C319.762 19.6406 319.322 19.5391 318.936 19.3359C318.549 19.1289 318.221 18.8359 317.951 18.457C317.686 18.0781 317.482 17.6191 317.342 17.0801C317.205 16.541 317.137 15.9375 317.137 15.2695C317.137 14.6094 317.207 14.0098 317.348 13.4707C317.488 12.9316 317.691 12.4727 317.957 12.0938C318.227 11.7148 318.553 11.4219 318.936 11.2148C319.322 11.0078 319.762 10.9043 320.254 10.9043C320.746 10.9043 321.184 11.0078 321.566 11.2148C321.953 11.418 322.279 11.709 322.545 12.0879C322.811 12.4668 323.012 12.9258 323.148 13.4648C323.289 14 323.359 14.5996 323.359 15.2637C323.359 15.9316 323.289 16.5352 323.148 17.0742C323.012 17.6133 322.811 18.0742 322.545 18.457C322.279 18.8359 321.953 19.1289 321.566 19.3359C321.184 19.5391 320.746 19.6406 320.254 19.6406ZM320.254 18.7207C320.582 18.7207 320.873 18.6406 321.127 18.4805C321.385 18.3164 321.6 18.0859 321.771 17.7891C321.943 17.4883 322.074 17.125 322.164 16.6992C322.254 16.2734 322.299 15.7969 322.299 15.2695C322.299 14.75 322.254 14.2793 322.164 13.8574C322.074 13.4316 321.941 13.0703 321.766 12.7734C321.594 12.4727 321.381 12.2402 321.127 12.0762C320.873 11.9121 320.582 11.8301 320.254 11.8301C319.926 11.8301 319.635 11.9121 319.381 12.0762C319.127 12.2402 318.912 12.4727 318.736 12.7734C318.561 13.0742 318.426 13.4355 318.332 13.8574C318.242 14.2793 318.197 14.748 318.197 15.2637C318.197 15.791 318.242 16.2676 318.332 16.6934C318.422 17.1191 318.553 17.4824 318.725 17.7832C318.9 18.084 319.115 18.3164 319.369 18.4805C319.627 18.6406 319.922 18.7207 320.254 18.7207ZM327.531 19.6406C327.039 19.6406 326.6 19.5391 326.213 19.3359C325.826 19.1289 325.498 18.8359 325.229 18.457C324.963 18.0781 324.76 17.6191 324.619 17.0801C324.482 16.541 324.414 15.9375 324.414 15.2695C324.414 14.6094 324.484 14.0098 324.625 13.4707C324.766 12.9316 324.969 12.4727 325.234 12.0938C325.504 11.7148 325.83 11.4219 326.213 11.2148C326.6 11.0078 327.039 10.9043 327.531 10.9043C328.023 10.9043 328.461 11.0078 328.844 11.2148C329.23 11.418 329.557 11.709 329.822 12.0879C330.088 12.4668 330.289 12.9258 330.426 13.4648C330.566 14 330.637 14.5996 330.637 15.2637C330.637 15.9316 330.566 16.5352 330.426 17.0742C330.289 17.6133 330.088 18.0742 329.822 18.457C329.557 18.8359 329.23 19.1289 328.844 19.3359C328.461 19.5391 328.023 19.6406 327.531 19.6406ZM327.531 18.7207C327.859 18.7207 328.15 18.6406 328.404 18.4805C328.662 18.3164 328.877 18.0859 329.049 17.7891C329.221 17.4883 329.352 17.125 329.441 16.6992C329.531 16.2734 329.576 15.7969 329.576 15.2695C329.576 14.75 329.531 14.2793 329.441 13.8574C329.352 13.4316 329.219 13.0703 329.043 12.7734C328.871 12.4727 328.658 12.2402 328.404 12.0762C328.15 11.9121 327.859 11.8301 327.531 11.8301C327.203 11.8301 326.912 11.9121 326.658 12.0762C326.404 12.2402 326.189 12.4727 326.014 12.7734C325.838 13.0742 325.703 13.4355 325.609 13.8574C325.52 14.2793 325.475 14.748 325.475 15.2637C325.475 15.791 325.52 16.2676 325.609 16.6934C325.699 17.1191 325.83 17.4824 326.002 17.7832C326.178 18.084 326.393 18.3164 326.646 18.4805C326.904 18.6406 327.199 18.7207 327.531 18.7207ZM331.967 19.5L338.154 11.0449H339.162L332.986 19.5H331.967ZM339.707 17.4844C339.707 17.8047 339.664 18.0957 339.578 18.3574C339.496 18.6152 339.377 18.8359 339.221 19.0195C339.068 19.2031 338.883 19.3457 338.664 19.4473C338.449 19.5449 338.207 19.5938 337.938 19.5938C337.668 19.5938 337.424 19.5449 337.205 19.4473C336.99 19.3457 336.805 19.2031 336.648 19.0195C336.492 18.8359 336.371 18.6152 336.285 18.3574C336.203 18.0957 336.162 17.8047 336.162 17.4844C336.162 17.168 336.203 16.8809 336.285 16.623C336.371 16.3613 336.492 16.1387 336.648 15.9551C336.805 15.7715 336.99 15.6309 337.205 15.5332C337.424 15.4316 337.668 15.3809 337.938 15.3809C338.207 15.3809 338.449 15.4316 338.664 15.5332C338.883 15.6309 339.068 15.7715 339.221 15.9551C339.377 16.1387 339.496 16.3613 339.578 16.623C339.664 16.8809 339.707 17.168 339.707 17.4844ZM337.938 18.8789C338.066 18.8789 338.182 18.8477 338.283 18.7852C338.389 18.7188 338.477 18.625 338.547 18.5039C338.617 18.3828 338.672 18.2363 338.711 18.0645C338.75 17.8926 338.77 17.6992 338.77 17.4844C338.77 17.0469 338.697 16.707 338.553 16.4648C338.408 16.2227 338.203 16.1016 337.938 16.1016C337.68 16.1016 337.475 16.2266 337.322 16.4766C337.174 16.7227 337.1 17.0586 337.1 17.4844C337.1 17.6992 337.119 17.8926 337.158 18.0645C337.197 18.2363 337.252 18.3828 337.322 18.5039C337.396 18.625 337.484 18.7188 337.586 18.7852C337.691 18.8477 337.809 18.8789 337.938 18.8789ZM335.002 13.043C335.002 13.3633 334.959 13.6543 334.873 13.916C334.791 14.1738 334.672 14.3945 334.516 14.5781C334.363 14.7617 334.178 14.9043 333.959 15.0059C333.744 15.1035 333.502 15.1523 333.232 15.1523C332.963 15.1523 332.719 15.1035 332.5 15.0059C332.285 14.9043 332.1 14.7617 331.943 14.5781C331.787 14.3945 331.666 14.1738 331.58 13.916C331.498 13.6543 331.457 13.3633 331.457 13.043C331.457 12.7266 331.498 12.4395 331.58 12.1816C331.666 11.9199 331.787 11.6973 331.943 11.5137C332.1 11.3301 332.285 11.1895 332.5 11.0918C332.719 10.9902 332.963 10.9395 333.232 10.9395C333.502 10.9395 333.744 10.9902 333.959 11.0918C334.178 11.1895 334.363 11.3301 334.516 11.5137C334.672 11.6973 334.791 11.9199 334.873 12.1816C334.959 12.4395 335.002 12.7266 335.002 13.043ZM333.232 14.4375C333.361 14.4375 333.477 14.4062 333.578 14.3438C333.684 14.2773 333.771 14.1836 333.842 14.0625C333.912 13.9414 333.967 13.7949 334.006 13.623C334.045 13.4512 334.064 13.2578 334.064 13.043C334.064 12.6055 333.992 12.2656 333.848 12.0234C333.703 11.7812 333.498 11.6602 333.232 11.6602C332.975 11.6602 332.77 11.7852 332.617 12.0352C332.469 12.2812 332.395 12.6172 332.395 13.043C332.395 13.2578 332.414 13.4512 332.453 13.623C332.492 13.7949 332.547 13.9414 332.617 14.0625C332.691 14.1836 332.779 14.2773 332.881 14.3438C332.986 14.4062 333.104 14.4375 333.232 14.4375Z" fill="black"/>
<path fill-rule="evenodd" clip-rule="evenodd" d="M300.874 11.1911L302.524 12.7808L300.874 14.2111V11.1911ZM301.47 14.9993L304 12.8074L299.996 9V9.5V10.3456V13.7213L297.622 11.665L297 12.431L299.964 14.9993L297 17.5675L297.622 18.3335L299.996 16.2772V19.6529V20.5V20.9985L304 17.1911L301.47 14.9993ZM300.874 18.8074L302.524 17.2177L300.874 15.7874V18.8074Z" fill="black"/>
<path fill-rule="evenodd" clip-rule="evenodd" d="M283.667 10.8717C283.171 10.3761 282.367 10.3761 281.872 10.8717C281.376 11.3674 281.376 12.171 281.872 12.6667L283.667 10.8717ZM288.833 10.8717C289.329 10.3761 290.133 10.3761 290.628 10.8717C291.124 11.3674 291.124 12.171 290.628 12.6667L288.833 10.8717ZM290.5 15.25C290.5 17.5972 288.597 19.5 286.25 19.5C283.903 19.5 282 17.5972 282 15.25C282 12.9028 283.903 11 286.25 11C288.597 11 290.5 12.9028 290.5 15.25ZM286.25 12.5H286.997V15.25H287.002V15.9966H286.997V16H286.25V15.9966H284.502V15.25H286.25V12.5Z" fill="black"/>
<path fill-rule="evenodd" clip-rule="evenodd" d="M265 15L275 10.5L270.5 20.5V15H265Z" fill="black"/>
<path fill-rule="evenodd" clip-rule="evenodd" d="M252.5 10C255.093 10 257.224 11.9733 257.475 14.5H259L257 16.5L255 14.5H256.519C256.273 12.4992 254.567 10.95 252.5 10.95C250.263 10.95 248.45 12.7632 248.45 15C248.45 17.2368 250.263 19.05 252.5 19.05C253.945 19.05 255.214 18.2928 255.931 17.1535L256.719 17.6851C255.831 19.0769 254.273 20 252.5 20C249.739 20 247.5 17.7614 247.5 15C247.5 12.2386 249.739 10 252.5 10ZM251 13.25V14.5C250.724 14.5 250.5 14.7239 250.5 15V17C250.5 17.2761 250.724 17.5 251 17.5H254C254.276 17.5 254.5 17.2761 254.5 17V15C254.5 14.7239 254.276 14.5 254 14.5V13.25C254 12.5596 253.44 12 252.75 12H252.25C251.56 12 251 12.5596 251 13.25ZM253.35 13.325V14.5H251.65V13.325C251.65 12.9798 251.93 12.7 252.275 12.7H252.725C253.07 12.7 253.35 12.9798 253.35 13.325Z" fill="#111111"/>
<path d="M169.143 12.1641H169.119L166.881 13.7754V12.6621L169.131 11.0449H170.162V19.5H169.143V12.1641ZM173.145 19.5586C173.051 19.5586 172.963 19.541 172.881 19.5059C172.799 19.4707 172.729 19.4238 172.67 19.3652C172.611 19.3066 172.564 19.2363 172.529 19.1543C172.494 19.0723 172.477 18.9844 172.477 18.8906C172.477 18.7969 172.494 18.709 172.529 18.627C172.564 18.5449 172.611 18.4746 172.67 18.416C172.729 18.3535 172.799 18.3066 172.881 18.2754C172.963 18.2402 173.051 18.2227 173.145 18.2227C173.336 18.2227 173.494 18.2871 173.619 18.416C173.748 18.541 173.812 18.6992 173.812 18.8906C173.812 18.9844 173.795 19.0723 173.76 19.1543C173.729 19.2363 173.682 19.3066 173.619 19.3652C173.561 19.4238 173.49 19.4707 173.408 19.5059C173.326 19.541 173.238 19.5586 173.145 19.5586ZM173.145 15.2461C173.051 15.2461 172.963 15.2285 172.881 15.1934C172.799 15.1582 172.729 15.1113 172.67 15.0527C172.611 14.9941 172.564 14.9238 172.529 14.8418C172.494 14.7598 172.477 14.6719 172.477 14.5781C172.477 14.4844 172.494 14.3965 172.529 14.3145C172.564 14.2324 172.611 14.1621 172.67 14.1035C172.729 14.041 172.799 13.9941 172.881 13.9629C172.963 13.9277 173.051 13.9102 173.145 13.9102C173.336 13.9102 173.494 13.9746 173.619 14.1035C173.748 14.2285 173.812 14.3867 173.812 14.5781C173.812 14.6719 173.795 14.7598 173.76 14.8418C173.729 14.9238 173.682 14.9941 173.619 15.0527C173.561 15.1113 173.49 15.1582 173.408 15.1934C173.326 15.2285 173.238 15.2461 173.145 15.2461ZM175.301 13.4824C175.301 13.1152 175.371 12.7734 175.512 12.457C175.652 12.1406 175.848 11.8691 176.098 11.6426C176.348 11.4121 176.643 11.2324 176.982 11.1035C177.322 10.9707 177.691 10.9043 178.09 10.9043C178.469 10.9043 178.822 10.9648 179.15 11.0859C179.479 11.207 179.764 11.373 180.006 11.584C180.248 11.791 180.439 12.0352 180.58 12.3164C180.721 12.5977 180.791 12.9004 180.791 13.2246C180.791 13.459 180.762 13.6855 180.703 13.9043C180.645 14.1191 180.543 14.3457 180.398 14.584C180.258 14.8223 180.068 15.082 179.83 15.3633C179.596 15.6445 179.303 15.9668 178.951 16.3301L176.812 18.5391V18.5625H180.932V19.5H175.354V18.7734L178.33 15.6387C178.615 15.3418 178.848 15.0859 179.027 14.8711C179.211 14.6523 179.355 14.4551 179.461 14.2793C179.566 14.1035 179.639 13.9395 179.678 13.7871C179.717 13.6309 179.736 13.4648 179.736 13.2891C179.736 13.0859 179.691 12.8965 179.602 12.7207C179.516 12.541 179.396 12.3848 179.244 12.252C179.096 12.1191 178.92 12.0156 178.717 11.9414C178.514 11.8633 178.295 11.8242 178.061 11.8242C177.814 11.8242 177.584 11.8672 177.369 11.9531C177.158 12.0352 176.975 12.1504 176.818 12.2988C176.662 12.4473 176.539 12.623 176.449 12.8262C176.363 13.0293 176.32 13.248 176.32 13.4824V13.4883H175.301V13.4824ZM185.109 19.6406C184.617 19.6406 184.178 19.5391 183.791 19.3359C183.404 19.1289 183.076 18.8359 182.807 18.457C182.541 18.0781 182.338 17.6191 182.197 17.0801C182.061 16.541 181.992 15.9375 181.992 15.2695C181.992 14.6094 182.062 14.0098 182.203 13.4707C182.344 12.9316 182.547 12.4727 182.812 12.0938C183.082 11.7148 183.408 11.4219 183.791 11.2148C184.178 11.0078 184.617 10.9043 185.109 10.9043C185.602 10.9043 186.039 11.0078 186.422 11.2148C186.809 11.418 187.135 11.709 187.4 12.0879C187.666 12.4668 187.867 12.9258 188.004 13.4648C188.145 14 188.215 14.5996 188.215 15.2637C188.215 15.9316 188.145 16.5352 188.004 17.0742C187.867 17.6133 187.666 18.0742 187.4 18.457C187.135 18.8359 186.809 19.1289 186.422 19.3359C186.039 19.5391 185.602 19.6406 185.109 19.6406ZM185.109 18.7207C185.438 18.7207 185.729 18.6406 185.982 18.4805C186.24 18.3164 186.455 18.0859 186.627 17.7891C186.799 17.4883 186.93 17.125 187.02 16.6992C187.109 16.2734 187.154 15.7969 187.154 15.2695C187.154 14.75 187.109 14.2793 187.02 13.8574C186.93 13.4316 186.797 13.0703 186.621 12.7734C186.449 12.4727 186.236 12.2402 185.982 12.0762C185.729 11.9121 185.438 11.8301 185.109 11.8301C184.781 11.8301 184.49 11.9121 184.236 12.0762C183.982 12.2402 183.768 12.4727 183.592 12.7734C183.416 13.0742 183.281 13.4355 183.188 13.8574C183.098 14.2793 183.053 14.748 183.053 15.2637C183.053 15.791 183.098 16.2676 183.188 16.6934C183.277 17.1191 183.408 17.4824 183.58 17.7832C183.756 18.084 183.971 18.3164 184.225 18.4805C184.482 18.6406 184.777 18.7207 185.109 18.7207ZM195.627 11.0449C196.025 11.0449 196.389 11.1113 196.717 11.2441C197.049 11.377 197.334 11.5625 197.572 11.8008C197.814 12.0391 198.002 12.3262 198.135 12.6621C198.268 12.9941 198.334 13.3594 198.334 13.7578C198.334 14.1602 198.266 14.5293 198.129 14.8652C197.996 15.1973 197.809 15.4844 197.566 15.7266C197.328 15.9648 197.043 16.1504 196.711 16.2832C196.379 16.416 196.014 16.4824 195.615 16.4824H193.488V19.5H192.434V11.0449H195.627ZM193.488 15.5449H195.352C195.652 15.5449 195.92 15.5059 196.154 15.4277C196.393 15.3457 196.592 15.2285 196.752 15.0762C196.916 14.9199 197.039 14.7324 197.121 14.5137C197.207 14.291 197.25 14.0391 197.25 13.7578C197.25 13.1953 197.086 12.7598 196.758 12.4512C196.43 12.1387 195.961 11.9824 195.352 11.9824H193.488V15.5449ZM207.879 19.5H206.895V12.9844H206.854L204.158 19.4414H203.268L200.572 12.9844H200.531V19.5H199.547V11.0449H200.771L203.689 18.0996H203.736L206.654 11.0449H207.879V19.5Z" fill="black"/>
<path fill-rule="evenodd" clip-rule="evenodd" d="M82.1672 15.5459C79.6288 13.0075 75.5133 13.0075 72.9749 15.5459L74.3891 16.9601C76.1464 15.2027 78.9957 15.2027 80.753 16.9601L82.1672 15.5459ZM79.6924 18.0208C78.5208 16.8492 76.6213 16.8492 75.4497 18.0208L77.571 20.1421L79.6924 18.0208Z" fill="black"/>
<path fill-rule="evenodd" clip-rule="evenodd" d="M70.5 13.071C74.4052 9.16578 80.7369 9.16578 84.6421 13.071L83.2279 14.4852C80.1037 11.361 75.0384 11.361 71.9142 14.4852L70.5 13.071Z" fill="black" fill-opacity="0.25"/>
<path d="M30.3008 19.6406C29.7188 19.6406 29.1914 19.5391 28.7188 19.3359C28.25 19.1289 27.8496 18.8359 27.5176 18.457C27.1895 18.0781 26.9355 17.6191 26.7559 17.0801C26.5801 16.541 26.4922 15.9375 26.4922 15.2695C26.4922 14.6055 26.582 14.0059 26.7617 13.4707C26.9414 12.9316 27.1973 12.4727 27.5293 12.0938C27.8613 11.7109 28.2617 11.418 28.7305 11.2148C29.1992 11.0078 29.7227 10.9043 30.3008 10.9043C30.7617 10.9043 31.1895 10.9727 31.584 11.1094C31.9824 11.2422 32.3359 11.4316 32.6445 11.6777C32.9531 11.9199 33.207 12.2148 33.4062 12.5625C33.6094 12.9062 33.7441 13.2891 33.8105 13.7109H32.7441C32.6777 13.4336 32.5684 13.1836 32.416 12.9609C32.2676 12.7344 32.0859 12.541 31.8711 12.3809C31.6602 12.2207 31.4199 12.0977 31.1504 12.0117C30.8848 11.9219 30.6016 11.877 30.3008 11.877C29.8867 11.877 29.5117 11.957 29.1758 12.1172C28.8398 12.2773 28.5527 12.5059 28.3145 12.8027C28.0801 13.0996 27.8984 13.457 27.7695 13.875C27.6406 14.2891 27.5762 14.7539 27.5762 15.2695C27.5762 15.7891 27.6387 16.2578 27.7637 16.6758C27.8926 17.0938 28.0762 17.4512 28.3145 17.748C28.5527 18.041 28.8398 18.2676 29.1758 18.4277C29.5117 18.5879 29.8887 18.668 30.3066 18.668C30.6152 18.668 30.9023 18.6328 31.168 18.5625C31.4336 18.4883 31.6699 18.3809 31.877 18.2402C32.084 18.0996 32.2598 17.9297 32.4043 17.7305C32.5527 17.5273 32.666 17.2969 32.7441 17.0391H33.8105C33.6152 17.8789 33.2168 18.5234 32.6152 18.9727C32.0137 19.418 31.2422 19.6406 30.3008 19.6406ZM36.9422 18.6738C37.2 18.6738 37.4383 18.6348 37.657 18.5566C37.8758 18.4785 38.0633 18.3691 38.2195 18.2285C38.3797 18.0879 38.5047 17.9219 38.5945 17.7305C38.6844 17.5352 38.7293 17.3242 38.7293 17.0977V16.5879L37.077 16.6934C36.6004 16.7246 36.241 16.8262 35.9988 16.998C35.7566 17.166 35.6355 17.4023 35.6355 17.707C35.6355 17.8555 35.6648 17.9883 35.7234 18.1055C35.7859 18.2227 35.8738 18.3242 35.9871 18.4102C36.1043 18.4961 36.243 18.5625 36.4031 18.6094C36.5633 18.6523 36.743 18.6738 36.9422 18.6738ZM36.7254 19.5586C36.4051 19.5586 36.1141 19.5156 35.8523 19.4297C35.5906 19.3398 35.366 19.2148 35.1785 19.0547C34.991 18.8906 34.8465 18.6953 34.7449 18.4688C34.6434 18.2383 34.5926 17.9824 34.5926 17.7012C34.5926 17.1543 34.7937 16.7266 35.1961 16.418C35.5984 16.1094 36.1863 15.9316 36.9598 15.8848L38.7293 15.7793V15.252C38.7293 14.8574 38.6043 14.5566 38.3543 14.3496C38.1082 14.1387 37.7508 14.0332 37.282 14.0332C37.0984 14.0332 36.9285 14.0566 36.7723 14.1035C36.616 14.1465 36.4754 14.2109 36.3504 14.2969C36.2293 14.3789 36.1277 14.4805 36.0457 14.6016C35.9676 14.7227 35.9129 14.8574 35.8816 15.0059H34.9031C34.9109 14.7402 34.9773 14.4922 35.1023 14.2617C35.2273 14.0312 35.3973 13.832 35.6121 13.6641C35.827 13.4961 36.077 13.3652 36.3621 13.2715C36.6512 13.1738 36.9617 13.125 37.2937 13.125C37.6687 13.125 38.0066 13.1738 38.3074 13.2715C38.6082 13.3652 38.866 13.502 39.0809 13.6816C39.2957 13.8574 39.4598 14.0723 39.573 14.3262C39.6902 14.5762 39.7488 14.8555 39.7488 15.1641V19.5H38.782V18.4043H38.7586C38.6687 18.5801 38.5535 18.7402 38.4129 18.8848C38.2723 19.0254 38.1141 19.1465 37.9383 19.248C37.7625 19.3457 37.5711 19.4219 37.3641 19.4766C37.1609 19.5312 36.948 19.5586 36.7254 19.5586ZM41.0523 13.1836H42.0133V14.209H42.0367C42.0836 14.0449 42.1539 13.8965 42.2477 13.7637C42.3453 13.627 42.4605 13.5117 42.5934 13.418C42.7262 13.3242 42.8746 13.252 43.0387 13.2012C43.2066 13.1504 43.3824 13.125 43.566 13.125C43.6285 13.125 43.6988 13.1289 43.777 13.1367C43.8551 13.1445 43.9156 13.1543 43.9586 13.166V14.1738C43.9156 14.1543 43.8395 14.1387 43.7301 14.127C43.6207 14.1113 43.5211 14.1035 43.4312 14.1035C43.2242 14.1035 43.0367 14.1406 42.8687 14.2148C42.7047 14.2852 42.5621 14.3848 42.441 14.5137C42.3238 14.6426 42.232 14.7988 42.1656 14.9824C42.1031 15.166 42.0719 15.3691 42.0719 15.5918V19.5H41.0523V13.1836ZM44.8109 13.1836H45.7719V14.209H45.7953C45.8422 14.0449 45.9125 13.8965 46.0063 13.7637C46.1039 13.627 46.2191 13.5117 46.352 13.418C46.4848 13.3242 46.6332 13.252 46.7973 13.2012C46.9652 13.1504 47.141 13.125 47.3246 13.125C47.3871 13.125 47.4574 13.1289 47.5355 13.1367C47.6137 13.1445 47.6742 13.1543 47.7172 13.166V14.1738C47.6742 14.1543 47.598 14.1387 47.4887 14.127C47.3793 14.1113 47.2797 14.1035 47.1898 14.1035C46.9828 14.1035 46.7953 14.1406 46.6273 14.2148C46.4633 14.2852 46.3207 14.3848 46.1996 14.5137C46.0824 14.6426 45.9906 14.7988 45.9242 14.9824C45.8617 15.166 45.8305 15.3691 45.8305 15.5918V19.5H44.8109V13.1836ZM48.6281 13.1836H49.6477V19.5H48.6281V13.1836ZM49.1379 12.1641C49.048 12.1641 48.9641 12.1484 48.8859 12.1172C48.8078 12.082 48.7395 12.0352 48.6809 11.9766C48.6223 11.918 48.5754 11.8496 48.5402 11.7715C48.509 11.6934 48.4934 11.6094 48.4934 11.5195C48.4934 11.4297 48.509 11.3457 48.5402 11.2676C48.5754 11.1895 48.6223 11.1211 48.6809 11.0625C48.7395 11.0039 48.8078 10.959 48.8859 10.9277C48.9641 10.8926 49.048 10.875 49.1379 10.875C49.2277 10.875 49.3117 10.8926 49.3898 10.9277C49.468 10.959 49.5363 11.0039 49.5949 11.0625C49.6535 11.1211 49.6984 11.1895 49.7297 11.2676C49.7648 11.3457 49.7824 11.4297 49.7824 11.5195C49.7824 11.6094 49.7648 11.6934 49.7297 11.7715C49.6984 11.8496 49.6535 11.918 49.5949 11.9766C49.5363 12.0352 49.468 12.082 49.3898 12.1172C49.3117 12.1484 49.2277 12.1641 49.1379 12.1641ZM53.5586 14.0215C53.3125 14.0215 53.084 14.0645 52.873 14.1504C52.6621 14.2363 52.4785 14.3574 52.3223 14.5137C52.1699 14.6699 52.0449 14.8594 51.9473 15.082C51.8535 15.3008 51.7988 15.543 51.7832 15.8086H55.2578C55.25 15.5391 55.2031 15.2949 55.1172 15.0762C55.0352 14.8574 54.9199 14.6699 54.7715 14.5137C54.623 14.3574 54.4453 14.2363 54.2383 14.1504C54.0352 14.0645 53.8086 14.0215 53.5586 14.0215ZM56.2422 17.6953C56.1992 17.9648 56.1016 18.2148 55.9492 18.4453C55.7969 18.6719 55.6035 18.8691 55.3691 19.0371C55.1387 19.2012 54.873 19.3301 54.5723 19.4238C54.2754 19.5137 53.959 19.5586 53.623 19.5586C53.1777 19.5586 52.7773 19.4844 52.4219 19.3359C52.0664 19.1875 51.7617 18.9746 51.5078 18.6973C51.2578 18.4199 51.0645 18.084 50.9277 17.6895C50.7949 17.2949 50.7285 16.8535 50.7285 16.3652C50.7285 15.877 50.7949 15.4336 50.9277 15.0352C51.0645 14.6367 51.2559 14.2969 51.502 14.0156C51.752 13.7305 52.0527 13.5117 52.4043 13.3594C52.7559 13.2031 53.1465 13.125 53.5762 13.125C53.998 13.125 54.377 13.1973 54.7129 13.3418C55.0527 13.4863 55.3418 13.6934 55.5801 13.9629C55.8184 14.2285 56 14.5527 56.125 14.9355C56.2539 15.3184 56.3184 15.748 56.3184 16.2246V16.623H51.7832V16.6816C51.7832 16.9824 51.8262 17.2559 51.9121 17.502C52.002 17.7441 52.1289 17.9512 52.293 18.123C52.457 18.2949 52.6523 18.4277 52.8789 18.5215C53.1094 18.6152 53.3652 18.6621 53.6465 18.6621C53.8457 18.6621 54.0312 18.6406 54.2031 18.5977C54.375 18.5508 54.5293 18.4863 54.666 18.4043C54.8066 18.3184 54.9238 18.2168 55.0176 18.0996C55.1152 17.9785 55.1875 17.8438 55.2344 17.6953H56.2422ZM57.3406 13.1836H58.3016V14.209H58.325C58.3719 14.0449 58.4422 13.8965 58.5359 13.7637C58.6336 13.627 58.7488 13.5117 58.8816 13.418C59.0145 13.3242 59.1629 13.252 59.327 13.2012C59.4949 13.1504 59.6707 13.125 59.8543 13.125C59.9168 13.125 59.9871 13.1289 60.0652 13.1367C60.1434 13.1445 60.2039 13.1543 60.2469 13.166V14.1738C60.2039 14.1543 60.1277 14.1387 60.0184 14.127C59.909 14.1113 59.8094 14.1035 59.7195 14.1035C59.5125 14.1035 59.325 14.1406 59.157 14.2148C58.993 14.2852 58.8504 14.3848 58.7293 14.5137C58.6121 14.6426 58.5203 14.7988 58.4539 14.9824C58.3914 15.166 58.3602 15.3691 58.3602 15.5918V19.5H57.3406V13.1836Z" fill="black"/>
<path fill-rule="evenodd" clip-rule="evenodd" d="M20.5 10H21.5C22.0523 10 22.5 10.4477 22.5 11V19C22.5 19.5523 22.0523 20 21.5 20H20.5C19.9477 20 19.5 19.5523 19.5 19V11C19.5 10.4477 19.9477 10 20.5 10Z" fill="black" fill-opacity="0.25"/>
<path fill-rule="evenodd" clip-rule="evenodd" d="M17 12H16C15.4477 12 15 12.4477 15 13V19C15 19.5523 15.4477 20 16 20H17C17.5523 20 18 19.5523 18 19V13C18 12.4477 17.5523 12 17 12ZM11.5 14H12.5C13.0523 14 13.5 14.4477 13.5 15V19C13.5 19.5523 13.0523 20 12.5 20H11.5C10.9477 20 10.5 19.5523 10.5 19V15C10.5 14.4477 10.9477 14 11.5 14ZM7 15.5H8C8.55228 15.5 9 15.9477 9 16.5V19C9 19.5523 8.55228 20 8 20H7C6.44772 20 6 19.5523 6 19V16.5C6 15.9477 6.44772 15.5 7 15.5Z" fill="black"/>
<circle cx="141" cy="492" r="6" fill="#DEE2E6"/>
<circle cx="172" cy="492" r="6" fill="#DEE2E6"/>
<circle cx="234" cy="492" r="6" fill="#1B3259"/>
<circle cx="203" cy="492" r="6" fill="#DEE2E6"/>
<path d="M49.7148 329.352C52.9668 329.352 55.3496 327.428 55.6816 324.576H53.2012C52.8594 326.158 51.502 327.164 49.7148 327.164C47.3125 327.164 45.8184 325.162 45.8184 321.949C45.8184 318.746 47.3125 316.744 49.7051 316.744C51.4824 316.744 52.8398 317.848 53.1914 319.547H55.6719C55.3789 316.627 52.9082 314.557 49.7051 314.557C45.7109 314.557 43.2402 317.379 43.2402 321.959C43.2402 326.52 45.7207 329.352 49.7148 329.352ZM65.2617 329H67.6836V318.326H58.416V329H60.8379V320.221H65.2617V329ZM73.7871 329.176C75.1836 329.176 76.3555 328.57 76.9512 327.535H77.1172V329H79.4512V321.705C79.4512 319.449 77.9082 318.121 75.1641 318.121C72.625 318.121 70.8574 319.312 70.6621 321.178H72.9473C73.1719 320.445 73.9336 320.045 75.0469 320.045C76.3555 320.045 77.0586 320.641 77.0586 321.705V322.623L74.3047 322.789C71.707 322.936 70.252 324.059 70.252 325.973C70.252 327.926 71.7266 329.176 73.7871 329.176ZM74.5 327.311C73.4258 327.311 72.6543 326.773 72.6543 325.855C72.6543 324.967 73.2891 324.469 74.6465 324.381L77.0586 324.215V325.084C77.0586 326.354 75.9648 327.311 74.5 327.311ZM91.7949 321.891C91.541 319.684 89.8809 318.121 87.1367 318.121C83.9238 318.121 82.0391 320.182 82.0391 323.639C82.0391 327.135 83.9336 329.215 87.1465 329.215C89.8516 329.215 91.5312 327.711 91.7949 325.504H89.4902C89.2363 326.627 88.3965 327.223 87.1367 327.223C85.4863 327.223 84.4902 325.904 84.4902 323.639C84.4902 321.412 85.4766 320.104 87.1367 320.104C88.4648 320.104 89.2656 320.855 89.4902 321.891H91.7949ZM96.6875 329L101.238 321.812H101.404V329H103.797V318.326H101.404L96.8535 325.475H96.6875V318.326H94.2949V329H96.6875ZM111.678 329.215C114.861 329.215 116.834 327.145 116.834 323.775C116.834 320.592 114.93 318.648 112.137 318.648C110.369 318.648 109.197 319.459 108.553 320.65H108.387C108.68 318.189 109.539 316.822 112.254 316.715L113.484 316.666C115.438 316.598 116.131 316.139 116.131 316.139V314.176C116.141 314.176 115.008 314.596 113.338 314.664L112.078 314.713C108.025 314.879 106.463 317.584 106.463 322.818C106.463 327.115 108.377 329.215 111.678 329.215ZM111.648 327.232C109.93 327.232 108.953 325.992 108.953 323.824C108.953 321.754 109.939 320.553 111.648 320.553C113.357 320.553 114.344 321.754 114.344 323.824C114.344 325.992 113.357 327.232 111.648 327.232ZM124.109 329.215C127.303 329.215 129.246 327.125 129.246 323.658C129.246 320.211 127.293 318.121 124.109 318.121C120.936 318.121 118.973 320.221 118.973 323.658C118.973 327.125 120.906 329.215 124.109 329.215ZM124.109 327.232C122.42 327.232 121.453 325.924 121.453 323.668C121.453 321.412 122.42 320.104 124.109 320.104C125.789 320.104 126.756 321.412 126.756 323.668C126.756 325.924 125.799 327.232 124.109 327.232ZM141.209 329.205C143.953 329.205 145.701 327.838 145.701 325.855C145.701 324.645 144.988 323.795 143.494 323.502V323.336C144.646 323.072 145.359 322.203 145.359 321.07C145.359 319.254 143.797 318.111 141.268 318.111C138.621 318.111 137.117 319.41 136.902 321.314H139.207C139.334 320.523 140.066 320.016 141.189 320.016C142.4 320.016 142.986 320.592 142.986 321.363C142.986 322.252 142.4 322.76 141.16 322.76H139.637V324.4H141.17C142.557 324.4 143.289 324.869 143.289 325.826C143.289 326.715 142.508 327.311 141.18 327.311C140.008 327.311 139.197 326.842 138.982 325.973H136.619C136.824 328.102 138.748 329.205 141.209 329.205ZM151.287 329.176C152.684 329.176 153.855 328.57 154.451 327.535H154.617V329H156.951V321.705C156.951 319.449 155.408 318.121 152.664 318.121C150.125 318.121 148.357 319.312 148.162 321.178H150.447C150.672 320.445 151.434 320.045 152.547 320.045C153.855 320.045 154.559 320.641 154.559 321.705V322.623L151.805 322.789C149.207 322.936 147.752 324.059 147.752 325.973C147.752 327.926 149.227 329.176 151.287 329.176ZM152 327.311C150.926 327.311 150.154 326.773 150.154 325.855C150.154 324.967 150.789 324.469 152.146 324.381L154.559 324.215V325.084C154.559 326.354 153.465 327.311 152 327.311ZM168.338 329.176C169.734 329.176 170.906 328.57 171.502 327.535H171.668V329H174.002V321.705C174.002 319.449 172.459 318.121 169.715 318.121C167.176 318.121 165.408 319.312 165.213 321.178H167.498C167.723 320.445 168.484 320.045 169.598 320.045C170.906 320.045 171.609 320.641 171.609 321.705V322.623L168.855 322.789C166.258 322.936 164.803 324.059 164.803 325.973C164.803 327.926 166.277 329.176 168.338 329.176ZM169.051 327.311C167.977 327.311 167.205 326.773 167.205 325.855C167.205 324.967 167.84 324.469 169.197 324.381L171.609 324.215V325.084C171.609 326.354 170.516 327.311 169.051 327.311ZM182.225 329C184.598 329 186.043 327.779 186.043 325.953C186.043 324.654 185.115 323.678 183.709 323.521V323.355C184.793 323.17 185.564 322.184 185.564 321.061C185.564 319.41 184.305 318.326 182.156 318.326H177.107V329H182.225ZM179.5 320.006H181.6C182.674 320.006 183.191 320.553 183.191 321.373C183.191 322.271 182.605 322.76 181.404 322.76H179.5V320.006ZM179.5 324.391H181.58C182.908 324.391 183.592 324.879 183.592 325.846C183.592 326.773 182.977 327.32 181.805 327.32H179.5V324.391ZM196.277 318.326H187.273V320.221H190.564V329H192.986V320.221H196.277V318.326ZM202.859 329.215C206.053 329.215 207.996 327.125 207.996 323.658C207.996 320.211 206.043 318.121 202.859 318.121C199.686 318.121 197.723 320.221 197.723 323.658C197.723 327.125 199.656 329.215 202.859 329.215ZM202.859 327.232C201.17 327.232 200.203 325.924 200.203 323.668C200.203 321.412 201.17 320.104 202.859 320.104C204.539 320.104 205.506 321.412 205.506 323.668C205.506 325.924 204.549 327.232 202.859 327.232ZM216.453 318.15C214.988 318.15 213.748 318.883 213.133 320.094H212.967V318.326H210.633V332.545H213.055V327.379H213.221C213.768 328.512 214.949 329.176 216.482 329.176C219.178 329.176 220.857 327.057 220.857 323.668C220.857 320.25 219.158 318.15 216.453 318.15ZM215.691 327.164C214.041 327.164 213.016 325.826 213.006 323.668C213.016 321.51 214.051 320.172 215.701 320.172C217.361 320.172 218.367 321.48 218.367 323.668C218.367 325.855 217.371 327.164 215.691 327.164ZM225.867 329L230.418 321.812H230.584V329H232.977V318.326H230.584L226.033 325.475H225.867V318.326H223.475V329H225.867ZM240.135 329.205C242.879 329.205 244.627 327.838 244.627 325.855C244.627 324.645 243.914 323.795 242.42 323.502V323.336C243.572 323.072 244.285 322.203 244.285 321.07C244.285 319.254 242.723 318.111 240.193 318.111C237.547 318.111 236.043 319.41 235.828 321.314H238.133C238.26 320.523 238.992 320.016 240.115 320.016C241.326 320.016 241.912 320.592 241.912 321.363C241.912 322.252 241.326 322.76 240.086 322.76H238.562V324.4H240.096C241.482 324.4 242.215 324.869 242.215 325.826C242.215 326.715 241.434 327.311 240.105 327.311C238.934 327.311 238.123 326.842 237.908 325.973H235.545C235.75 328.102 237.674 329.205 240.135 329.205ZM250.213 329.176C251.609 329.176 252.781 328.57 253.377 327.535H253.543V329H255.877V321.705C255.877 319.449 254.334 318.121 251.59 318.121C249.051 318.121 247.283 319.312 247.088 321.178H249.373C249.598 320.445 250.359 320.045 251.473 320.045C252.781 320.045 253.484 320.641 253.484 321.705V322.623L250.73 322.789C248.133 322.936 246.678 324.059 246.678 325.973C246.678 327.926 248.152 329.176 250.213 329.176ZM250.926 327.311C249.852 327.311 249.08 326.773 249.08 325.855C249.08 324.967 249.715 324.469 251.072 324.381L253.484 324.215V325.084C253.484 326.354 252.391 327.311 250.926 327.311ZM269.822 331.783V327.115H268.182V318.326H265.77V327.115H261.404V318.326H258.982V329H267.596V331.783H269.822ZM274.285 329L278.836 321.812H279.002V329H281.395V318.326H279.002L274.451 325.475H274.285V318.326H271.893V329H274.285ZM293.67 329.215C296.805 329.215 298.738 327.145 298.738 323.658C298.738 320.201 296.795 318.121 293.67 318.121C290.896 318.121 289.061 319.771 288.67 322.555H286.971V318.326H284.549V329H286.971V324.449H288.641C288.914 327.447 290.779 329.215 293.67 329.215ZM293.66 327.232C292.01 327.232 291.072 325.934 291.072 323.668C291.072 321.402 292.02 320.104 293.66 320.104C295.301 320.104 296.248 321.402 296.248 323.668C296.248 325.934 295.301 327.232 293.66 327.232ZM309.422 329V314.908H306.902V329H309.422ZM312.898 314.908V329H318.182C322.4 329 324.812 326.412 324.812 321.891C324.812 317.467 322.371 314.908 318.182 314.908H312.898ZM315.418 317.027H317.85C320.613 317.027 322.244 318.824 322.244 321.93C322.244 325.104 320.652 326.881 317.85 326.881H315.418V317.027ZM328.006 314.898L328.23 324.342H330.486L330.711 314.898H328.006ZM329.363 329.244C330.35 329.244 330.984 328.639 330.984 327.711C330.984 326.773 330.35 326.168 329.363 326.168C328.377 326.168 327.742 326.773 327.742 327.711C327.742 328.639 328.377 329.244 329.363 329.244Z" fill="#1B3259"/>
<path d="M78.5107 365.74C75.124 365.74 73.0156 368.155 73.0156 372.007C73.0156 375.842 75.0742 378.282 78.5107 378.282C81.9307 378.282 84.0059 375.833 84.0059 372.007C84.0059 368.164 81.9141 365.74 78.5107 365.74ZM78.5107 367.118C80.9595 367.118 82.4702 369.01 82.4702 372.007C82.4702 374.979 80.9678 376.904 78.5107 376.904C76.0205 376.904 74.5513 374.979 74.5513 372.007C74.5513 369.01 76.0703 367.118 78.5107 367.118ZM93.9834 371.791C93.7344 370.197 92.4062 368.894 90.2314 368.894C87.7246 368.894 86.1309 370.704 86.1309 373.493C86.1309 376.34 87.7329 378.158 90.2397 378.158C92.3896 378.158 93.7261 376.946 93.9834 375.302H92.5391C92.2734 376.315 91.4351 376.871 90.2314 376.871C88.6377 376.871 87.6084 375.56 87.6084 373.493C87.6084 371.467 88.6211 370.181 90.2314 370.181C91.5181 370.181 92.3066 370.903 92.5391 371.791H93.9834ZM102.317 369.052H95.0791V370.247H97.9844V378H99.4121V370.247H102.317V369.052ZM107.032 376.904C105.995 376.904 105.223 376.373 105.223 375.46C105.223 374.563 105.82 374.09 107.182 373.999L109.589 373.841V374.663C109.589 375.941 108.501 376.904 107.032 376.904ZM106.767 378.158C107.962 378.158 108.941 377.635 109.522 376.68H109.655V378H111.017V371.874C111.017 370.015 109.796 368.894 107.613 368.894C105.704 368.894 104.293 369.84 104.102 371.276H105.546C105.746 370.571 106.493 370.164 107.563 370.164C108.9 370.164 109.589 370.77 109.589 371.874V372.688L107.007 372.845C104.924 372.97 103.745 373.891 103.745 375.493C103.745 377.128 105.032 378.158 106.767 378.158ZM115.964 374.074L116.246 370.247H119.375V378H120.803V369.052H114.951L114.603 374.041C114.486 375.701 114.146 376.738 113.258 376.738C113.05 376.738 112.884 376.697 112.81 376.672V377.983C112.909 378.025 113.075 378.075 113.333 378.075C115.192 378.075 115.781 376.531 115.964 374.074ZM127.328 378.158C129.876 378.158 131.453 376.398 131.453 373.526C131.453 370.646 129.876 368.894 127.328 368.894C124.779 368.894 123.202 370.646 123.202 373.526C123.202 376.398 124.779 378.158 127.328 378.158ZM127.328 376.871C125.634 376.871 124.68 375.643 124.68 373.526C124.68 371.401 125.634 370.181 127.328 370.181C129.021 370.181 129.976 371.401 129.976 373.526C129.976 375.643 129.021 376.871 127.328 376.871ZM141.265 371.791C141.016 370.197 139.688 368.894 137.513 368.894C135.006 368.894 133.412 370.704 133.412 373.493C133.412 376.34 135.014 378.158 137.521 378.158C139.671 378.158 141.007 376.946 141.265 375.302H139.82C139.555 376.315 138.716 376.871 137.513 376.871C135.919 376.871 134.89 375.56 134.89 373.493C134.89 371.467 135.902 370.181 137.513 370.181C138.799 370.181 139.588 370.903 139.82 371.791H141.265ZM146.727 373.119C147.897 373.119 148.661 373.841 148.661 374.962C148.661 376.074 147.905 376.805 146.727 376.805H144.958V373.119H146.727ZM143.531 378H146.727C148.777 378 150.088 376.821 150.088 374.962C150.088 373.103 148.777 371.924 146.727 371.924H144.958V369.052H143.531V378ZM164.523 371.791C164.274 370.197 162.946 368.894 160.771 368.894C158.265 368.894 156.671 370.704 156.671 373.493C156.671 376.34 158.273 378.158 160.78 378.158C162.93 378.158 164.266 376.946 164.523 375.302H163.079C162.813 376.315 161.975 376.871 160.771 376.871C159.178 376.871 158.148 375.56 158.148 373.493C158.148 371.467 159.161 370.181 160.771 370.181C162.058 370.181 162.847 370.903 163.079 371.791H164.523ZM170.475 378.158C173.023 378.158 174.601 376.398 174.601 373.526C174.601 370.646 173.023 368.894 170.475 368.894C167.927 368.894 166.35 370.646 166.35 373.526C166.35 376.398 167.927 378.158 170.475 378.158ZM170.475 376.871C168.782 376.871 167.827 375.643 167.827 373.526C167.827 371.401 168.782 370.181 170.475 370.181C172.168 370.181 173.123 371.401 173.123 373.526C173.123 375.643 172.168 376.871 170.475 376.871ZM180.81 378C182.735 378 183.873 376.987 183.873 375.427C183.873 374.381 183.15 373.584 182.013 373.426V373.293C182.852 373.119 183.474 372.272 183.474 371.384C183.474 369.973 182.486 369.052 180.793 369.052H177V378H180.81ZM178.427 370.247H180.61C181.615 370.247 182.063 370.762 182.063 371.534C182.063 372.389 181.54 372.837 180.378 372.837H178.427V370.247ZM178.427 374.032H180.502C181.789 374.032 182.453 374.456 182.453 375.402C182.453 376.307 181.872 376.805 180.776 376.805H178.427V374.032ZM193.643 371.791C193.394 370.197 192.065 368.894 189.891 368.894C187.384 368.894 185.79 370.704 185.79 373.493C185.79 376.34 187.392 378.158 189.899 378.158C192.049 378.158 193.385 376.946 193.643 375.302H192.198C191.933 376.315 191.094 376.871 189.891 376.871C188.297 376.871 187.268 375.56 187.268 373.493C187.268 371.467 188.28 370.181 189.891 370.181C191.177 370.181 191.966 370.903 192.198 371.791H193.643ZM199.486 370.156C200.906 370.156 201.852 371.202 201.885 372.787H196.955C197.062 371.202 198.059 370.156 199.486 370.156ZM201.844 375.684C201.47 376.473 200.69 376.896 199.536 376.896C198.017 376.896 197.029 375.775 196.955 374.007V373.941H203.388V373.393C203.388 370.612 201.918 368.894 199.503 368.894C197.046 368.894 195.469 370.72 195.469 373.534C195.469 376.365 197.021 378.158 199.503 378.158C201.462 378.158 202.856 377.211 203.271 375.684H201.844ZM207.214 378V371.633H207.372L210.203 377.751H211.315L214.146 371.633H214.303V378H215.739V369.052H214.071L210.858 375.991H210.726L207.521 369.052H205.787V378H207.214ZM229.278 378H230.706V369.052H229.278V372.754H224.812V369.052H223.384V378H224.812V373.949H229.278V378ZM237.122 370.156C238.542 370.156 239.488 371.202 239.521 372.787H234.59C234.698 371.202 235.694 370.156 237.122 370.156ZM239.479 375.684C239.106 376.473 238.326 376.896 237.172 376.896C235.653 376.896 234.665 375.775 234.59 374.007V373.941H241.023V373.393C241.023 370.612 239.554 368.894 237.139 368.894C234.682 368.894 233.104 370.72 233.104 373.534C233.104 376.365 234.657 378.158 237.139 378.158C239.098 378.158 240.492 377.211 240.907 375.684H239.479ZM244.85 378V371.633H245.008L247.838 377.751H248.951L251.781 371.633H251.939V378H253.375V369.052H251.707L248.494 375.991H248.361L245.157 369.052H243.422V378H244.85ZM262.116 378H263.543V369.052H262.116V372.754H257.65V369.052H256.222V378H257.65V373.949H262.116V378ZM270.068 378.158C272.616 378.158 274.193 376.398 274.193 373.526C274.193 370.646 272.616 368.894 270.068 368.894C267.52 368.894 265.942 370.646 265.942 373.526C265.942 376.398 267.52 378.158 270.068 378.158ZM270.068 376.871C268.375 376.871 267.42 375.643 267.42 373.526C267.42 371.401 268.375 370.181 270.068 370.181C271.761 370.181 272.716 371.401 272.716 373.526C272.716 375.643 271.761 376.871 270.068 376.871ZM282.32 370.247V369.052H276.592V378H278.02V370.247H282.32ZM287.931 378.158C290.479 378.158 292.057 376.398 292.057 373.526C292.057 370.646 290.479 368.894 287.931 368.894C285.383 368.894 283.806 370.646 283.806 373.526C283.806 376.398 285.383 378.158 287.931 378.158ZM287.931 376.871C286.238 376.871 285.283 375.643 285.283 373.526C285.283 371.401 286.238 370.181 287.931 370.181C289.625 370.181 290.579 371.401 290.579 373.526C290.579 375.643 289.625 376.871 287.931 376.871ZM294.846 366.014L294.987 374.016H296.365L296.506 366.014H294.846ZM295.684 378.149C296.356 378.149 296.83 377.668 296.83 376.996C296.83 376.315 296.356 375.833 295.684 375.833C295.012 375.833 294.53 376.315 294.53 376.996C294.53 377.668 295.012 378.149 295.684 378.149ZM34.2344 396.546H35.9194C37.729 396.546 38.7583 397.385 38.7583 398.729C38.7583 400.024 37.6626 400.954 35.9775 400.954C34.3174 400.954 33.1885 400.132 33.0557 398.879H31.6113C31.7192 400.921 33.4624 402.282 35.9941 402.282C38.4097 402.282 40.2939 400.747 40.2939 398.771C40.2939 397.053 39.165 395.982 37.6377 395.824V395.691C38.9658 395.359 39.8706 394.247 39.8706 392.944C39.8706 391.076 38.2769 389.74 36.0273 389.74C33.645 389.74 32.0928 391.018 31.9434 393.093H33.396C33.5205 391.823 34.4917 391.068 35.9692 391.068C37.48 391.068 38.3516 391.873 38.3516 393.077C38.3516 394.33 37.3721 395.218 35.853 395.218H34.2344V396.546ZM45.3906 400.904C44.353 400.904 43.5811 400.373 43.5811 399.46C43.5811 398.563 44.1787 398.09 45.54 397.999L47.9473 397.841V398.663C47.9473 399.941 46.8599 400.904 45.3906 400.904ZM45.125 402.158C46.3203 402.158 47.2998 401.635 47.8809 400.68H48.0137V402H49.375V395.874C49.375 394.015 48.1548 392.894 45.9717 392.894C44.0625 392.894 42.6514 393.84 42.4604 395.276H43.9048C44.104 394.571 44.8511 394.164 45.9219 394.164C47.2583 394.164 47.9473 394.77 47.9473 395.874V396.688L45.3657 396.845C43.2822 396.97 42.1035 397.891 42.1035 399.493C42.1035 401.128 43.3901 402.158 45.125 402.158ZM57.9829 402H59.4106V393.052H52.1724V402H53.6001V394.247H57.9829V402ZM65.9351 402.158C68.4834 402.158 70.0605 400.398 70.0605 397.526C70.0605 394.646 68.4834 392.894 65.9351 392.894C63.3867 392.894 61.8096 394.646 61.8096 397.526C61.8096 400.398 63.3867 402.158 65.9351 402.158ZM65.9351 400.871C64.2417 400.871 63.2871 399.643 63.2871 397.526C63.2871 395.401 64.2417 394.181 65.9351 394.181C67.6284 394.181 68.583 395.401 68.583 397.526C68.583 399.643 67.6284 400.871 65.9351 400.871ZM74.5264 398.074L74.8086 394.247H77.938V402H79.3657V393.052H73.5137L73.165 398.041C73.0488 399.701 72.7085 400.738 71.8203 400.738C71.6128 400.738 71.4468 400.697 71.3721 400.672V401.983C71.4717 402.025 71.6377 402.075 71.895 402.075C73.7544 402.075 74.3438 400.531 74.5264 398.074ZM88.0981 402H89.5259V393.052H88.0981V396.754H83.6323V393.052H82.2046V402H83.6323V397.949H88.0981V402ZM93.7925 402L98.25 395.326H98.3828V402H99.8105V393.052H98.3828L93.9253 399.726H93.7925V393.052H92.3647V402H93.7925ZM109.141 393.052H101.902V394.247H104.808V402H106.235V394.247H109.141V393.052ZM114.47 394.156C115.889 394.156 116.835 395.202 116.869 396.787H111.938C112.046 395.202 113.042 394.156 114.47 394.156ZM116.827 399.684C116.454 400.473 115.673 400.896 114.52 400.896C113 400.896 112.013 399.775 111.938 398.007V397.941H118.371V397.393C118.371 394.612 116.902 392.894 114.486 392.894C112.029 392.894 110.452 394.72 110.452 397.534C110.452 400.365 112.004 402.158 114.486 402.158C116.445 402.158 117.84 401.211 118.255 399.684H116.827ZM126.996 402L131.453 395.326H131.586V402H133.014V393.052H131.586L127.128 399.726H126.996V393.052H125.568V402H126.996ZM141.754 402H143.182V393.052H141.754V396.754H137.289V393.052H135.861V402H137.289V397.949H141.754V402ZM150.196 400.871C148.262 400.821 147.034 399.56 147.034 397.526C147.034 395.484 148.262 394.222 150.196 394.181V400.871ZM154.745 397.526C154.745 399.568 153.517 400.83 151.591 400.871V394.181C153.517 394.23 154.745 395.492 154.745 397.526ZM150.196 402.108V404.988H151.591V402.108C154.355 402.066 156.198 400.29 156.198 397.526C156.198 394.77 154.355 392.994 151.591 392.944V390.022H150.196V392.944C147.424 392.985 145.581 394.762 145.581 397.526C145.581 400.282 147.424 402.058 150.196 402.108ZM162.971 392.894C161.751 392.894 160.68 393.517 160.107 394.546H159.975V393.052H158.613V404.988H160.041V400.655H160.174C160.664 401.602 161.693 402.158 162.971 402.158C165.246 402.158 166.731 400.323 166.731 397.526C166.731 394.712 165.254 392.894 162.971 392.894ZM162.631 400.871C161.021 400.871 160 399.576 160 397.526C160 395.467 161.021 394.181 162.639 394.181C164.274 394.181 165.254 395.434 165.254 397.526C165.254 399.618 164.274 400.871 162.631 400.871ZM170.558 402V395.633H170.716L173.546 401.751H174.659L177.489 395.633H177.647V402H179.083V393.052H177.415L174.202 399.991H174.069L170.865 393.052H169.13V402H170.558ZM184.694 400.904C183.657 400.904 182.885 400.373 182.885 399.46C182.885 398.563 183.482 398.09 184.844 397.999L187.251 397.841V398.663C187.251 399.941 186.164 400.904 184.694 400.904ZM184.429 402.158C185.624 402.158 186.604 401.635 187.185 400.68H187.317V402H188.679V395.874C188.679 394.015 187.458 392.894 185.275 392.894C183.366 392.894 181.955 393.84 181.764 395.276H183.208C183.408 394.571 184.155 394.164 185.226 394.164C186.562 394.164 187.251 394.77 187.251 395.874V396.688L184.669 396.845C182.586 396.97 181.407 397.891 181.407 399.493C181.407 401.128 182.694 402.158 184.429 402.158ZM200.059 404.366V400.805H198.631V393.052H197.204V400.805H192.904V393.052H191.476V402H198.714V404.366H200.059ZM203.363 402L207.82 395.326H207.953V402H209.381V393.052H207.953L203.496 399.726H203.363V393.052H201.935V402H203.363ZM219.317 402.158C221.815 402.158 223.359 400.398 223.359 397.526C223.359 394.646 221.815 392.894 219.317 392.894C217.051 392.894 215.573 394.338 215.316 396.754H213.656V393.052H212.228V402H213.656V397.949H215.283C215.432 400.572 216.943 402.158 219.317 402.158ZM219.317 400.871C217.673 400.871 216.752 399.643 216.752 397.526C216.752 395.401 217.673 394.181 219.317 394.181C220.96 394.181 221.882 395.401 221.882 397.526C221.882 399.643 220.96 400.871 219.317 400.871ZM234.242 402.158C236.79 402.158 238.367 400.398 238.367 397.526C238.367 394.646 236.79 392.894 234.242 392.894C231.693 392.894 230.116 394.646 230.116 397.526C230.116 400.398 231.693 402.158 234.242 402.158ZM234.242 400.871C232.548 400.871 231.594 399.643 231.594 397.526C231.594 395.401 232.548 394.181 234.242 394.181C235.935 394.181 236.89 395.401 236.89 397.526C236.89 399.643 235.935 400.871 234.242 400.871ZM252.977 395.791C252.728 394.197 251.399 392.894 249.225 392.894C246.718 392.894 245.124 394.704 245.124 397.493C245.124 400.34 246.726 402.158 249.233 402.158C251.383 402.158 252.719 400.946 252.977 399.302H251.532C251.267 400.315 250.428 400.871 249.225 400.871C247.631 400.871 246.602 399.56 246.602 397.493C246.602 395.467 247.614 394.181 249.225 394.181C250.511 394.181 251.3 394.903 251.532 395.791H252.977ZM258.82 394.156C260.24 394.156 261.186 395.202 261.219 396.787H256.289C256.396 395.202 257.393 394.156 258.82 394.156ZM261.178 399.684C260.804 400.473 260.024 400.896 258.87 400.896C257.351 400.896 256.363 399.775 256.289 398.007V397.941H262.722V397.393C262.722 394.612 261.252 392.894 258.837 392.894C256.38 392.894 254.803 394.72 254.803 397.534C254.803 400.365 256.355 402.158 258.837 402.158C260.796 402.158 262.19 401.211 262.605 399.684H261.178ZM268.848 400.871C267.129 400.871 266.158 399.676 266.158 397.609C266.158 395.642 267.129 394.513 268.848 394.513C270.566 394.513 271.537 395.642 271.537 397.609C271.537 399.676 270.566 400.871 268.848 400.871ZM265.901 394.886C266.175 392.678 266.864 391.408 269.246 391.3L270.159 391.259C271.919 391.184 272.425 390.728 272.425 390.728V389.449C272.417 389.458 271.496 389.864 270.093 389.931L269.196 389.972C265.635 390.13 264.681 392.637 264.681 396.754C264.681 400.423 266.2 402.158 268.848 402.158C271.421 402.158 273.015 400.431 273.015 397.609C273.015 394.878 271.421 393.234 269.063 393.234C267.561 393.234 266.573 393.94 266.034 394.886H265.901ZM278.991 394.156C280.411 394.156 281.357 395.202 281.39 396.787H276.459C276.567 395.202 277.563 394.156 278.991 394.156ZM281.349 399.684C280.975 400.473 280.195 400.896 279.041 400.896C277.522 400.896 276.534 399.775 276.459 398.007V397.941H282.893V397.393C282.893 394.612 281.423 392.894 279.008 392.894C276.551 392.894 274.974 394.72 274.974 397.534C274.974 400.365 276.526 402.158 279.008 402.158C280.967 402.158 282.361 401.211 282.776 399.684H281.349ZM286.122 405.046L287.425 400.323H285.839L285.051 405.046H286.122ZM301.959 402V393.052H300.532V396.829C300.158 397.244 299.37 397.542 298.249 397.542C297.029 397.542 296.398 396.787 296.398 395.608V393.052H294.97V395.608C294.97 397.518 296.091 398.812 298.249 398.812C299.212 398.812 299.917 398.613 300.399 398.273H300.532V402H301.959ZM311.281 393.052H304.043V394.247H306.948V402H308.376V394.247H311.281V393.052ZM316.718 402.158C319.267 402.158 320.844 400.398 320.844 397.526C320.844 394.646 319.267 392.894 316.718 392.894C314.17 392.894 312.593 394.646 312.593 397.526C312.593 400.398 314.17 402.158 316.718 402.158ZM316.718 400.871C315.025 400.871 314.07 399.643 314.07 397.526C314.07 395.401 315.025 394.181 316.718 394.181C318.412 394.181 319.366 395.401 319.366 397.526C319.366 399.643 318.412 400.871 316.718 400.871ZM326.97 400.871C325.251 400.871 324.28 399.676 324.28 397.609C324.28 395.642 325.251 394.513 326.97 394.513C328.688 394.513 329.659 395.642 329.659 397.609C329.659 399.676 328.688 400.871 326.97 400.871ZM324.023 394.886C324.297 392.678 324.986 391.408 327.368 391.3L328.281 391.259C330.041 391.184 330.547 390.728 330.547 390.728V389.449C330.539 389.458 329.618 389.864 328.215 389.931L327.318 389.972C323.757 390.13 322.803 392.637 322.803 396.754C322.803 400.423 324.322 402.158 326.97 402.158C329.543 402.158 331.137 400.431 331.137 397.609C331.137 394.878 329.543 393.234 327.186 393.234C325.683 393.234 324.695 393.94 324.156 394.886H324.023ZM341.363 402H342.791V393.052H341.363V402ZM336.731 397.119C337.902 397.119 338.666 397.841 338.666 398.962C338.666 400.074 337.91 400.805 336.731 400.805H334.963V397.119H336.731ZM333.536 402H336.731C338.782 402 340.093 400.821 340.093 398.962C340.093 397.103 338.782 395.924 336.731 395.924H334.963V393.052H333.536V402ZM35.1973 426C37.123 426 38.2603 424.987 38.2603 423.427C38.2603 422.381 37.5381 421.584 36.4009 421.426V421.293C37.2393 421.119 37.8618 420.272 37.8618 419.384C37.8618 417.973 36.874 417.052 35.1807 417.052H31.3872V426H35.1973ZM32.8149 418.247H34.998C36.0024 418.247 36.4507 418.762 36.4507 419.534C36.4507 420.389 35.9277 420.837 34.7656 420.837H32.8149V418.247ZM32.8149 422.032H34.8901C36.1768 422.032 36.8408 422.456 36.8408 423.402C36.8408 424.307 36.2598 424.805 35.1641 424.805H32.8149V422.032ZM43.4648 424.904C42.4272 424.904 41.6553 424.373 41.6553 423.46C41.6553 422.563 42.2529 422.09 43.6143 421.999L46.0215 421.841V422.663C46.0215 423.941 44.9341 424.904 43.4648 424.904ZM43.1992 426.158C44.3945 426.158 45.374 425.635 45.9551 424.68H46.0879V426H47.4492V419.874C47.4492 418.015 46.229 416.894 44.0459 416.894C42.1367 416.894 40.7256 417.84 40.5347 419.276H41.979C42.1782 418.571 42.9253 418.164 43.9961 418.164C45.3325 418.164 46.0215 418.77 46.0215 419.874V420.688L43.4399 420.845C41.3564 420.97 40.1777 421.891 40.1777 423.493C40.1777 425.128 41.4644 426.158 43.1992 426.158ZM50.2466 426H61.3032V417.052H59.8755V424.805H56.4888V417.052H55.061V424.805H51.6743V417.052H50.2466V426ZM65.5698 426L70.0273 419.326H70.1602V426H71.5879V417.052H70.1602L65.7026 423.726H65.5698V417.052H64.1421V426H65.5698ZM75.8628 426V419.633H76.0205L78.8511 425.751H79.9634L82.7939 419.633H82.9517V426H84.3877V417.052H82.7192L79.5068 423.991H79.374L76.1699 417.052H74.4351V426H75.8628ZM93.9336 421.924L97.4365 426H99.2876L95.1123 421.269L99.1299 417.052H97.395L93.9336 420.795H93.4604V417.052H92.0327V426H93.4604V421.924H93.9336ZM104.55 426.158C107.099 426.158 108.676 424.398 108.676 421.526C108.676 418.646 107.099 416.894 104.55 416.894C102.002 416.894 100.425 418.646 100.425 421.526C100.425 424.398 102.002 426.158 104.55 426.158ZM104.55 424.871C102.857 424.871 101.902 423.643 101.902 421.526C101.902 419.401 102.857 418.181 104.55 418.181C106.244 418.181 107.198 419.401 107.198 421.526C107.198 423.643 106.244 424.871 104.55 424.871ZM113.142 422.074L113.424 418.247H116.553V426H117.981V417.052H112.129L111.78 422.041C111.664 423.701 111.324 424.738 110.436 424.738C110.228 424.738 110.062 424.697 109.987 424.672V425.983C110.087 426.025 110.253 426.075 110.51 426.075C112.37 426.075 112.959 424.531 113.142 422.074ZM122.97 422.074L123.252 418.247H126.381V426H127.809V417.052H121.957L121.608 422.041C121.492 423.701 121.152 424.738 120.264 424.738C120.056 424.738 119.89 424.697 119.815 424.672V425.983C119.915 426.025 120.081 426.075 120.338 426.075C122.198 426.075 122.787 424.531 122.97 422.074ZM134.226 418.156C135.645 418.156 136.591 419.202 136.625 420.787H131.694C131.802 419.202 132.798 418.156 134.226 418.156ZM136.583 423.684C136.209 424.473 135.429 424.896 134.275 424.896C132.756 424.896 131.769 423.775 131.694 422.007V421.941H138.127V421.393C138.127 418.612 136.658 416.894 134.242 416.894C131.785 416.894 130.208 418.72 130.208 421.534C130.208 424.365 131.76 426.158 134.242 426.158C136.201 426.158 137.596 425.211 138.011 423.684H136.583ZM146.253 418.247V417.052H140.526V426H141.954V418.247H146.253ZM150.943 424.904C149.906 424.904 149.134 424.373 149.134 423.46C149.134 422.563 149.731 422.09 151.093 421.999L153.5 421.841V422.663C153.5 423.941 152.413 424.904 150.943 424.904ZM150.678 426.158C151.873 426.158 152.853 425.635 153.434 424.68H153.566V426H154.928V419.874C154.928 418.015 153.708 416.894 151.524 416.894C149.615 416.894 148.204 417.84 148.013 419.276H149.458C149.657 418.571 150.404 418.164 151.475 418.164C152.811 418.164 153.5 418.77 153.5 419.874V420.688L150.918 420.845C148.835 420.97 147.656 421.891 147.656 423.493C147.656 425.128 148.943 426.158 150.678 426.158ZM159.153 426V419.633H159.311L162.141 425.751H163.253L166.084 419.633H166.242V426H167.678V417.052H166.009L162.797 423.991H162.664L159.46 417.052H157.725V426H159.153ZM176.75 426L181.208 419.326H181.341V426H182.769V417.052H181.341L176.883 423.726H176.75V417.052H175.323V426H176.75ZM188.662 426.149C190.746 426.149 192.182 425.021 192.182 423.36C192.182 422.364 191.567 421.642 190.38 421.385V421.252C191.269 421.044 191.858 420.223 191.858 419.31C191.858 417.882 190.712 416.894 188.712 416.894C186.861 416.894 185.549 417.824 185.358 419.293H186.77C186.886 418.571 187.666 418.106 188.712 418.106C189.866 418.106 190.447 418.662 190.447 419.417C190.447 420.355 189.808 420.812 188.662 420.812H187.268V422.007H188.662C190.032 422.007 190.762 422.456 190.762 423.435C190.762 424.323 189.982 424.946 188.662 424.946C187.542 424.946 186.753 424.489 186.579 423.709H185.109C185.267 425.195 186.72 426.149 188.662 426.149ZM201.279 421.924L204.782 426H206.633L202.458 421.269L206.476 417.052H204.741L201.279 420.795H200.806V417.052H199.378V426H200.806V421.924H201.279ZM210.609 422.074L210.892 418.247H214.021V426H215.449V417.052H209.597L209.248 422.041C209.132 423.701 208.792 424.738 207.903 424.738C207.696 424.738 207.53 424.697 207.455 424.672V425.983C207.555 426.025 207.721 426.075 207.978 426.075C209.837 426.075 210.427 424.531 210.609 422.074ZM219.06 429.237C220.645 429.237 221.359 428.623 222.123 426.548L225.617 417.052H224.098L221.649 424.415H221.517L219.06 417.052H217.516L220.828 426.008L220.662 426.54C220.288 427.619 219.84 428.009 219.018 428.009C218.819 428.009 218.595 428 218.42 427.967V429.188C218.62 429.221 218.869 429.237 219.06 429.237ZM231.328 424.871C229.61 424.871 228.639 423.676 228.639 421.609C228.639 419.642 229.61 418.513 231.328 418.513C233.046 418.513 234.018 419.642 234.018 421.609C234.018 423.676 233.046 424.871 231.328 424.871ZM228.381 418.886C228.655 416.678 229.344 415.408 231.727 415.3L232.64 415.259C234.399 415.184 234.906 414.728 234.906 414.728V413.449C234.897 413.458 233.976 413.864 232.573 413.931L231.677 413.972C228.116 414.13 227.161 416.637 227.161 420.754C227.161 424.423 228.68 426.158 231.328 426.158C233.901 426.158 235.495 424.431 235.495 421.609C235.495 418.878 233.901 417.234 231.544 417.234C230.042 417.234 229.054 417.94 228.514 418.886H228.381ZM240.658 424.904C239.621 424.904 238.849 424.373 238.849 423.46C238.849 422.563 239.446 422.09 240.808 421.999L243.215 421.841V422.663C243.215 423.941 242.127 424.904 240.658 424.904ZM240.393 426.158C241.588 426.158 242.567 425.635 243.148 424.68H243.281V426H244.643V419.874C244.643 418.015 243.422 416.894 241.239 416.894C239.33 416.894 237.919 417.84 237.728 419.276H239.172C239.372 418.571 240.119 418.164 241.189 418.164C242.526 418.164 243.215 418.77 243.215 419.874V420.688L240.633 420.845C238.55 420.97 237.371 421.891 237.371 423.493C237.371 425.128 238.658 426.158 240.393 426.158ZM255.965 424.871C254.247 424.871 253.275 423.676 253.275 421.609C253.275 419.642 254.247 418.513 255.965 418.513C257.683 418.513 258.654 419.642 258.654 421.609C258.654 423.676 257.683 424.871 255.965 424.871ZM253.018 418.886C253.292 416.678 253.981 415.408 256.363 415.3L257.276 415.259C259.036 415.184 259.542 414.728 259.542 414.728V413.449C259.534 413.458 258.613 413.864 257.21 413.931L256.313 413.972C252.752 414.13 251.798 416.637 251.798 420.754C251.798 424.423 253.317 426.158 255.965 426.158C258.538 426.158 260.132 424.431 260.132 421.609C260.132 418.878 258.538 417.234 256.181 417.234C254.678 417.234 253.69 417.94 253.151 418.886H253.018ZM270.358 426H271.786V417.052H270.358V426ZM265.727 421.119C266.897 421.119 267.661 421.841 267.661 422.962C267.661 424.074 266.905 424.805 265.727 424.805H263.958V421.119H265.727ZM262.531 426H265.727C267.777 426 269.088 424.821 269.088 422.962C269.088 421.103 267.777 419.924 265.727 419.924H263.958V417.052H262.531V426ZM276.783 422.074L277.065 418.247H280.195V426H281.623V417.052H275.771L275.422 422.041C275.306 423.701 274.965 424.738 274.077 424.738C273.87 424.738 273.704 424.697 273.629 424.672V425.983C273.729 426.025 273.895 426.075 274.152 426.075C276.011 426.075 276.601 424.531 276.783 422.074ZM288.147 426.158C290.695 426.158 292.272 424.398 292.272 421.526C292.272 418.646 290.695 416.894 288.147 416.894C285.599 416.894 284.021 418.646 284.021 421.526C284.021 424.398 285.599 426.158 288.147 426.158ZM288.147 424.871C286.454 424.871 285.499 423.643 285.499 421.526C285.499 419.401 286.454 418.181 288.147 418.181C289.84 418.181 290.795 419.401 290.795 421.526C290.795 423.643 289.84 424.871 288.147 424.871ZM301.619 422.074L301.901 418.247H305.031V426H306.458V417.052H300.606L300.258 422.041C300.142 423.701 299.801 424.738 298.913 424.738C298.706 424.738 298.54 424.697 298.465 424.672V425.983C298.564 426.025 298.73 426.075 298.988 426.075C300.847 426.075 301.437 424.531 301.619 422.074ZM312.875 418.156C314.294 418.156 315.241 419.202 315.274 420.787H310.343C310.451 419.202 311.447 418.156 312.875 418.156ZM315.232 423.684C314.859 424.473 314.079 424.896 312.925 424.896C311.406 424.896 310.418 423.775 310.343 422.007V421.941H316.776V421.393C316.776 418.612 315.307 416.894 312.892 416.894C310.435 416.894 308.857 418.72 308.857 421.534C308.857 424.365 310.41 426.158 312.892 426.158C314.851 426.158 316.245 425.211 316.66 423.684H315.232ZM324.903 418.247V417.052H319.175V426H320.603V418.247H324.903ZM333.735 426V417.052H332.307V420.829C331.934 421.244 331.145 421.542 330.024 421.542C328.804 421.542 328.173 420.787 328.173 419.608V417.052H326.746V419.608C326.746 421.518 327.866 422.812 330.024 422.812C330.987 422.812 331.693 422.613 332.174 422.273H332.307V426H333.735ZM340.151 418.156C341.571 418.156 342.517 419.202 342.55 420.787H337.62C337.728 419.202 338.724 418.156 340.151 418.156ZM342.509 423.684C342.135 424.473 341.355 424.896 340.201 424.896C338.682 424.896 337.694 423.775 337.62 422.007V421.941H344.053V421.393C344.053 418.612 342.583 416.894 340.168 416.894C337.711 416.894 336.134 418.72 336.134 421.534C336.134 424.365 337.686 426.158 340.168 426.158C342.127 426.158 343.521 425.211 343.937 423.684H342.509ZM80.7354 450C82.6611 450 83.7983 448.987 83.7983 447.427C83.7983 446.381 83.0762 445.584 81.939 445.426V445.293C82.7773 445.119 83.3999 444.272 83.3999 443.384C83.3999 441.973 82.4121 441.052 80.7188 441.052H76.9253V450H80.7354ZM78.353 442.247H80.5361C81.5405 442.247 81.9888 442.762 81.9888 443.534C81.9888 444.389 81.4658 444.837 80.3037 444.837H78.353V442.247ZM78.353 446.032H80.4282C81.7148 446.032 82.3789 446.456 82.3789 447.402C82.3789 448.307 81.7979 448.805 80.7021 448.805H78.353V446.032ZM89.0029 448.904C87.9653 448.904 87.1934 448.373 87.1934 447.46C87.1934 446.563 87.791 446.09 89.1523 445.999L91.5596 445.841V446.663C91.5596 447.941 90.4722 448.904 89.0029 448.904ZM88.7373 450.158C89.9326 450.158 90.9121 449.635 91.4932 448.68H91.626V450H92.9873V443.874C92.9873 442.015 91.7671 440.894 89.584 440.894C87.6748 440.894 86.2637 441.84 86.0728 443.276H87.5171C87.7163 442.571 88.4634 442.164 89.5342 442.164C90.8706 442.164 91.5596 442.77 91.5596 443.874V444.688L88.978 444.845C86.8945 444.97 85.7158 445.891 85.7158 447.493C85.7158 449.128 87.0024 450.158 88.7373 450.158ZM103.197 443.791C102.948 442.197 101.62 440.894 99.4453 440.894C96.9385 440.894 95.3447 442.704 95.3447 445.493C95.3447 448.34 96.9468 450.158 99.4536 450.158C101.604 450.158 102.94 448.946 103.197 447.302H101.753C101.487 448.315 100.649 448.871 99.4453 448.871C97.8516 448.871 96.8223 447.56 96.8223 445.493C96.8223 443.467 97.835 442.181 99.4453 442.181C100.732 442.181 101.521 442.903 101.753 443.791H103.197ZM116.155 450H117.583V441.052H116.155V444.754H111.689V441.052H110.261V450H111.689V445.949H116.155V450ZM123.186 448.904C122.148 448.904 121.376 448.373 121.376 447.46C121.376 446.563 121.974 446.09 123.335 445.999L125.742 445.841V446.663C125.742 447.941 124.655 448.904 123.186 448.904ZM122.92 450.158C124.115 450.158 125.095 449.635 125.676 448.68H125.809V450H127.17V443.874C127.17 442.015 125.95 440.894 123.767 440.894C121.857 440.894 120.446 441.84 120.255 443.276H121.7C121.899 442.571 122.646 442.164 123.717 442.164C125.053 442.164 125.742 442.77 125.742 443.874V444.688L123.161 444.845C121.077 444.97 119.898 445.891 119.898 447.493C119.898 449.128 121.185 450.158 122.92 450.158ZM131.395 450L135.853 443.326H135.985V450H137.413V441.052H135.985L131.528 447.726H131.395V441.052H129.967V450H131.395ZM130.847 437.084C130.847 438.628 131.984 439.807 133.694 439.807C135.404 439.807 136.542 438.628 136.542 437.084H135.247C135.247 437.989 134.674 438.827 133.694 438.827C132.731 438.827 132.142 437.989 132.142 437.084H130.847ZM146.743 441.052H139.505V442.247H142.41V450H143.838V442.247H146.743V441.052ZM150.254 450L154.712 443.326H154.845V450H156.272V441.052H154.845L150.387 447.726H150.254V441.052H148.827V450H150.254ZM169.811 450H171.239V441.052H169.811V444.754H165.345V441.052H163.917V450H165.345V445.949H169.811V450ZM176.842 448.904C175.804 448.904 175.032 448.373 175.032 447.46C175.032 446.563 175.63 446.09 176.991 445.999L179.398 445.841V446.663C179.398 447.941 178.311 448.904 176.842 448.904ZM176.576 450.158C177.771 450.158 178.751 449.635 179.332 448.68H179.465V450H180.826V443.874C180.826 442.015 179.606 440.894 177.423 440.894C175.514 440.894 174.103 441.84 173.912 443.276H175.356C175.555 442.571 176.302 442.164 177.373 442.164C178.709 442.164 179.398 442.77 179.398 443.874V444.688L176.817 444.845C174.733 444.97 173.555 445.891 173.555 447.493C173.555 449.128 174.841 450.158 176.576 450.158ZM189.849 450V443.633H190.007L192.837 449.751H193.95L196.78 443.633H196.938V450H198.374V441.052H196.706L193.493 447.991H193.36L190.156 441.052H188.421V450H189.849ZM204.799 442.156C206.218 442.156 207.165 443.202 207.198 444.787H202.267C202.375 443.202 203.371 442.156 204.799 442.156ZM207.156 447.684C206.783 448.473 206.002 448.896 204.849 448.896C203.33 448.896 202.342 447.775 202.267 446.007V445.941H208.7V445.393C208.7 442.612 207.231 440.894 204.815 440.894C202.358 440.894 200.781 442.72 200.781 445.534C200.781 448.365 202.333 450.158 204.815 450.158C206.774 450.158 208.169 449.211 208.584 447.684H207.156ZM215.465 440.894C214.245 440.894 213.174 441.517 212.602 442.546H212.469V441.052H211.107V452.988H212.535V448.655H212.668C213.158 449.602 214.187 450.158 215.465 450.158C217.74 450.158 219.226 448.323 219.226 445.526C219.226 442.712 217.748 440.894 215.465 440.894ZM215.125 448.871C213.515 448.871 212.494 447.576 212.494 445.526C212.494 443.467 213.515 442.181 215.133 442.181C216.769 442.181 217.748 443.434 217.748 445.526C217.748 447.618 216.769 448.871 215.125 448.871ZM225.31 450.158C227.858 450.158 229.436 448.398 229.436 445.526C229.436 442.646 227.858 440.894 225.31 440.894C222.762 440.894 221.185 442.646 221.185 445.526C221.185 448.398 222.762 450.158 225.31 450.158ZM225.31 448.871C223.617 448.871 222.662 447.643 222.662 445.526C222.662 443.401 223.617 442.181 225.31 442.181C227.003 442.181 227.958 443.401 227.958 445.526C227.958 447.643 227.003 448.871 225.31 448.871ZM237.645 450H239.073V441.052H231.834V450H233.262V442.247H237.645V450ZM246.278 440.894C245.058 440.894 243.987 441.517 243.414 442.546H243.281V441.052H241.92V452.988H243.348V448.655H243.48C243.97 449.602 245 450.158 246.278 450.158C248.552 450.158 250.038 448.323 250.038 445.526C250.038 442.712 248.561 440.894 246.278 440.894ZM245.938 448.871C244.327 448.871 243.306 447.576 243.306 445.526C243.306 443.467 244.327 442.181 245.946 442.181C247.581 442.181 248.561 443.434 248.561 445.526C248.561 447.618 247.581 448.871 245.938 448.871ZM253.865 450L258.322 443.326H258.455V450H259.883V441.052H258.455L253.998 447.726H253.865V441.052H252.437V450H253.865ZM265.81 445.601C264.639 445.601 263.875 444.928 263.875 443.982C263.875 442.895 264.631 442.247 265.81 442.247H267.495V445.601H265.81ZM267.495 450H268.922V441.052H265.81C263.759 441.052 262.448 442.172 262.448 444.015C262.448 445.244 263.211 446.173 264.473 446.53L261.975 450H263.676L265.959 446.796H267.495V450ZM278.244 441.052H271.006V442.247H273.911V450H275.339V442.247H278.244V441.052ZM281.755 450L286.213 443.326H286.346V450H287.773V441.052H286.346L281.888 447.726H281.755V441.052H280.328V450H281.755ZM292.048 450L296.506 443.326H296.639V450H298.066V441.052H296.639L292.181 447.726H292.048V441.052H290.621V450H292.048Z" fill="#414348"/>
<g filter="url(#filter0_d)">
<rect x="30" y="528" width="316" height="43" rx="3" fill="#6DB247"/>
</g>
<path d="M145.289 555V543.022H135.585V555H137.453V544.641H143.446V555H145.289ZM152.951 545.828C151.722 545.828 150.66 546.45 150.112 547.479H149.979V545.985H148.261V558.005H150.045V553.639H150.187C150.66 554.593 151.681 555.149 152.967 555.149C155.25 555.149 156.703 553.34 156.703 550.493C156.703 547.629 155.25 545.828 152.951 545.828ZM152.444 553.622C150.95 553.622 150.012 552.418 150.012 550.493C150.012 548.559 150.95 547.355 152.453 547.355C153.963 547.355 154.868 548.534 154.868 550.493C154.868 552.452 153.963 553.622 152.444 553.622ZM162.837 555.174C165.477 555.174 167.095 553.406 167.095 550.493C167.095 547.579 165.468 545.811 162.837 545.811C160.197 545.811 158.57 547.587 158.57 550.493C158.57 553.406 160.189 555.174 162.837 555.174ZM162.837 553.655C161.285 553.655 160.413 552.501 160.413 550.493C160.413 548.484 161.285 547.322 162.837 547.322C164.381 547.322 165.261 548.484 165.261 550.493C165.261 552.493 164.381 553.655 162.837 553.655ZM169.884 557.366V555H176.6V557.366H178.251V553.572H176.84V545.985H170.333L170 550.841C169.917 552.053 169.619 553.157 168.955 553.572H168.224V557.366H169.884ZM175.064 553.572H170.93V553.431C171.337 552.867 171.553 551.954 171.636 550.916L171.885 547.405H175.064V553.572ZM183.888 555.174C186.527 555.174 188.146 553.406 188.146 550.493C188.146 547.579 186.519 545.811 183.888 545.811C181.248 545.811 179.621 547.587 179.621 550.493C179.621 553.406 181.24 555.174 183.888 555.174ZM183.888 553.655C182.335 553.655 181.464 552.501 181.464 550.493C181.464 548.484 182.335 547.322 183.888 547.322C185.432 547.322 186.312 548.484 186.312 550.493C186.312 552.493 185.432 553.655 183.888 553.655ZM192.836 550.916L193.085 547.413H195.949V555H197.733V545.985H191.508L191.192 550.841C191.084 552.427 190.769 553.473 189.889 553.473C189.665 553.473 189.491 553.431 189.408 553.406V554.992C189.516 555.033 189.723 555.083 190.022 555.083C192.022 555.083 192.662 553.464 192.836 550.916ZM201.676 555L204.631 550.982H205.154V555H206.897V550.982H207.429L210.375 555H212.55L208.856 550.177L212.359 545.985H210.301L207.42 549.696H206.897V545.985H205.154V549.696H204.64L201.759 545.985H199.676L203.204 550.202L199.535 555H201.676ZM216.111 555L220.237 548.65H220.378V555H222.146V545.985H220.378L216.252 552.311H216.111V545.985H214.343V555H216.111ZM231.642 545.985H224.163V547.413H227.01V555H228.795V547.413H231.642V545.985ZM233.651 555H237.22C239.312 555 240.648 553.796 240.648 551.887C240.648 549.986 239.312 548.783 237.22 548.783H235.436V545.985H233.651V555ZM237.087 550.202C238.167 550.202 238.872 550.866 238.872 551.887C238.872 552.9 238.175 553.572 237.087 553.572H235.436V550.202H237.087Z" fill="white"/>
<path fill-rule="evenodd" clip-rule="evenodd" d="M182.442 192.943L170.725 185.531L160.341 184.563L157.412 187.787L163.536 194.233L153.95 202.613L161.14 207.447L130.785 216.793L154.216 191.332L90.5786 229.041L114.809 224.206L115.075 227.429L135.845 223.884L140.903 228.396L102.826 248.701L112.413 236.454L48.5079 256.436L326.491 256.759L276.966 220.661L260.724 214.215L242.617 212.281L234.629 204.224L227.173 202.934L205.074 184.563L194.423 184.242L182.442 192.943ZM202.677 217.438L202.411 198.745L229.571 232.264L234.895 220.016L266.581 224.851L304.924 249.024L124.927 249.668L137.974 241.933L166.199 236.776L182.442 209.703L197.884 224.851L219.185 234.842L202.677 217.438Z" fill="url(#paint0_linear)"/>
</g>
<defs>
<filter id="filter0_d" x="10" y="513" width="356" height="83" filterUnits="userSpaceOnUse" color-interpolation-filters="sRGB">
<feFlood flood-opacity="0" result="BackgroundImageFix"/>
<feColorMatrix in="SourceAlpha" type="matrix" values="0 0 0 0 0 0 0 0 0 0 0 0 0 0 0 0 0 0 127 0"/>
<feOffset dy="5"/>
<feGaussianBlur stdDeviation="10"/>
<feColorMatrix type="matrix" values="0 0 0 0 0.427451 0 0 0 0 0.698039 0 0 0 0 0.278431 0 0 0 0.45 0"/>
<feBlend mode="normal" in2="BackgroundImageFix" result="effect1_dropShadow"/>
<feBlend mode="normal" in="SourceGraphic" in2="effect1_dropShadow" result="shape"/>
</filter>
<linearGradient id="paint0_linear" x1="48.5079" y1="218.047" x2="315.706" y2="286.657" gradientUnits="userSpaceOnUse">
<stop stop-color="#3F81AE"/>
<stop offset="1" stop-color="#C4D150"/>
</linearGradient>
<clipPath id="clip0">
<rect width="375" height="667" fill="white"/>
</clipPath>
</defs>
</svg>
