<svg width="375" height="667" viewBox="0 0 375 667" fill="none" xmlns="http://www.w3.org/2000/svg">
<g clip-path="url(#clip0)">
<rect width="375" height="667" fill="white"/>
<path d="M374.869 0H0V667.093H374.869V0Z" fill="#F9FAF9"/>
<path fill-rule="evenodd" clip-rule="evenodd" d="M345.5 4.5H364.5C365.881 4.5 367 5.61929 367 7V13.5C367 14.8807 365.881 16 364.5 16H345.5C344.119 16 343 14.8807 343 13.5V7C343 5.61929 344.119 4.5 345.5 4.5ZM345.5 5.5C344.672 5.5 344 6.17157 344 7V13.5C344 14.3284 344.672 15 345.5 15H364.5C365.328 15 366 14.3284 366 13.5V7C366 6.17157 365.328 5.5 364.5 5.5H345.5Z" fill="black" fill-opacity="0.38"/>
<path fill-rule="evenodd" clip-rule="evenodd" d="M368 7.7998C368.89 8.25498 369.5 9.18128 369.5 10.2499C369.5 11.3186 368.89 12.2449 368 12.7001V7.7998Z" fill="black" fill-opacity="0.49"/>
<path fill-rule="evenodd" clip-rule="evenodd" d="M346 6.5H364C364.552 6.5 365 6.94772 365 7.5V13C365 13.5523 364.552 14 364 14H346C345.448 14 345 13.5523 345 13V7.5C345 6.94772 345.448 6.5 346 6.5Z" fill="black"/>
<path d="M314.131 7.16406H314.107L311.869 8.77539V7.66211L314.119 6.04492H315.15V14.5H314.131V7.16406ZM320.254 14.6406C319.762 14.6406 319.322 14.5391 318.936 14.3359C318.549 14.1289 318.221 13.8359 317.951 13.457C317.686 13.0781 317.482 12.6191 317.342 12.0801C317.205 11.541 317.137 10.9375 317.137 10.2695C317.137 9.60938 317.207 9.00977 317.348 8.4707C317.488 7.93164 317.691 7.47266 317.957 7.09375C318.227 6.71484 318.553 6.42188 318.936 6.21484C319.322 6.00781 319.762 5.9043 320.254 5.9043C320.746 5.9043 321.184 6.00781 321.566 6.21484C321.953 6.41797 322.279 6.70898 322.545 7.08789C322.811 7.4668 323.012 7.92578 323.148 8.46484C323.289 9 323.359 9.59961 323.359 10.2637C323.359 10.9316 323.289 11.5352 323.148 12.0742C323.012 12.6133 322.811 13.0742 322.545 13.457C322.279 13.8359 321.953 14.1289 321.566 14.3359C321.184 14.5391 320.746 14.6406 320.254 14.6406ZM320.254 13.7207C320.582 13.7207 320.873 13.6406 321.127 13.4805C321.385 13.3164 321.6 13.0859 321.771 12.7891C321.943 12.4883 322.074 12.125 322.164 11.6992C322.254 11.2734 322.299 10.7969 322.299 10.2695C322.299 9.75 322.254 9.2793 322.164 8.85742C322.074 8.43164 321.941 8.07031 321.766 7.77344C321.594 7.47266 321.381 7.24023 321.127 7.07617C320.873 6.91211 320.582 6.83008 320.254 6.83008C319.926 6.83008 319.635 6.91211 319.381 7.07617C319.127 7.24023 318.912 7.47266 318.736 7.77344C318.561 8.07422 318.426 8.43555 318.332 8.85742C318.242 9.2793 318.197 9.74805 318.197 10.2637C318.197 10.791 318.242 11.2676 318.332 11.6934C318.422 12.1191 318.553 12.4824 318.725 12.7832C318.9 13.084 319.115 13.3164 319.369 13.4805C319.627 13.6406 319.922 13.7207 320.254 13.7207ZM327.531 14.6406C327.039 14.6406 326.6 14.5391 326.213 14.3359C325.826 14.1289 325.498 13.8359 325.229 13.457C324.963 13.0781 324.76 12.6191 324.619 12.0801C324.482 11.541 324.414 10.9375 324.414 10.2695C324.414 9.60938 324.484 9.00977 324.625 8.4707C324.766 7.93164 324.969 7.47266 325.234 7.09375C325.504 6.71484 325.83 6.42188 326.213 6.21484C326.6 6.00781 327.039 5.9043 327.531 5.9043C328.023 5.9043 328.461 6.00781 328.844 6.21484C329.23 6.41797 329.557 6.70898 329.822 7.08789C330.088 7.4668 330.289 7.92578 330.426 8.46484C330.566 9 330.637 9.59961 330.637 10.2637C330.637 10.9316 330.566 11.5352 330.426 12.0742C330.289 12.6133 330.088 13.0742 329.822 13.457C329.557 13.8359 329.23 14.1289 328.844 14.3359C328.461 14.5391 328.023 14.6406 327.531 14.6406ZM327.531 13.7207C327.859 13.7207 328.15 13.6406 328.404 13.4805C328.662 13.3164 328.877 13.0859 329.049 12.7891C329.221 12.4883 329.352 12.125 329.441 11.6992C329.531 11.2734 329.576 10.7969 329.576 10.2695C329.576 9.75 329.531 9.2793 329.441 8.85742C329.352 8.43164 329.219 8.07031 329.043 7.77344C328.871 7.47266 328.658 7.24023 328.404 7.07617C328.15 6.91211 327.859 6.83008 327.531 6.83008C327.203 6.83008 326.912 6.91211 326.658 7.07617C326.404 7.24023 326.189 7.47266 326.014 7.77344C325.838 8.07422 325.703 8.43555 325.609 8.85742C325.52 9.2793 325.475 9.74805 325.475 10.2637C325.475 10.791 325.52 11.2676 325.609 11.6934C325.699 12.1191 325.83 12.4824 326.002 12.7832C326.178 13.084 326.393 13.3164 326.646 13.4805C326.904 13.6406 327.199 13.7207 327.531 13.7207ZM331.967 14.5L338.154 6.04492H339.162L332.986 14.5H331.967ZM339.707 12.4844C339.707 12.8047 339.664 13.0957 339.578 13.3574C339.496 13.6152 339.377 13.8359 339.221 14.0195C339.068 14.2031 338.883 14.3457 338.664 14.4473C338.449 14.5449 338.207 14.5938 337.938 14.5938C337.668 14.5938 337.424 14.5449 337.205 14.4473C336.99 14.3457 336.805 14.2031 336.648 14.0195C336.492 13.8359 336.371 13.6152 336.285 13.3574C336.203 13.0957 336.162 12.8047 336.162 12.4844C336.162 12.168 336.203 11.8809 336.285 11.623C336.371 11.3613 336.492 11.1387 336.648 10.9551C336.805 10.7715 336.99 10.6309 337.205 10.5332C337.424 10.4316 337.668 10.3809 337.938 10.3809C338.207 10.3809 338.449 10.4316 338.664 10.5332C338.883 10.6309 339.068 10.7715 339.221 10.9551C339.377 11.1387 339.496 11.3613 339.578 11.623C339.664 11.8809 339.707 12.168 339.707 12.4844ZM337.938 13.8789C338.066 13.8789 338.182 13.8477 338.283 13.7852C338.389 13.7188 338.477 13.625 338.547 13.5039C338.617 13.3828 338.672 13.2363 338.711 13.0645C338.75 12.8926 338.77 12.6992 338.77 12.4844C338.77 12.0469 338.697 11.707 338.553 11.4648C338.408 11.2227 338.203 11.1016 337.938 11.1016C337.68 11.1016 337.475 11.2266 337.322 11.4766C337.174 11.7227 337.1 12.0586 337.1 12.4844C337.1 12.6992 337.119 12.8926 337.158 13.0645C337.197 13.2363 337.252 13.3828 337.322 13.5039C337.396 13.625 337.484 13.7188 337.586 13.7852C337.691 13.8477 337.809 13.8789 337.938 13.8789ZM335.002 8.04297C335.002 8.36328 334.959 8.6543 334.873 8.91602C334.791 9.17383 334.672 9.39453 334.516 9.57812C334.363 9.76172 334.178 9.9043 333.959 10.0059C333.744 10.1035 333.502 10.1523 333.232 10.1523C332.963 10.1523 332.719 10.1035 332.5 10.0059C332.285 9.9043 332.1 9.76172 331.943 9.57812C331.787 9.39453 331.666 9.17383 331.58 8.91602C331.498 8.6543 331.457 8.36328 331.457 8.04297C331.457 7.72656 331.498 7.43945 331.58 7.18164C331.666 6.91992 331.787 6.69727 331.943 6.51367C332.1 6.33008 332.285 6.18945 332.5 6.0918C332.719 5.99023 332.963 5.93945 333.232 5.93945C333.502 5.93945 333.744 5.99023 333.959 6.0918C334.178 6.18945 334.363 6.33008 334.516 6.51367C334.672 6.69727 334.791 6.91992 334.873 7.18164C334.959 7.43945 335.002 7.72656 335.002 8.04297ZM333.232 9.4375C333.361 9.4375 333.477 9.40625 333.578 9.34375C333.684 9.27734 333.771 9.18359 333.842 9.0625C333.912 8.94141 333.967 8.79492 334.006 8.62305C334.045 8.45117 334.064 8.25781 334.064 8.04297C334.064 7.60547 333.992 7.26562 333.848 7.02344C333.703 6.78125 333.498 6.66016 333.232 6.66016C332.975 6.66016 332.77 6.78516 332.617 7.03516C332.469 7.28125 332.395 7.61719 332.395 8.04297C332.395 8.25781 332.414 8.45117 332.453 8.62305C332.492 8.79492 332.547 8.94141 332.617 9.0625C332.691 9.18359 332.779 9.27734 332.881 9.34375C332.986 9.40625 333.104 9.4375 333.232 9.4375Z" fill="black"/>
<path fill-rule="evenodd" clip-rule="evenodd" d="M300.874 6.19111L302.524 7.78081L300.874 9.21109V6.19111ZM301.47 9.99927L304 7.80741L299.996 4V4.5V5.34563V8.72135L297.622 6.665L297 7.43104L299.964 9.99927L297 12.5675L297.622 13.3335L299.996 11.2772V14.6529V15.5V15.9985L304 12.1911L301.47 9.99927ZM300.874 13.8074L302.524 12.2177L300.874 10.7874V13.8074Z" fill="black"/>
<path fill-rule="evenodd" clip-rule="evenodd" d="M283.667 5.87174C283.171 5.37609 282.367 5.37609 281.872 5.87174C281.376 6.36739 281.376 7.17101 281.872 7.66666L283.667 5.87174ZM288.833 5.87174C289.329 5.37609 290.133 5.37609 290.628 5.87174C291.124 6.36739 291.124 7.17101 290.628 7.66666L288.833 5.87174ZM290.5 10.25C290.5 12.5972 288.597 14.5 286.25 14.5C283.903 14.5 282 12.5972 282 10.25C282 7.90279 283.903 6 286.25 6C288.597 6 290.5 7.90279 290.5 10.25ZM286.25 7.5H286.997V10.25H287.002V10.9966H286.997V11H286.25V10.9966H284.502V10.25H286.25V7.5Z" fill="black"/>
<path fill-rule="evenodd" clip-rule="evenodd" d="M265 10L275 5.5L270.5 15.5V10H265Z" fill="black"/>
<path fill-rule="evenodd" clip-rule="evenodd" d="M252.5 5C255.093 5 257.224 6.97334 257.475 9.5H259L257 11.5L255 9.5H256.519C256.273 7.49915 254.567 5.95 252.5 5.95C250.263 5.95 248.45 7.76324 248.45 10C248.45 12.2368 250.263 14.05 252.5 14.05C253.945 14.05 255.214 13.2928 255.931 12.1535L256.719 12.6851C255.831 14.0769 254.273 15 252.5 15C249.739 15 247.5 12.7614 247.5 10C247.5 7.23858 249.739 5 252.5 5ZM251 8.25V9.5C250.724 9.5 250.5 9.72386 250.5 10V12C250.5 12.2761 250.724 12.5 251 12.5H254C254.276 12.5 254.5 12.2761 254.5 12V10C254.5 9.72386 254.276 9.5 254 9.5V8.25C254 7.55964 253.44 7 252.75 7H252.25C251.56 7 251 7.55964 251 8.25ZM253.35 8.325V9.5H251.65V8.325C251.65 7.97982 251.93 7.7 252.275 7.7H252.725C253.07 7.7 253.35 7.97982 253.35 8.325Z" fill="#111111"/>
<path d="M169.143 7.16406H169.119L166.881 8.77539V7.66211L169.131 6.04492H170.162V14.5H169.143V7.16406ZM173.145 14.5586C173.051 14.5586 172.963 14.541 172.881 14.5059C172.799 14.4707 172.729 14.4238 172.67 14.3652C172.611 14.3066 172.564 14.2363 172.529 14.1543C172.494 14.0723 172.477 13.9844 172.477 13.8906C172.477 13.7969 172.494 13.709 172.529 13.627C172.564 13.5449 172.611 13.4746 172.67 13.416C172.729 13.3535 172.799 13.3066 172.881 13.2754C172.963 13.2402 173.051 13.2227 173.145 13.2227C173.336 13.2227 173.494 13.2871 173.619 13.416C173.748 13.541 173.812 13.6992 173.812 13.8906C173.812 13.9844 173.795 14.0723 173.76 14.1543C173.729 14.2363 173.682 14.3066 173.619 14.3652C173.561 14.4238 173.49 14.4707 173.408 14.5059C173.326 14.541 173.238 14.5586 173.145 14.5586ZM173.145 10.2461C173.051 10.2461 172.963 10.2285 172.881 10.1934C172.799 10.1582 172.729 10.1113 172.67 10.0527C172.611 9.99414 172.564 9.92383 172.529 9.8418C172.494 9.75977 172.477 9.67188 172.477 9.57812C172.477 9.48438 172.494 9.39648 172.529 9.31445C172.564 9.23242 172.611 9.16211 172.67 9.10352C172.729 9.04102 172.799 8.99414 172.881 8.96289C172.963 8.92773 173.051 8.91016 173.145 8.91016C173.336 8.91016 173.494 8.97461 173.619 9.10352C173.748 9.22852 173.812 9.38672 173.812 9.57812C173.812 9.67188 173.795 9.75977 173.76 9.8418C173.729 9.92383 173.682 9.99414 173.619 10.0527C173.561 10.1113 173.49 10.1582 173.408 10.1934C173.326 10.2285 173.238 10.2461 173.145 10.2461ZM175.301 8.48242C175.301 8.11523 175.371 7.77344 175.512 7.45703C175.652 7.14062 175.848 6.86914 176.098 6.64258C176.348 6.41211 176.643 6.23242 176.982 6.10352C177.322 5.9707 177.691 5.9043 178.09 5.9043C178.469 5.9043 178.822 5.96484 179.15 6.08594C179.479 6.20703 179.764 6.37305 180.006 6.58398C180.248 6.79102 180.439 7.03516 180.58 7.31641C180.721 7.59766 180.791 7.90039 180.791 8.22461C180.791 8.45898 180.762 8.68555 180.703 8.9043C180.645 9.11914 180.543 9.3457 180.398 9.58398C180.258 9.82227 180.068 10.082 179.83 10.3633C179.596 10.6445 179.303 10.9668 178.951 11.3301L176.812 13.5391V13.5625H180.932V14.5H175.354V13.7734L178.33 10.6387C178.615 10.3418 178.848 10.0859 179.027 9.87109C179.211 9.65234 179.355 9.45508 179.461 9.2793C179.566 9.10352 179.639 8.93945 179.678 8.78711C179.717 8.63086 179.736 8.46484 179.736 8.28906C179.736 8.08594 179.691 7.89648 179.602 7.7207C179.516 7.54102 179.396 7.38477 179.244 7.25195C179.096 7.11914 178.92 7.01562 178.717 6.94141C178.514 6.86328 178.295 6.82422 178.061 6.82422C177.814 6.82422 177.584 6.86719 177.369 6.95312C177.158 7.03516 176.975 7.15039 176.818 7.29883C176.662 7.44727 176.539 7.62305 176.449 7.82617C176.363 8.0293 176.32 8.24805 176.32 8.48242V8.48828H175.301V8.48242ZM185.109 14.6406C184.617 14.6406 184.178 14.5391 183.791 14.3359C183.404 14.1289 183.076 13.8359 182.807 13.457C182.541 13.0781 182.338 12.6191 182.197 12.0801C182.061 11.541 181.992 10.9375 181.992 10.2695C181.992 9.60938 182.062 9.00977 182.203 8.4707C182.344 7.93164 182.547 7.47266 182.812 7.09375C183.082 6.71484 183.408 6.42188 183.791 6.21484C184.178 6.00781 184.617 5.9043 185.109 5.9043C185.602 5.9043 186.039 6.00781 186.422 6.21484C186.809 6.41797 187.135 6.70898 187.4 7.08789C187.666 7.4668 187.867 7.92578 188.004 8.46484C188.145 9 188.215 9.59961 188.215 10.2637C188.215 10.9316 188.145 11.5352 188.004 12.0742C187.867 12.6133 187.666 13.0742 187.4 13.457C187.135 13.8359 186.809 14.1289 186.422 14.3359C186.039 14.5391 185.602 14.6406 185.109 14.6406ZM185.109 13.7207C185.438 13.7207 185.729 13.6406 185.982 13.4805C186.24 13.3164 186.455 13.0859 186.627 12.7891C186.799 12.4883 186.93 12.125 187.02 11.6992C187.109 11.2734 187.154 10.7969 187.154 10.2695C187.154 9.75 187.109 9.2793 187.02 8.85742C186.93 8.43164 186.797 8.07031 186.621 7.77344C186.449 7.47266 186.236 7.24023 185.982 7.07617C185.729 6.91211 185.438 6.83008 185.109 6.83008C184.781 6.83008 184.49 6.91211 184.236 7.07617C183.982 7.24023 183.768 7.47266 183.592 7.77344C183.416 8.07422 183.281 8.43555 183.188 8.85742C183.098 9.2793 183.053 9.74805 183.053 10.2637C183.053 10.791 183.098 11.2676 183.188 11.6934C183.277 12.1191 183.408 12.4824 183.58 12.7832C183.756 13.084 183.971 13.3164 184.225 13.4805C184.482 13.6406 184.777 13.7207 185.109 13.7207ZM195.627 6.04492C196.025 6.04492 196.389 6.11133 196.717 6.24414C197.049 6.37695 197.334 6.5625 197.572 6.80078C197.814 7.03906 198.002 7.32617 198.135 7.66211C198.268 7.99414 198.334 8.35938 198.334 8.75781C198.334 9.16016 198.266 9.5293 198.129 9.86523C197.996 10.1973 197.809 10.4844 197.566 10.7266C197.328 10.9648 197.043 11.1504 196.711 11.2832C196.379 11.416 196.014 11.4824 195.615 11.4824H193.488V14.5H192.434V6.04492H195.627ZM193.488 10.5449H195.352C195.652 10.5449 195.92 10.5059 196.154 10.4277C196.393 10.3457 196.592 10.2285 196.752 10.0762C196.916 9.91992 197.039 9.73242 197.121 9.51367C197.207 9.29102 197.25 9.03906 197.25 8.75781C197.25 8.19531 197.086 7.75977 196.758 7.45117C196.43 7.13867 195.961 6.98242 195.352 6.98242H193.488V10.5449ZM207.879 14.5H206.895V7.98438H206.854L204.158 14.4414H203.268L200.572 7.98438H200.531V14.5H199.547V6.04492H200.771L203.689 13.0996H203.736L206.654 6.04492H207.879V14.5Z" fill="black"/>
<path fill-rule="evenodd" clip-rule="evenodd" d="M82.1672 10.5459C79.6288 8.00749 75.5133 8.00749 72.9749 10.5459L74.3891 11.9601C76.1464 10.2027 78.9957 10.2027 80.753 11.9601L82.1672 10.5459ZM79.6924 13.0208C78.5208 11.8492 76.6213 11.8492 75.4497 13.0208L77.571 15.1421L79.6924 13.0208Z" fill="black"/>
<path fill-rule="evenodd" clip-rule="evenodd" d="M70.5 8.07102C74.4052 4.16578 80.7369 4.16578 84.6421 8.07102L83.2279 9.48524C80.1037 6.36104 75.0384 6.36104 71.9142 9.48524L70.5 8.07102Z" fill="black" fill-opacity="0.25"/>
<path d="M30.3008 14.6406C29.7188 14.6406 29.1914 14.5391 28.7188 14.3359C28.25 14.1289 27.8496 13.8359 27.5176 13.457C27.1895 13.0781 26.9355 12.6191 26.7559 12.0801C26.5801 11.541 26.4922 10.9375 26.4922 10.2695C26.4922 9.60547 26.582 9.00586 26.7617 8.4707C26.9414 7.93164 27.1973 7.47266 27.5293 7.09375C27.8613 6.71094 28.2617 6.41797 28.7305 6.21484C29.1992 6.00781 29.7227 5.9043 30.3008 5.9043C30.7617 5.9043 31.1895 5.97266 31.584 6.10938C31.9824 6.24219 32.3359 6.43164 32.6445 6.67773C32.9531 6.91992 33.207 7.21484 33.4062 7.5625C33.6094 7.90625 33.7441 8.28906 33.8105 8.71094H32.7441C32.6777 8.43359 32.5684 8.18359 32.416 7.96094C32.2676 7.73438 32.0859 7.54102 31.8711 7.38086C31.6602 7.2207 31.4199 7.09766 31.1504 7.01172C30.8848 6.92188 30.6016 6.87695 30.3008 6.87695C29.8867 6.87695 29.5117 6.95703 29.1758 7.11719C28.8398 7.27734 28.5527 7.50586 28.3145 7.80273C28.0801 8.09961 27.8984 8.45703 27.7695 8.875C27.6406 9.28906 27.5762 9.75391 27.5762 10.2695C27.5762 10.7891 27.6387 11.2578 27.7637 11.6758C27.8926 12.0938 28.0762 12.4512 28.3145 12.748C28.5527 13.041 28.8398 13.2676 29.1758 13.4277C29.5117 13.5879 29.8887 13.668 30.3066 13.668C30.6152 13.668 30.9023 13.6328 31.168 13.5625C31.4336 13.4883 31.6699 13.3809 31.877 13.2402C32.084 13.0996 32.2598 12.9297 32.4043 12.7305C32.5527 12.5273 32.666 12.2969 32.7441 12.0391H33.8105C33.6152 12.8789 33.2168 13.5234 32.6152 13.9727C32.0137 14.418 31.2422 14.6406 30.3008 14.6406ZM36.9422 13.6738C37.2 13.6738 37.4383 13.6348 37.657 13.5566C37.8758 13.4785 38.0633 13.3691 38.2195 13.2285C38.3797 13.0879 38.5047 12.9219 38.5945 12.7305C38.6844 12.5352 38.7293 12.3242 38.7293 12.0977V11.5879L37.077 11.6934C36.6004 11.7246 36.241 11.8262 35.9988 11.998C35.7566 12.166 35.6355 12.4023 35.6355 12.707C35.6355 12.8555 35.6648 12.9883 35.7234 13.1055C35.7859 13.2227 35.8738 13.3242 35.9871 13.4102C36.1043 13.4961 36.243 13.5625 36.4031 13.6094C36.5633 13.6523 36.743 13.6738 36.9422 13.6738ZM36.7254 14.5586C36.4051 14.5586 36.1141 14.5156 35.8523 14.4297C35.5906 14.3398 35.366 14.2148 35.1785 14.0547C34.991 13.8906 34.8465 13.6953 34.7449 13.4688C34.6434 13.2383 34.5926 12.9824 34.5926 12.7012C34.5926 12.1543 34.7937 11.7266 35.1961 11.418C35.5984 11.1094 36.1863 10.9316 36.9598 10.8848L38.7293 10.7793V10.252C38.7293 9.85742 38.6043 9.55664 38.3543 9.34961C38.1082 9.13867 37.7508 9.0332 37.282 9.0332C37.0984 9.0332 36.9285 9.05664 36.7723 9.10352C36.616 9.14648 36.4754 9.21094 36.3504 9.29688C36.2293 9.37891 36.1277 9.48047 36.0457 9.60156C35.9676 9.72266 35.9129 9.85742 35.8816 10.0059H34.9031C34.9109 9.74023 34.9773 9.49219 35.1023 9.26172C35.2273 9.03125 35.3973 8.83203 35.6121 8.66406C35.827 8.49609 36.077 8.36523 36.3621 8.27148C36.6512 8.17383 36.9617 8.125 37.2937 8.125C37.6687 8.125 38.0066 8.17383 38.3074 8.27148C38.6082 8.36523 38.866 8.50195 39.0809 8.68164C39.2957 8.85742 39.4598 9.07227 39.573 9.32617C39.6902 9.57617 39.7488 9.85547 39.7488 10.1641V14.5H38.782V13.4043H38.7586C38.6687 13.5801 38.5535 13.7402 38.4129 13.8848C38.2723 14.0254 38.1141 14.1465 37.9383 14.248C37.7625 14.3457 37.5711 14.4219 37.3641 14.4766C37.1609 14.5312 36.948 14.5586 36.7254 14.5586ZM41.0523 8.18359H42.0133V9.20898H42.0367C42.0836 9.04492 42.1539 8.89648 42.2477 8.76367C42.3453 8.62695 42.4605 8.51172 42.5934 8.41797C42.7262 8.32422 42.8746 8.25195 43.0387 8.20117C43.2066 8.15039 43.3824 8.125 43.566 8.125C43.6285 8.125 43.6988 8.12891 43.777 8.13672C43.8551 8.14453 43.9156 8.1543 43.9586 8.16602V9.17383C43.9156 9.1543 43.8395 9.13867 43.7301 9.12695C43.6207 9.11133 43.5211 9.10352 43.4312 9.10352C43.2242 9.10352 43.0367 9.14062 42.8687 9.21484C42.7047 9.28516 42.5621 9.38477 42.441 9.51367C42.3238 9.64258 42.232 9.79883 42.1656 9.98242C42.1031 10.166 42.0719 10.3691 42.0719 10.5918V14.5H41.0523V8.18359ZM44.8109 8.18359H45.7719V9.20898H45.7953C45.8422 9.04492 45.9125 8.89648 46.0063 8.76367C46.1039 8.62695 46.2191 8.51172 46.352 8.41797C46.4848 8.32422 46.6332 8.25195 46.7973 8.20117C46.9652 8.15039 47.141 8.125 47.3246 8.125C47.3871 8.125 47.4574 8.12891 47.5355 8.13672C47.6137 8.14453 47.6742 8.1543 47.7172 8.16602V9.17383C47.6742 9.1543 47.598 9.13867 47.4887 9.12695C47.3793 9.11133 47.2797 9.10352 47.1898 9.10352C46.9828 9.10352 46.7953 9.14062 46.6273 9.21484C46.4633 9.28516 46.3207 9.38477 46.1996 9.51367C46.0824 9.64258 45.9906 9.79883 45.9242 9.98242C45.8617 10.166 45.8305 10.3691 45.8305 10.5918V14.5H44.8109V8.18359ZM48.6281 8.18359H49.6477V14.5H48.6281V8.18359ZM49.1379 7.16406C49.048 7.16406 48.9641 7.14844 48.8859 7.11719C48.8078 7.08203 48.7395 7.03516 48.6809 6.97656C48.6223 6.91797 48.5754 6.84961 48.5402 6.77148C48.509 6.69336 48.4934 6.60938 48.4934 6.51953C48.4934 6.42969 48.509 6.3457 48.5402 6.26758C48.5754 6.18945 48.6223 6.12109 48.6809 6.0625C48.7395 6.00391 48.8078 5.95898 48.8859 5.92773C48.9641 5.89258 49.048 5.875 49.1379 5.875C49.2277 5.875 49.3117 5.89258 49.3898 5.92773C49.468 5.95898 49.5363 6.00391 49.5949 6.0625C49.6535 6.12109 49.6984 6.18945 49.7297 6.26758C49.7648 6.3457 49.7824 6.42969 49.7824 6.51953C49.7824 6.60938 49.7648 6.69336 49.7297 6.77148C49.6984 6.84961 49.6535 6.91797 49.5949 6.97656C49.5363 7.03516 49.468 7.08203 49.3898 7.11719C49.3117 7.14844 49.2277 7.16406 49.1379 7.16406ZM53.5586 9.02148C53.3125 9.02148 53.084 9.06445 52.873 9.15039C52.6621 9.23633 52.4785 9.35742 52.3223 9.51367C52.1699 9.66992 52.0449 9.85938 51.9473 10.082C51.8535 10.3008 51.7988 10.543 51.7832 10.8086H55.2578C55.25 10.5391 55.2031 10.2949 55.1172 10.0762C55.0352 9.85742 54.9199 9.66992 54.7715 9.51367C54.623 9.35742 54.4453 9.23633 54.2383 9.15039C54.0352 9.06445 53.8086 9.02148 53.5586 9.02148ZM56.2422 12.6953C56.1992 12.9648 56.1016 13.2148 55.9492 13.4453C55.7969 13.6719 55.6035 13.8691 55.3691 14.0371C55.1387 14.2012 54.873 14.3301 54.5723 14.4238C54.2754 14.5137 53.959 14.5586 53.623 14.5586C53.1777 14.5586 52.7773 14.4844 52.4219 14.3359C52.0664 14.1875 51.7617 13.9746 51.5078 13.6973C51.2578 13.4199 51.0645 13.084 50.9277 12.6895C50.7949 12.2949 50.7285 11.8535 50.7285 11.3652C50.7285 10.877 50.7949 10.4336 50.9277 10.0352C51.0645 9.63672 51.2559 9.29688 51.502 9.01562C51.752 8.73047 52.0527 8.51172 52.4043 8.35938C52.7559 8.20312 53.1465 8.125 53.5762 8.125C53.998 8.125 54.377 8.19727 54.7129 8.3418C55.0527 8.48633 55.3418 8.69336 55.5801 8.96289C55.8184 9.22852 56 9.55273 56.125 9.93555C56.2539 10.3184 56.3184 10.748 56.3184 11.2246V11.623H51.7832V11.6816C51.7832 11.9824 51.8262 12.2559 51.9121 12.502C52.002 12.7441 52.1289 12.9512 52.293 13.123C52.457 13.2949 52.6523 13.4277 52.8789 13.5215C53.1094 13.6152 53.3652 13.6621 53.6465 13.6621C53.8457 13.6621 54.0312 13.6406 54.2031 13.5977C54.375 13.5508 54.5293 13.4863 54.666 13.4043C54.8066 13.3184 54.9238 13.2168 55.0176 13.0996C55.1152 12.9785 55.1875 12.8438 55.2344 12.6953H56.2422ZM57.3406 8.18359H58.3016V9.20898H58.325C58.3719 9.04492 58.4422 8.89648 58.5359 8.76367C58.6336 8.62695 58.7488 8.51172 58.8816 8.41797C59.0145 8.32422 59.1629 8.25195 59.327 8.20117C59.4949 8.15039 59.6707 8.125 59.8543 8.125C59.9168 8.125 59.9871 8.12891 60.0652 8.13672C60.1434 8.14453 60.2039 8.1543 60.2469 8.16602V9.17383C60.2039 9.1543 60.1277 9.13867 60.0184 9.12695C59.909 9.11133 59.8094 9.10352 59.7195 9.10352C59.5125 9.10352 59.325 9.14062 59.157 9.21484C58.993 9.28516 58.8504 9.38477 58.7293 9.51367C58.6121 9.64258 58.5203 9.79883 58.4539 9.98242C58.3914 10.166 58.3602 10.3691 58.3602 10.5918V14.5H57.3406V8.18359Z" fill="black"/>
<path fill-rule="evenodd" clip-rule="evenodd" d="M20.5 5H21.5C22.0523 5 22.5 5.44772 22.5 6V14C22.5 14.5523 22.0523 15 21.5 15H20.5C19.9477 15 19.5 14.5523 19.5 14V6C19.5 5.44772 19.9477 5 20.5 5Z" fill="black" fill-opacity="0.25"/>
<path fill-rule="evenodd" clip-rule="evenodd" d="M17 7H16C15.4477 7 15 7.44772 15 8V14C15 14.5523 15.4477 15 16 15H17C17.5523 15 18 14.5523 18 14V8C18 7.44772 17.5523 7 17 7ZM11.5 9H12.5C13.0523 9 13.5 9.44772 13.5 10V14C13.5 14.5523 13.0523 15 12.5 15H11.5C10.9477 15 10.5 14.5523 10.5 14V10C10.5 9.44772 10.9477 9 11.5 9ZM7 10.5H8C8.55228 10.5 9 10.9477 9 11.5V14C9 14.5523 8.55228 15 8 15H7C6.44772 15 6 14.5523 6 14V11.5C6 10.9477 6.44772 10.5 7 10.5Z" fill="black"/>
<path d="M102.258 358V343.908H99.7383V358H102.258ZM105.734 343.908V358H111.018C115.236 358 117.648 355.412 117.648 350.891C117.648 346.467 115.207 343.908 111.018 343.908H105.734ZM108.254 346.027H110.686C113.449 346.027 115.08 347.824 115.08 350.93C115.08 354.104 113.488 355.881 110.686 355.881H108.254V346.027ZM130.432 358.215C133.615 358.215 135.588 356.145 135.588 352.775C135.588 349.592 133.684 347.648 130.891 347.648C129.123 347.648 127.951 348.459 127.307 349.65H127.141C127.434 347.189 128.293 345.822 131.008 345.715L132.238 345.666C134.191 345.598 134.885 345.139 134.885 345.139V343.176C134.895 343.176 133.762 343.596 132.092 343.664L130.832 343.713C126.779 343.879 125.217 346.584 125.217 351.818C125.217 356.115 127.131 358.215 130.432 358.215ZM130.402 356.232C128.684 356.232 127.707 354.992 127.707 352.824C127.707 350.754 128.693 349.553 130.402 349.553C132.111 349.553 133.098 350.754 133.098 352.824C133.098 354.992 132.111 356.232 130.402 356.232ZM148.205 358H150.617V347.326H148.205V358ZM138.244 358H142.785C145.275 358 146.867 356.555 146.867 354.279C146.867 352.004 145.275 350.549 142.785 350.549H140.666V347.326H138.244V358ZM142.492 352.424C143.684 352.424 144.455 353.156 144.455 354.27C144.455 355.373 143.693 356.115 142.492 356.115H140.666V352.424H142.492ZM156.916 353.059L157.18 349.221H160.314V358H162.727V347.326H155.07L154.719 352.932C154.611 354.729 154.26 355.969 153.225 355.969C152.961 355.969 152.746 355.92 152.639 355.891V357.99C152.775 358.039 153.049 358.107 153.449 358.107C155.92 358.107 156.711 356.125 156.916 353.059ZM175.832 358.215C179.025 358.215 180.969 356.125 180.969 352.658C180.969 349.211 179.016 347.121 175.832 347.121C172.658 347.121 170.695 349.221 170.695 352.658C170.695 356.125 172.629 358.215 175.832 358.215ZM175.832 356.232C174.143 356.232 173.176 354.924 173.176 352.668C173.176 350.412 174.143 349.104 175.832 349.104C177.512 349.104 178.479 350.412 178.479 352.668C178.479 354.924 177.521 356.232 175.832 356.232ZM191.125 347.326H182.121V349.221H185.412V358H187.834V349.221H191.125V347.326ZM200.266 358H202.688V347.326H193.42V358H195.842V349.221H200.266V358ZM211.672 347.15C210.207 347.15 208.967 347.883 208.352 349.094H208.186V347.326H205.852V361.545H208.273V356.379H208.439C208.986 357.512 210.168 358.176 211.701 358.176C214.396 358.176 216.076 356.057 216.076 352.668C216.076 349.25 214.377 347.15 211.672 347.15ZM210.91 356.164C209.26 356.164 208.234 354.826 208.225 352.668C208.234 350.51 209.27 349.172 210.92 349.172C212.58 349.172 213.586 350.48 213.586 352.668C213.586 354.855 212.59 356.164 210.91 356.164ZM221.643 358.176C223.039 358.176 224.211 357.57 224.807 356.535H224.973V358H227.307V350.705C227.307 348.449 225.764 347.121 223.02 347.121C220.48 347.121 218.713 348.312 218.518 350.178H220.803C221.027 349.445 221.789 349.045 222.902 349.045C224.211 349.045 224.914 349.641 224.914 350.705V351.623L222.16 351.789C219.562 351.936 218.107 353.059 218.107 354.973C218.107 356.926 219.582 358.176 221.643 358.176ZM222.355 356.311C221.281 356.311 220.51 355.773 220.51 354.855C220.51 353.967 221.145 353.469 222.502 353.381L224.914 353.215V354.084C224.914 355.354 223.82 356.311 222.355 356.311ZM235.529 358C237.902 358 239.348 356.779 239.348 354.953C239.348 353.654 238.42 352.678 237.014 352.521V352.355C238.098 352.17 238.869 351.184 238.869 350.061C238.869 348.41 237.609 347.326 235.461 347.326H230.412V358H235.529ZM232.805 349.006H234.904C235.979 349.006 236.496 349.553 236.496 350.373C236.496 351.271 235.91 351.76 234.709 351.76H232.805V349.006ZM232.805 353.391H234.885C236.213 353.391 236.896 353.879 236.896 354.846C236.896 355.773 236.281 356.32 235.109 356.32H232.805V353.391ZM245.061 353.059L245.324 349.221H248.459V358H250.871V347.326H243.215L242.863 352.932C242.756 354.729 242.404 355.969 241.369 355.969C241.105 355.969 240.891 355.92 240.783 355.891V357.99C240.92 358.039 241.193 358.107 241.594 358.107C244.064 358.107 244.855 356.125 245.061 353.059ZM260.998 355.08C260.646 355.881 259.816 356.33 258.615 356.33C257.023 356.33 255.998 355.197 255.939 353.391V353.264H263.4V352.492C263.4 349.143 261.574 347.121 258.527 347.121C255.432 347.121 253.508 349.279 253.508 352.707C253.508 356.125 255.402 358.215 258.547 358.215C261.066 358.215 262.854 357.004 263.293 355.08H260.998ZM258.518 349.006C259.973 349.006 260.93 350.031 260.979 351.652H255.949C256.057 350.051 257.072 349.006 258.518 349.006ZM272.961 358H275.383V347.326H272.961V351.555H268.439V347.326H266.018V358H268.439V353.449H272.961V358Z" fill="#1B3259"/>
<circle cx="141" cy="415" r="6" fill="#DEE2E6"/>
<circle cx="172" cy="415" r="6" fill="#DEE2E6"/>
<circle cx="234" cy="415" r="6" fill="#DEE2E6"/>
<circle cx="203" cy="415" r="6" fill="#1B3259"/>
<path fill-rule="evenodd" clip-rule="evenodd" d="M175.442 237.943L163.725 230.531L153.341 229.563L150.412 232.787L156.536 239.233L146.95 247.613L154.14 252.447L123.785 261.793L147.216 236.332L83.5786 274.041L107.809 269.206L108.075 272.429L128.845 268.884L133.903 273.396L95.8266 293.701L105.413 281.454L41.508 301.436L319.491 301.759L269.966 265.661L253.724 259.215L235.617 257.281L227.629 249.224L220.173 247.934L198.074 229.563L187.423 229.242L175.442 237.943ZM195.677 262.438L195.411 243.745L222.571 277.264L227.895 265.016L259.581 269.851L297.924 294.024L117.927 294.668L130.974 286.933L159.199 281.776L175.442 254.703L190.884 269.851L212.185 279.842L195.677 262.438Z" fill="url(#paint0_linear)"/>
</g>
<defs>
<linearGradient id="paint0_linear" x1="41.508" y1="263.047" x2="308.706" y2="331.657" gradientUnits="userSpaceOnUse">
<stop stop-color="#3F81AE"/>
<stop offset="1" stop-color="#C4D150"/>
</linearGradient>
<clipPath id="clip0">
<rect width="375" height="667" fill="white"/>
</clipPath>
</defs>
</svg>
