<svg width="375" height="667" viewBox="0 0 375 667" fill="none" xmlns="http://www.w3.org/2000/svg">
<g clip-path="url(#clip0)">
<rect width="375" height="667" fill="#F9FAF9"/>
<path d="M374 0.376709H0V667H374V0.376709Z" fill="#F9FAF9"/>
<path d="M103.861 75C106.869 75 108.705 73.4766 108.705 70.9961C108.705 69.1602 107.396 67.793 105.502 67.6172V67.4414C106.918 67.2168 108.012 65.9082 108.012 64.4238C108.012 62.2559 106.4 60.9082 103.725 60.9082H97.8359V75H103.861ZM100.355 62.8711H103.109C104.633 62.8711 105.521 63.6035 105.521 64.8633C105.521 66.1523 104.574 66.8457 102.787 66.8457H100.355V62.8711ZM100.355 73.0371V68.6328H103.188C105.111 68.6328 106.127 69.3848 106.127 70.8203C106.127 72.2656 105.141 73.0371 103.285 73.0371H100.355ZM116.498 75C118.871 75 120.316 73.7793 120.316 71.9531C120.316 70.6543 119.389 69.6777 117.982 69.5215V69.3555C119.066 69.1699 119.838 68.1836 119.838 67.0605C119.838 65.4102 118.578 64.3262 116.43 64.3262H111.381V75H116.498ZM113.773 66.0059H115.873C116.947 66.0059 117.465 66.5527 117.465 67.373C117.465 68.2715 116.879 68.7598 115.678 68.7598H113.773V66.0059ZM113.773 70.3906H115.854C117.182 70.3906 117.865 70.8789 117.865 71.8457C117.865 72.7734 117.25 73.3203 116.078 73.3203H113.773V70.3906ZM129.857 72.0801C129.506 72.8809 128.676 73.3301 127.475 73.3301C125.883 73.3301 124.857 72.1973 124.799 70.3906V70.2637H132.26V69.4922C132.26 66.1426 130.434 64.1211 127.387 64.1211C124.291 64.1211 122.367 66.2793 122.367 69.707C122.367 73.125 124.262 75.2148 127.406 75.2148C129.926 75.2148 131.713 74.0039 132.152 72.0801H129.857ZM127.377 66.0059C128.832 66.0059 129.789 67.0312 129.838 68.6523H124.809C124.916 67.0508 125.932 66.0059 127.377 66.0059ZM135.805 77.7832V75H143.461V77.7832H145.688V73.1152H144.047V64.3262H136.01L135.639 69.9316C135.541 71.3672 135.209 72.6465 134.418 73.1152H133.578V77.7832H135.805ZM141.625 73.1152H137.016V72.9395C137.484 72.2754 137.729 71.2305 137.816 70.0586L138.09 66.2109H141.625V73.1152ZM150.141 75L154.691 67.8125H154.857V75H157.25V64.3262H154.857L150.307 71.4746H150.141V64.3262H147.748V75H150.141ZM168.559 64.3262H159.555V66.2207H162.846V75H165.268V66.2207H168.559V64.3262ZM177.494 72.0801C177.143 72.8809 176.312 73.3301 175.111 73.3301C173.52 73.3301 172.494 72.1973 172.436 70.3906V70.2637H179.896V69.4922C179.896 66.1426 178.07 64.1211 175.023 64.1211C171.928 64.1211 170.004 66.2793 170.004 69.707C170.004 73.125 171.898 75.2148 175.043 75.2148C177.562 75.2148 179.35 74.0039 179.789 72.0801H177.494ZM175.014 66.0059C176.469 66.0059 177.426 67.0312 177.475 68.6523H172.445C172.553 67.0508 173.568 66.0059 175.014 66.0059ZM192.963 75C195.336 75 196.781 73.7793 196.781 71.9531C196.781 70.6543 195.854 69.6777 194.447 69.5215V69.3555C195.531 69.1699 196.303 68.1836 196.303 67.0605C196.303 65.4102 195.043 64.3262 192.895 64.3262H187.846V75H192.963ZM190.238 66.0059H192.338C193.412 66.0059 193.93 66.5527 193.93 67.373C193.93 68.2715 193.344 68.7598 192.143 68.7598H190.238V66.0059ZM190.238 70.3906H192.318C193.646 70.3906 194.33 70.8789 194.33 71.8457C194.33 72.7734 193.715 73.3203 192.543 73.3203H190.238V70.3906ZM202.396 75.1758C203.793 75.1758 204.965 74.5703 205.561 73.5352H205.727V75H208.061V67.7051C208.061 65.4492 206.518 64.1211 203.773 64.1211C201.234 64.1211 199.467 65.3125 199.271 67.1777H201.557C201.781 66.4453 202.543 66.0449 203.656 66.0449C204.965 66.0449 205.668 66.6406 205.668 67.7051V68.623L202.914 68.7891C200.316 68.9355 198.861 70.0586 198.861 71.9727C198.861 73.9258 200.336 75.1758 202.396 75.1758ZM203.109 73.3105C202.035 73.3105 201.264 72.7734 201.264 71.8555C201.264 70.9668 201.898 70.4688 203.256 70.3809L205.668 70.2148V71.084C205.668 72.3535 204.574 73.3105 203.109 73.3105ZM211.166 75H225.248V64.3262H222.826V73.1152H219.418V64.3262H216.996V73.1152H213.588V64.3262H211.166V75ZM230.785 75L235.336 67.8125H235.502V75H237.895V64.3262H235.502L230.951 71.4746H230.785V64.3262H228.393V75H230.785ZM247.387 77.7832V75H255.043V77.7832H257.27V73.1152H255.629V64.3262H247.592L247.221 69.9316C247.123 71.3672 246.791 72.6465 246 73.1152H245.16V77.7832H247.387ZM253.207 73.1152H248.598V72.9395C249.066 72.2754 249.311 71.2305 249.398 70.0586L249.672 66.2109H253.207V73.1152ZM262.279 75.1758C263.676 75.1758 264.848 74.5703 265.443 73.5352H265.609V75H267.943V67.7051C267.943 65.4492 266.4 64.1211 263.656 64.1211C261.117 64.1211 259.35 65.3125 259.154 67.1777H261.439C261.664 66.4453 262.426 66.0449 263.539 66.0449C264.848 66.0449 265.551 66.6406 265.551 67.7051V68.623L262.797 68.7891C260.199 68.9355 258.744 70.0586 258.744 71.9727C258.744 73.9258 260.219 75.1758 262.279 75.1758ZM262.992 73.3105C261.918 73.3105 261.146 72.7734 261.146 71.8555C261.146 70.9668 261.781 70.4688 263.139 70.3809L265.551 70.2148V71.084C265.551 72.3535 264.457 73.3105 262.992 73.3105ZM277.992 75H280.414V64.3262H277.992V68.5547H273.471V64.3262H271.049V75H273.471V70.4492H277.992V75ZM290.512 75H292.934V64.3262H290.512V68.5547H285.99V64.3262H283.568V75H285.99V70.4492H290.512V75ZM306.049 75H308.461V64.3262H306.049V75ZM296.088 75H300.629C303.119 75 304.711 73.5547 304.711 71.2793C304.711 69.0039 303.119 67.5488 300.629 67.5488H298.51V64.3262H296.088V75ZM300.336 69.4238C301.527 69.4238 302.299 70.1562 302.299 71.2695C302.299 72.373 301.537 73.1152 300.336 73.1152H298.51V69.4238H300.336ZM318.588 72.0801C318.236 72.8809 317.406 73.3301 316.205 73.3301C314.613 73.3301 313.588 72.1973 313.529 70.3906V70.2637H320.99V69.4922C320.99 66.1426 319.164 64.1211 316.117 64.1211C313.021 64.1211 311.098 66.2793 311.098 69.707C311.098 73.125 312.992 75.2148 316.137 75.2148C318.656 75.2148 320.443 74.0039 320.883 72.0801H318.588ZM316.107 66.0059C317.562 66.0059 318.52 67.0312 318.568 68.6523H313.539C313.646 67.0508 314.662 66.0059 316.107 66.0059Z" fill="#1B3259"/>
<path fill-rule="evenodd" clip-rule="evenodd" d="M345.5 5.5H364.5C365.881 5.5 367 6.61929 367 8V14.5C367 15.8807 365.881 17 364.5 17H345.5C344.119 17 343 15.8807 343 14.5V8C343 6.61929 344.119 5.5 345.5 5.5ZM345.5 6.5C344.672 6.5 344 7.17157 344 8V14.5C344 15.3284 344.672 16 345.5 16H364.5C365.328 16 366 15.3284 366 14.5V8C366 7.17157 365.328 6.5 364.5 6.5H345.5Z" fill="black" fill-opacity="0.38"/>
<path fill-rule="evenodd" clip-rule="evenodd" d="M368 8.7998C368.89 9.25498 369.5 10.1813 369.5 11.2499C369.5 12.3186 368.89 13.2449 368 13.7001V8.7998Z" fill="black" fill-opacity="0.49"/>
<path fill-rule="evenodd" clip-rule="evenodd" d="M346 7.5H364C364.552 7.5 365 7.94772 365 8.5V14C365 14.5523 364.552 15 364 15H346C345.448 15 345 14.5523 345 14V8.5C345 7.94772 345.448 7.5 346 7.5Z" fill="black"/>
<path d="M314.131 8.16406H314.107L311.869 9.77539V8.66211L314.119 7.04492H315.15V15.5H314.131V8.16406ZM320.254 15.6406C319.762 15.6406 319.322 15.5391 318.936 15.3359C318.549 15.1289 318.221 14.8359 317.951 14.457C317.686 14.0781 317.482 13.6191 317.342 13.0801C317.205 12.541 317.137 11.9375 317.137 11.2695C317.137 10.6094 317.207 10.0098 317.348 9.4707C317.488 8.93164 317.691 8.47266 317.957 8.09375C318.227 7.71484 318.553 7.42188 318.936 7.21484C319.322 7.00781 319.762 6.9043 320.254 6.9043C320.746 6.9043 321.184 7.00781 321.566 7.21484C321.953 7.41797 322.279 7.70898 322.545 8.08789C322.811 8.4668 323.012 8.92578 323.148 9.46484C323.289 10 323.359 10.5996 323.359 11.2637C323.359 11.9316 323.289 12.5352 323.148 13.0742C323.012 13.6133 322.811 14.0742 322.545 14.457C322.279 14.8359 321.953 15.1289 321.566 15.3359C321.184 15.5391 320.746 15.6406 320.254 15.6406ZM320.254 14.7207C320.582 14.7207 320.873 14.6406 321.127 14.4805C321.385 14.3164 321.6 14.0859 321.771 13.7891C321.943 13.4883 322.074 13.125 322.164 12.6992C322.254 12.2734 322.299 11.7969 322.299 11.2695C322.299 10.75 322.254 10.2793 322.164 9.85742C322.074 9.43164 321.941 9.07031 321.766 8.77344C321.594 8.47266 321.381 8.24023 321.127 8.07617C320.873 7.91211 320.582 7.83008 320.254 7.83008C319.926 7.83008 319.635 7.91211 319.381 8.07617C319.127 8.24023 318.912 8.47266 318.736 8.77344C318.561 9.07422 318.426 9.43555 318.332 9.85742C318.242 10.2793 318.197 10.748 318.197 11.2637C318.197 11.791 318.242 12.2676 318.332 12.6934C318.422 13.1191 318.553 13.4824 318.725 13.7832C318.9 14.084 319.115 14.3164 319.369 14.4805C319.627 14.6406 319.922 14.7207 320.254 14.7207ZM327.531 15.6406C327.039 15.6406 326.6 15.5391 326.213 15.3359C325.826 15.1289 325.498 14.8359 325.229 14.457C324.963 14.0781 324.76 13.6191 324.619 13.0801C324.482 12.541 324.414 11.9375 324.414 11.2695C324.414 10.6094 324.484 10.0098 324.625 9.4707C324.766 8.93164 324.969 8.47266 325.234 8.09375C325.504 7.71484 325.83 7.42188 326.213 7.21484C326.6 7.00781 327.039 6.9043 327.531 6.9043C328.023 6.9043 328.461 7.00781 328.844 7.21484C329.23 7.41797 329.557 7.70898 329.822 8.08789C330.088 8.4668 330.289 8.92578 330.426 9.46484C330.566 10 330.637 10.5996 330.637 11.2637C330.637 11.9316 330.566 12.5352 330.426 13.0742C330.289 13.6133 330.088 14.0742 329.822 14.457C329.557 14.8359 329.23 15.1289 328.844 15.3359C328.461 15.5391 328.023 15.6406 327.531 15.6406ZM327.531 14.7207C327.859 14.7207 328.15 14.6406 328.404 14.4805C328.662 14.3164 328.877 14.0859 329.049 13.7891C329.221 13.4883 329.352 13.125 329.441 12.6992C329.531 12.2734 329.576 11.7969 329.576 11.2695C329.576 10.75 329.531 10.2793 329.441 9.85742C329.352 9.43164 329.219 9.07031 329.043 8.77344C328.871 8.47266 328.658 8.24023 328.404 8.07617C328.15 7.91211 327.859 7.83008 327.531 7.83008C327.203 7.83008 326.912 7.91211 326.658 8.07617C326.404 8.24023 326.189 8.47266 326.014 8.77344C325.838 9.07422 325.703 9.43555 325.609 9.85742C325.52 10.2793 325.475 10.748 325.475 11.2637C325.475 11.791 325.52 12.2676 325.609 12.6934C325.699 13.1191 325.83 13.4824 326.002 13.7832C326.178 14.084 326.393 14.3164 326.646 14.4805C326.904 14.6406 327.199 14.7207 327.531 14.7207ZM331.967 15.5L338.154 7.04492H339.162L332.986 15.5H331.967ZM339.707 13.4844C339.707 13.8047 339.664 14.0957 339.578 14.3574C339.496 14.6152 339.377 14.8359 339.221 15.0195C339.068 15.2031 338.883 15.3457 338.664 15.4473C338.449 15.5449 338.207 15.5938 337.938 15.5938C337.668 15.5938 337.424 15.5449 337.205 15.4473C336.99 15.3457 336.805 15.2031 336.648 15.0195C336.492 14.8359 336.371 14.6152 336.285 14.3574C336.203 14.0957 336.162 13.8047 336.162 13.4844C336.162 13.168 336.203 12.8809 336.285 12.623C336.371 12.3613 336.492 12.1387 336.648 11.9551C336.805 11.7715 336.99 11.6309 337.205 11.5332C337.424 11.4316 337.668 11.3809 337.938 11.3809C338.207 11.3809 338.449 11.4316 338.664 11.5332C338.883 11.6309 339.068 11.7715 339.221 11.9551C339.377 12.1387 339.496 12.3613 339.578 12.623C339.664 12.8809 339.707 13.168 339.707 13.4844ZM337.938 14.8789C338.066 14.8789 338.182 14.8477 338.283 14.7852C338.389 14.7188 338.477 14.625 338.547 14.5039C338.617 14.3828 338.672 14.2363 338.711 14.0645C338.75 13.8926 338.77 13.6992 338.77 13.4844C338.77 13.0469 338.697 12.707 338.553 12.4648C338.408 12.2227 338.203 12.1016 337.938 12.1016C337.68 12.1016 337.475 12.2266 337.322 12.4766C337.174 12.7227 337.1 13.0586 337.1 13.4844C337.1 13.6992 337.119 13.8926 337.158 14.0645C337.197 14.2363 337.252 14.3828 337.322 14.5039C337.396 14.625 337.484 14.7188 337.586 14.7852C337.691 14.8477 337.809 14.8789 337.938 14.8789ZM335.002 9.04297C335.002 9.36328 334.959 9.6543 334.873 9.91602C334.791 10.1738 334.672 10.3945 334.516 10.5781C334.363 10.7617 334.178 10.9043 333.959 11.0059C333.744 11.1035 333.502 11.1523 333.232 11.1523C332.963 11.1523 332.719 11.1035 332.5 11.0059C332.285 10.9043 332.1 10.7617 331.943 10.5781C331.787 10.3945 331.666 10.1738 331.58 9.91602C331.498 9.6543 331.457 9.36328 331.457 9.04297C331.457 8.72656 331.498 8.43945 331.58 8.18164C331.666 7.91992 331.787 7.69727 331.943 7.51367C332.1 7.33008 332.285 7.18945 332.5 7.0918C332.719 6.99023 332.963 6.93945 333.232 6.93945C333.502 6.93945 333.744 6.99023 333.959 7.0918C334.178 7.18945 334.363 7.33008 334.516 7.51367C334.672 7.69727 334.791 7.91992 334.873 8.18164C334.959 8.43945 335.002 8.72656 335.002 9.04297ZM333.232 10.4375C333.361 10.4375 333.477 10.4062 333.578 10.3438C333.684 10.2773 333.771 10.1836 333.842 10.0625C333.912 9.94141 333.967 9.79492 334.006 9.62305C334.045 9.45117 334.064 9.25781 334.064 9.04297C334.064 8.60547 333.992 8.26562 333.848 8.02344C333.703 7.78125 333.498 7.66016 333.232 7.66016C332.975 7.66016 332.77 7.78516 332.617 8.03516C332.469 8.28125 332.395 8.61719 332.395 9.04297C332.395 9.25781 332.414 9.45117 332.453 9.62305C332.492 9.79492 332.547 9.94141 332.617 10.0625C332.691 10.1836 332.779 10.2773 332.881 10.3438C332.986 10.4062 333.104 10.4375 333.232 10.4375Z" fill="black"/>
<path fill-rule="evenodd" clip-rule="evenodd" d="M300.874 7.19111L302.524 8.78081L300.874 10.2111V7.19111ZM301.47 10.9993L304 8.80741L299.996 5V5.5V6.34563V9.72135L297.622 7.665L297 8.43104L299.964 10.9993L297 13.5675L297.622 14.3335L299.996 12.2772V15.6529V16.5V16.9985L304 13.1911L301.47 10.9993ZM300.874 14.8074L302.524 13.2177L300.874 11.7874V14.8074Z" fill="black"/>
<path fill-rule="evenodd" clip-rule="evenodd" d="M283.667 6.87174C283.171 6.37609 282.367 6.37609 281.872 6.87174C281.376 7.36739 281.376 8.17101 281.872 8.66666L283.667 6.87174ZM288.833 6.87174C289.329 6.37609 290.133 6.37609 290.628 6.87174C291.124 7.36739 291.124 8.17101 290.628 8.66666L288.833 6.87174ZM290.5 11.25C290.5 13.5972 288.597 15.5 286.25 15.5C283.903 15.5 282 13.5972 282 11.25C282 8.90279 283.903 7 286.25 7C288.597 7 290.5 8.90279 290.5 11.25ZM286.25 8.5H286.997V11.25H287.002V11.9966H286.997V12H286.25V11.9966H284.502V11.25H286.25V8.5Z" fill="black"/>
<path fill-rule="evenodd" clip-rule="evenodd" d="M265 11L275 6.5L270.5 16.5V11H265Z" fill="black"/>
<path fill-rule="evenodd" clip-rule="evenodd" d="M252.5 6C255.093 6 257.224 7.97334 257.475 10.5H259L257 12.5L255 10.5H256.519C256.273 8.49915 254.567 6.95 252.5 6.95C250.263 6.95 248.45 8.76324 248.45 11C248.45 13.2368 250.263 15.05 252.5 15.05C253.945 15.05 255.214 14.2928 255.931 13.1535L256.719 13.6851C255.831 15.0769 254.273 16 252.5 16C249.739 16 247.5 13.7614 247.5 11C247.5 8.23858 249.739 6 252.5 6ZM251 9.25V10.5C250.724 10.5 250.5 10.7239 250.5 11V13C250.5 13.2761 250.724 13.5 251 13.5H254C254.276 13.5 254.5 13.2761 254.5 13V11C254.5 10.7239 254.276 10.5 254 10.5V9.25C254 8.55964 253.44 8 252.75 8H252.25C251.56 8 251 8.55964 251 9.25ZM253.35 9.325V10.5H251.65V9.325C251.65 8.97982 251.93 8.7 252.275 8.7H252.725C253.07 8.7 253.35 8.97982 253.35 9.325Z" fill="#111111"/>
<path d="M169.143 8.16406H169.119L166.881 9.77539V8.66211L169.131 7.04492H170.162V15.5H169.143V8.16406ZM173.145 15.5586C173.051 15.5586 172.963 15.541 172.881 15.5059C172.799 15.4707 172.729 15.4238 172.67 15.3652C172.611 15.3066 172.564 15.2363 172.529 15.1543C172.494 15.0723 172.477 14.9844 172.477 14.8906C172.477 14.7969 172.494 14.709 172.529 14.627C172.564 14.5449 172.611 14.4746 172.67 14.416C172.729 14.3535 172.799 14.3066 172.881 14.2754C172.963 14.2402 173.051 14.2227 173.145 14.2227C173.336 14.2227 173.494 14.2871 173.619 14.416C173.748 14.541 173.812 14.6992 173.812 14.8906C173.812 14.9844 173.795 15.0723 173.76 15.1543C173.729 15.2363 173.682 15.3066 173.619 15.3652C173.561 15.4238 173.49 15.4707 173.408 15.5059C173.326 15.541 173.238 15.5586 173.145 15.5586ZM173.145 11.2461C173.051 11.2461 172.963 11.2285 172.881 11.1934C172.799 11.1582 172.729 11.1113 172.67 11.0527C172.611 10.9941 172.564 10.9238 172.529 10.8418C172.494 10.7598 172.477 10.6719 172.477 10.5781C172.477 10.4844 172.494 10.3965 172.529 10.3145C172.564 10.2324 172.611 10.1621 172.67 10.1035C172.729 10.041 172.799 9.99414 172.881 9.96289C172.963 9.92773 173.051 9.91016 173.145 9.91016C173.336 9.91016 173.494 9.97461 173.619 10.1035C173.748 10.2285 173.812 10.3867 173.812 10.5781C173.812 10.6719 173.795 10.7598 173.76 10.8418C173.729 10.9238 173.682 10.9941 173.619 11.0527C173.561 11.1113 173.49 11.1582 173.408 11.1934C173.326 11.2285 173.238 11.2461 173.145 11.2461ZM175.301 9.48242C175.301 9.11523 175.371 8.77344 175.512 8.45703C175.652 8.14062 175.848 7.86914 176.098 7.64258C176.348 7.41211 176.643 7.23242 176.982 7.10352C177.322 6.9707 177.691 6.9043 178.09 6.9043C178.469 6.9043 178.822 6.96484 179.15 7.08594C179.479 7.20703 179.764 7.37305 180.006 7.58398C180.248 7.79102 180.439 8.03516 180.58 8.31641C180.721 8.59766 180.791 8.90039 180.791 9.22461C180.791 9.45898 180.762 9.68555 180.703 9.9043C180.645 10.1191 180.543 10.3457 180.398 10.584C180.258 10.8223 180.068 11.082 179.83 11.3633C179.596 11.6445 179.303 11.9668 178.951 12.3301L176.812 14.5391V14.5625H180.932V15.5H175.354V14.7734L178.33 11.6387C178.615 11.3418 178.848 11.0859 179.027 10.8711C179.211 10.6523 179.355 10.4551 179.461 10.2793C179.566 10.1035 179.639 9.93945 179.678 9.78711C179.717 9.63086 179.736 9.46484 179.736 9.28906C179.736 9.08594 179.691 8.89648 179.602 8.7207C179.516 8.54102 179.396 8.38477 179.244 8.25195C179.096 8.11914 178.92 8.01562 178.717 7.94141C178.514 7.86328 178.295 7.82422 178.061 7.82422C177.814 7.82422 177.584 7.86719 177.369 7.95312C177.158 8.03516 176.975 8.15039 176.818 8.29883C176.662 8.44727 176.539 8.62305 176.449 8.82617C176.363 9.0293 176.32 9.24805 176.32 9.48242V9.48828H175.301V9.48242ZM185.109 15.6406C184.617 15.6406 184.178 15.5391 183.791 15.3359C183.404 15.1289 183.076 14.8359 182.807 14.457C182.541 14.0781 182.338 13.6191 182.197 13.0801C182.061 12.541 181.992 11.9375 181.992 11.2695C181.992 10.6094 182.062 10.0098 182.203 9.4707C182.344 8.93164 182.547 8.47266 182.812 8.09375C183.082 7.71484 183.408 7.42188 183.791 7.21484C184.178 7.00781 184.617 6.9043 185.109 6.9043C185.602 6.9043 186.039 7.00781 186.422 7.21484C186.809 7.41797 187.135 7.70898 187.4 8.08789C187.666 8.4668 187.867 8.92578 188.004 9.46484C188.145 10 188.215 10.5996 188.215 11.2637C188.215 11.9316 188.145 12.5352 188.004 13.0742C187.867 13.6133 187.666 14.0742 187.4 14.457C187.135 14.8359 186.809 15.1289 186.422 15.3359C186.039 15.5391 185.602 15.6406 185.109 15.6406ZM185.109 14.7207C185.438 14.7207 185.729 14.6406 185.982 14.4805C186.24 14.3164 186.455 14.0859 186.627 13.7891C186.799 13.4883 186.93 13.125 187.02 12.6992C187.109 12.2734 187.154 11.7969 187.154 11.2695C187.154 10.75 187.109 10.2793 187.02 9.85742C186.93 9.43164 186.797 9.07031 186.621 8.77344C186.449 8.47266 186.236 8.24023 185.982 8.07617C185.729 7.91211 185.438 7.83008 185.109 7.83008C184.781 7.83008 184.49 7.91211 184.236 8.07617C183.982 8.24023 183.768 8.47266 183.592 8.77344C183.416 9.07422 183.281 9.43555 183.188 9.85742C183.098 10.2793 183.053 10.748 183.053 11.2637C183.053 11.791 183.098 12.2676 183.188 12.6934C183.277 13.1191 183.408 13.4824 183.58 13.7832C183.756 14.084 183.971 14.3164 184.225 14.4805C184.482 14.6406 184.777 14.7207 185.109 14.7207ZM195.627 7.04492C196.025 7.04492 196.389 7.11133 196.717 7.24414C197.049 7.37695 197.334 7.5625 197.572 7.80078C197.814 8.03906 198.002 8.32617 198.135 8.66211C198.268 8.99414 198.334 9.35938 198.334 9.75781C198.334 10.1602 198.266 10.5293 198.129 10.8652C197.996 11.1973 197.809 11.4844 197.566 11.7266C197.328 11.9648 197.043 12.1504 196.711 12.2832C196.379 12.416 196.014 12.4824 195.615 12.4824H193.488V15.5H192.434V7.04492H195.627ZM193.488 11.5449H195.352C195.652 11.5449 195.92 11.5059 196.154 11.4277C196.393 11.3457 196.592 11.2285 196.752 11.0762C196.916 10.9199 197.039 10.7324 197.121 10.5137C197.207 10.291 197.25 10.0391 197.25 9.75781C197.25 9.19531 197.086 8.75977 196.758 8.45117C196.43 8.13867 195.961 7.98242 195.352 7.98242H193.488V11.5449ZM207.879 15.5H206.895V8.98438H206.854L204.158 15.4414H203.268L200.572 8.98438H200.531V15.5H199.547V7.04492H200.771L203.689 14.0996H203.736L206.654 7.04492H207.879V15.5Z" fill="black"/>
<path fill-rule="evenodd" clip-rule="evenodd" d="M82.1672 11.5459C79.6288 9.00749 75.5133 9.00749 72.9749 11.5459L74.3891 12.9601C76.1464 11.2027 78.9957 11.2027 80.753 12.9601L82.1672 11.5459ZM79.6924 14.0208C78.5208 12.8492 76.6213 12.8492 75.4497 14.0208L77.571 16.1421L79.6924 14.0208Z" fill="black"/>
<path fill-rule="evenodd" clip-rule="evenodd" d="M70.5 9.07102C74.4052 5.16578 80.7369 5.16578 84.6421 9.07102L83.2279 10.4852C80.1037 7.36104 75.0384 7.36104 71.9142 10.4852L70.5 9.07102Z" fill="black" fill-opacity="0.25"/>
<path d="M30.3008 15.6406C29.7188 15.6406 29.1914 15.5391 28.7188 15.3359C28.25 15.1289 27.8496 14.8359 27.5176 14.457C27.1895 14.0781 26.9355 13.6191 26.7559 13.0801C26.5801 12.541 26.4922 11.9375 26.4922 11.2695C26.4922 10.6055 26.582 10.0059 26.7617 9.4707C26.9414 8.93164 27.1973 8.47266 27.5293 8.09375C27.8613 7.71094 28.2617 7.41797 28.7305 7.21484C29.1992 7.00781 29.7227 6.9043 30.3008 6.9043C30.7617 6.9043 31.1895 6.97266 31.584 7.10938C31.9824 7.24219 32.3359 7.43164 32.6445 7.67773C32.9531 7.91992 33.207 8.21484 33.4062 8.5625C33.6094 8.90625 33.7441 9.28906 33.8105 9.71094H32.7441C32.6777 9.43359 32.5684 9.18359 32.416 8.96094C32.2676 8.73438 32.0859 8.54102 31.8711 8.38086C31.6602 8.2207 31.4199 8.09766 31.1504 8.01172C30.8848 7.92188 30.6016 7.87695 30.3008 7.87695C29.8867 7.87695 29.5117 7.95703 29.1758 8.11719C28.8398 8.27734 28.5527 8.50586 28.3145 8.80273C28.0801 9.09961 27.8984 9.45703 27.7695 9.875C27.6406 10.2891 27.5762 10.7539 27.5762 11.2695C27.5762 11.7891 27.6387 12.2578 27.7637 12.6758C27.8926 13.0938 28.0762 13.4512 28.3145 13.748C28.5527 14.041 28.8398 14.2676 29.1758 14.4277C29.5117 14.5879 29.8887 14.668 30.3066 14.668C30.6152 14.668 30.9023 14.6328 31.168 14.5625C31.4336 14.4883 31.6699 14.3809 31.877 14.2402C32.084 14.0996 32.2598 13.9297 32.4043 13.7305C32.5527 13.5273 32.666 13.2969 32.7441 13.0391H33.8105C33.6152 13.8789 33.2168 14.5234 32.6152 14.9727C32.0137 15.418 31.2422 15.6406 30.3008 15.6406ZM36.9422 14.6738C37.2 14.6738 37.4383 14.6348 37.657 14.5566C37.8758 14.4785 38.0633 14.3691 38.2195 14.2285C38.3797 14.0879 38.5047 13.9219 38.5945 13.7305C38.6844 13.5352 38.7293 13.3242 38.7293 13.0977V12.5879L37.077 12.6934C36.6004 12.7246 36.241 12.8262 35.9988 12.998C35.7566 13.166 35.6355 13.4023 35.6355 13.707C35.6355 13.8555 35.6648 13.9883 35.7234 14.1055C35.7859 14.2227 35.8738 14.3242 35.9871 14.4102C36.1043 14.4961 36.243 14.5625 36.4031 14.6094C36.5633 14.6523 36.743 14.6738 36.9422 14.6738ZM36.7254 15.5586C36.4051 15.5586 36.1141 15.5156 35.8523 15.4297C35.5906 15.3398 35.366 15.2148 35.1785 15.0547C34.991 14.8906 34.8465 14.6953 34.7449 14.4688C34.6434 14.2383 34.5926 13.9824 34.5926 13.7012C34.5926 13.1543 34.7937 12.7266 35.1961 12.418C35.5984 12.1094 36.1863 11.9316 36.9598 11.8848L38.7293 11.7793V11.252C38.7293 10.8574 38.6043 10.5566 38.3543 10.3496C38.1082 10.1387 37.7508 10.0332 37.282 10.0332C37.0984 10.0332 36.9285 10.0566 36.7723 10.1035C36.616 10.1465 36.4754 10.2109 36.3504 10.2969C36.2293 10.3789 36.1277 10.4805 36.0457 10.6016C35.9676 10.7227 35.9129 10.8574 35.8816 11.0059H34.9031C34.9109 10.7402 34.9773 10.4922 35.1023 10.2617C35.2273 10.0312 35.3973 9.83203 35.6121 9.66406C35.827 9.49609 36.077 9.36523 36.3621 9.27148C36.6512 9.17383 36.9617 9.125 37.2937 9.125C37.6687 9.125 38.0066 9.17383 38.3074 9.27148C38.6082 9.36523 38.866 9.50195 39.0809 9.68164C39.2957 9.85742 39.4598 10.0723 39.573 10.3262C39.6902 10.5762 39.7488 10.8555 39.7488 11.1641V15.5H38.782V14.4043H38.7586C38.6687 14.5801 38.5535 14.7402 38.4129 14.8848C38.2723 15.0254 38.1141 15.1465 37.9383 15.248C37.7625 15.3457 37.5711 15.4219 37.3641 15.4766C37.1609 15.5312 36.948 15.5586 36.7254 15.5586ZM41.0523 9.18359H42.0133V10.209H42.0367C42.0836 10.0449 42.1539 9.89648 42.2477 9.76367C42.3453 9.62695 42.4605 9.51172 42.5934 9.41797C42.7262 9.32422 42.8746 9.25195 43.0387 9.20117C43.2066 9.15039 43.3824 9.125 43.566 9.125C43.6285 9.125 43.6988 9.12891 43.777 9.13672C43.8551 9.14453 43.9156 9.1543 43.9586 9.16602V10.1738C43.9156 10.1543 43.8395 10.1387 43.7301 10.127C43.6207 10.1113 43.5211 10.1035 43.4312 10.1035C43.2242 10.1035 43.0367 10.1406 42.8687 10.2148C42.7047 10.2852 42.5621 10.3848 42.441 10.5137C42.3238 10.6426 42.232 10.7988 42.1656 10.9824C42.1031 11.166 42.0719 11.3691 42.0719 11.5918V15.5H41.0523V9.18359ZM44.8109 9.18359H45.7719V10.209H45.7953C45.8422 10.0449 45.9125 9.89648 46.0063 9.76367C46.1039 9.62695 46.2191 9.51172 46.352 9.41797C46.4848 9.32422 46.6332 9.25195 46.7973 9.20117C46.9652 9.15039 47.141 9.125 47.3246 9.125C47.3871 9.125 47.4574 9.12891 47.5355 9.13672C47.6137 9.14453 47.6742 9.1543 47.7172 9.16602V10.1738C47.6742 10.1543 47.598 10.1387 47.4887 10.127C47.3793 10.1113 47.2797 10.1035 47.1898 10.1035C46.9828 10.1035 46.7953 10.1406 46.6273 10.2148C46.4633 10.2852 46.3207 10.3848 46.1996 10.5137C46.0824 10.6426 45.9906 10.7988 45.9242 10.9824C45.8617 11.166 45.8305 11.3691 45.8305 11.5918V15.5H44.8109V9.18359ZM48.6281 9.18359H49.6477V15.5H48.6281V9.18359ZM49.1379 8.16406C49.048 8.16406 48.9641 8.14844 48.8859 8.11719C48.8078 8.08203 48.7395 8.03516 48.6809 7.97656C48.6223 7.91797 48.5754 7.84961 48.5402 7.77148C48.509 7.69336 48.4934 7.60938 48.4934 7.51953C48.4934 7.42969 48.509 7.3457 48.5402 7.26758C48.5754 7.18945 48.6223 7.12109 48.6809 7.0625C48.7395 7.00391 48.8078 6.95898 48.8859 6.92773C48.9641 6.89258 49.048 6.875 49.1379 6.875C49.2277 6.875 49.3117 6.89258 49.3898 6.92773C49.468 6.95898 49.5363 7.00391 49.5949 7.0625C49.6535 7.12109 49.6984 7.18945 49.7297 7.26758C49.7648 7.3457 49.7824 7.42969 49.7824 7.51953C49.7824 7.60938 49.7648 7.69336 49.7297 7.77148C49.6984 7.84961 49.6535 7.91797 49.5949 7.97656C49.5363 8.03516 49.468 8.08203 49.3898 8.11719C49.3117 8.14844 49.2277 8.16406 49.1379 8.16406ZM53.5586 10.0215C53.3125 10.0215 53.084 10.0645 52.873 10.1504C52.6621 10.2363 52.4785 10.3574 52.3223 10.5137C52.1699 10.6699 52.0449 10.8594 51.9473 11.082C51.8535 11.3008 51.7988 11.543 51.7832 11.8086H55.2578C55.25 11.5391 55.2031 11.2949 55.1172 11.0762C55.0352 10.8574 54.9199 10.6699 54.7715 10.5137C54.623 10.3574 54.4453 10.2363 54.2383 10.1504C54.0352 10.0645 53.8086 10.0215 53.5586 10.0215ZM56.2422 13.6953C56.1992 13.9648 56.1016 14.2148 55.9492 14.4453C55.7969 14.6719 55.6035 14.8691 55.3691 15.0371C55.1387 15.2012 54.873 15.3301 54.5723 15.4238C54.2754 15.5137 53.959 15.5586 53.623 15.5586C53.1777 15.5586 52.7773 15.4844 52.4219 15.3359C52.0664 15.1875 51.7617 14.9746 51.5078 14.6973C51.2578 14.4199 51.0645 14.084 50.9277 13.6895C50.7949 13.2949 50.7285 12.8535 50.7285 12.3652C50.7285 11.877 50.7949 11.4336 50.9277 11.0352C51.0645 10.6367 51.2559 10.2969 51.502 10.0156C51.752 9.73047 52.0527 9.51172 52.4043 9.35938C52.7559 9.20312 53.1465 9.125 53.5762 9.125C53.998 9.125 54.377 9.19727 54.7129 9.3418C55.0527 9.48633 55.3418 9.69336 55.5801 9.96289C55.8184 10.2285 56 10.5527 56.125 10.9355C56.2539 11.3184 56.3184 11.748 56.3184 12.2246V12.623H51.7832V12.6816C51.7832 12.9824 51.8262 13.2559 51.9121 13.502C52.002 13.7441 52.1289 13.9512 52.293 14.123C52.457 14.2949 52.6523 14.4277 52.8789 14.5215C53.1094 14.6152 53.3652 14.6621 53.6465 14.6621C53.8457 14.6621 54.0312 14.6406 54.2031 14.5977C54.375 14.5508 54.5293 14.4863 54.666 14.4043C54.8066 14.3184 54.9238 14.2168 55.0176 14.0996C55.1152 13.9785 55.1875 13.8438 55.2344 13.6953H56.2422ZM57.3406 9.18359H58.3016V10.209H58.325C58.3719 10.0449 58.4422 9.89648 58.5359 9.76367C58.6336 9.62695 58.7488 9.51172 58.8816 9.41797C59.0145 9.32422 59.1629 9.25195 59.327 9.20117C59.4949 9.15039 59.6707 9.125 59.8543 9.125C59.9168 9.125 59.9871 9.12891 60.0652 9.13672C60.1434 9.14453 60.2039 9.1543 60.2469 9.16602V10.1738C60.2039 10.1543 60.1277 10.1387 60.0184 10.127C59.909 10.1113 59.8094 10.1035 59.7195 10.1035C59.5125 10.1035 59.325 10.1406 59.157 10.2148C58.993 10.2852 58.8504 10.3848 58.7293 10.5137C58.6121 10.6426 58.5203 10.7988 58.4539 10.9824C58.3914 11.166 58.3602 11.3691 58.3602 11.5918V15.5H57.3406V9.18359Z" fill="black"/>
<path fill-rule="evenodd" clip-rule="evenodd" d="M20.5 6H21.5C22.0523 6 22.5 6.44772 22.5 7V15C22.5 15.5523 22.0523 16 21.5 16H20.5C19.9477 16 19.5 15.5523 19.5 15V7C19.5 6.44772 19.9477 6 20.5 6Z" fill="black" fill-opacity="0.25"/>
<path fill-rule="evenodd" clip-rule="evenodd" d="M17 8H16C15.4477 8 15 8.44772 15 9V15C15 15.5523 15.4477 16 16 16H17C17.5523 16 18 15.5523 18 15V9C18 8.44772 17.5523 8 17 8ZM11.5 10H12.5C13.0523 10 13.5 10.4477 13.5 11V15C13.5 15.5523 13.0523 16 12.5 16H11.5C10.9477 16 10.5 15.5523 10.5 15V11C10.5 10.4477 10.9477 10 11.5 10ZM7 11.5H8C8.55228 11.5 9 11.9477 9 12.5V15C9 15.5523 8.55228 16 8 16H7C6.44772 16 6 15.5523 6 15V12.5C6 11.9477 6.44772 11.5 7 11.5Z" fill="black"/>
<path d="M25.2021 185.104V186.137H26.4189V185.104C29.0029 185.029 30.7734 183.539 30.7734 181.037C30.7734 178.549 29.0303 177.024 26.4189 176.963V175.999H25.2021V176.963C22.6113 177.038 20.8408 178.528 20.8408 181.03C20.8408 183.519 22.584 185.043 25.2021 185.104ZM25.2021 184.004C23.2881 183.942 22.085 182.814 22.085 181.03C22.085 179.232 23.3154 178.139 25.2021 178.063V184.004ZM29.5293 181.037C29.5293 182.835 28.2988 183.929 26.4189 184.004V178.063C28.3262 178.125 29.5293 179.253 29.5293 181.037ZM34.8477 186.13C35.832 186.13 36.6387 185.699 37.1172 184.913H37.2266V186H38.3477V180.955C38.3477 179.424 37.3428 178.501 35.5449 178.501C33.9727 178.501 32.8105 179.28 32.6533 180.463H33.8428C34.0068 179.882 34.6221 179.547 35.5039 179.547C36.6045 179.547 37.1719 180.046 37.1719 180.955V181.625L35.0459 181.755C33.3301 181.857 32.3594 182.616 32.3594 183.936C32.3594 185.282 33.4189 186.13 34.8477 186.13ZM35.0664 185.098C34.2119 185.098 33.5762 184.66 33.5762 183.908C33.5762 183.17 34.0684 182.78 35.1895 182.705L37.1719 182.575V183.252C37.1719 184.305 36.2764 185.098 35.0664 185.098ZM41.8271 186V180.757H41.957L44.2881 185.795H45.2041L47.5352 180.757H47.665V186H48.8477V178.631H47.4736L44.8281 184.346H44.7188L42.0801 178.631H40.6514V186H41.8271ZM52.3682 186L56.0391 180.504H56.1484V186H57.3242V178.631H56.1484L52.4775 184.127H52.3682V178.631H51.1924V186H52.3682ZM61.4395 182.767L61.6719 179.615H64.249V186H65.4248V178.631H60.6055L60.3184 182.739C60.2227 184.106 59.9424 184.961 59.2109 184.961C59.04 184.961 58.9033 184.927 58.8418 184.906V185.986C58.9238 186.021 59.0605 186.062 59.2725 186.062C60.8037 186.062 61.2891 184.79 61.4395 182.767ZM68.9385 186L72.6094 180.504H72.7188V186H73.8945V178.631H72.7188L69.0479 184.127H68.9385V178.631H67.7627V186H68.9385ZM80.1631 186H81.3389V178.631H78.7754C77.0869 178.631 76.0068 179.554 76.0068 181.071C76.0068 182.083 76.6357 182.849 77.6748 183.143L75.6172 186H77.0186L78.8984 183.361H80.1631V186ZM78.7754 182.377C77.8115 182.377 77.1826 181.823 77.1826 181.044C77.1826 180.148 77.8047 179.615 78.7754 179.615H80.1631V182.377H78.7754Z" fill="#5C6473"/>
<line x1="20" y1="208.5" x2="317" y2="208.5" stroke="#5C6473" stroke-opacity="0.51"/>
<path d="M27.9707 282H29.2012V272.136H27.9844L22.666 279.997H22.5566V272.136H21.3262V282H22.543L27.8613 274.166H27.9707V282ZM32.8721 282V276.757H33.002L35.333 281.795H36.249L38.5801 276.757H38.71V282H39.8926V274.631H38.5186L35.873 280.346H35.7637L33.125 274.631H31.6963V282H32.8721ZM46.1611 282H47.3369V274.631H44.7734C43.085 274.631 42.0049 275.554 42.0049 277.071C42.0049 278.083 42.6338 278.849 43.6729 279.143L41.6152 282H43.0166L44.8965 279.361H46.1611V282ZM44.7734 278.377C43.8096 278.377 43.1807 277.823 43.1807 277.044C43.1807 276.148 43.8027 275.615 44.7734 275.615H46.1611V278.377H44.7734Z" fill="#5C6473"/>
<line x1="20" y1="304.5" x2="317" y2="304.5" stroke="#5C6473" stroke-opacity="0.51"/>
<path d="M25.4688 367.903C22.6797 367.903 20.9434 369.893 20.9434 373.064C20.9434 376.223 22.6387 378.232 25.4688 378.232C28.2852 378.232 29.9941 376.216 29.9941 373.064C29.9941 369.899 28.2715 367.903 25.4688 367.903ZM25.4688 369.038C27.4854 369.038 28.7295 370.597 28.7295 373.064C28.7295 375.512 27.4922 377.098 25.4688 377.098C23.418 377.098 22.208 375.512 22.208 373.064C22.208 370.597 23.459 369.038 25.4688 369.038ZM37.4453 370.631H31.4844V371.615H33.877V378H35.0527V371.615H37.4453V370.631ZM44.7803 378V370.631H43.6045V373.741C43.2969 374.083 42.6475 374.329 41.7246 374.329C40.7197 374.329 40.2002 373.707 40.2002 372.736V370.631H39.0244V372.736C39.0244 374.309 39.9473 375.375 41.7246 375.375C42.5176 375.375 43.0986 375.211 43.4951 374.931H43.6045V378H44.7803ZM52.0059 376.093C51.6982 376.742 51.0557 377.091 50.1055 377.091C48.8545 377.091 48.041 376.168 47.9795 374.712V374.657H53.2773V374.206C53.2773 371.916 52.0674 370.501 50.0781 370.501C48.0547 370.501 46.7559 372.005 46.7559 374.322C46.7559 376.653 48.0342 378.13 50.0781 378.13C51.6914 378.13 52.8398 377.351 53.1816 376.093H52.0059ZM50.0645 371.54C51.2334 371.54 52.0127 372.401 52.04 373.707H47.9795C48.0684 372.401 48.8887 371.54 50.0645 371.54ZM61.3574 372.887C61.1523 371.574 60.0586 370.501 58.2676 370.501C56.2031 370.501 54.8906 371.991 54.8906 374.288C54.8906 376.633 56.21 378.13 58.2744 378.13C60.0449 378.13 61.1455 377.132 61.3574 375.778H60.168C59.9492 376.612 59.2588 377.07 58.2676 377.07C56.9551 377.07 56.1074 375.99 56.1074 374.288C56.1074 372.62 56.9414 371.561 58.2676 371.561C59.3271 371.561 59.9766 372.155 60.168 372.887H61.3574ZM68.2207 370.631H62.2598V371.615H64.6523V378H65.8281V371.615H68.2207V370.631ZM73.0742 378C74.6602 378 75.5967 377.166 75.5967 375.881C75.5967 375.02 75.002 374.363 74.0654 374.233V374.124C74.7559 373.98 75.2686 373.283 75.2686 372.552C75.2686 371.39 74.4551 370.631 73.0605 370.631H69.9365V378H73.0742ZM71.1123 371.615H72.9102C73.7373 371.615 74.1064 372.039 74.1064 372.675C74.1064 373.379 73.6758 373.748 72.7188 373.748H71.1123V371.615ZM71.1123 374.732H72.8213C73.8809 374.732 74.4277 375.081 74.4277 375.86C74.4277 376.605 73.9492 377.016 73.0469 377.016H71.1123V374.732ZM80.5732 378.13C82.6719 378.13 83.9707 376.681 83.9707 374.315C83.9707 371.943 82.6719 370.501 80.5732 370.501C78.4746 370.501 77.1758 371.943 77.1758 374.315C77.1758 376.681 78.4746 378.13 80.5732 378.13ZM80.5732 377.07C79.1787 377.07 78.3926 376.059 78.3926 374.315C78.3926 372.565 79.1787 371.561 80.5732 371.561C81.9678 371.561 82.7539 372.565 82.7539 374.315C82.7539 376.059 81.9678 377.07 80.5732 377.07Z" fill="#5C6473"/>
<line x1="20" y1="400.5" x2="317" y2="400.5" stroke="#5C6473" stroke-opacity="0.51"/>
<circle cx="172" cy="550" r="6" fill="#1B3259"/>
<circle cx="203" cy="550" r="6" fill="#E0E4E7"/>
<circle cx="234" cy="550" r="6" fill="#E0E4E7"/>
<circle cx="141" cy="550" r="6" fill="#E0E4E7"/>
<g filter="url(#filter0_d)">
<rect x="31" y="451" width="316" height="43" rx="3" fill="#6DB247"/>
</g>
<path d="M146.289 479V467.022H136.585V479H138.453V468.641H144.446V479H146.289ZM153.951 469.828C152.722 469.828 151.66 470.45 151.112 471.479H150.979V469.985H149.261V482.005H151.045V477.639H151.187C151.66 478.593 152.681 479.149 153.967 479.149C156.25 479.149 157.703 477.34 157.703 474.493C157.703 471.629 156.25 469.828 153.951 469.828ZM153.444 477.622C151.95 477.622 151.012 476.418 151.012 474.493C151.012 472.559 151.95 471.355 153.453 471.355C154.963 471.355 155.868 472.534 155.868 474.493C155.868 476.452 154.963 477.622 153.444 477.622ZM163.837 479.174C166.477 479.174 168.095 477.406 168.095 474.493C168.095 471.579 166.468 469.811 163.837 469.811C161.197 469.811 159.57 471.587 159.57 474.493C159.57 477.406 161.189 479.174 163.837 479.174ZM163.837 477.655C162.285 477.655 161.413 476.501 161.413 474.493C161.413 472.484 162.285 471.322 163.837 471.322C165.381 471.322 166.261 472.484 166.261 474.493C166.261 476.493 165.381 477.655 163.837 477.655ZM170.884 481.366V479H177.6V481.366H179.251V477.572H177.84V469.985H171.333L171 474.841C170.917 476.053 170.619 477.157 169.955 477.572H169.224V481.366H170.884ZM176.064 477.572H171.93V477.431C172.337 476.867 172.553 475.954 172.636 474.916L172.885 471.405H176.064V477.572ZM184.888 479.174C187.527 479.174 189.146 477.406 189.146 474.493C189.146 471.579 187.519 469.811 184.888 469.811C182.248 469.811 180.621 471.587 180.621 474.493C180.621 477.406 182.24 479.174 184.888 479.174ZM184.888 477.655C183.335 477.655 182.464 476.501 182.464 474.493C182.464 472.484 183.335 471.322 184.888 471.322C186.432 471.322 187.312 472.484 187.312 474.493C187.312 476.493 186.432 477.655 184.888 477.655ZM193.836 474.916L194.085 471.413H196.949V479H198.733V469.985H192.508L192.192 474.841C192.084 476.427 191.769 477.473 190.889 477.473C190.665 477.473 190.491 477.431 190.408 477.406V478.992C190.516 479.033 190.723 479.083 191.022 479.083C193.022 479.083 193.662 477.464 193.836 474.916ZM202.676 479L205.631 474.982H206.154V479H207.897V474.982H208.429L211.375 479H213.55L209.856 474.177L213.359 469.985H211.301L208.42 473.696H207.897V469.985H206.154V473.696H205.64L202.759 469.985H200.676L204.204 474.202L200.535 479H202.676ZM217.111 479L221.237 472.65H221.378V479H223.146V469.985H221.378L217.252 476.311H217.111V469.985H215.343V479H217.111ZM232.642 469.985H225.163V471.413H228.01V479H229.795V471.413H232.642V469.985ZM234.651 479H238.22C240.312 479 241.648 477.796 241.648 475.887C241.648 473.986 240.312 472.783 238.22 472.783H236.436V469.985H234.651V479ZM238.087 474.202C239.167 474.202 239.872 474.866 239.872 475.887C239.872 476.9 239.175 477.572 238.087 477.572H236.436V474.202H238.087Z" fill="white"/>
<g filter="url(#filter1_d)">
<circle cx="36" cy="67" r="20" fill="white"/>
</g>
<path fill-rule="evenodd" clip-rule="evenodd" d="M39.2106 75C39.4127 75 39.6149 74.9333 39.7691 74.7993C40.077 74.5314 40.077 74.0971 39.7691 73.8292L31.9057 66.9999L39.7691 60.1706C40.077 59.9027 40.077 59.4685 39.7691 59.2006C39.4606 58.9331 38.9606 58.9331 38.6522 59.2006L30.2309 66.5149C29.923 66.7828 29.923 67.2171 30.2309 67.485L38.6522 74.7993C38.8064 74.9333 39.0085 75 39.2106 75Z" fill="#6DB247"/>
</g>
<defs>
<filter id="filter0_d" x="11" y="436" width="356" height="83" filterUnits="userSpaceOnUse" color-interpolation-filters="sRGB">
<feFlood flood-opacity="0" result="BackgroundImageFix"/>
<feColorMatrix in="SourceAlpha" type="matrix" values="0 0 0 0 0 0 0 0 0 0 0 0 0 0 0 0 0 0 127 0"/>
<feOffset dy="5"/>
<feGaussianBlur stdDeviation="10"/>
<feColorMatrix type="matrix" values="0 0 0 0 0.427451 0 0 0 0 0.698039 0 0 0 0 0.278431 0 0 0 0.13 0"/>
<feBlend mode="normal" in2="BackgroundImageFix" result="effect1_dropShadow"/>
<feBlend mode="normal" in="SourceGraphic" in2="effect1_dropShadow" result="shape"/>
</filter>
<filter id="filter1_d" x="-4" y="32" width="80" height="80" filterUnits="userSpaceOnUse" color-interpolation-filters="sRGB">
<feFlood flood-opacity="0" result="BackgroundImageFix"/>
<feColorMatrix in="SourceAlpha" type="matrix" values="0 0 0 0 0 0 0 0 0 0 0 0 0 0 0 0 0 0 127 0"/>
<feOffset dy="5"/>
<feGaussianBlur stdDeviation="10"/>
<feColorMatrix type="matrix" values="0 0 0 0 0.146644 0 0 0 0 0.2625 0 0 0 0 0.0853125 0 0 0 0.1 0"/>
<feBlend mode="normal" in2="BackgroundImageFix" result="effect1_dropShadow"/>
<feBlend mode="normal" in="SourceGraphic" in2="effect1_dropShadow" result="shape"/>
</filter>
<clipPath id="clip0">
<rect width="375" height="667" fill="white"/>
</clipPath>
</defs>
</svg>
