<svg width="119" height="14" viewBox="0 0 119 14" fill="none" xmlns="http://www.w3.org/2000/svg">
<path d="M1.41504 11H8.77051V12.9482H9.91211V9.89258H8.68164V1.13574H2.44043L2.06445 7.34277C1.98926 8.63477 1.72266 9.50977 1.00488 9.89258H0.273438V12.9482H1.41504V11ZM3.21973 7.37012L3.54102 2.24316H7.45117V9.89258H2.5293V9.81055C3.01465 9.22949 3.15137 8.48438 3.21973 7.37012ZM14.5947 11.1299C16.6934 11.1299 17.9922 9.68066 17.9922 7.31543C17.9922 4.94336 16.6934 3.50098 14.5947 3.50098C12.4961 3.50098 11.1973 4.94336 11.1973 7.31543C11.1973 9.68066 12.4961 11.1299 14.5947 11.1299ZM14.5947 10.0703C13.2002 10.0703 12.4141 9.05859 12.4141 7.31543C12.4141 5.56543 13.2002 4.56055 14.5947 4.56055C15.9893 4.56055 16.7754 5.56543 16.7754 7.31543C16.7754 9.05859 15.9893 10.0703 14.5947 10.0703ZM23.0371 11.1299C25.1562 11.1299 26.4688 9.70801 26.4688 7.38379C26.4688 5.13477 25.1562 3.78125 23.2148 3.78125C21.9775 3.78125 21.1641 4.3623 20.7197 5.1416H20.6104C20.8359 3.32324 21.4033 2.27734 23.3652 2.18848L24.1172 2.1543C25.5664 2.09277 25.9834 1.7168 25.9834 1.7168V0.664062C25.9902 0.664062 25.2314 1.00586 24.0625 1.06055L23.3242 1.09473C20.3916 1.22461 19.6055 3.28906 19.6055 6.67969C19.6055 9.70117 20.8564 11.1299 23.0371 11.1299ZM23.0371 10.0703C21.6221 10.0703 20.8223 9.08594 20.8223 7.38379C20.8223 5.76367 21.6221 4.83398 23.0371 4.83398C24.4521 4.83398 25.252 5.76367 25.252 7.38379C25.252 9.08594 24.4521 10.0703 23.0371 10.0703ZM30.502 11.1299C31.4863 11.1299 32.293 10.6992 32.7715 9.91309H32.8809V11H34.002V5.95508C34.002 4.42383 32.9971 3.50098 31.1992 3.50098C29.627 3.50098 28.4648 4.28027 28.3076 5.46289H29.4971C29.6611 4.88184 30.2764 4.54688 31.1582 4.54688C32.2588 4.54688 32.8262 5.0459 32.8262 5.95508V6.625L30.7002 6.75488C28.9844 6.85742 28.0137 7.61621 28.0137 8.93555C28.0137 10.2822 29.0732 11.1299 30.502 11.1299ZM30.7207 10.0977C29.8662 10.0977 29.2305 9.66016 29.2305 8.9082C29.2305 8.16992 29.7227 7.78027 30.8438 7.70508L32.8262 7.5752V8.25195C32.8262 9.30469 31.9307 10.0977 30.7207 10.0977ZM39.4434 11C41.0293 11 41.9658 10.166 41.9658 8.88086C41.9658 8.01953 41.3711 7.36328 40.4346 7.2334V7.12402C41.125 6.98047 41.6377 6.2832 41.6377 5.55176C41.6377 4.38965 40.8242 3.63086 39.4297 3.63086H36.3057V11H39.4434ZM37.4814 4.61523H39.2793C40.1064 4.61523 40.4756 5.03906 40.4756 5.6748C40.4756 6.37891 40.0449 6.74805 39.0879 6.74805H37.4814V4.61523ZM37.4814 7.73242H39.1904C40.25 7.73242 40.7969 8.08105 40.7969 8.86035C40.7969 9.60547 40.3184 10.0156 39.416 10.0156H37.4814V7.73242ZM45.1514 11L48.8223 5.50391H48.9316V11H50.1074V3.63086H48.9316L45.2607 9.12695H45.1514V3.63086H43.9756V11H45.1514ZM57.791 3.63086H51.8301V4.61523H54.2227V11H55.3984V4.61523H57.791V3.63086ZM59.5068 11H62.1387C63.8271 11 64.9072 10.0293 64.9072 8.49805C64.9072 6.9668 63.8271 5.99609 62.1387 5.99609H60.6826V3.63086H59.5068V11ZM62.1387 6.98047C63.1025 6.98047 63.7314 7.5752 63.7314 8.49805C63.7314 9.41406 63.1094 10.0156 62.1387 10.0156H60.6826V6.98047H62.1387ZM76.7949 5.88672C76.5898 4.57422 75.4961 3.50098 73.7051 3.50098C71.6406 3.50098 70.3281 4.99121 70.3281 7.28809C70.3281 9.63281 71.6475 11.1299 73.7119 11.1299C75.4824 11.1299 76.583 10.1318 76.7949 8.77832H75.6055C75.3867 9.6123 74.6963 10.0703 73.7051 10.0703C72.3926 10.0703 71.5449 8.99023 71.5449 7.28809C71.5449 5.62012 72.3789 4.56055 73.7051 4.56055C74.7646 4.56055 75.4141 5.15527 75.6055 5.88672H76.7949ZM84.7656 5.88672C84.5605 4.57422 83.4668 3.50098 81.6758 3.50098C79.6113 3.50098 78.2988 4.99121 78.2988 7.28809C78.2988 9.63281 79.6182 11.1299 81.6826 11.1299C83.4531 11.1299 84.5537 10.1318 84.7656 8.77832H83.5762C83.3574 9.6123 82.667 10.0703 81.6758 10.0703C80.3633 10.0703 79.5156 8.99023 79.5156 7.28809C79.5156 5.62012 80.3496 4.56055 81.6758 4.56055C82.7354 4.56055 83.3848 5.15527 83.5762 5.88672H84.7656ZM93.0781 11H94.2539V3.63086H93.0781V11ZM86.6318 11H89.2637C90.9521 11 92.0322 10.0293 92.0322 8.49805C92.0322 6.9668 90.9521 5.99609 89.2637 5.99609H87.8076V3.63086H86.6318V11ZM89.2637 6.98047C90.2275 6.98047 90.8564 7.5752 90.8564 8.49805C90.8564 9.41406 90.2344 10.0156 89.2637 10.0156H87.8076V6.98047H89.2637ZM98.3691 7.7666L98.6016 4.61523H101.179V11H102.354V3.63086H97.5352L97.248 7.73926C97.1523 9.10645 96.8721 9.96094 96.1406 9.96094C95.9697 9.96094 95.833 9.92676 95.7715 9.90625V10.9863C95.8535 11.0205 95.9902 11.0615 96.2021 11.0615C97.7334 11.0615 98.2188 9.79004 98.3691 7.7666ZM106.258 7.64355L109.143 11H110.667L107.229 7.10352L110.537 3.63086H109.108L106.258 6.71387H105.868V3.63086H104.692V11H105.868V7.64355H106.258ZM112.67 13.666C113.976 13.666 114.563 13.1602 115.192 11.4512L118.07 3.63086H116.819L114.803 9.69434H114.693L112.67 3.63086H111.398L114.126 11.0068L113.989 11.4443C113.682 12.333 113.312 12.6543 112.636 12.6543C112.472 12.6543 112.287 12.6475 112.144 12.6201V13.625C112.308 13.6523 112.513 13.666 112.67 13.666Z" fill="#A5A5A7"/>
</svg>
