<svg width="375" height="667" viewBox="0 0 375 667" fill="none" xmlns="http://www.w3.org/2000/svg">
<g clip-path="url(#clip0)">
<rect width="375" height="667" fill="white"/>
<path d="M374.869 0.376709H0V667.093H374.869V0.376709Z" fill="#F9FAF9"/>
<path fill-rule="evenodd" clip-rule="evenodd" d="M345.5 5.5H364.5C365.881 5.5 367 6.61929 367 8V14.5C367 15.8807 365.881 17 364.5 17H345.5C344.119 17 343 15.8807 343 14.5V8C343 6.61929 344.119 5.5 345.5 5.5ZM345.5 6.5C344.672 6.5 344 7.17157 344 8V14.5C344 15.3284 344.672 16 345.5 16H364.5C365.328 16 366 15.3284 366 14.5V8C366 7.17157 365.328 6.5 364.5 6.5H345.5Z" fill="black" fill-opacity="0.38"/>
<path fill-rule="evenodd" clip-rule="evenodd" d="M368 8.7998C368.89 9.25498 369.5 10.1813 369.5 11.2499C369.5 12.3186 368.89 13.2449 368 13.7001V8.7998Z" fill="black" fill-opacity="0.49"/>
<path fill-rule="evenodd" clip-rule="evenodd" d="M346 7.5H364C364.552 7.5 365 7.94772 365 8.5V14C365 14.5523 364.552 15 364 15H346C345.448 15 345 14.5523 345 14V8.5C345 7.94772 345.448 7.5 346 7.5Z" fill="black"/>
<path d="M314.131 8.16406H314.107L311.869 9.77539V8.66211L314.119 7.04492H315.15V15.5H314.131V8.16406ZM320.254 15.6406C319.762 15.6406 319.322 15.5391 318.936 15.3359C318.549 15.1289 318.221 14.8359 317.951 14.457C317.686 14.0781 317.482 13.6191 317.342 13.0801C317.205 12.541 317.137 11.9375 317.137 11.2695C317.137 10.6094 317.207 10.0098 317.348 9.4707C317.488 8.93164 317.691 8.47266 317.957 8.09375C318.227 7.71484 318.553 7.42188 318.936 7.21484C319.322 7.00781 319.762 6.9043 320.254 6.9043C320.746 6.9043 321.184 7.00781 321.566 7.21484C321.953 7.41797 322.279 7.70898 322.545 8.08789C322.811 8.4668 323.012 8.92578 323.148 9.46484C323.289 10 323.359 10.5996 323.359 11.2637C323.359 11.9316 323.289 12.5352 323.148 13.0742C323.012 13.6133 322.811 14.0742 322.545 14.457C322.279 14.8359 321.953 15.1289 321.566 15.3359C321.184 15.5391 320.746 15.6406 320.254 15.6406ZM320.254 14.7207C320.582 14.7207 320.873 14.6406 321.127 14.4805C321.385 14.3164 321.6 14.0859 321.771 13.7891C321.943 13.4883 322.074 13.125 322.164 12.6992C322.254 12.2734 322.299 11.7969 322.299 11.2695C322.299 10.75 322.254 10.2793 322.164 9.85742C322.074 9.43164 321.941 9.07031 321.766 8.77344C321.594 8.47266 321.381 8.24023 321.127 8.07617C320.873 7.91211 320.582 7.83008 320.254 7.83008C319.926 7.83008 319.635 7.91211 319.381 8.07617C319.127 8.24023 318.912 8.47266 318.736 8.77344C318.561 9.07422 318.426 9.43555 318.332 9.85742C318.242 10.2793 318.197 10.748 318.197 11.2637C318.197 11.791 318.242 12.2676 318.332 12.6934C318.422 13.1191 318.553 13.4824 318.725 13.7832C318.9 14.084 319.115 14.3164 319.369 14.4805C319.627 14.6406 319.922 14.7207 320.254 14.7207ZM327.531 15.6406C327.039 15.6406 326.6 15.5391 326.213 15.3359C325.826 15.1289 325.498 14.8359 325.229 14.457C324.963 14.0781 324.76 13.6191 324.619 13.0801C324.482 12.541 324.414 11.9375 324.414 11.2695C324.414 10.6094 324.484 10.0098 324.625 9.4707C324.766 8.93164 324.969 8.47266 325.234 8.09375C325.504 7.71484 325.83 7.42188 326.213 7.21484C326.6 7.00781 327.039 6.9043 327.531 6.9043C328.023 6.9043 328.461 7.00781 328.844 7.21484C329.23 7.41797 329.557 7.70898 329.822 8.08789C330.088 8.4668 330.289 8.92578 330.426 9.46484C330.566 10 330.637 10.5996 330.637 11.2637C330.637 11.9316 330.566 12.5352 330.426 13.0742C330.289 13.6133 330.088 14.0742 329.822 14.457C329.557 14.8359 329.23 15.1289 328.844 15.3359C328.461 15.5391 328.023 15.6406 327.531 15.6406ZM327.531 14.7207C327.859 14.7207 328.15 14.6406 328.404 14.4805C328.662 14.3164 328.877 14.0859 329.049 13.7891C329.221 13.4883 329.352 13.125 329.441 12.6992C329.531 12.2734 329.576 11.7969 329.576 11.2695C329.576 10.75 329.531 10.2793 329.441 9.85742C329.352 9.43164 329.219 9.07031 329.043 8.77344C328.871 8.47266 328.658 8.24023 328.404 8.07617C328.15 7.91211 327.859 7.83008 327.531 7.83008C327.203 7.83008 326.912 7.91211 326.658 8.07617C326.404 8.24023 326.189 8.47266 326.014 8.77344C325.838 9.07422 325.703 9.43555 325.609 9.85742C325.52 10.2793 325.475 10.748 325.475 11.2637C325.475 11.791 325.52 12.2676 325.609 12.6934C325.699 13.1191 325.83 13.4824 326.002 13.7832C326.178 14.084 326.393 14.3164 326.646 14.4805C326.904 14.6406 327.199 14.7207 327.531 14.7207ZM331.967 15.5L338.154 7.04492H339.162L332.986 15.5H331.967ZM339.707 13.4844C339.707 13.8047 339.664 14.0957 339.578 14.3574C339.496 14.6152 339.377 14.8359 339.221 15.0195C339.068 15.2031 338.883 15.3457 338.664 15.4473C338.449 15.5449 338.207 15.5938 337.938 15.5938C337.668 15.5938 337.424 15.5449 337.205 15.4473C336.99 15.3457 336.805 15.2031 336.648 15.0195C336.492 14.8359 336.371 14.6152 336.285 14.3574C336.203 14.0957 336.162 13.8047 336.162 13.4844C336.162 13.168 336.203 12.8809 336.285 12.623C336.371 12.3613 336.492 12.1387 336.648 11.9551C336.805 11.7715 336.99 11.6309 337.205 11.5332C337.424 11.4316 337.668 11.3809 337.938 11.3809C338.207 11.3809 338.449 11.4316 338.664 11.5332C338.883 11.6309 339.068 11.7715 339.221 11.9551C339.377 12.1387 339.496 12.3613 339.578 12.623C339.664 12.8809 339.707 13.168 339.707 13.4844ZM337.938 14.8789C338.066 14.8789 338.182 14.8477 338.283 14.7852C338.389 14.7188 338.477 14.625 338.547 14.5039C338.617 14.3828 338.672 14.2363 338.711 14.0645C338.75 13.8926 338.77 13.6992 338.77 13.4844C338.77 13.0469 338.697 12.707 338.553 12.4648C338.408 12.2227 338.203 12.1016 337.938 12.1016C337.68 12.1016 337.475 12.2266 337.322 12.4766C337.174 12.7227 337.1 13.0586 337.1 13.4844C337.1 13.6992 337.119 13.8926 337.158 14.0645C337.197 14.2363 337.252 14.3828 337.322 14.5039C337.396 14.625 337.484 14.7188 337.586 14.7852C337.691 14.8477 337.809 14.8789 337.938 14.8789ZM335.002 9.04297C335.002 9.36328 334.959 9.6543 334.873 9.91602C334.791 10.1738 334.672 10.3945 334.516 10.5781C334.363 10.7617 334.178 10.9043 333.959 11.0059C333.744 11.1035 333.502 11.1523 333.232 11.1523C332.963 11.1523 332.719 11.1035 332.5 11.0059C332.285 10.9043 332.1 10.7617 331.943 10.5781C331.787 10.3945 331.666 10.1738 331.58 9.91602C331.498 9.6543 331.457 9.36328 331.457 9.04297C331.457 8.72656 331.498 8.43945 331.58 8.18164C331.666 7.91992 331.787 7.69727 331.943 7.51367C332.1 7.33008 332.285 7.18945 332.5 7.0918C332.719 6.99023 332.963 6.93945 333.232 6.93945C333.502 6.93945 333.744 6.99023 333.959 7.0918C334.178 7.18945 334.363 7.33008 334.516 7.51367C334.672 7.69727 334.791 7.91992 334.873 8.18164C334.959 8.43945 335.002 8.72656 335.002 9.04297ZM333.232 10.4375C333.361 10.4375 333.477 10.4062 333.578 10.3438C333.684 10.2773 333.771 10.1836 333.842 10.0625C333.912 9.94141 333.967 9.79492 334.006 9.62305C334.045 9.45117 334.064 9.25781 334.064 9.04297C334.064 8.60547 333.992 8.26562 333.848 8.02344C333.703 7.78125 333.498 7.66016 333.232 7.66016C332.975 7.66016 332.77 7.78516 332.617 8.03516C332.469 8.28125 332.395 8.61719 332.395 9.04297C332.395 9.25781 332.414 9.45117 332.453 9.62305C332.492 9.79492 332.547 9.94141 332.617 10.0625C332.691 10.1836 332.779 10.2773 332.881 10.3438C332.986 10.4062 333.104 10.4375 333.232 10.4375Z" fill="black"/>
<path fill-rule="evenodd" clip-rule="evenodd" d="M300.874 7.19111L302.524 8.78081L300.874 10.2111V7.19111ZM301.47 10.9993L304 8.80741L299.996 5V5.5V6.34563V9.72135L297.622 7.665L297 8.43104L299.964 10.9993L297 13.5675L297.622 14.3335L299.996 12.2772V15.6529V16.5V16.9985L304 13.1911L301.47 10.9993ZM300.874 14.8074L302.524 13.2177L300.874 11.7874V14.8074Z" fill="black"/>
<path fill-rule="evenodd" clip-rule="evenodd" d="M283.667 6.87174C283.171 6.37609 282.367 6.37609 281.872 6.87174C281.376 7.36739 281.376 8.17101 281.872 8.66666L283.667 6.87174ZM288.833 6.87174C289.329 6.37609 290.133 6.37609 290.628 6.87174C291.124 7.36739 291.124 8.17101 290.628 8.66666L288.833 6.87174ZM290.5 11.25C290.5 13.5972 288.597 15.5 286.25 15.5C283.903 15.5 282 13.5972 282 11.25C282 8.90279 283.903 7 286.25 7C288.597 7 290.5 8.90279 290.5 11.25ZM286.25 8.5H286.997V11.25H287.002V11.9966H286.997V12H286.25V11.9966H284.502V11.25H286.25V8.5Z" fill="black"/>
<path fill-rule="evenodd" clip-rule="evenodd" d="M265 11L275 6.5L270.5 16.5V11H265Z" fill="black"/>
<path fill-rule="evenodd" clip-rule="evenodd" d="M252.5 6C255.093 6 257.224 7.97334 257.475 10.5H259L257 12.5L255 10.5H256.519C256.273 8.49915 254.567 6.95 252.5 6.95C250.263 6.95 248.45 8.76324 248.45 11C248.45 13.2368 250.263 15.05 252.5 15.05C253.945 15.05 255.214 14.2928 255.931 13.1535L256.719 13.6851C255.831 15.0769 254.273 16 252.5 16C249.739 16 247.5 13.7614 247.5 11C247.5 8.23858 249.739 6 252.5 6ZM251 9.25V10.5C250.724 10.5 250.5 10.7239 250.5 11V13C250.5 13.2761 250.724 13.5 251 13.5H254C254.276 13.5 254.5 13.2761 254.5 13V11C254.5 10.7239 254.276 10.5 254 10.5V9.25C254 8.55964 253.44 8 252.75 8H252.25C251.56 8 251 8.55964 251 9.25ZM253.35 9.325V10.5H251.65V9.325C251.65 8.97982 251.93 8.7 252.275 8.7H252.725C253.07 8.7 253.35 8.97982 253.35 9.325Z" fill="#111111"/>
<path d="M169.143 8.16406H169.119L166.881 9.77539V8.66211L169.131 7.04492H170.162V15.5H169.143V8.16406ZM173.145 15.5586C173.051 15.5586 172.963 15.541 172.881 15.5059C172.799 15.4707 172.729 15.4238 172.67 15.3652C172.611 15.3066 172.564 15.2363 172.529 15.1543C172.494 15.0723 172.477 14.9844 172.477 14.8906C172.477 14.7969 172.494 14.709 172.529 14.627C172.564 14.5449 172.611 14.4746 172.67 14.416C172.729 14.3535 172.799 14.3066 172.881 14.2754C172.963 14.2402 173.051 14.2227 173.145 14.2227C173.336 14.2227 173.494 14.2871 173.619 14.416C173.748 14.541 173.812 14.6992 173.812 14.8906C173.812 14.9844 173.795 15.0723 173.76 15.1543C173.729 15.2363 173.682 15.3066 173.619 15.3652C173.561 15.4238 173.49 15.4707 173.408 15.5059C173.326 15.541 173.238 15.5586 173.145 15.5586ZM173.145 11.2461C173.051 11.2461 172.963 11.2285 172.881 11.1934C172.799 11.1582 172.729 11.1113 172.67 11.0527C172.611 10.9941 172.564 10.9238 172.529 10.8418C172.494 10.7598 172.477 10.6719 172.477 10.5781C172.477 10.4844 172.494 10.3965 172.529 10.3145C172.564 10.2324 172.611 10.1621 172.67 10.1035C172.729 10.041 172.799 9.99414 172.881 9.96289C172.963 9.92773 173.051 9.91016 173.145 9.91016C173.336 9.91016 173.494 9.97461 173.619 10.1035C173.748 10.2285 173.812 10.3867 173.812 10.5781C173.812 10.6719 173.795 10.7598 173.76 10.8418C173.729 10.9238 173.682 10.9941 173.619 11.0527C173.561 11.1113 173.49 11.1582 173.408 11.1934C173.326 11.2285 173.238 11.2461 173.145 11.2461ZM175.301 9.48242C175.301 9.11523 175.371 8.77344 175.512 8.45703C175.652 8.14062 175.848 7.86914 176.098 7.64258C176.348 7.41211 176.643 7.23242 176.982 7.10352C177.322 6.9707 177.691 6.9043 178.09 6.9043C178.469 6.9043 178.822 6.96484 179.15 7.08594C179.479 7.20703 179.764 7.37305 180.006 7.58398C180.248 7.79102 180.439 8.03516 180.58 8.31641C180.721 8.59766 180.791 8.90039 180.791 9.22461C180.791 9.45898 180.762 9.68555 180.703 9.9043C180.645 10.1191 180.543 10.3457 180.398 10.584C180.258 10.8223 180.068 11.082 179.83 11.3633C179.596 11.6445 179.303 11.9668 178.951 12.3301L176.812 14.5391V14.5625H180.932V15.5H175.354V14.7734L178.33 11.6387C178.615 11.3418 178.848 11.0859 179.027 10.8711C179.211 10.6523 179.355 10.4551 179.461 10.2793C179.566 10.1035 179.639 9.93945 179.678 9.78711C179.717 9.63086 179.736 9.46484 179.736 9.28906C179.736 9.08594 179.691 8.89648 179.602 8.7207C179.516 8.54102 179.396 8.38477 179.244 8.25195C179.096 8.11914 178.92 8.01562 178.717 7.94141C178.514 7.86328 178.295 7.82422 178.061 7.82422C177.814 7.82422 177.584 7.86719 177.369 7.95312C177.158 8.03516 176.975 8.15039 176.818 8.29883C176.662 8.44727 176.539 8.62305 176.449 8.82617C176.363 9.0293 176.32 9.24805 176.32 9.48242V9.48828H175.301V9.48242ZM185.109 15.6406C184.617 15.6406 184.178 15.5391 183.791 15.3359C183.404 15.1289 183.076 14.8359 182.807 14.457C182.541 14.0781 182.338 13.6191 182.197 13.0801C182.061 12.541 181.992 11.9375 181.992 11.2695C181.992 10.6094 182.062 10.0098 182.203 9.4707C182.344 8.93164 182.547 8.47266 182.812 8.09375C183.082 7.71484 183.408 7.42188 183.791 7.21484C184.178 7.00781 184.617 6.9043 185.109 6.9043C185.602 6.9043 186.039 7.00781 186.422 7.21484C186.809 7.41797 187.135 7.70898 187.4 8.08789C187.666 8.4668 187.867 8.92578 188.004 9.46484C188.145 10 188.215 10.5996 188.215 11.2637C188.215 11.9316 188.145 12.5352 188.004 13.0742C187.867 13.6133 187.666 14.0742 187.4 14.457C187.135 14.8359 186.809 15.1289 186.422 15.3359C186.039 15.5391 185.602 15.6406 185.109 15.6406ZM185.109 14.7207C185.438 14.7207 185.729 14.6406 185.982 14.4805C186.24 14.3164 186.455 14.0859 186.627 13.7891C186.799 13.4883 186.93 13.125 187.02 12.6992C187.109 12.2734 187.154 11.7969 187.154 11.2695C187.154 10.75 187.109 10.2793 187.02 9.85742C186.93 9.43164 186.797 9.07031 186.621 8.77344C186.449 8.47266 186.236 8.24023 185.982 8.07617C185.729 7.91211 185.438 7.83008 185.109 7.83008C184.781 7.83008 184.49 7.91211 184.236 8.07617C183.982 8.24023 183.768 8.47266 183.592 8.77344C183.416 9.07422 183.281 9.43555 183.188 9.85742C183.098 10.2793 183.053 10.748 183.053 11.2637C183.053 11.791 183.098 12.2676 183.188 12.6934C183.277 13.1191 183.408 13.4824 183.58 13.7832C183.756 14.084 183.971 14.3164 184.225 14.4805C184.482 14.6406 184.777 14.7207 185.109 14.7207ZM195.627 7.04492C196.025 7.04492 196.389 7.11133 196.717 7.24414C197.049 7.37695 197.334 7.5625 197.572 7.80078C197.814 8.03906 198.002 8.32617 198.135 8.66211C198.268 8.99414 198.334 9.35938 198.334 9.75781C198.334 10.1602 198.266 10.5293 198.129 10.8652C197.996 11.1973 197.809 11.4844 197.566 11.7266C197.328 11.9648 197.043 12.1504 196.711 12.2832C196.379 12.416 196.014 12.4824 195.615 12.4824H193.488V15.5H192.434V7.04492H195.627ZM193.488 11.5449H195.352C195.652 11.5449 195.92 11.5059 196.154 11.4277C196.393 11.3457 196.592 11.2285 196.752 11.0762C196.916 10.9199 197.039 10.7324 197.121 10.5137C197.207 10.291 197.25 10.0391 197.25 9.75781C197.25 9.19531 197.086 8.75977 196.758 8.45117C196.43 8.13867 195.961 7.98242 195.352 7.98242H193.488V11.5449ZM207.879 15.5H206.895V8.98438H206.854L204.158 15.4414H203.268L200.572 8.98438H200.531V15.5H199.547V7.04492H200.771L203.689 14.0996H203.736L206.654 7.04492H207.879V15.5Z" fill="black"/>
<path fill-rule="evenodd" clip-rule="evenodd" d="M82.1672 11.5459C79.6288 9.00749 75.5133 9.00749 72.9749 11.5459L74.3891 12.9601C76.1464 11.2027 78.9957 11.2027 80.753 12.9601L82.1672 11.5459ZM79.6924 14.0208C78.5208 12.8492 76.6213 12.8492 75.4497 14.0208L77.571 16.1421L79.6924 14.0208Z" fill="black"/>
<path fill-rule="evenodd" clip-rule="evenodd" d="M70.5 9.07102C74.4052 5.16578 80.7369 5.16578 84.6421 9.07102L83.2279 10.4852C80.1037 7.36104 75.0384 7.36104 71.9142 10.4852L70.5 9.07102Z" fill="black" fill-opacity="0.25"/>
<path d="M30.3008 15.6406C29.7188 15.6406 29.1914 15.5391 28.7188 15.3359C28.25 15.1289 27.8496 14.8359 27.5176 14.457C27.1895 14.0781 26.9355 13.6191 26.7559 13.0801C26.5801 12.541 26.4922 11.9375 26.4922 11.2695C26.4922 10.6055 26.582 10.0059 26.7617 9.4707C26.9414 8.93164 27.1973 8.47266 27.5293 8.09375C27.8613 7.71094 28.2617 7.41797 28.7305 7.21484C29.1992 7.00781 29.7227 6.9043 30.3008 6.9043C30.7617 6.9043 31.1895 6.97266 31.584 7.10938C31.9824 7.24219 32.3359 7.43164 32.6445 7.67773C32.9531 7.91992 33.207 8.21484 33.4062 8.5625C33.6094 8.90625 33.7441 9.28906 33.8105 9.71094H32.7441C32.6777 9.43359 32.5684 9.18359 32.416 8.96094C32.2676 8.73438 32.0859 8.54102 31.8711 8.38086C31.6602 8.2207 31.4199 8.09766 31.1504 8.01172C30.8848 7.92188 30.6016 7.87695 30.3008 7.87695C29.8867 7.87695 29.5117 7.95703 29.1758 8.11719C28.8398 8.27734 28.5527 8.50586 28.3145 8.80273C28.0801 9.09961 27.8984 9.45703 27.7695 9.875C27.6406 10.2891 27.5762 10.7539 27.5762 11.2695C27.5762 11.7891 27.6387 12.2578 27.7637 12.6758C27.8926 13.0938 28.0762 13.4512 28.3145 13.748C28.5527 14.041 28.8398 14.2676 29.1758 14.4277C29.5117 14.5879 29.8887 14.668 30.3066 14.668C30.6152 14.668 30.9023 14.6328 31.168 14.5625C31.4336 14.4883 31.6699 14.3809 31.877 14.2402C32.084 14.0996 32.2598 13.9297 32.4043 13.7305C32.5527 13.5273 32.666 13.2969 32.7441 13.0391H33.8105C33.6152 13.8789 33.2168 14.5234 32.6152 14.9727C32.0137 15.418 31.2422 15.6406 30.3008 15.6406ZM36.9422 14.6738C37.2 14.6738 37.4383 14.6348 37.657 14.5566C37.8758 14.4785 38.0633 14.3691 38.2195 14.2285C38.3797 14.0879 38.5047 13.9219 38.5945 13.7305C38.6844 13.5352 38.7293 13.3242 38.7293 13.0977V12.5879L37.077 12.6934C36.6004 12.7246 36.241 12.8262 35.9988 12.998C35.7566 13.166 35.6355 13.4023 35.6355 13.707C35.6355 13.8555 35.6648 13.9883 35.7234 14.1055C35.7859 14.2227 35.8738 14.3242 35.9871 14.4102C36.1043 14.4961 36.243 14.5625 36.4031 14.6094C36.5633 14.6523 36.743 14.6738 36.9422 14.6738ZM36.7254 15.5586C36.4051 15.5586 36.1141 15.5156 35.8523 15.4297C35.5906 15.3398 35.366 15.2148 35.1785 15.0547C34.991 14.8906 34.8465 14.6953 34.7449 14.4688C34.6434 14.2383 34.5926 13.9824 34.5926 13.7012C34.5926 13.1543 34.7937 12.7266 35.1961 12.418C35.5984 12.1094 36.1863 11.9316 36.9598 11.8848L38.7293 11.7793V11.252C38.7293 10.8574 38.6043 10.5566 38.3543 10.3496C38.1082 10.1387 37.7508 10.0332 37.282 10.0332C37.0984 10.0332 36.9285 10.0566 36.7723 10.1035C36.616 10.1465 36.4754 10.2109 36.3504 10.2969C36.2293 10.3789 36.1277 10.4805 36.0457 10.6016C35.9676 10.7227 35.9129 10.8574 35.8816 11.0059H34.9031C34.9109 10.7402 34.9773 10.4922 35.1023 10.2617C35.2273 10.0312 35.3973 9.83203 35.6121 9.66406C35.827 9.49609 36.077 9.36523 36.3621 9.27148C36.6512 9.17383 36.9617 9.125 37.2937 9.125C37.6687 9.125 38.0066 9.17383 38.3074 9.27148C38.6082 9.36523 38.866 9.50195 39.0809 9.68164C39.2957 9.85742 39.4598 10.0723 39.573 10.3262C39.6902 10.5762 39.7488 10.8555 39.7488 11.1641V15.5H38.782V14.4043H38.7586C38.6687 14.5801 38.5535 14.7402 38.4129 14.8848C38.2723 15.0254 38.1141 15.1465 37.9383 15.248C37.7625 15.3457 37.5711 15.4219 37.3641 15.4766C37.1609 15.5312 36.948 15.5586 36.7254 15.5586ZM41.0523 9.18359H42.0133V10.209H42.0367C42.0836 10.0449 42.1539 9.89648 42.2477 9.76367C42.3453 9.62695 42.4605 9.51172 42.5934 9.41797C42.7262 9.32422 42.8746 9.25195 43.0387 9.20117C43.2066 9.15039 43.3824 9.125 43.566 9.125C43.6285 9.125 43.6988 9.12891 43.777 9.13672C43.8551 9.14453 43.9156 9.1543 43.9586 9.16602V10.1738C43.9156 10.1543 43.8395 10.1387 43.7301 10.127C43.6207 10.1113 43.5211 10.1035 43.4312 10.1035C43.2242 10.1035 43.0367 10.1406 42.8687 10.2148C42.7047 10.2852 42.5621 10.3848 42.441 10.5137C42.3238 10.6426 42.232 10.7988 42.1656 10.9824C42.1031 11.166 42.0719 11.3691 42.0719 11.5918V15.5H41.0523V9.18359ZM44.8109 9.18359H45.7719V10.209H45.7953C45.8422 10.0449 45.9125 9.89648 46.0063 9.76367C46.1039 9.62695 46.2191 9.51172 46.352 9.41797C46.4848 9.32422 46.6332 9.25195 46.7973 9.20117C46.9652 9.15039 47.141 9.125 47.3246 9.125C47.3871 9.125 47.4574 9.12891 47.5355 9.13672C47.6137 9.14453 47.6742 9.1543 47.7172 9.16602V10.1738C47.6742 10.1543 47.598 10.1387 47.4887 10.127C47.3793 10.1113 47.2797 10.1035 47.1898 10.1035C46.9828 10.1035 46.7953 10.1406 46.6273 10.2148C46.4633 10.2852 46.3207 10.3848 46.1996 10.5137C46.0824 10.6426 45.9906 10.7988 45.9242 10.9824C45.8617 11.166 45.8305 11.3691 45.8305 11.5918V15.5H44.8109V9.18359ZM48.6281 9.18359H49.6477V15.5H48.6281V9.18359ZM49.1379 8.16406C49.048 8.16406 48.9641 8.14844 48.8859 8.11719C48.8078 8.08203 48.7395 8.03516 48.6809 7.97656C48.6223 7.91797 48.5754 7.84961 48.5402 7.77148C48.509 7.69336 48.4934 7.60938 48.4934 7.51953C48.4934 7.42969 48.509 7.3457 48.5402 7.26758C48.5754 7.18945 48.6223 7.12109 48.6809 7.0625C48.7395 7.00391 48.8078 6.95898 48.8859 6.92773C48.9641 6.89258 49.048 6.875 49.1379 6.875C49.2277 6.875 49.3117 6.89258 49.3898 6.92773C49.468 6.95898 49.5363 7.00391 49.5949 7.0625C49.6535 7.12109 49.6984 7.18945 49.7297 7.26758C49.7648 7.3457 49.7824 7.42969 49.7824 7.51953C49.7824 7.60938 49.7648 7.69336 49.7297 7.77148C49.6984 7.84961 49.6535 7.91797 49.5949 7.97656C49.5363 8.03516 49.468 8.08203 49.3898 8.11719C49.3117 8.14844 49.2277 8.16406 49.1379 8.16406ZM53.5586 10.0215C53.3125 10.0215 53.084 10.0645 52.873 10.1504C52.6621 10.2363 52.4785 10.3574 52.3223 10.5137C52.1699 10.6699 52.0449 10.8594 51.9473 11.082C51.8535 11.3008 51.7988 11.543 51.7832 11.8086H55.2578C55.25 11.5391 55.2031 11.2949 55.1172 11.0762C55.0352 10.8574 54.9199 10.6699 54.7715 10.5137C54.623 10.3574 54.4453 10.2363 54.2383 10.1504C54.0352 10.0645 53.8086 10.0215 53.5586 10.0215ZM56.2422 13.6953C56.1992 13.9648 56.1016 14.2148 55.9492 14.4453C55.7969 14.6719 55.6035 14.8691 55.3691 15.0371C55.1387 15.2012 54.873 15.3301 54.5723 15.4238C54.2754 15.5137 53.959 15.5586 53.623 15.5586C53.1777 15.5586 52.7773 15.4844 52.4219 15.3359C52.0664 15.1875 51.7617 14.9746 51.5078 14.6973C51.2578 14.4199 51.0645 14.084 50.9277 13.6895C50.7949 13.2949 50.7285 12.8535 50.7285 12.3652C50.7285 11.877 50.7949 11.4336 50.9277 11.0352C51.0645 10.6367 51.2559 10.2969 51.502 10.0156C51.752 9.73047 52.0527 9.51172 52.4043 9.35938C52.7559 9.20312 53.1465 9.125 53.5762 9.125C53.998 9.125 54.377 9.19727 54.7129 9.3418C55.0527 9.48633 55.3418 9.69336 55.5801 9.96289C55.8184 10.2285 56 10.5527 56.125 10.9355C56.2539 11.3184 56.3184 11.748 56.3184 12.2246V12.623H51.7832V12.6816C51.7832 12.9824 51.8262 13.2559 51.9121 13.502C52.002 13.7441 52.1289 13.9512 52.293 14.123C52.457 14.2949 52.6523 14.4277 52.8789 14.5215C53.1094 14.6152 53.3652 14.6621 53.6465 14.6621C53.8457 14.6621 54.0312 14.6406 54.2031 14.5977C54.375 14.5508 54.5293 14.4863 54.666 14.4043C54.8066 14.3184 54.9238 14.2168 55.0176 14.0996C55.1152 13.9785 55.1875 13.8438 55.2344 13.6953H56.2422ZM57.3406 9.18359H58.3016V10.209H58.325C58.3719 10.0449 58.4422 9.89648 58.5359 9.76367C58.6336 9.62695 58.7488 9.51172 58.8816 9.41797C59.0145 9.32422 59.1629 9.25195 59.327 9.20117C59.4949 9.15039 59.6707 9.125 59.8543 9.125C59.9168 9.125 59.9871 9.12891 60.0652 9.13672C60.1434 9.14453 60.2039 9.1543 60.2469 9.16602V10.1738C60.2039 10.1543 60.1277 10.1387 60.0184 10.127C59.909 10.1113 59.8094 10.1035 59.7195 10.1035C59.5125 10.1035 59.325 10.1406 59.157 10.2148C58.993 10.2852 58.8504 10.3848 58.7293 10.5137C58.6121 10.6426 58.5203 10.7988 58.4539 10.9824C58.3914 11.166 58.3602 11.3691 58.3602 11.5918V15.5H57.3406V9.18359Z" fill="black"/>
<path fill-rule="evenodd" clip-rule="evenodd" d="M20.5 6H21.5C22.0523 6 22.5 6.44772 22.5 7V15C22.5 15.5523 22.0523 16 21.5 16H20.5C19.9477 16 19.5 15.5523 19.5 15V7C19.5 6.44772 19.9477 6 20.5 6Z" fill="black" fill-opacity="0.25"/>
<path fill-rule="evenodd" clip-rule="evenodd" d="M17 8H16C15.4477 8 15 8.44772 15 9V15C15 15.5523 15.4477 16 16 16H17C17.5523 16 18 15.5523 18 15V9C18 8.44772 17.5523 8 17 8ZM11.5 10H12.5C13.0523 10 13.5 10.4477 13.5 11V15C13.5 15.5523 13.0523 16 12.5 16H11.5C10.9477 16 10.5 15.5523 10.5 15V11C10.5 10.4477 10.9477 10 11.5 10ZM7 11.5H8C8.55228 11.5 9 11.9477 9 12.5V15C9 15.5523 8.55228 16 8 16H7C6.44772 16 6 15.5523 6 15V12.5C6 11.9477 6.44772 11.5 7 11.5Z" fill="black"/>
<path d="M54 680H386C385.987 675.633 385.974 670.777 385.868 665.919V665.557H172.419L192.637 650.86L236.374 640.503L261.542 586.13L285.472 616.552L318.482 636.617L292.744 601.663V564.126L334.573 631.442L342.824 606.845L385.918 615.366C385.918 609.17 385.923 602.976 385.934 596.78L382.849 595.195L354.792 591.312L342.414 575.13L330.862 572.54L296.615 535.646L280.11 535L261.542 552.476L243.387 537.589L227.295 535.646L222.755 542.118L232.244 555.065L217.39 571.894L228.53 581.605L181.492 600.377L217.803 549.243L119.193 624.97L156.742 615.263L157.155 621.735L189.339 614.613L197.179 623.674L138.171 664.454L153.025 639.857L54 680Z" fill="url(#paint0_linear)" fill-opacity="0.15"/>
<g filter="url(#filter0_d)">
<circle cx="40" cy="71" r="20" fill="white"/>
</g>
<path fill-rule="evenodd" clip-rule="evenodd" d="M43 79.7501C43.192 79.7501 43.384 79.6771 43.5305 79.5306C43.823 79.2376 43.823 78.7626 43.5305 78.4696L36.0605 71.0001L43.5305 63.5306C43.823 63.2376 43.823 62.7626 43.5305 62.4696C43.2375 62.1771 42.7625 62.1771 42.4695 62.4696L34.4695 70.4696C34.177 70.7626 34.177 71.2376 34.4695 71.5306L42.4695 79.5306C42.616 79.6771 42.808 79.7501 43 79.7501Z" fill="#6DB247"/>
<path d="M92.9102 63.5566C88.8184 63.5566 86.2402 66.3984 86.2402 70.9492C86.2402 75.4902 88.7793 78.3516 92.9102 78.3516C97.0215 78.3516 99.5703 75.4902 99.5703 70.9492C99.5703 66.3984 97.0117 63.5566 92.9102 63.5566ZM92.9102 65.7344C95.4102 65.7344 97.002 67.7559 97.002 70.9492C97.002 74.123 95.4199 76.1738 92.9102 76.1738C90.3711 76.1738 88.8184 74.123 88.8184 70.9492C88.8184 67.7559 90.4102 65.7344 92.9102 65.7344ZM107.119 78.2148C110.303 78.2148 112.275 76.1445 112.275 72.7754C112.275 69.5918 110.371 67.6484 107.578 67.6484C105.811 67.6484 104.639 68.459 103.994 69.6504H103.828C104.121 67.1895 104.98 65.8223 107.695 65.7148L108.926 65.666C110.879 65.5977 111.572 65.1387 111.572 65.1387V63.1758C111.582 63.1758 110.449 63.5957 108.779 63.6641L107.52 63.7129C103.467 63.8789 101.904 66.584 101.904 71.8184C101.904 76.1152 103.818 78.2148 107.119 78.2148ZM107.09 76.2324C105.371 76.2324 104.395 74.9922 104.395 72.8242C104.395 70.7539 105.381 69.5527 107.09 69.5527C108.799 69.5527 109.785 70.7539 109.785 72.8242C109.785 74.9922 108.799 76.2324 107.09 76.2324ZM114.932 78H128.438V80.7832H130.703V76.1152H129.014V67.3262H126.592V76.1152H123.184V67.3262H120.762V76.1152H117.354V67.3262H114.932V78ZM139.736 75.0801C139.385 75.8809 138.555 76.3301 137.354 76.3301C135.762 76.3301 134.736 75.1973 134.678 73.3906V73.2637H142.139V72.4922C142.139 69.1426 140.312 67.1211 137.266 67.1211C134.17 67.1211 132.246 69.2793 132.246 72.707C132.246 76.125 134.141 78.2148 137.285 78.2148C139.805 78.2148 141.592 77.0039 142.031 75.0801H139.736ZM137.256 69.0059C138.711 69.0059 139.668 70.0312 139.717 71.6523H134.688C134.795 70.0508 135.811 69.0059 137.256 69.0059ZM151.729 75.0801C151.377 75.8809 150.547 76.3301 149.346 76.3301C147.754 76.3301 146.729 75.1973 146.67 73.3906V73.2637H154.131V72.4922C154.131 69.1426 152.305 67.1211 149.258 67.1211C146.162 67.1211 144.238 69.2793 144.238 72.707C144.238 76.125 146.133 78.2148 149.277 78.2148C151.797 78.2148 153.584 77.0039 154.023 75.0801H151.729ZM149.248 69.0059C150.703 69.0059 151.66 70.0312 151.709 71.6523H146.68C146.787 70.0508 147.803 69.0059 149.248 69.0059ZM171.318 70.8906C171.064 68.6836 169.404 67.1211 166.66 67.1211C163.447 67.1211 161.562 69.1816 161.562 72.6387C161.562 76.1348 163.457 78.2148 166.67 78.2148C169.375 78.2148 171.055 76.7109 171.318 74.5039H169.014C168.76 75.627 167.92 76.2227 166.66 76.2227C165.01 76.2227 164.014 74.9043 164.014 72.6387C164.014 70.4121 165 69.1035 166.66 69.1035C167.988 69.1035 168.789 69.8555 169.014 70.8906H171.318ZM178.398 78.2148C181.592 78.2148 183.535 76.125 183.535 72.6582C183.535 69.2109 181.582 67.1211 178.398 67.1211C175.225 67.1211 173.262 69.2207 173.262 72.6582C173.262 76.125 175.195 78.2148 178.398 78.2148ZM178.398 76.2324C176.709 76.2324 175.742 74.9238 175.742 72.668C175.742 70.4121 176.709 69.1035 178.398 69.1035C180.078 69.1035 181.045 70.4121 181.045 72.668C181.045 74.9238 180.088 76.2324 178.398 76.2324ZM190.889 78.2148C194.072 78.2148 196.045 76.1445 196.045 72.7754C196.045 69.5918 194.141 67.6484 191.348 67.6484C189.58 67.6484 188.408 68.459 187.764 69.6504H187.598C187.891 67.1895 188.75 65.8223 191.465 65.7148L192.695 65.666C194.648 65.5977 195.342 65.1387 195.342 65.1387V63.1758C195.352 63.1758 194.219 63.5957 192.549 63.6641L191.289 63.7129C187.236 63.8789 185.674 66.584 185.674 71.8184C185.674 76.1152 187.588 78.2148 190.889 78.2148ZM190.859 76.2324C189.141 76.2324 188.164 74.9922 188.164 72.8242C188.164 70.7539 189.15 69.5527 190.859 69.5527C192.568 69.5527 193.555 70.7539 193.555 72.8242C193.555 74.9922 192.568 76.2324 190.859 76.2324ZM204.531 67.1504C203.066 67.1504 201.826 67.8828 201.211 69.0938H201.045V67.3262H198.711V81.5449H201.133V76.3789H201.299C201.846 77.5117 203.027 78.1758 204.561 78.1758C207.256 78.1758 208.936 76.0566 208.936 72.668C208.936 69.25 207.236 67.1504 204.531 67.1504ZM203.77 76.1641C202.119 76.1641 201.094 74.8262 201.084 72.668C201.094 70.5098 202.129 69.1719 203.779 69.1719C205.439 69.1719 206.445 70.4805 206.445 72.668C206.445 74.8555 205.449 76.1641 203.77 76.1641ZM214.502 78.1758C215.898 78.1758 217.07 77.5703 217.666 76.5352H217.832V78H220.166V70.7051C220.166 68.4492 218.623 67.1211 215.879 67.1211C213.34 67.1211 211.572 68.3125 211.377 70.1777H213.662C213.887 69.4453 214.648 69.0449 215.762 69.0449C217.07 69.0449 217.773 69.6406 217.773 70.7051V71.623L215.02 71.7891C212.422 71.9355 210.967 73.0586 210.967 74.9727C210.967 76.9258 212.441 78.1758 214.502 78.1758ZM215.215 76.3105C214.141 76.3105 213.369 75.7734 213.369 74.8555C213.369 73.9668 214.004 73.4688 215.361 73.3809L217.773 73.2148V74.084C217.773 75.3535 216.68 76.3105 215.215 76.3105ZM230.215 78H232.637V67.3262H230.215V71.5547H225.693V67.3262H223.271V78H225.693V73.4492H230.215V78ZM238.184 78L242.734 70.8125H242.9V78H245.293V67.3262H242.9L238.35 74.4746H238.184V67.3262H235.791V78H238.184ZM255.42 75.0801C255.068 75.8809 254.238 76.3301 253.037 76.3301C251.445 76.3301 250.42 75.1973 250.361 73.3906V73.2637H257.822V72.4922C257.822 69.1426 255.996 67.1211 252.949 67.1211C249.854 67.1211 247.93 69.2793 247.93 72.707C247.93 76.125 249.824 78.2148 252.969 78.2148C255.488 78.2148 257.275 77.0039 257.715 75.0801H255.42ZM252.939 69.0059C254.395 69.0059 255.352 70.0312 255.4 71.6523H250.371C250.479 70.0508 251.494 69.0059 252.939 69.0059ZM268.75 73.3906L272.305 78H275.244L270.723 72.2676L275.039 67.3262H272.246L268.73 71.6133H268.193V67.3262H265.771V78H268.193V73.3906H268.75ZM280.381 73.0586L280.645 69.2207H283.779V78H286.191V67.3262H278.535L278.184 72.9316C278.076 74.7285 277.725 75.9688 276.689 75.9688C276.426 75.9688 276.211 75.9199 276.104 75.8906V77.9902C276.24 78.0391 276.514 78.1074 276.914 78.1074C279.385 78.1074 280.176 76.125 280.381 73.0586ZM290.527 81.8672C292.92 81.8672 294.062 80.998 294.971 78.3711L298.828 67.3262H296.27L293.779 75.7051H293.613L291.113 67.3262H288.457L292.275 78.0391L292.148 78.5371C291.836 79.543 291.26 79.9336 290.234 79.9336C290.068 79.9336 289.707 79.9238 289.57 79.9043V81.8281C289.727 81.8574 290.381 81.8672 290.527 81.8672ZM305.752 78.2148C308.936 78.2148 310.908 76.1445 310.908 72.7754C310.908 69.5918 309.004 67.6484 306.211 67.6484C304.443 67.6484 303.271 68.459 302.627 69.6504H302.461C302.754 67.1895 303.613 65.8223 306.328 65.7148L307.559 65.666C309.512 65.5977 310.205 65.1387 310.205 65.1387V63.1758C310.215 63.1758 309.082 63.5957 307.412 63.6641L306.152 63.7129C302.1 63.8789 300.537 66.584 300.537 71.8184C300.537 76.1152 302.451 78.2148 305.752 78.2148ZM305.723 76.2324C304.004 76.2324 303.027 74.9922 303.027 72.8242C303.027 70.7539 304.014 69.5527 305.723 69.5527C307.432 69.5527 308.418 70.7539 308.418 72.8242C308.418 74.9922 307.432 76.2324 305.723 76.2324ZM316.514 78.1758C317.91 78.1758 319.082 77.5703 319.678 76.5352H319.844V78H322.178V70.7051C322.178 68.4492 320.635 67.1211 317.891 67.1211C315.352 67.1211 313.584 68.3125 313.389 70.1777H315.674C315.898 69.4453 316.66 69.0449 317.773 69.0449C319.082 69.0449 319.785 69.6406 319.785 70.7051V71.623L317.031 71.7891C314.434 71.9355 312.979 73.0586 312.979 74.9727C312.979 76.9258 314.453 78.1758 316.514 78.1758ZM317.227 76.3105C316.152 76.3105 315.381 75.7734 315.381 74.8555C315.381 73.9668 316.016 73.4688 317.373 73.3809L319.785 73.2148V74.084C319.785 75.3535 318.691 76.3105 317.227 76.3105Z" fill="#1B3259"/>
<g filter="url(#filter1_d)">
<rect x="18" y="501" width="334" height="56" rx="3" fill="white"/>
</g>
<path d="M99.6904 522.731C96.2539 522.731 94.0957 525.147 94.0957 529.007C94.0957 532.858 96.2041 535.291 99.6904 535.291C103.152 535.291 105.277 532.85 105.277 529.007C105.277 525.155 103.135 522.731 99.6904 522.731ZM99.6904 524.375C101.957 524.375 103.376 526.168 103.376 529.007C103.376 531.821 101.965 533.647 99.6904 533.647C97.3828 533.647 95.9966 531.821 95.9966 529.007C95.9966 526.168 97.4243 524.375 99.6904 524.375ZM111.644 535.174C114.292 535.174 115.935 533.431 115.935 530.584C115.935 527.861 114.325 526.209 111.959 526.209C110.457 526.209 109.46 526.907 108.921 527.895H108.78C109.045 525.753 109.751 524.541 112.092 524.441L113.08 524.408C114.79 524.342 115.337 523.918 115.337 523.918V522.424C115.346 522.424 114.408 522.806 112.98 522.864L111.992 522.906C108.489 523.055 107.327 525.446 107.327 529.746C107.327 533.406 108.913 535.174 111.644 535.174ZM111.627 533.655C110.058 533.655 109.162 532.543 109.162 530.601C109.162 528.75 110.058 527.687 111.627 527.687C113.196 527.687 114.092 528.75 114.092 530.601C114.092 532.543 113.204 533.655 111.627 533.655ZM122.958 525.828C121.729 525.828 120.667 526.45 120.119 527.479H119.986V525.985H118.268V538.005H120.052V533.639H120.193C120.667 534.593 121.688 535.149 122.974 535.149C125.257 535.149 126.709 533.34 126.709 530.493C126.709 527.629 125.257 525.828 122.958 525.828ZM122.451 533.622C120.957 533.622 120.019 532.418 120.019 530.493C120.019 528.559 120.957 527.355 122.459 527.355C123.97 527.355 124.875 528.534 124.875 530.493C124.875 532.452 123.97 533.622 122.451 533.622ZM131.524 535.149C132.711 535.149 133.699 534.635 134.238 533.722H134.379V535H136.098V528.833C136.098 526.94 134.819 525.811 132.553 525.811C130.503 525.811 129.042 526.799 128.859 528.318H130.586C130.785 527.662 131.474 527.289 132.47 527.289C133.69 527.289 134.321 527.845 134.321 528.833V529.621L131.873 529.771C129.723 529.903 128.511 530.841 128.511 532.46C128.511 534.104 129.781 535.149 131.524 535.149ZM131.98 533.713C131.009 533.713 130.304 533.224 130.304 532.385C130.304 531.563 130.868 531.124 132.113 531.041L134.321 530.891V531.671C134.321 532.833 133.325 533.713 131.98 533.713ZM145.536 525.985H138.057V527.413H140.904V535H142.688V527.413H145.536V525.985ZM153.446 535H155.231V525.985H153.446V529.621H149.329V525.985H147.544V535H149.329V531.049H153.446V535ZM160.477 535.149C161.664 535.149 162.652 534.635 163.191 533.722H163.333V535H165.051V528.833C165.051 526.94 163.772 525.811 161.506 525.811C159.456 525.811 157.995 526.799 157.812 528.318H159.539C159.738 527.662 160.427 527.289 161.423 527.289C162.644 527.289 163.274 527.845 163.274 528.833V529.621L160.826 529.771C158.676 529.903 157.464 530.841 157.464 532.46C157.464 534.104 158.734 535.149 160.477 535.149ZM160.934 533.713C159.962 533.713 159.257 533.224 159.257 532.385C159.257 531.563 159.821 531.124 161.066 531.041L163.274 530.891V531.671C163.274 532.833 162.278 533.713 160.934 533.713ZM172.638 535H174.397V525.985H170.928C168.844 525.985 167.483 527.139 167.483 529.015C167.483 530.252 168.247 531.215 169.492 531.572L167.026 535H169.102L171.293 531.879H172.638V535ZM171.019 530.501C169.948 530.501 169.251 529.878 169.251 528.999C169.251 528.011 169.94 527.405 171.019 527.405H172.638V530.501H171.019ZM189.455 528.882C189.223 527.131 187.853 525.811 185.587 525.811C182.956 525.811 181.354 527.596 181.354 530.459C181.354 533.381 182.964 535.174 185.595 535.174C187.828 535.174 189.223 533.921 189.455 532.145H187.72C187.488 533.124 186.716 533.655 185.587 533.655C184.101 533.655 183.18 532.452 183.18 530.459C183.18 528.509 184.093 527.33 185.587 527.33C186.782 527.33 187.513 528.002 187.72 528.882H189.455ZM195.772 535C197.756 535 198.943 533.971 198.943 532.418C198.943 531.339 198.179 530.526 197.009 530.385V530.244C197.897 530.078 198.536 529.239 198.536 528.31C198.536 526.898 197.499 525.985 195.73 525.985H191.655V535H195.772ZM193.423 527.305H195.39C196.336 527.305 196.785 527.795 196.785 528.525C196.785 529.331 196.27 529.762 195.191 529.762H193.423V527.305ZM193.423 531.057H195.332C196.527 531.057 197.142 531.48 197.142 532.352C197.142 533.19 196.594 533.672 195.556 533.672H193.423V531.057ZM206.123 535H207.883V525.985H204.413C202.33 525.985 200.968 527.139 200.968 529.015C200.968 530.252 201.732 531.215 202.977 531.572L200.512 535H202.587L204.778 531.879H206.123V535ZM204.504 530.501C203.434 530.501 202.736 529.878 202.736 528.999C202.736 528.011 203.425 527.405 204.504 527.405H206.123V530.501H204.504ZM213.884 535.166C216.109 535.166 217.57 534.012 217.57 532.335C217.57 531.323 216.956 530.601 215.727 530.352V530.21C216.673 529.995 217.263 529.223 217.263 528.285C217.263 526.791 216.018 525.811 213.934 525.811C211.851 525.811 210.564 526.84 210.373 528.393H212.1C212.208 527.695 212.896 527.247 213.893 527.247C214.98 527.247 215.511 527.77 215.511 528.467C215.511 529.306 214.955 529.746 213.859 529.746H212.523V531.057H213.868C215.121 531.057 215.793 531.472 215.793 532.36C215.793 533.174 215.08 533.73 213.868 533.73C212.813 533.73 212.083 533.307 211.909 532.551H210.132C210.298 534.22 211.851 535.166 213.884 535.166ZM219.894 535H223.463C225.555 535 226.892 533.796 226.892 531.887C226.892 529.986 225.555 528.783 223.463 528.783H221.679V525.985H219.894V535ZM223.331 530.202C224.41 530.202 225.115 530.866 225.115 531.887C225.115 532.9 224.418 533.572 223.331 533.572H221.679V530.202H223.331Z" fill="#1B3259"/>
<g filter="url(#filter2_d)">
<circle cx="55.5" cy="529.5" r="17.5" fill="white"/>
</g>
<path d="M61.3556 536C61.6852 536 61.9709 535.887 62.2137 535.663L58.0588 531.336C57.9591 531.41 57.8625 531.482 57.7712 531.551C57.4603 531.79 57.208 531.976 57.0142 532.109C56.8204 532.243 56.5626 532.379 56.2409 532.518C55.9188 532.658 55.6189 532.727 55.3406 532.727H55.3324H55.3243C55.046 532.727 54.746 532.658 54.424 532.518C54.102 532.379 53.8442 532.243 53.6507 532.109C53.4569 531.976 53.2047 531.79 52.8936 531.551C52.8069 531.485 52.7108 531.412 52.6068 531.334L48.4512 535.663C48.694 535.887 48.9798 536 49.3094 536H61.3556Z" fill="#6DB247"/>
<path d="M48.8266 528.611C48.5157 528.395 48.24 528.148 48 527.869V534.453L51.6621 530.639C50.9294 530.106 49.9855 529.431 48.8266 528.611Z" fill="#6DB247"/>
<path d="M61.8468 528.611C60.7321 529.396 59.7847 530.073 59.0045 530.64L62.6651 534.453V527.869C62.4304 528.142 62.1577 528.389 61.8468 528.611Z" fill="#6DB247"/>
<path d="M61.3568 524H49.3106C48.8904 524 48.5673 524.148 48.3409 524.443C48.1144 524.738 48.0013 525.108 48.0013 525.551C48.0013 525.909 48.1514 526.297 48.4514 526.714C48.7514 527.132 49.0706 527.46 49.4089 527.699C49.5943 527.835 50.1535 528.24 51.0866 528.913C51.5902 529.277 52.0283 529.594 52.4047 529.867C52.7255 530.1 53.0022 530.301 53.2306 530.469C53.2569 530.488 53.2981 530.519 53.3528 530.559C53.4118 530.603 53.4864 530.659 53.5785 530.729C53.7558 530.862 53.9031 530.97 54.0204 531.053C54.1376 531.135 54.2795 531.227 54.446 531.33C54.6124 531.432 54.7693 531.509 54.9166 531.56C55.0639 531.611 55.2003 531.636 55.3258 531.636H55.3339H55.3421C55.4675 531.636 55.6039 531.611 55.7512 531.56C55.8985 531.509 56.0553 531.432 56.2218 531.33C56.3882 531.227 56.5299 531.135 56.6475 531.053C56.7648 530.97 56.9121 530.862 57.0894 530.729C57.1813 530.659 57.2559 530.603 57.3149 530.559C57.3696 530.519 57.4109 530.488 57.4372 530.469C57.6152 530.34 57.8925 530.139 58.2654 529.869C58.9439 529.378 59.943 528.656 61.2672 527.699C61.6654 527.409 61.9981 527.059 62.2655 526.651C62.5324 526.242 62.6663 525.813 62.6663 525.364C62.6663 524.989 62.5365 524.668 62.2776 524.4C62.0184 524.134 61.7114 524 61.3568 524Z" fill="#6DB247"/>
<path d="M350 557L350 501L352 501C353.657 501 355 502.343 355 504L355 554C355 555.657 353.657 557 352 557L350 557Z" fill="url(#paint1_linear)"/>
<g filter="url(#filter3_d)">
<rect x="18" y="349" width="334" height="56" rx="3" fill="white"/>
</g>
<path d="M106.705 383V371.022H104.53L100.711 380.394H100.57L96.7603 371.022H94.5854V383H96.312V374.226H96.4282L99.9395 382.784H101.351L104.862 374.226H104.978V383H106.705ZM112.167 383.149C113.354 383.149 114.341 382.635 114.881 381.722H115.022V383H116.74V376.833C116.74 374.94 115.462 373.811 113.196 373.811C111.146 373.811 109.685 374.799 109.502 376.318H111.229C111.428 375.662 112.117 375.289 113.113 375.289C114.333 375.289 114.964 375.845 114.964 376.833V377.621L112.515 377.771C110.365 377.903 109.153 378.841 109.153 380.46C109.153 382.104 110.423 383.149 112.167 383.149ZM112.623 381.713C111.652 381.713 110.946 381.224 110.946 380.385C110.946 379.563 111.511 379.124 112.756 379.041L114.964 378.891V379.671C114.964 380.833 113.968 381.713 112.623 381.713ZM126.178 373.985H118.699V375.413H121.546V383H123.331V375.413H126.178V373.985ZM133.823 380.584C133.491 381.315 132.752 381.713 131.673 381.713C130.246 381.713 129.324 380.684 129.266 379.049V378.966H135.649V378.352C135.649 375.529 134.13 373.811 131.615 373.811C129.067 373.811 127.448 375.646 127.448 378.509C127.448 381.39 129.034 383.174 131.624 383.174C133.69 383.174 135.151 382.178 135.542 380.584H133.823ZM131.607 375.264C132.927 375.264 133.79 376.218 133.832 377.679H129.266C129.366 376.227 130.287 375.264 131.607 375.264ZM142.647 373.828C141.418 373.828 140.356 374.45 139.808 375.479H139.675V373.985H137.957V386.005H139.742V381.639H139.883C140.356 382.593 141.377 383.149 142.664 383.149C144.946 383.149 146.399 381.34 146.399 378.493C146.399 375.629 144.946 373.828 142.647 373.828ZM142.141 381.622C140.646 381.622 139.708 380.418 139.708 378.493C139.708 376.559 140.646 375.355 142.149 375.355C143.66 375.355 144.564 376.534 144.564 378.493C144.564 380.452 143.66 381.622 142.141 381.622ZM150.475 383L154.6 376.65H154.741V383H156.509V373.985H154.741L150.616 380.311H150.475V373.985H148.707V383H150.475ZM161.772 383.149C162.959 383.149 163.947 382.635 164.486 381.722H164.627V383H166.346V376.833C166.346 374.94 165.067 373.811 162.801 373.811C160.751 373.811 159.29 374.799 159.107 376.318H160.834C161.033 375.662 161.722 375.289 162.718 375.289C163.938 375.289 164.569 375.845 164.569 376.833V377.621L162.121 377.771C159.971 377.903 158.759 378.841 158.759 380.46C158.759 382.104 160.029 383.149 161.772 383.149ZM162.229 381.713C161.257 381.713 160.552 381.224 160.552 380.385C160.552 379.563 161.116 379.124 162.361 379.041L164.569 378.891V379.671C164.569 380.833 163.573 381.713 162.229 381.713ZM171.492 378.916L171.741 375.413H174.605V383H176.39V373.985H170.164L169.849 378.841C169.741 380.427 169.425 381.473 168.545 381.473C168.321 381.473 168.147 381.431 168.064 381.406V382.992C168.172 383.033 168.379 383.083 168.678 383.083C170.679 383.083 171.318 381.464 171.492 378.916ZM187.33 383H189.115V373.985H187.33V383ZM179.137 383H182.707C184.798 383 186.135 381.796 186.135 379.887C186.135 377.986 184.798 376.783 182.707 376.783H180.922V373.985H179.137V383ZM182.574 378.202C183.653 378.202 184.358 378.866 184.358 379.887C184.358 380.9 183.661 381.572 182.574 381.572H180.922V378.202H182.574Z" fill="#1B3259"/>
<path d="M351 405L351 349L353 349C354.657 349 356 350.343 356 352L356 402C356 403.657 354.657 405 353 405L351 405Z" fill="url(#paint2_linear)"/>
<g filter="url(#filter4_d)">
<circle cx="55.5" cy="376.5" r="17.5" fill="white"/>
</g>
<g clip-path="url(#clip1)">
<path d="M62.9869 375.026C62.9676 374.933 62.9029 374.856 62.8146 374.821C62.0359 374.51 61.2102 374.353 60.3605 374.353C59.0359 374.353 58.0139 374.731 57.6191 374.902L53.409 371.32C53.5561 370.028 52.8589 369.144 52.8278 369.105C52.7771 369.043 52.7027 369.005 52.6226 369C52.5428 368.998 52.4639 369.026 52.4073 369.083L48.091 373.399C48.0339 373.456 48.0039 373.535 48.0087 373.615C48.0132 373.696 48.052 373.771 48.1151 373.821C48.7322 374.31 49.4854 374.413 50.0084 374.413C50.1249 374.413 50.2245 374.408 50.3007 374.402L53.9005 378.633C53.6549 379.264 52.9045 381.539 53.8136 383.822C53.8487 383.911 53.9259 383.975 54.0193 383.994C54.0383 383.998 54.0575 384 54.0765 384C54.1509 384 54.2231 383.971 54.2765 383.917L58.3993 379.795L62.239 383.634C62.2942 383.69 62.3666 383.717 62.4391 383.717C62.5115 383.717 62.584 383.69 62.6391 383.634C62.7498 383.524 62.7498 383.345 62.6391 383.234L58.7994 379.395L62.9099 375.284C62.9773 375.216 63.0061 375.12 62.9869 375.026Z" fill="#6DB247"/>
</g>
<g filter="url(#filter5_d)">
<rect x="20" y="121" width="334" height="56" rx="3" fill="white"/>
</g>
<path d="M106.289 155V143.022H96.5854V155H98.4531V144.641H104.446V155H106.289ZM113.951 145.828C112.722 145.828 111.66 146.45 111.112 147.479H110.979V145.985H109.261V158.005H111.045V153.639H111.187C111.66 154.593 112.681 155.149 113.967 155.149C116.25 155.149 117.703 153.34 117.703 150.493C117.703 147.629 116.25 145.828 113.951 145.828ZM113.444 153.622C111.95 153.622 111.012 152.418 111.012 150.493C111.012 148.559 111.95 147.355 113.453 147.355C114.963 147.355 115.868 148.534 115.868 150.493C115.868 152.452 114.963 153.622 113.444 153.622ZM123.837 155.174C126.477 155.174 128.095 153.406 128.095 150.493C128.095 147.579 126.468 145.811 123.837 145.811C121.197 145.811 119.57 147.587 119.57 150.493C119.57 153.406 121.189 155.174 123.837 155.174ZM123.837 153.655C122.285 153.655 121.413 152.501 121.413 150.493C121.413 148.484 122.285 147.322 123.837 147.322C125.381 147.322 126.261 148.484 126.261 150.493C126.261 152.493 125.381 153.655 123.837 153.655ZM136.354 147.413V145.985H130.403V155H132.188V147.413H136.354ZM143.169 145.828C141.941 145.828 140.878 146.45 140.331 147.479H140.198V145.985H138.479V158.005H140.264V153.639H140.405C140.878 154.593 141.899 155.149 143.186 155.149C145.469 155.149 146.921 153.34 146.921 150.493C146.921 147.629 145.469 145.828 143.169 145.828ZM142.663 153.622C141.169 153.622 140.231 152.418 140.231 150.493C140.231 148.559 141.169 147.355 142.671 147.355C144.182 147.355 145.087 148.534 145.087 150.493C145.087 152.452 144.182 153.622 142.663 153.622ZM151.736 155.149C152.923 155.149 153.911 154.635 154.45 153.722H154.591V155H156.31V148.833C156.31 146.94 155.031 145.811 152.765 145.811C150.715 145.811 149.254 146.799 149.071 148.318H150.798C150.997 147.662 151.686 147.289 152.682 147.289C153.902 147.289 154.533 147.845 154.533 148.833V149.621L152.084 149.771C149.935 149.903 148.723 150.841 148.723 152.46C148.723 154.104 149.993 155.149 151.736 155.149ZM152.192 153.713C151.221 153.713 150.516 153.224 150.516 152.385C150.516 151.563 151.08 151.124 152.325 151.041L154.533 150.891V151.671C154.533 152.833 153.537 153.713 152.192 153.713ZM160.742 155V148.733H160.9L163.548 154.66H164.859L167.507 148.733H167.665V155H169.408V145.985H167.225L164.303 152.568H164.162L161.249 145.985H159.007V155H160.742ZM173.891 155V148.733H174.048L176.696 154.66H178.008L180.656 148.733H180.813V155H182.557V145.985H180.374L177.452 152.568H177.311L174.397 145.985H172.156V155H173.891ZM187.811 155.149C188.998 155.149 189.986 154.635 190.525 153.722H190.667V155H192.385V148.833C192.385 146.94 191.106 145.811 188.84 145.811C186.79 145.811 185.329 146.799 185.146 148.318H186.873C187.072 147.662 187.761 147.289 188.757 147.289C189.978 147.289 190.608 147.845 190.608 148.833V149.621L188.16 149.771C186.01 149.903 184.798 150.841 184.798 152.46C184.798 154.104 186.068 155.149 187.811 155.149ZM188.268 153.713C187.296 153.713 186.591 153.224 186.591 152.385C186.591 151.563 187.155 151.124 188.4 151.041L190.608 150.891V151.671C190.608 152.833 189.612 153.713 188.268 153.713Z" fill="#1B3259"/>
<path d="M352 177L352 121L354 121C355.657 121 357 122.343 357 124L357 174C357 175.657 355.657 177 354 177L352 177Z" fill="url(#paint3_linear)"/>
<g filter="url(#filter6_d)">
<circle cx="57.5" cy="148.5" r="17.5" fill="white"/>
</g>
<path d="M65.9605 141.719H55.991C55.9712 141.719 55.9514 141.736 55.9514 141.759V142.692C55.9514 142.712 55.9679 142.732 55.991 142.732H65.9605C65.9803 142.732 66.0001 142.716 66.0001 142.692V141.759C66.0001 141.736 65.9836 141.719 65.9605 141.719Z" fill="#6DB247"/>
<path d="M52.3587 149.802C53.0492 149.802 53.609 149.242 53.609 148.551C53.609 147.861 53.0492 147.301 52.3587 147.301C51.6682 147.301 51.1084 147.861 51.1084 148.551C51.1084 149.242 51.6682 149.802 52.3587 149.802Z" fill="#6DB247"/>
<path d="M52.3588 155.291C53.053 155.291 53.6157 154.728 53.6157 154.034C53.6157 153.34 53.053 152.777 52.3588 152.777C51.6647 152.777 51.1019 153.34 51.1019 154.034C51.1019 154.728 51.6647 155.291 52.3588 155.291Z" fill="#6DB247"/>
<path d="M55.991 144.421H60.7019C60.7217 144.421 60.7415 144.404 60.7415 144.381V143.448C60.7415 143.428 60.725 143.408 60.7019 143.408H55.991C55.9712 143.408 55.9514 143.425 55.9514 143.448V144.381C55.9547 144.404 55.9712 144.421 55.991 144.421Z" fill="#6DB247"/>
<path d="M65.9605 147.202H55.991C55.9712 147.202 55.9514 147.219 55.9514 147.242V148.175C55.9514 148.195 55.9679 148.215 55.991 148.215H65.9605C65.9803 148.215 66.0001 148.198 66.0001 148.175V147.242C66.0001 147.219 65.9836 147.202 65.9605 147.202Z" fill="#6DB247"/>
<path d="M55.991 149.904H60.7019C60.7217 149.904 60.7415 149.887 60.7415 149.864V148.931C60.7415 148.911 60.725 148.891 60.7019 148.891H55.991C55.9712 148.891 55.9514 148.908 55.9514 148.931V149.864C55.9547 149.884 55.9712 149.904 55.991 149.904Z" fill="#6DB247"/>
<path d="M65.9605 152.682H55.991C55.9712 152.682 55.9514 152.698 55.9514 152.721V153.655C55.9514 153.675 55.9679 153.694 55.991 153.694H65.9605C65.9803 153.694 66.0001 153.678 66.0001 153.655V152.721C66.0001 152.698 65.9836 152.682 65.9605 152.682Z" fill="#6DB247"/>
<path d="M60.7019 154.374H55.991C55.9712 154.374 55.9514 154.391 55.9514 154.414V155.347C55.9514 155.367 55.9679 155.387 55.991 155.387H60.7019C60.7217 155.387 60.7415 155.37 60.7415 155.347V154.414C60.7415 154.391 60.725 154.374 60.7019 154.374Z" fill="#6DB247"/>
<path d="M51.7616 143.049L50.9006 142.181L50 143.078L50.8643 143.943L51.7584 144.843L52.6557 143.949L54.7175 141.901L53.8235 141L51.7616 143.049Z" fill="#6DB247"/>
<g filter="url(#filter7_d)">
<rect x="18" y="425" width="334" height="56" rx="3" fill="white"/>
</g>
<path d="M99.3833 457.938V459.199H101.218V457.938C104.405 457.838 106.58 456.037 106.58 452.982C106.58 449.944 104.43 448.101 101.218 448.018V446.823H99.3833V448.018C96.1875 448.118 94.0044 449.919 94.0044 452.974C94.0044 456.012 96.1626 457.846 99.3833 457.938ZM99.3916 456.352C97.25 456.277 95.8887 454.999 95.8887 452.974C95.8887 450.932 97.2749 449.687 99.3916 449.604V456.352ZM104.704 452.982C104.704 455.024 103.318 456.261 101.209 456.352V449.604C103.343 449.678 104.704 450.948 104.704 452.982ZM112.806 459.174C115.445 459.174 117.064 457.406 117.064 454.493C117.064 451.579 115.437 449.811 112.806 449.811C110.166 449.811 108.539 451.587 108.539 454.493C108.539 457.406 110.158 459.174 112.806 459.174ZM112.806 457.655C111.253 457.655 110.382 456.501 110.382 454.493C110.382 452.484 111.253 451.322 112.806 451.322C114.35 451.322 115.229 452.484 115.229 454.493C115.229 456.493 114.35 457.655 112.806 457.655ZM125.564 449.985H118.085V451.413H120.932V459H122.717V451.413H125.564V449.985ZM131.101 459.174C133.74 459.174 135.359 457.406 135.359 454.493C135.359 451.579 133.732 449.811 131.101 449.811C128.461 449.811 126.834 451.587 126.834 454.493C126.834 457.406 128.453 459.174 131.101 459.174ZM131.101 457.655C129.548 457.655 128.677 456.501 128.677 454.493C128.677 452.484 129.548 451.322 131.101 451.322C132.645 451.322 133.524 452.484 133.524 454.493C133.524 456.493 132.645 457.655 131.101 457.655ZM137.924 461.557L142.232 446.449H140.655L136.355 461.557H137.924ZM148.798 459C151.354 459 152.89 457.722 152.89 455.613C152.89 454.044 151.811 452.899 150.192 452.725V452.583C151.371 452.384 152.292 451.264 152.292 450.01C152.292 448.167 150.939 447.022 148.69 447.022H143.875V459H148.798ZM145.735 448.541H148.258C149.636 448.541 150.441 449.197 150.441 450.334C150.441 451.504 149.586 452.119 147.943 452.119H145.735V448.541ZM145.735 457.481V453.538H148.316C150.068 453.538 150.989 454.202 150.989 455.497C150.989 456.792 150.101 457.481 148.424 457.481H145.735ZM156.999 459L161.125 452.65H161.266V459H163.034V449.985H161.266L157.14 456.311H156.999V449.985H155.231V459H156.999ZM166.371 461.366V459H173.086V461.366H174.738V457.572H173.327V449.985H166.819L166.487 454.841C166.404 456.053 166.105 457.157 165.441 457.572H164.71V461.366H166.371ZM171.55 457.572H167.417V457.431C167.823 456.867 168.039 455.954 168.122 454.916L168.371 451.405H171.55V457.572ZM182.482 456.584C182.15 457.315 181.412 457.713 180.333 457.713C178.905 457.713 177.983 456.684 177.925 455.049V454.966H184.309V454.352C184.309 451.529 182.79 449.811 180.274 449.811C177.726 449.811 176.107 451.646 176.107 454.509C176.107 457.39 177.693 459.174 180.283 459.174C182.35 459.174 183.811 458.178 184.201 456.584H182.482ZM180.266 451.264C181.586 451.264 182.449 452.218 182.491 453.679H177.925C178.025 452.227 178.946 451.264 180.266 451.264ZM190.435 459.174C193.074 459.174 194.693 457.406 194.693 454.493C194.693 451.579 193.066 449.811 190.435 449.811C187.795 449.811 186.168 451.587 186.168 454.493C186.168 457.406 187.787 459.174 190.435 459.174ZM190.435 457.655C188.882 457.655 188.011 456.501 188.011 454.493C188.011 452.484 188.882 451.322 190.435 451.322C191.979 451.322 192.858 452.484 192.858 454.493C192.858 456.493 191.979 457.655 190.435 457.655Z" fill="#1B3259"/>
<g filter="url(#filter8_d)">
<circle cx="55.5" cy="452.5" r="17.5" fill="white"/>
</g>
<path d="M62.5194 448.784C62.0987 448.364 61.5914 448.153 60.9969 448.153H59.1127L58.6838 447.01C58.5772 446.735 58.3825 446.498 58.0991 446.299C57.8159 446.1 57.5257 446 57.2285 446H52.9217C52.6245 446 52.3343 446.1 52.0511 446.299C51.7679 446.498 51.5731 446.735 51.4665 447.01L51.0375 448.153H49.1533C48.5588 448.153 48.0514 448.364 47.6308 448.784C47.2103 449.205 47 449.712 47 450.307V457.844C47 458.438 47.2103 458.946 47.6308 459.366C48.0514 459.787 48.5589 459.997 49.1533 459.997H60.9967C61.5912 459.997 62.0985 459.787 62.5192 459.366C62.9397 458.946 63.15 458.438 63.15 457.844V450.307C63.1501 449.712 62.9398 449.205 62.5194 448.784ZM57.7373 456.737C56.9999 457.475 56.1125 457.844 55.075 457.844C54.0375 457.844 53.1503 457.475 52.4128 456.737C51.6753 456 51.3067 455.113 51.3067 454.075C51.3067 453.038 51.6755 452.151 52.4128 451.413C53.1502 450.676 54.0376 450.307 55.075 450.307C56.1125 450.307 56.9999 450.676 57.7373 451.413C58.4747 452.15 58.8434 453.038 58.8434 454.075C58.8434 455.113 58.4747 456 57.7373 456.737Z" fill="#6DB247"/>
<path d="M55.0751 451.653C54.4077 451.653 53.8371 451.89 53.3633 452.363C52.8894 452.837 52.6525 453.408 52.6525 454.075C52.6525 454.743 52.8894 455.313 53.3633 455.787C53.8371 456.261 54.4077 456.498 55.0751 456.498C55.7423 456.498 56.313 456.261 56.7868 455.787C57.2607 455.313 57.4977 454.743 57.4977 454.075C57.4977 453.408 57.2607 452.837 56.7868 452.363C56.313 451.89 55.7423 451.653 55.0751 451.653Z" fill="#6DB247"/>
<g filter="url(#filter9_d)">
<rect x="20" y="197" width="334" height="56" rx="3" fill="white"/>
</g>
<path d="M101.5 231.291C104.172 231.291 106.14 229.755 106.472 227.422H104.621C104.289 228.784 103.085 229.639 101.5 229.639C99.3413 229.639 97.9966 227.862 97.9966 225.015C97.9966 222.168 99.3413 220.383 101.491 220.383C103.068 220.383 104.272 221.33 104.621 222.815H106.472C106.173 220.417 104.131 218.731 101.491 218.731C98.1626 218.731 96.0957 221.139 96.0957 225.015C96.0957 228.883 98.1709 231.291 101.5 231.291ZM114.689 231H116.474V221.985H108.871V231H110.655V223.413H114.689V231ZM120.981 231L125.107 224.65H125.248V231H127.016V221.985H125.248L121.123 228.311H120.981V221.985H119.213V231H120.981ZM132.03 227.016L135.259 231H137.483L133.491 226.186L137.317 221.985H135.217L132.021 225.671H131.557V221.985H129.772V231H131.557V227.016H132.03ZM144.904 228.584C144.572 229.315 143.833 229.713 142.754 229.713C141.327 229.713 140.405 228.684 140.347 227.049V226.966H146.73V226.352C146.73 223.529 145.211 221.811 142.696 221.811C140.148 221.811 138.529 223.646 138.529 226.509C138.529 229.39 140.115 231.174 142.705 231.174C144.771 231.174 146.232 230.178 146.623 228.584H144.904ZM142.688 223.264C144.008 223.264 144.871 224.218 144.913 225.679H140.347C140.447 224.227 141.368 223.264 142.688 223.264ZM153.728 221.828C152.5 221.828 151.437 222.45 150.889 223.479H150.756V221.985H149.038V234.005H150.823V229.639H150.964C151.437 230.593 152.458 231.149 153.745 231.149C156.027 231.149 157.48 229.34 157.48 226.493C157.48 223.629 156.027 221.828 153.728 221.828ZM153.222 229.622C151.728 229.622 150.79 228.418 150.79 226.493C150.79 224.559 151.728 223.355 153.23 223.355C154.741 223.355 155.646 224.534 155.646 226.493C155.646 228.452 154.741 229.622 153.222 229.622ZM167.98 231H169.765V221.985H167.98V231ZM159.788 231H163.357C165.449 231 166.785 229.796 166.785 227.887C166.785 225.986 165.449 224.783 163.357 224.783H161.572V221.985H159.788V231ZM163.224 226.202C164.303 226.202 165.009 226.866 165.009 227.887C165.009 228.9 164.312 229.572 163.224 229.572H161.572V226.202H163.224Z" fill="#1B3259"/>
<g filter="url(#filter10_d)">
<circle cx="57.5" cy="224.5" r="17.5" fill="white"/>
</g>
<path d="M56.7693 219.154C56.6028 219.154 56.4585 219.215 56.3367 219.337L53.1347 222.539H50.6155C50.4487 222.539 50.3045 222.6 50.1827 222.721C50.0609 222.843 50 222.987 50 223.154V226.846C50 227.013 50.0609 227.157 50.1827 227.279C50.3046 227.401 50.4489 227.462 50.6155 227.462H53.1346L56.3365 230.664C56.4583 230.785 56.6026 230.846 56.7692 230.846C56.936 230.846 57.0802 230.785 57.202 230.664C57.3238 230.542 57.3847 230.398 57.3847 230.231V219.769C57.3847 219.603 57.3238 219.458 57.2021 219.337C57.0802 219.215 56.9361 219.154 56.7693 219.154Z" fill="#6DB247"/>
<path d="M60.6682 226.36C60.9408 225.941 61.0769 225.487 61.0769 225C61.0769 224.513 60.9408 224.057 60.6682 223.634C60.3957 223.211 60.0354 222.913 59.5865 222.74C59.5224 222.708 59.4422 222.692 59.346 222.692C59.1795 222.692 59.0351 222.751 58.9134 222.87C58.7918 222.988 58.7306 223.134 58.7306 223.307C58.7306 223.442 58.7691 223.556 58.8462 223.649C58.9231 223.742 59.0159 223.822 59.1251 223.889C59.2339 223.956 59.3429 224.03 59.4521 224.11C59.5611 224.19 59.654 224.304 59.7308 224.452C59.8075 224.599 59.8462 224.782 59.8462 225C59.8462 225.218 59.8077 225.4 59.7308 225.548C59.654 225.695 59.5611 225.809 59.4521 225.889C59.3429 225.97 59.2339 226.043 59.1251 226.111C59.0159 226.178 58.9231 226.258 58.8462 226.351C58.7693 226.444 58.7306 226.558 58.7306 226.692C58.7306 226.866 58.7918 227.011 58.9134 227.13C59.0351 227.248 59.1795 227.308 59.346 227.308C59.4421 227.308 59.5224 227.292 59.5865 227.26C60.0354 227.08 60.3958 226.78 60.6682 226.36Z" fill="#6DB247"/>
<path d="M62.7213 227.716C63.2662 226.886 63.5387 225.981 63.5387 225C63.5387 224.019 63.2661 223.114 62.7213 222.283C62.1764 221.453 61.4549 220.849 60.5577 220.471C60.4745 220.439 60.3911 220.423 60.308 220.423C60.1413 220.423 59.9969 220.484 59.8751 220.605C59.7534 220.727 59.6924 220.871 59.6924 221.038C59.6924 221.288 59.8174 221.477 60.0675 221.605C60.4264 221.791 60.67 221.932 60.7981 222.028C61.2726 222.375 61.6427 222.809 61.9087 223.331C62.1747 223.854 62.3077 224.41 62.3077 225C62.3077 225.589 62.1747 226.145 61.9087 226.668C61.6427 227.19 61.2724 227.625 60.7981 227.971C60.6699 228.067 60.4264 228.208 60.0675 228.394C59.8174 228.522 59.6924 228.711 59.6924 228.961C59.6924 229.128 59.7534 229.272 59.8751 229.394C59.9969 229.516 60.1442 229.577 60.3173 229.577C60.3943 229.577 60.4745 229.561 60.5577 229.529C61.4549 229.15 62.1764 228.546 62.7213 227.716Z" fill="#6DB247"/>
<path d="M64.7788 220.938C63.9648 219.704 62.8813 218.795 61.5287 218.212C61.4455 218.18 61.3621 218.164 61.2789 218.164C61.1123 218.164 60.9679 218.225 60.8463 218.346C60.7243 218.468 60.6633 218.612 60.6633 218.779C60.6633 219.01 60.7884 219.199 61.0385 219.346C61.0835 219.372 61.1553 219.405 61.2547 219.447C61.3541 219.489 61.4261 219.522 61.4712 219.548C61.766 219.708 62.0289 219.872 62.2599 220.038C63.0482 220.622 63.6636 221.349 64.106 222.221C64.5483 223.093 64.7693 224.019 64.7693 225C64.7693 225.981 64.5483 226.907 64.106 227.779C63.6637 228.651 63.0482 229.378 62.2599 229.962C62.0289 230.128 61.766 230.292 61.4712 230.452C61.4261 230.477 61.3541 230.511 61.2547 230.553C61.1553 230.594 61.0835 230.628 61.0385 230.654C60.7884 230.801 60.6633 230.99 60.6633 231.221C60.6633 231.388 60.7243 231.532 60.8463 231.654C60.9679 231.775 61.1123 231.836 61.2789 231.836C61.3621 231.836 61.4455 231.82 61.5287 231.788C62.8813 231.205 63.9648 230.296 64.7788 229.062C65.593 227.828 65.9999 226.474 65.9999 225C65.9999 223.525 65.5931 222.171 64.7788 220.938Z" fill="#6DB247"/>
<g filter="url(#filter11_d)">
<rect x="20" y="273" width="334" height="56" rx="3" fill="white"/>
</g>
<path d="M98.4448 300.227V295.022H96.5854V307H98.4448V301.679H98.8765L103.807 307H106.165L100.454 300.824L105.733 295.022H103.533L98.8682 300.227H98.4448ZM110.033 307.149C111.22 307.149 112.208 306.635 112.747 305.722H112.888V307H114.606V300.833C114.606 298.94 113.328 297.811 111.062 297.811C109.012 297.811 107.551 298.799 107.368 300.318H109.095C109.294 299.662 109.983 299.289 110.979 299.289C112.199 299.289 112.83 299.845 112.83 300.833V301.621L110.381 301.771C108.231 301.903 107.02 302.841 107.02 304.46C107.02 306.104 108.29 307.149 110.033 307.149ZM110.489 305.713C109.518 305.713 108.812 305.224 108.812 304.385C108.812 303.563 109.377 303.124 110.622 303.041L112.83 302.891V303.671C112.83 304.833 111.834 305.713 110.489 305.713ZM119.562 303.016L122.791 307H125.016L121.023 302.186L124.85 297.985H122.75L119.554 301.671H119.089V297.985H117.304V307H119.089V303.016H119.562ZM132.146 309.366V307H138.861V309.366H140.513V305.572H139.102V297.985H132.594L132.262 302.841C132.179 304.053 131.88 305.157 131.216 305.572H130.486V309.366H132.146ZM137.326 305.572H133.192V305.431C133.599 304.867 133.814 303.954 133.897 302.916L134.146 299.405H137.326V305.572ZM146.149 307.174C148.789 307.174 150.408 305.406 150.408 302.493C150.408 299.579 148.781 297.811 146.149 297.811C143.51 297.811 141.883 299.587 141.883 302.493C141.883 305.406 143.501 307.174 146.149 307.174ZM146.149 305.655C144.597 305.655 143.726 304.501 143.726 302.493C143.726 300.484 144.597 299.322 146.149 299.322C147.693 299.322 148.573 300.484 148.573 302.493C148.573 304.493 147.693 305.655 146.149 305.655ZM156.608 307.174C159.256 307.174 160.9 305.431 160.9 302.584C160.9 299.861 159.29 298.209 156.924 298.209C155.421 298.209 154.425 298.907 153.886 299.895H153.745C154.01 297.753 154.716 296.541 157.057 296.441L158.044 296.408C159.754 296.342 160.302 295.918 160.302 295.918V294.424C160.311 294.424 159.373 294.806 157.945 294.864L156.957 294.906C153.454 295.055 152.292 297.446 152.292 301.746C152.292 305.406 153.877 307.174 156.608 307.174ZM156.592 305.655C155.023 305.655 154.126 304.543 154.126 302.601C154.126 300.75 155.023 299.687 156.592 299.687C158.161 299.687 159.057 300.75 159.057 302.601C159.057 304.543 158.169 305.655 156.592 305.655ZM167.922 297.828C166.694 297.828 165.631 298.45 165.083 299.479H164.951V297.985H163.232V310.005H165.017V305.639H165.158C165.631 306.593 166.652 307.149 167.939 307.149C170.222 307.149 171.674 305.34 171.674 302.493C171.674 299.629 170.222 297.828 167.922 297.828ZM167.416 305.622C165.922 305.622 164.984 304.418 164.984 302.493C164.984 300.559 165.922 299.355 167.424 299.355C168.935 299.355 169.84 300.534 169.84 302.493C169.84 304.452 168.935 305.622 167.416 305.622ZM176.489 307.149C177.676 307.149 178.664 306.635 179.203 305.722H179.344V307H181.062V300.833C181.062 298.94 179.784 297.811 177.518 297.811C175.468 297.811 174.007 298.799 173.824 300.318H175.551C175.75 299.662 176.439 299.289 177.435 299.289C178.655 299.289 179.286 299.845 179.286 300.833V301.621L176.837 301.771C174.688 301.903 173.476 302.841 173.476 304.46C173.476 306.104 174.746 307.149 176.489 307.149ZM176.945 305.713C175.974 305.713 175.269 305.224 175.269 304.385C175.269 303.563 175.833 303.124 177.078 303.041L179.286 302.891V303.671C179.286 304.833 178.29 305.713 176.945 305.713ZM190.5 297.985H183.021V299.413H185.869V307H187.653V299.413H190.5V297.985ZM192.509 307H196.079C198.17 307 199.507 305.796 199.507 303.887C199.507 301.986 198.17 300.783 196.079 300.783H194.294V297.985H192.509V307ZM195.946 302.202C197.025 302.202 197.73 302.866 197.73 303.887C197.73 304.9 197.033 305.572 195.946 305.572H194.294V302.202H195.946ZM209.335 300.882C209.103 299.131 207.733 297.811 205.467 297.811C202.835 297.811 201.233 299.596 201.233 302.459C201.233 305.381 202.844 307.174 205.475 307.174C207.708 307.174 209.103 305.921 209.335 304.145H207.6C207.368 305.124 206.596 305.655 205.467 305.655C203.981 305.655 203.06 304.452 203.06 302.459C203.06 300.509 203.973 299.33 205.467 299.33C206.662 299.33 207.393 300.002 207.6 300.882H209.335ZM216.274 307H218.034V297.985H214.564C212.481 297.985 211.12 299.139 211.12 301.015C211.12 302.252 211.883 303.215 213.128 303.572L210.663 307H212.738L214.93 303.879H216.274V307ZM214.656 302.501C213.585 302.501 212.888 301.878 212.888 300.999C212.888 300.011 213.577 299.405 214.656 299.405H216.274V302.501H214.656Z" fill="#1B3259"/>
<path d="M351 329L351 273L353 273C354.657 273 356 274.343 356 276L356 326C356 327.657 354.657 329 353 329L351 329Z" fill="url(#paint4_linear)"/>
<g filter="url(#filter12_d)">
<circle cx="57.5" cy="301.5" r="17.5" fill="white"/>
</g>
<path d="M57.9997 294C54.752 294 52.1095 296.643 52.1095 299.891C52.1095 300.738 52.2829 301.547 52.6246 302.295C54.0974 305.518 56.921 308.92 57.7515 309.886C57.8137 309.958 57.9044 310 57.9999 310C58.0954 310 58.1861 309.958 58.2483 309.886C59.0785 308.92 61.9021 305.518 63.3753 302.295C63.7172 301.547 63.8904 300.738 63.8904 299.891C63.8901 296.643 61.2476 294 57.9997 294ZM57.9997 302.95C56.3127 302.95 54.94 301.577 54.94 299.89C54.94 298.203 56.3127 296.83 57.9997 296.83C59.6868 296.83 61.0595 298.203 61.0595 299.89C61.0596 301.577 59.687 302.95 57.9997 302.95Z" fill="#6DB247"/>
<path d="M351 253L351 197L353 197C354.657 197 356 198.343 356 200L356 250C356 251.657 354.657 253 353 253L351 253Z" fill="url(#paint5_linear)"/>
<path d="M350 481L350 425L352 425C353.657 425 355 426.343 355 428L355 478C355 479.657 353.657 481 352 481L350 481Z" fill="url(#paint6_linear)"/>
</g>
<defs>
<filter id="filter0_d" x="0" y="36" width="80" height="80" filterUnits="userSpaceOnUse" color-interpolation-filters="sRGB">
<feFlood flood-opacity="0" result="BackgroundImageFix"/>
<feColorMatrix in="SourceAlpha" type="matrix" values="0 0 0 0 0 0 0 0 0 0 0 0 0 0 0 0 0 0 127 0"/>
<feOffset dy="5"/>
<feGaussianBlur stdDeviation="10"/>
<feColorMatrix type="matrix" values="0 0 0 0 0.146644 0 0 0 0 0.2625 0 0 0 0 0.0853125 0 0 0 0.1 0"/>
<feBlend mode="normal" in2="BackgroundImageFix" result="effect1_dropShadow"/>
<feBlend mode="normal" in="SourceGraphic" in2="effect1_dropShadow" result="shape"/>
</filter>
<filter id="filter1_d" x="-2" y="485" width="374" height="96" filterUnits="userSpaceOnUse" color-interpolation-filters="sRGB">
<feFlood flood-opacity="0" result="BackgroundImageFix"/>
<feColorMatrix in="SourceAlpha" type="matrix" values="0 0 0 0 0 0 0 0 0 0 0 0 0 0 0 0 0 0 127 0"/>
<feOffset dy="4"/>
<feGaussianBlur stdDeviation="10"/>
<feColorMatrix type="matrix" values="0 0 0 0 0.0688041 0 0 0 0 0.13138 0 0 0 0 0.0343419 0 0 0 0.08 0"/>
<feBlend mode="normal" in2="BackgroundImageFix" result="effect1_dropShadow"/>
<feBlend mode="normal" in="SourceGraphic" in2="effect1_dropShadow" result="shape"/>
</filter>
<filter id="filter2_d" x="18" y="497" width="75" height="75" filterUnits="userSpaceOnUse" color-interpolation-filters="sRGB">
<feFlood flood-opacity="0" result="BackgroundImageFix"/>
<feColorMatrix in="SourceAlpha" type="matrix" values="0 0 0 0 0 0 0 0 0 0 0 0 0 0 0 0 0 0 127 0"/>
<feOffset dy="5"/>
<feGaussianBlur stdDeviation="10"/>
<feColorMatrix type="matrix" values="0 0 0 0 0.427451 0 0 0 0 0.698039 0 0 0 0 0.278431 0 0 0 0.2 0"/>
<feBlend mode="normal" in2="BackgroundImageFix" result="effect1_dropShadow"/>
<feBlend mode="normal" in="SourceGraphic" in2="effect1_dropShadow" result="shape"/>
</filter>
<filter id="filter3_d" x="-2" y="333" width="374" height="96" filterUnits="userSpaceOnUse" color-interpolation-filters="sRGB">
<feFlood flood-opacity="0" result="BackgroundImageFix"/>
<feColorMatrix in="SourceAlpha" type="matrix" values="0 0 0 0 0 0 0 0 0 0 0 0 0 0 0 0 0 0 127 0"/>
<feOffset dy="4"/>
<feGaussianBlur stdDeviation="10"/>
<feColorMatrix type="matrix" values="0 0 0 0 0.0688041 0 0 0 0 0.13138 0 0 0 0 0.0343419 0 0 0 0.08 0"/>
<feBlend mode="normal" in2="BackgroundImageFix" result="effect1_dropShadow"/>
<feBlend mode="normal" in="SourceGraphic" in2="effect1_dropShadow" result="shape"/>
</filter>
<filter id="filter4_d" x="18" y="344" width="75" height="75" filterUnits="userSpaceOnUse" color-interpolation-filters="sRGB">
<feFlood flood-opacity="0" result="BackgroundImageFix"/>
<feColorMatrix in="SourceAlpha" type="matrix" values="0 0 0 0 0 0 0 0 0 0 0 0 0 0 0 0 0 0 127 0"/>
<feOffset dy="5"/>
<feGaussianBlur stdDeviation="10"/>
<feColorMatrix type="matrix" values="0 0 0 0 0.427451 0 0 0 0 0.698039 0 0 0 0 0.278431 0 0 0 0.2 0"/>
<feBlend mode="normal" in2="BackgroundImageFix" result="effect1_dropShadow"/>
<feBlend mode="normal" in="SourceGraphic" in2="effect1_dropShadow" result="shape"/>
</filter>
<filter id="filter5_d" x="0" y="105" width="374" height="96" filterUnits="userSpaceOnUse" color-interpolation-filters="sRGB">
<feFlood flood-opacity="0" result="BackgroundImageFix"/>
<feColorMatrix in="SourceAlpha" type="matrix" values="0 0 0 0 0 0 0 0 0 0 0 0 0 0 0 0 0 0 127 0"/>
<feOffset dy="4"/>
<feGaussianBlur stdDeviation="10"/>
<feColorMatrix type="matrix" values="0 0 0 0 0.0688041 0 0 0 0 0.13138 0 0 0 0 0.0343419 0 0 0 0.08 0"/>
<feBlend mode="normal" in2="BackgroundImageFix" result="effect1_dropShadow"/>
<feBlend mode="normal" in="SourceGraphic" in2="effect1_dropShadow" result="shape"/>
</filter>
<filter id="filter6_d" x="20" y="116" width="75" height="75" filterUnits="userSpaceOnUse" color-interpolation-filters="sRGB">
<feFlood flood-opacity="0" result="BackgroundImageFix"/>
<feColorMatrix in="SourceAlpha" type="matrix" values="0 0 0 0 0 0 0 0 0 0 0 0 0 0 0 0 0 0 127 0"/>
<feOffset dy="5"/>
<feGaussianBlur stdDeviation="10"/>
<feColorMatrix type="matrix" values="0 0 0 0 0.427451 0 0 0 0 0.698039 0 0 0 0 0.278431 0 0 0 0.2 0"/>
<feBlend mode="normal" in2="BackgroundImageFix" result="effect1_dropShadow"/>
<feBlend mode="normal" in="SourceGraphic" in2="effect1_dropShadow" result="shape"/>
</filter>
<filter id="filter7_d" x="-2" y="409" width="374" height="96" filterUnits="userSpaceOnUse" color-interpolation-filters="sRGB">
<feFlood flood-opacity="0" result="BackgroundImageFix"/>
<feColorMatrix in="SourceAlpha" type="matrix" values="0 0 0 0 0 0 0 0 0 0 0 0 0 0 0 0 0 0 127 0"/>
<feOffset dy="4"/>
<feGaussianBlur stdDeviation="10"/>
<feColorMatrix type="matrix" values="0 0 0 0 0.0688041 0 0 0 0 0.13138 0 0 0 0 0.0343419 0 0 0 0.08 0"/>
<feBlend mode="normal" in2="BackgroundImageFix" result="effect1_dropShadow"/>
<feBlend mode="normal" in="SourceGraphic" in2="effect1_dropShadow" result="shape"/>
</filter>
<filter id="filter8_d" x="18" y="420" width="75" height="75" filterUnits="userSpaceOnUse" color-interpolation-filters="sRGB">
<feFlood flood-opacity="0" result="BackgroundImageFix"/>
<feColorMatrix in="SourceAlpha" type="matrix" values="0 0 0 0 0 0 0 0 0 0 0 0 0 0 0 0 0 0 127 0"/>
<feOffset dy="5"/>
<feGaussianBlur stdDeviation="10"/>
<feColorMatrix type="matrix" values="0 0 0 0 0.427451 0 0 0 0 0.698039 0 0 0 0 0.278431 0 0 0 0.2 0"/>
<feBlend mode="normal" in2="BackgroundImageFix" result="effect1_dropShadow"/>
<feBlend mode="normal" in="SourceGraphic" in2="effect1_dropShadow" result="shape"/>
</filter>
<filter id="filter9_d" x="0" y="181" width="374" height="96" filterUnits="userSpaceOnUse" color-interpolation-filters="sRGB">
<feFlood flood-opacity="0" result="BackgroundImageFix"/>
<feColorMatrix in="SourceAlpha" type="matrix" values="0 0 0 0 0 0 0 0 0 0 0 0 0 0 0 0 0 0 127 0"/>
<feOffset dy="4"/>
<feGaussianBlur stdDeviation="10"/>
<feColorMatrix type="matrix" values="0 0 0 0 0.0688041 0 0 0 0 0.13138 0 0 0 0 0.0343419 0 0 0 0.08 0"/>
<feBlend mode="normal" in2="BackgroundImageFix" result="effect1_dropShadow"/>
<feBlend mode="normal" in="SourceGraphic" in2="effect1_dropShadow" result="shape"/>
</filter>
<filter id="filter10_d" x="20" y="192" width="75" height="75" filterUnits="userSpaceOnUse" color-interpolation-filters="sRGB">
<feFlood flood-opacity="0" result="BackgroundImageFix"/>
<feColorMatrix in="SourceAlpha" type="matrix" values="0 0 0 0 0 0 0 0 0 0 0 0 0 0 0 0 0 0 127 0"/>
<feOffset dy="5"/>
<feGaussianBlur stdDeviation="10"/>
<feColorMatrix type="matrix" values="0 0 0 0 0.427451 0 0 0 0 0.698039 0 0 0 0 0.278431 0 0 0 0.2 0"/>
<feBlend mode="normal" in2="BackgroundImageFix" result="effect1_dropShadow"/>
<feBlend mode="normal" in="SourceGraphic" in2="effect1_dropShadow" result="shape"/>
</filter>
<filter id="filter11_d" x="0" y="257" width="374" height="96" filterUnits="userSpaceOnUse" color-interpolation-filters="sRGB">
<feFlood flood-opacity="0" result="BackgroundImageFix"/>
<feColorMatrix in="SourceAlpha" type="matrix" values="0 0 0 0 0 0 0 0 0 0 0 0 0 0 0 0 0 0 127 0"/>
<feOffset dy="4"/>
<feGaussianBlur stdDeviation="10"/>
<feColorMatrix type="matrix" values="0 0 0 0 0.0688041 0 0 0 0 0.13138 0 0 0 0 0.0343419 0 0 0 0.08 0"/>
<feBlend mode="normal" in2="BackgroundImageFix" result="effect1_dropShadow"/>
<feBlend mode="normal" in="SourceGraphic" in2="effect1_dropShadow" result="shape"/>
</filter>
<filter id="filter12_d" x="20" y="269" width="75" height="75" filterUnits="userSpaceOnUse" color-interpolation-filters="sRGB">
<feFlood flood-opacity="0" result="BackgroundImageFix"/>
<feColorMatrix in="SourceAlpha" type="matrix" values="0 0 0 0 0 0 0 0 0 0 0 0 0 0 0 0 0 0 127 0"/>
<feOffset dy="5"/>
<feGaussianBlur stdDeviation="10"/>
<feColorMatrix type="matrix" values="0 0 0 0 0.427451 0 0 0 0 0.698039 0 0 0 0 0.278431 0 0 0 0.2 0"/>
<feBlend mode="normal" in2="BackgroundImageFix" result="effect1_dropShadow"/>
<feBlend mode="normal" in="SourceGraphic" in2="effect1_dropShadow" result="shape"/>
</filter>
<linearGradient id="paint0_linear" x1="220" y1="535" x2="343.138" y2="652.778" gradientUnits="userSpaceOnUse">
<stop stop-color="#4585A7"/>
<stop offset="1" stop-color="#BBCD54"/>
</linearGradient>
<linearGradient id="paint1_linear" x1="355" y1="545.8" x2="355" y2="502.948" gradientUnits="userSpaceOnUse">
<stop stop-color="#0B7E86"/>
<stop offset="0.402291" stop-color="#2B8E67"/>
<stop offset="0.582349" stop-color="#429F49"/>
<stop offset="0.826715" stop-color="#429F49"/>
<stop offset="1" stop-color="#B1CE33"/>
</linearGradient>
<linearGradient id="paint2_linear" x1="356" y1="393.8" x2="356" y2="350.948" gradientUnits="userSpaceOnUse">
<stop stop-color="#0B7E86"/>
<stop offset="0.402291" stop-color="#2B8E67"/>
<stop offset="0.582349" stop-color="#429F49"/>
<stop offset="0.826715" stop-color="#429F49"/>
<stop offset="1" stop-color="#B1CE33"/>
</linearGradient>
<linearGradient id="paint3_linear" x1="357" y1="165.8" x2="357" y2="122.948" gradientUnits="userSpaceOnUse">
<stop stop-color="#0B7E86"/>
<stop offset="0.402291" stop-color="#2B8E67"/>
<stop offset="0.582349" stop-color="#429F49"/>
<stop offset="0.826715" stop-color="#429F49"/>
<stop offset="1" stop-color="#B1CE33"/>
</linearGradient>
<linearGradient id="paint4_linear" x1="356" y1="317.8" x2="356" y2="274.948" gradientUnits="userSpaceOnUse">
<stop stop-color="#0B7E86"/>
<stop offset="0.402291" stop-color="#2B8E67"/>
<stop offset="0.582349" stop-color="#429F49"/>
<stop offset="0.826715" stop-color="#429F49"/>
<stop offset="1" stop-color="#B1CE33"/>
</linearGradient>
<linearGradient id="paint5_linear" x1="356" y1="241.8" x2="356" y2="198.948" gradientUnits="userSpaceOnUse">
<stop stop-color="#0B7E86"/>
<stop offset="0.402291" stop-color="#2B8E67"/>
<stop offset="0.582349" stop-color="#429F49"/>
<stop offset="0.826715" stop-color="#429F49"/>
<stop offset="1" stop-color="#B1CE33"/>
</linearGradient>
<linearGradient id="paint6_linear" x1="355" y1="469.8" x2="355" y2="426.948" gradientUnits="userSpaceOnUse">
<stop stop-color="#0B7E86"/>
<stop offset="0.402291" stop-color="#2B8E67"/>
<stop offset="0.582349" stop-color="#429F49"/>
<stop offset="0.826715" stop-color="#429F49"/>
<stop offset="1" stop-color="#B1CE33"/>
</linearGradient>
<clipPath id="clip0">
<rect width="375" height="667" fill="white"/>
</clipPath>
<clipPath id="clip1">
<rect x="48" y="369" width="15" height="15" fill="white"/>
</clipPath>
</defs>
</svg>
