<svg width="375" height="667" viewBox="0 0 375 667" fill="none" xmlns="http://www.w3.org/2000/svg">
<g clip-path="url(#clip0)">
<rect width="375" height="667" fill="white"/>
<path d="M374.869 0.37677H0V667.093H374.869V0.37677Z" fill="#F9FAF9"/>
<path d="M120 688H430C429.988 683.904 429.975 679.35 429.876 674.793V674.454H230.572L249.451 660.669L290.289 650.955L313.789 599.957L336.134 628.491L366.956 647.31L342.924 614.525V579.318L381.981 642.456L389.686 619.386L429.923 627.378C429.923 621.566 429.928 615.757 429.938 609.945L427.058 608.458L400.86 604.817L389.303 589.639L378.516 587.21L346.538 552.606L331.127 552L313.789 568.391L296.837 554.429L281.811 552.606L277.573 558.676L286.433 570.819L272.563 586.604L282.965 595.712L239.044 613.319L272.949 565.359L180.873 636.386L215.934 627.281L216.319 633.351L246.37 626.671L253.692 635.17L198.594 673.419L212.463 650.348L120 688Z" fill="url(#paint0_linear)" fill-opacity="0.05"/>
<path fill-rule="evenodd" clip-rule="evenodd" d="M345.5 6.5H364.5C365.881 6.5 367 7.61929 367 9V15.5C367 16.8807 365.881 18 364.5 18H345.5C344.119 18 343 16.8807 343 15.5V9C343 7.61929 344.119 6.5 345.5 6.5ZM345.5 7.5C344.672 7.5 344 8.17157 344 9V15.5C344 16.3284 344.672 17 345.5 17H364.5C365.328 17 366 16.3284 366 15.5V9C366 8.17157 365.328 7.5 364.5 7.5H345.5Z" fill="black" fill-opacity="0.38"/>
<path fill-rule="evenodd" clip-rule="evenodd" d="M368 9.79987C368.89 10.255 369.5 11.1813 369.5 12.25C369.5 13.3187 368.89 14.245 368 14.7002V9.79987Z" fill="black" fill-opacity="0.49"/>
<path fill-rule="evenodd" clip-rule="evenodd" d="M346 8.5H364C364.552 8.5 365 8.94772 365 9.5V15C365 15.5523 364.552 16 364 16H346C345.448 16 345 15.5523 345 15V9.5C345 8.94772 345.448 8.5 346 8.5Z" fill="black"/>
<path d="M314.131 9.16406H314.107L311.869 10.7754V9.66211L314.119 8.04492H315.15V16.5H314.131V9.16406ZM320.254 16.6406C319.762 16.6406 319.322 16.5391 318.936 16.3359C318.549 16.1289 318.221 15.8359 317.951 15.457C317.686 15.0781 317.482 14.6191 317.342 14.0801C317.205 13.541 317.137 12.9375 317.137 12.2695C317.137 11.6094 317.207 11.0098 317.348 10.4707C317.488 9.93164 317.691 9.47266 317.957 9.09375C318.227 8.71484 318.553 8.42188 318.936 8.21484C319.322 8.00781 319.762 7.9043 320.254 7.9043C320.746 7.9043 321.184 8.00781 321.566 8.21484C321.953 8.41797 322.279 8.70898 322.545 9.08789C322.811 9.4668 323.012 9.92578 323.148 10.4648C323.289 11 323.359 11.5996 323.359 12.2637C323.359 12.9316 323.289 13.5352 323.148 14.0742C323.012 14.6133 322.811 15.0742 322.545 15.457C322.279 15.8359 321.953 16.1289 321.566 16.3359C321.184 16.5391 320.746 16.6406 320.254 16.6406ZM320.254 15.7207C320.582 15.7207 320.873 15.6406 321.127 15.4805C321.385 15.3164 321.6 15.0859 321.771 14.7891C321.943 14.4883 322.074 14.125 322.164 13.6992C322.254 13.2734 322.299 12.7969 322.299 12.2695C322.299 11.75 322.254 11.2793 322.164 10.8574C322.074 10.4316 321.941 10.0703 321.766 9.77344C321.594 9.47266 321.381 9.24023 321.127 9.07617C320.873 8.91211 320.582 8.83008 320.254 8.83008C319.926 8.83008 319.635 8.91211 319.381 9.07617C319.127 9.24023 318.912 9.47266 318.736 9.77344C318.561 10.0742 318.426 10.4355 318.332 10.8574C318.242 11.2793 318.197 11.748 318.197 12.2637C318.197 12.791 318.242 13.2676 318.332 13.6934C318.422 14.1191 318.553 14.4824 318.725 14.7832C318.9 15.084 319.115 15.3164 319.369 15.4805C319.627 15.6406 319.922 15.7207 320.254 15.7207ZM327.531 16.6406C327.039 16.6406 326.6 16.5391 326.213 16.3359C325.826 16.1289 325.498 15.8359 325.229 15.457C324.963 15.0781 324.76 14.6191 324.619 14.0801C324.482 13.541 324.414 12.9375 324.414 12.2695C324.414 11.6094 324.484 11.0098 324.625 10.4707C324.766 9.93164 324.969 9.47266 325.234 9.09375C325.504 8.71484 325.83 8.42188 326.213 8.21484C326.6 8.00781 327.039 7.9043 327.531 7.9043C328.023 7.9043 328.461 8.00781 328.844 8.21484C329.23 8.41797 329.557 8.70898 329.822 9.08789C330.088 9.4668 330.289 9.92578 330.426 10.4648C330.566 11 330.637 11.5996 330.637 12.2637C330.637 12.9316 330.566 13.5352 330.426 14.0742C330.289 14.6133 330.088 15.0742 329.822 15.457C329.557 15.8359 329.23 16.1289 328.844 16.3359C328.461 16.5391 328.023 16.6406 327.531 16.6406ZM327.531 15.7207C327.859 15.7207 328.15 15.6406 328.404 15.4805C328.662 15.3164 328.877 15.0859 329.049 14.7891C329.221 14.4883 329.352 14.125 329.441 13.6992C329.531 13.2734 329.576 12.7969 329.576 12.2695C329.576 11.75 329.531 11.2793 329.441 10.8574C329.352 10.4316 329.219 10.0703 329.043 9.77344C328.871 9.47266 328.658 9.24023 328.404 9.07617C328.15 8.91211 327.859 8.83008 327.531 8.83008C327.203 8.83008 326.912 8.91211 326.658 9.07617C326.404 9.24023 326.189 9.47266 326.014 9.77344C325.838 10.0742 325.703 10.4355 325.609 10.8574C325.52 11.2793 325.475 11.748 325.475 12.2637C325.475 12.791 325.52 13.2676 325.609 13.6934C325.699 14.1191 325.83 14.4824 326.002 14.7832C326.178 15.084 326.393 15.3164 326.646 15.4805C326.904 15.6406 327.199 15.7207 327.531 15.7207ZM331.967 16.5L338.154 8.04492H339.162L332.986 16.5H331.967ZM339.707 14.4844C339.707 14.8047 339.664 15.0957 339.578 15.3574C339.496 15.6152 339.377 15.8359 339.221 16.0195C339.068 16.2031 338.883 16.3457 338.664 16.4473C338.449 16.5449 338.207 16.5938 337.938 16.5938C337.668 16.5938 337.424 16.5449 337.205 16.4473C336.99 16.3457 336.805 16.2031 336.648 16.0195C336.492 15.8359 336.371 15.6152 336.285 15.3574C336.203 15.0957 336.162 14.8047 336.162 14.4844C336.162 14.168 336.203 13.8809 336.285 13.623C336.371 13.3613 336.492 13.1387 336.648 12.9551C336.805 12.7715 336.99 12.6309 337.205 12.5332C337.424 12.4316 337.668 12.3809 337.938 12.3809C338.207 12.3809 338.449 12.4316 338.664 12.5332C338.883 12.6309 339.068 12.7715 339.221 12.9551C339.377 13.1387 339.496 13.3613 339.578 13.623C339.664 13.8809 339.707 14.168 339.707 14.4844ZM337.938 15.8789C338.066 15.8789 338.182 15.8477 338.283 15.7852C338.389 15.7188 338.477 15.625 338.547 15.5039C338.617 15.3828 338.672 15.2363 338.711 15.0645C338.75 14.8926 338.77 14.6992 338.77 14.4844C338.77 14.0469 338.697 13.707 338.553 13.4648C338.408 13.2227 338.203 13.1016 337.938 13.1016C337.68 13.1016 337.475 13.2266 337.322 13.4766C337.174 13.7227 337.1 14.0586 337.1 14.4844C337.1 14.6992 337.119 14.8926 337.158 15.0645C337.197 15.2363 337.252 15.3828 337.322 15.5039C337.396 15.625 337.484 15.7188 337.586 15.7852C337.691 15.8477 337.809 15.8789 337.938 15.8789ZM335.002 10.043C335.002 10.3633 334.959 10.6543 334.873 10.916C334.791 11.1738 334.672 11.3945 334.516 11.5781C334.363 11.7617 334.178 11.9043 333.959 12.0059C333.744 12.1035 333.502 12.1523 333.232 12.1523C332.963 12.1523 332.719 12.1035 332.5 12.0059C332.285 11.9043 332.1 11.7617 331.943 11.5781C331.787 11.3945 331.666 11.1738 331.58 10.916C331.498 10.6543 331.457 10.3633 331.457 10.043C331.457 9.72656 331.498 9.43945 331.58 9.18164C331.666 8.91992 331.787 8.69727 331.943 8.51367C332.1 8.33008 332.285 8.18945 332.5 8.0918C332.719 7.99023 332.963 7.93945 333.232 7.93945C333.502 7.93945 333.744 7.99023 333.959 8.0918C334.178 8.18945 334.363 8.33008 334.516 8.51367C334.672 8.69727 334.791 8.91992 334.873 9.18164C334.959 9.43945 335.002 9.72656 335.002 10.043ZM333.232 11.4375C333.361 11.4375 333.477 11.4062 333.578 11.3438C333.684 11.2773 333.771 11.1836 333.842 11.0625C333.912 10.9414 333.967 10.7949 334.006 10.623C334.045 10.4512 334.064 10.2578 334.064 10.043C334.064 9.60547 333.992 9.26562 333.848 9.02344C333.703 8.78125 333.498 8.66016 333.232 8.66016C332.975 8.66016 332.77 8.78516 332.617 9.03516C332.469 9.28125 332.395 9.61719 332.395 10.043C332.395 10.2578 332.414 10.4512 332.453 10.623C332.492 10.7949 332.547 10.9414 332.617 11.0625C332.691 11.1836 332.779 11.2773 332.881 11.3438C332.986 11.4062 333.104 11.4375 333.232 11.4375Z" fill="black"/>
<path fill-rule="evenodd" clip-rule="evenodd" d="M300.874 8.19111L302.524 9.78081L300.874 11.2111V8.19111ZM301.47 11.9993L304 9.80741L299.996 6V6.5V7.34563V10.7213L297.622 8.665L297 9.43104L299.964 11.9993L297 14.5675L297.622 15.3335L299.996 13.2772V16.6529V17.5V17.9985L304 14.1911L301.47 11.9993ZM300.874 15.8074L302.524 14.2177L300.874 12.7874V15.8074Z" fill="black"/>
<path fill-rule="evenodd" clip-rule="evenodd" d="M283.667 7.87174C283.171 7.37609 282.367 7.37609 281.872 7.87174C281.376 8.36739 281.376 9.17101 281.872 9.66666L283.667 7.87174ZM288.833 7.87174C289.329 7.37609 290.133 7.37609 290.628 7.87174C291.124 8.36739 291.124 9.17101 290.628 9.66666L288.833 7.87174ZM290.5 12.25C290.5 14.5972 288.597 16.5 286.25 16.5C283.903 16.5 282 14.5972 282 12.25C282 9.90279 283.903 8 286.25 8C288.597 8 290.5 9.90279 290.5 12.25ZM286.25 9.5H286.997V12.25H287.002V12.9966H286.997V13H286.25V12.9966H284.502V12.25H286.25V9.5Z" fill="black"/>
<path fill-rule="evenodd" clip-rule="evenodd" d="M265 12L275 7.5L270.5 17.5V12H265Z" fill="black"/>
<path fill-rule="evenodd" clip-rule="evenodd" d="M252.5 7C255.093 7 257.224 8.97334 257.475 11.5H259L257 13.5L255 11.5H256.519C256.273 9.49915 254.567 7.95 252.5 7.95C250.263 7.95 248.45 9.76324 248.45 12C248.45 14.2368 250.263 16.05 252.5 16.05C253.945 16.05 255.214 15.2928 255.931 14.1535L256.719 14.6851C255.831 16.0769 254.273 17 252.5 17C249.739 17 247.5 14.7614 247.5 12C247.5 9.23858 249.739 7 252.5 7ZM251 10.25V11.5C250.724 11.5 250.5 11.7239 250.5 12V14C250.5 14.2761 250.724 14.5 251 14.5H254C254.276 14.5 254.5 14.2761 254.5 14V12C254.5 11.7239 254.276 11.5 254 11.5V10.25C254 9.55964 253.44 9 252.75 9H252.25C251.56 9 251 9.55964 251 10.25ZM253.35 10.325V11.5H251.65V10.325C251.65 9.97982 251.93 9.7 252.275 9.7H252.725C253.07 9.7 253.35 9.97982 253.35 10.325Z" fill="#111111"/>
<path d="M169.143 9.16406H169.119L166.881 10.7754V9.66211L169.131 8.04492H170.162V16.5H169.143V9.16406ZM173.145 16.5586C173.051 16.5586 172.963 16.541 172.881 16.5059C172.799 16.4707 172.729 16.4238 172.67 16.3652C172.611 16.3066 172.564 16.2363 172.529 16.1543C172.494 16.0723 172.477 15.9844 172.477 15.8906C172.477 15.7969 172.494 15.709 172.529 15.627C172.564 15.5449 172.611 15.4746 172.67 15.416C172.729 15.3535 172.799 15.3066 172.881 15.2754C172.963 15.2402 173.051 15.2227 173.145 15.2227C173.336 15.2227 173.494 15.2871 173.619 15.416C173.748 15.541 173.812 15.6992 173.812 15.8906C173.812 15.9844 173.795 16.0723 173.76 16.1543C173.729 16.2363 173.682 16.3066 173.619 16.3652C173.561 16.4238 173.49 16.4707 173.408 16.5059C173.326 16.541 173.238 16.5586 173.145 16.5586ZM173.145 12.2461C173.051 12.2461 172.963 12.2285 172.881 12.1934C172.799 12.1582 172.729 12.1113 172.67 12.0527C172.611 11.9941 172.564 11.9238 172.529 11.8418C172.494 11.7598 172.477 11.6719 172.477 11.5781C172.477 11.4844 172.494 11.3965 172.529 11.3145C172.564 11.2324 172.611 11.1621 172.67 11.1035C172.729 11.041 172.799 10.9941 172.881 10.9629C172.963 10.9277 173.051 10.9102 173.145 10.9102C173.336 10.9102 173.494 10.9746 173.619 11.1035C173.748 11.2285 173.812 11.3867 173.812 11.5781C173.812 11.6719 173.795 11.7598 173.76 11.8418C173.729 11.9238 173.682 11.9941 173.619 12.0527C173.561 12.1113 173.49 12.1582 173.408 12.1934C173.326 12.2285 173.238 12.2461 173.145 12.2461ZM175.301 10.4824C175.301 10.1152 175.371 9.77344 175.512 9.45703C175.652 9.14062 175.848 8.86914 176.098 8.64258C176.348 8.41211 176.643 8.23242 176.982 8.10352C177.322 7.9707 177.691 7.9043 178.09 7.9043C178.469 7.9043 178.822 7.96484 179.15 8.08594C179.479 8.20703 179.764 8.37305 180.006 8.58398C180.248 8.79102 180.439 9.03516 180.58 9.31641C180.721 9.59766 180.791 9.90039 180.791 10.2246C180.791 10.459 180.762 10.6855 180.703 10.9043C180.645 11.1191 180.543 11.3457 180.398 11.584C180.258 11.8223 180.068 12.082 179.83 12.3633C179.596 12.6445 179.303 12.9668 178.951 13.3301L176.812 15.5391V15.5625H180.932V16.5H175.354V15.7734L178.33 12.6387C178.615 12.3418 178.848 12.0859 179.027 11.8711C179.211 11.6523 179.355 11.4551 179.461 11.2793C179.566 11.1035 179.639 10.9395 179.678 10.7871C179.717 10.6309 179.736 10.4648 179.736 10.2891C179.736 10.0859 179.691 9.89648 179.602 9.7207C179.516 9.54102 179.396 9.38477 179.244 9.25195C179.096 9.11914 178.92 9.01562 178.717 8.94141C178.514 8.86328 178.295 8.82422 178.061 8.82422C177.814 8.82422 177.584 8.86719 177.369 8.95312C177.158 9.03516 176.975 9.15039 176.818 9.29883C176.662 9.44727 176.539 9.62305 176.449 9.82617C176.363 10.0293 176.32 10.248 176.32 10.4824V10.4883H175.301V10.4824ZM185.109 16.6406C184.617 16.6406 184.178 16.5391 183.791 16.3359C183.404 16.1289 183.076 15.8359 182.807 15.457C182.541 15.0781 182.338 14.6191 182.197 14.0801C182.061 13.541 181.992 12.9375 181.992 12.2695C181.992 11.6094 182.062 11.0098 182.203 10.4707C182.344 9.93164 182.547 9.47266 182.812 9.09375C183.082 8.71484 183.408 8.42188 183.791 8.21484C184.178 8.00781 184.617 7.9043 185.109 7.9043C185.602 7.9043 186.039 8.00781 186.422 8.21484C186.809 8.41797 187.135 8.70898 187.4 9.08789C187.666 9.4668 187.867 9.92578 188.004 10.4648C188.145 11 188.215 11.5996 188.215 12.2637C188.215 12.9316 188.145 13.5352 188.004 14.0742C187.867 14.6133 187.666 15.0742 187.4 15.457C187.135 15.8359 186.809 16.1289 186.422 16.3359C186.039 16.5391 185.602 16.6406 185.109 16.6406ZM185.109 15.7207C185.438 15.7207 185.729 15.6406 185.982 15.4805C186.24 15.3164 186.455 15.0859 186.627 14.7891C186.799 14.4883 186.93 14.125 187.02 13.6992C187.109 13.2734 187.154 12.7969 187.154 12.2695C187.154 11.75 187.109 11.2793 187.02 10.8574C186.93 10.4316 186.797 10.0703 186.621 9.77344C186.449 9.47266 186.236 9.24023 185.982 9.07617C185.729 8.91211 185.438 8.83008 185.109 8.83008C184.781 8.83008 184.49 8.91211 184.236 9.07617C183.982 9.24023 183.768 9.47266 183.592 9.77344C183.416 10.0742 183.281 10.4355 183.188 10.8574C183.098 11.2793 183.053 11.748 183.053 12.2637C183.053 12.791 183.098 13.2676 183.188 13.6934C183.277 14.1191 183.408 14.4824 183.58 14.7832C183.756 15.084 183.971 15.3164 184.225 15.4805C184.482 15.6406 184.777 15.7207 185.109 15.7207ZM195.627 8.04492C196.025 8.04492 196.389 8.11133 196.717 8.24414C197.049 8.37695 197.334 8.5625 197.572 8.80078C197.814 9.03906 198.002 9.32617 198.135 9.66211C198.268 9.99414 198.334 10.3594 198.334 10.7578C198.334 11.1602 198.266 11.5293 198.129 11.8652C197.996 12.1973 197.809 12.4844 197.566 12.7266C197.328 12.9648 197.043 13.1504 196.711 13.2832C196.379 13.416 196.014 13.4824 195.615 13.4824H193.488V16.5H192.434V8.04492H195.627ZM193.488 12.5449H195.352C195.652 12.5449 195.92 12.5059 196.154 12.4277C196.393 12.3457 196.592 12.2285 196.752 12.0762C196.916 11.9199 197.039 11.7324 197.121 11.5137C197.207 11.291 197.25 11.0391 197.25 10.7578C197.25 10.1953 197.086 9.75977 196.758 9.45117C196.43 9.13867 195.961 8.98242 195.352 8.98242H193.488V12.5449ZM207.879 16.5H206.895V9.98438H206.854L204.158 16.4414H203.268L200.572 9.98438H200.531V16.5H199.547V8.04492H200.771L203.689 15.0996H203.736L206.654 8.04492H207.879V16.5Z" fill="black"/>
<path fill-rule="evenodd" clip-rule="evenodd" d="M82.1672 12.546C79.6288 10.0075 75.5133 10.0075 72.9749 12.546L74.3891 13.9602C76.1464 12.2028 78.9957 12.2028 80.753 13.9602L82.1672 12.546ZM79.6924 15.0208C78.5208 13.8493 76.6213 13.8493 75.4497 15.0208L77.571 17.1422L79.6924 15.0208Z" fill="black"/>
<path fill-rule="evenodd" clip-rule="evenodd" d="M70.5 10.0711C74.4052 6.16584 80.7369 6.16584 84.6421 10.0711L83.2279 11.4853C80.1037 8.3611 75.0384 8.3611 71.9142 11.4853L70.5 10.0711Z" fill="black" fill-opacity="0.25"/>
<path d="M30.3008 16.6406C29.7188 16.6406 29.1914 16.5391 28.7188 16.3359C28.25 16.1289 27.8496 15.8359 27.5176 15.457C27.1895 15.0781 26.9355 14.6191 26.7559 14.0801C26.5801 13.541 26.4922 12.9375 26.4922 12.2695C26.4922 11.6055 26.582 11.0059 26.7617 10.4707C26.9414 9.93164 27.1973 9.47266 27.5293 9.09375C27.8613 8.71094 28.2617 8.41797 28.7305 8.21484C29.1992 8.00781 29.7227 7.9043 30.3008 7.9043C30.7617 7.9043 31.1895 7.97266 31.584 8.10938C31.9824 8.24219 32.3359 8.43164 32.6445 8.67773C32.9531 8.91992 33.207 9.21484 33.4062 9.5625C33.6094 9.90625 33.7441 10.2891 33.8105 10.7109H32.7441C32.6777 10.4336 32.5684 10.1836 32.416 9.96094C32.2676 9.73438 32.0859 9.54102 31.8711 9.38086C31.6602 9.2207 31.4199 9.09766 31.1504 9.01172C30.8848 8.92188 30.6016 8.87695 30.3008 8.87695C29.8867 8.87695 29.5117 8.95703 29.1758 9.11719C28.8398 9.27734 28.5527 9.50586 28.3145 9.80273C28.0801 10.0996 27.8984 10.457 27.7695 10.875C27.6406 11.2891 27.5762 11.7539 27.5762 12.2695C27.5762 12.7891 27.6387 13.2578 27.7637 13.6758C27.8926 14.0938 28.0762 14.4512 28.3145 14.748C28.5527 15.041 28.8398 15.2676 29.1758 15.4277C29.5117 15.5879 29.8887 15.668 30.3066 15.668C30.6152 15.668 30.9023 15.6328 31.168 15.5625C31.4336 15.4883 31.6699 15.3809 31.877 15.2402C32.084 15.0996 32.2598 14.9297 32.4043 14.7305C32.5527 14.5273 32.666 14.2969 32.7441 14.0391H33.8105C33.6152 14.8789 33.2168 15.5234 32.6152 15.9727C32.0137 16.418 31.2422 16.6406 30.3008 16.6406ZM36.9422 15.6738C37.2 15.6738 37.4383 15.6348 37.657 15.5566C37.8758 15.4785 38.0633 15.3691 38.2195 15.2285C38.3797 15.0879 38.5047 14.9219 38.5945 14.7305C38.6844 14.5352 38.7293 14.3242 38.7293 14.0977V13.5879L37.077 13.6934C36.6004 13.7246 36.241 13.8262 35.9988 13.998C35.7566 14.166 35.6355 14.4023 35.6355 14.707C35.6355 14.8555 35.6648 14.9883 35.7234 15.1055C35.7859 15.2227 35.8738 15.3242 35.9871 15.4102C36.1043 15.4961 36.243 15.5625 36.4031 15.6094C36.5633 15.6523 36.743 15.6738 36.9422 15.6738ZM36.7254 16.5586C36.4051 16.5586 36.1141 16.5156 35.8523 16.4297C35.5906 16.3398 35.366 16.2148 35.1785 16.0547C34.991 15.8906 34.8465 15.6953 34.7449 15.4688C34.6434 15.2383 34.5926 14.9824 34.5926 14.7012C34.5926 14.1543 34.7937 13.7266 35.1961 13.418C35.5984 13.1094 36.1863 12.9316 36.9598 12.8848L38.7293 12.7793V12.252C38.7293 11.8574 38.6043 11.5566 38.3543 11.3496C38.1082 11.1387 37.7508 11.0332 37.282 11.0332C37.0984 11.0332 36.9285 11.0566 36.7723 11.1035C36.616 11.1465 36.4754 11.2109 36.3504 11.2969C36.2293 11.3789 36.1277 11.4805 36.0457 11.6016C35.9676 11.7227 35.9129 11.8574 35.8816 12.0059H34.9031C34.9109 11.7402 34.9773 11.4922 35.1023 11.2617C35.2273 11.0312 35.3973 10.832 35.6121 10.6641C35.827 10.4961 36.077 10.3652 36.3621 10.2715C36.6512 10.1738 36.9617 10.125 37.2937 10.125C37.6687 10.125 38.0066 10.1738 38.3074 10.2715C38.6082 10.3652 38.866 10.502 39.0809 10.6816C39.2957 10.8574 39.4598 11.0723 39.573 11.3262C39.6902 11.5762 39.7488 11.8555 39.7488 12.1641V16.5H38.782V15.4043H38.7586C38.6687 15.5801 38.5535 15.7402 38.4129 15.8848C38.2723 16.0254 38.1141 16.1465 37.9383 16.248C37.7625 16.3457 37.5711 16.4219 37.3641 16.4766C37.1609 16.5312 36.948 16.5586 36.7254 16.5586ZM41.0523 10.1836H42.0133V11.209H42.0367C42.0836 11.0449 42.1539 10.8965 42.2477 10.7637C42.3453 10.627 42.4605 10.5117 42.5934 10.418C42.7262 10.3242 42.8746 10.252 43.0387 10.2012C43.2066 10.1504 43.3824 10.125 43.566 10.125C43.6285 10.125 43.6988 10.1289 43.777 10.1367C43.8551 10.1445 43.9156 10.1543 43.9586 10.166V11.1738C43.9156 11.1543 43.8395 11.1387 43.7301 11.127C43.6207 11.1113 43.5211 11.1035 43.4312 11.1035C43.2242 11.1035 43.0367 11.1406 42.8687 11.2148C42.7047 11.2852 42.5621 11.3848 42.441 11.5137C42.3238 11.6426 42.232 11.7988 42.1656 11.9824C42.1031 12.166 42.0719 12.3691 42.0719 12.5918V16.5H41.0523V10.1836ZM44.8109 10.1836H45.7719V11.209H45.7953C45.8422 11.0449 45.9125 10.8965 46.0063 10.7637C46.1039 10.627 46.2191 10.5117 46.352 10.418C46.4848 10.3242 46.6332 10.252 46.7973 10.2012C46.9652 10.1504 47.141 10.125 47.3246 10.125C47.3871 10.125 47.4574 10.1289 47.5355 10.1367C47.6137 10.1445 47.6742 10.1543 47.7172 10.166V11.1738C47.6742 11.1543 47.598 11.1387 47.4887 11.127C47.3793 11.1113 47.2797 11.1035 47.1898 11.1035C46.9828 11.1035 46.7953 11.1406 46.6273 11.2148C46.4633 11.2852 46.3207 11.3848 46.1996 11.5137C46.0824 11.6426 45.9906 11.7988 45.9242 11.9824C45.8617 12.166 45.8305 12.3691 45.8305 12.5918V16.5H44.8109V10.1836ZM48.6281 10.1836H49.6477V16.5H48.6281V10.1836ZM49.1379 9.16406C49.048 9.16406 48.9641 9.14844 48.8859 9.11719C48.8078 9.08203 48.7395 9.03516 48.6809 8.97656C48.6223 8.91797 48.5754 8.84961 48.5402 8.77148C48.509 8.69336 48.4934 8.60938 48.4934 8.51953C48.4934 8.42969 48.509 8.3457 48.5402 8.26758C48.5754 8.18945 48.6223 8.12109 48.6809 8.0625C48.7395 8.00391 48.8078 7.95898 48.8859 7.92773C48.9641 7.89258 49.048 7.875 49.1379 7.875C49.2277 7.875 49.3117 7.89258 49.3898 7.92773C49.468 7.95898 49.5363 8.00391 49.5949 8.0625C49.6535 8.12109 49.6984 8.18945 49.7297 8.26758C49.7648 8.3457 49.7824 8.42969 49.7824 8.51953C49.7824 8.60938 49.7648 8.69336 49.7297 8.77148C49.6984 8.84961 49.6535 8.91797 49.5949 8.97656C49.5363 9.03516 49.468 9.08203 49.3898 9.11719C49.3117 9.14844 49.2277 9.16406 49.1379 9.16406ZM53.5586 11.0215C53.3125 11.0215 53.084 11.0645 52.873 11.1504C52.6621 11.2363 52.4785 11.3574 52.3223 11.5137C52.1699 11.6699 52.0449 11.8594 51.9473 12.082C51.8535 12.3008 51.7988 12.543 51.7832 12.8086H55.2578C55.25 12.5391 55.2031 12.2949 55.1172 12.0762C55.0352 11.8574 54.9199 11.6699 54.7715 11.5137C54.623 11.3574 54.4453 11.2363 54.2383 11.1504C54.0352 11.0645 53.8086 11.0215 53.5586 11.0215ZM56.2422 14.6953C56.1992 14.9648 56.1016 15.2148 55.9492 15.4453C55.7969 15.6719 55.6035 15.8691 55.3691 16.0371C55.1387 16.2012 54.873 16.3301 54.5723 16.4238C54.2754 16.5137 53.959 16.5586 53.623 16.5586C53.1777 16.5586 52.7773 16.4844 52.4219 16.3359C52.0664 16.1875 51.7617 15.9746 51.5078 15.6973C51.2578 15.4199 51.0645 15.084 50.9277 14.6895C50.7949 14.2949 50.7285 13.8535 50.7285 13.3652C50.7285 12.877 50.7949 12.4336 50.9277 12.0352C51.0645 11.6367 51.2559 11.2969 51.502 11.0156C51.752 10.7305 52.0527 10.5117 52.4043 10.3594C52.7559 10.2031 53.1465 10.125 53.5762 10.125C53.998 10.125 54.377 10.1973 54.7129 10.3418C55.0527 10.4863 55.3418 10.6934 55.5801 10.9629C55.8184 11.2285 56 11.5527 56.125 11.9355C56.2539 12.3184 56.3184 12.748 56.3184 13.2246V13.623H51.7832V13.6816C51.7832 13.9824 51.8262 14.2559 51.9121 14.502C52.002 14.7441 52.1289 14.9512 52.293 15.123C52.457 15.2949 52.6523 15.4277 52.8789 15.5215C53.1094 15.6152 53.3652 15.6621 53.6465 15.6621C53.8457 15.6621 54.0312 15.6406 54.2031 15.5977C54.375 15.5508 54.5293 15.4863 54.666 15.4043C54.8066 15.3184 54.9238 15.2168 55.0176 15.0996C55.1152 14.9785 55.1875 14.8438 55.2344 14.6953H56.2422ZM57.3406 10.1836H58.3016V11.209H58.325C58.3719 11.0449 58.4422 10.8965 58.5359 10.7637C58.6336 10.627 58.7488 10.5117 58.8816 10.418C59.0145 10.3242 59.1629 10.252 59.327 10.2012C59.4949 10.1504 59.6707 10.125 59.8543 10.125C59.9168 10.125 59.9871 10.1289 60.0652 10.1367C60.1434 10.1445 60.2039 10.1543 60.2469 10.166V11.1738C60.2039 11.1543 60.1277 11.1387 60.0184 11.127C59.909 11.1113 59.8094 11.1035 59.7195 11.1035C59.5125 11.1035 59.325 11.1406 59.157 11.2148C58.993 11.2852 58.8504 11.3848 58.7293 11.5137C58.6121 11.6426 58.5203 11.7988 58.4539 11.9824C58.3914 12.166 58.3602 12.3691 58.3602 12.5918V16.5H57.3406V10.1836Z" fill="black"/>
<path fill-rule="evenodd" clip-rule="evenodd" d="M20.5 7H21.5C22.0523 7 22.5 7.44772 22.5 8V16C22.5 16.5523 22.0523 17 21.5 17H20.5C19.9477 17 19.5 16.5523 19.5 16V8C19.5 7.44772 19.9477 7 20.5 7Z" fill="black" fill-opacity="0.25"/>
<path fill-rule="evenodd" clip-rule="evenodd" d="M17 9H16C15.4477 9 15 9.44772 15 10V16C15 16.5523 15.4477 17 16 17H17C17.5523 17 18 16.5523 18 16V10C18 9.44772 17.5523 9 17 9ZM11.5 11H12.5C13.0523 11 13.5 11.4477 13.5 12V16C13.5 16.5523 13.0523 17 12.5 17H11.5C10.9477 17 10.5 16.5523 10.5 16V12C10.5 11.4477 10.9477 11 11.5 11ZM7 12.5H8C8.55228 12.5 9 12.9477 9 13.5V16C9 16.5523 8.55228 17 8 17H7C6.44772 17 6 16.5523 6 16V13.5C6 12.9477 6.44772 12.5 7 12.5Z" fill="black"/>
<path d="M147.857 71.0703V64.9082H145.338V79H147.857V72.5742H147.936L153.678 79H156.9L150.318 71.6074L156.363 64.9082H153.453L147.936 71.0703H147.857ZM162.115 79.2051C165.152 79.2051 167.125 77.1836 167.125 73.8242C167.125 70.4746 165.133 68.4336 162.115 68.4336C159.098 68.4336 157.105 70.4844 157.105 73.8242C157.105 77.1836 159.088 79.2051 162.115 79.2051ZM162.115 77.2812C160.572 77.2812 159.576 76.0312 159.576 73.8242C159.576 71.627 160.582 70.3672 162.115 70.3672C163.658 70.3672 164.654 71.627 164.654 73.8242C164.654 76.0312 163.658 77.2812 162.115 77.2812ZM175.66 79H178.092V68.6484H175.66V72.7305H171.305V68.6484H168.873V79H171.305V74.6055H175.66V79ZM188.385 68.6484H179.605V70.5234H182.779V79H185.211V70.5234H188.385V68.6484ZM192.662 79.166C193.99 79.166 195.279 78.4727 195.875 77.3496H195.924V79H198.268V71.8711C198.268 69.791 196.607 68.4336 194.029 68.4336C191.393 68.4336 189.742 69.8203 189.635 71.7539H191.891C192.057 70.8945 192.779 70.3379 193.932 70.3379C195.133 70.3379 195.865 70.9629 195.865 72.0469V72.7891L193.131 72.9453C190.621 73.1016 189.195 74.2051 189.195 76.041C189.195 77.9062 190.65 79.166 192.662 79.166ZM193.395 77.3301C192.34 77.3301 191.627 76.793 191.627 75.9434C191.627 75.123 192.301 74.5957 193.473 74.5176L195.865 74.3711V75.1621C195.865 76.4121 194.771 77.3301 193.395 77.3301ZM202.906 74.3711L206.744 79H209.723L205.143 73.4824L209.518 68.6484H206.686L202.906 72.9648H202.828V68.6484H200.396V79H202.828V74.3711H202.906ZM218.814 68.6484H210.035V70.5234H213.209V79H215.641V70.5234H218.814V68.6484ZM229.82 79H232.232V68.6484H229.82V79ZM220.318 79H224.742C227.154 79 228.707 77.5938 228.707 75.377C228.707 73.1602 227.154 71.7539 224.742 71.7539H222.75V68.6484H220.318V79ZM224.43 73.5996C225.553 73.5996 226.295 74.3027 226.295 75.3672C226.295 76.4219 225.562 77.1348 224.43 77.1348H222.75V73.5996H224.43Z" fill="#1B3259"/>
<g filter="url(#filter0_d)">
<circle cx="35" cy="72" r="20" fill="white"/>
</g>
<rect x="26" y="65" width="18" height="2.31429" rx="1.15714" fill="url(#paint1_linear)"/>
<rect x="26" y="70.4" width="18" height="2.31429" rx="1.15714" fill="url(#paint2_linear)"/>
<rect x="26" y="75.8" width="18" height="2.31429" rx="1.15714" fill="url(#paint3_linear)"/>
<path d="M29.0576 135V125.136H21.3262V135H22.5635V126.257H27.8408V135H29.0576ZM34.5947 135.13C36.6934 135.13 37.9922 133.681 37.9922 131.315C37.9922 128.943 36.6934 127.501 34.5947 127.501C32.4961 127.501 31.1973 128.943 31.1973 131.315C31.1973 133.681 32.4961 135.13 34.5947 135.13ZM34.5947 134.07C33.2002 134.07 32.4141 133.059 32.4141 131.315C32.4141 129.565 33.2002 128.561 34.5947 128.561C35.9893 128.561 36.7754 129.565 36.7754 131.315C36.7754 133.059 35.9893 134.07 34.5947 134.07ZM40.0703 136.948V135H45.833V136.948H46.9404V134.016H45.7646V127.631H40.7402L40.4531 131.739C40.3848 132.73 40.1182 133.66 39.5781 134.016H38.9629V136.948H40.0703ZM44.5889 134.016H40.9521V133.906C41.3008 133.448 41.4922 132.662 41.5605 131.767L41.793 128.615H44.5889V134.016ZM49.0664 136.948V135H54.8291V136.948H55.9365V134.016H54.7607V127.631H49.7363L49.4492 131.739C49.3809 132.73 49.1143 133.66 48.5742 134.016H47.959V136.948H49.0664ZM53.585 134.016H49.9482V133.906C50.2969 133.448 50.4883 132.662 50.5566 131.767L50.7891 128.615H53.585V134.016ZM62.3691 133.093C62.0615 133.742 61.4189 134.091 60.4688 134.091C59.2178 134.091 58.4043 133.168 58.3428 131.712V131.657H63.6406V131.206C63.6406 128.916 62.4307 127.501 60.4414 127.501C58.418 127.501 57.1191 129.005 57.1191 131.322C57.1191 133.653 58.3975 135.13 60.4414 135.13C62.0547 135.13 63.2031 134.351 63.5449 133.093H62.3691ZM60.4277 128.54C61.5967 128.54 62.376 129.401 62.4033 130.707H58.3428C58.4316 129.401 59.252 128.54 60.4277 128.54ZM69.2119 127.501C68.207 127.501 67.3252 128.014 66.8535 128.861H66.7441V127.631H65.623V137.461H66.7988V133.893H66.9082C67.3115 134.672 68.1592 135.13 69.2119 135.13C71.085 135.13 72.3086 133.619 72.3086 131.315C72.3086 128.998 71.0918 127.501 69.2119 127.501ZM68.9316 134.07C67.6055 134.07 66.7646 133.004 66.7646 131.315C66.7646 129.62 67.6055 128.561 68.9385 128.561C70.2852 128.561 71.0918 129.593 71.0918 131.315C71.0918 133.038 70.2852 134.07 68.9316 134.07ZM74.5986 135L77.2441 131.623H77.6816V135H78.8301V131.623H79.2676L81.9131 135H83.4033L80.2041 131.09L83.2529 127.631H81.8447L79.2676 130.734H78.8301V127.631H77.6816V130.734H77.2441L74.667 127.631H73.2383L76.3076 131.117L73.1289 135H74.5986ZM86.5 131.644L89.3848 135H90.9092L87.4707 131.104L90.7793 127.631H89.3506L86.5 130.714H86.1104V127.631H84.9346V135H86.1104V131.644H86.5ZM94.4023 135.13C95.3867 135.13 96.1934 134.699 96.6719 133.913H96.7812V135H97.9023V129.955C97.9023 128.424 96.8975 127.501 95.0996 127.501C93.5273 127.501 92.3652 128.28 92.208 129.463H93.3975C93.5615 128.882 94.1768 128.547 95.0586 128.547C96.1592 128.547 96.7266 129.046 96.7266 129.955V130.625L94.6006 130.755C92.8848 130.857 91.9141 131.616 91.9141 132.936C91.9141 134.282 92.9736 135.13 94.4023 135.13ZM94.6211 134.098C93.7666 134.098 93.1309 133.66 93.1309 132.908C93.1309 132.17 93.623 131.78 94.7441 131.705L96.7266 131.575V132.252C96.7266 133.305 95.8311 134.098 94.6211 134.098Z" fill="#5C6473"/>
<path d="M31.0469 260V250.136H29.6182L26.2412 258.366H26.1318L22.7549 250.136H21.3262V260H22.4746V252.467H22.5566L25.667 260H26.7061L29.8164 252.467H29.8984V260H31.0469ZM36.5771 260.13C38.6758 260.13 39.9746 258.681 39.9746 256.315C39.9746 253.943 38.6758 252.501 36.5771 252.501C34.4785 252.501 33.1797 253.943 33.1797 256.315C33.1797 258.681 34.4785 260.13 36.5771 260.13ZM36.5771 259.07C35.1826 259.07 34.3965 258.059 34.3965 256.315C34.3965 254.565 35.1826 253.561 36.5771 253.561C37.9717 253.561 38.7578 254.565 38.7578 256.315C38.7578 258.059 37.9717 259.07 36.5771 259.07ZM45.0195 260.13C47.1387 260.13 48.4512 258.708 48.4512 256.384C48.4512 254.135 47.1387 252.781 45.1973 252.781C43.96 252.781 43.1465 253.362 42.7021 254.142H42.5928C42.8184 252.323 43.3857 251.277 45.3477 251.188L46.0996 251.154C47.5488 251.093 47.9658 250.717 47.9658 250.717V249.664C47.9727 249.664 47.2139 250.006 46.0449 250.061L45.3066 250.095C42.374 250.225 41.5879 252.289 41.5879 255.68C41.5879 258.701 42.8389 260.13 45.0195 260.13ZM45.0195 259.07C43.6045 259.07 42.8047 258.086 42.8047 256.384C42.8047 254.764 43.6045 253.834 45.0195 253.834C46.4346 253.834 47.2344 254.764 47.2344 256.384C47.2344 258.086 46.4346 259.07 45.0195 259.07ZM51.6025 260L55.2734 254.504H55.3828V260H56.5586V252.631H55.3828L51.7119 258.127H51.6025V252.631H50.4268V260H51.6025ZM60.6738 256.767L60.9062 253.615H63.4834V260H64.6592V252.631H59.8398L59.5527 256.739C59.457 258.106 59.1768 258.961 58.4453 258.961C58.2744 258.961 58.1377 258.927 58.0762 258.906V259.986C58.1582 260.021 58.2949 260.062 58.5068 260.062C60.0381 260.062 60.5234 258.79 60.6738 256.767ZM66.9971 260H69.6289C71.3174 260 72.3975 259.029 72.3975 257.498C72.3975 255.967 71.3174 254.996 69.6289 254.996H68.1729V252.631H66.9971V260ZM69.6289 255.98C70.5928 255.98 71.2217 256.575 71.2217 257.498C71.2217 258.414 70.5996 259.016 69.6289 259.016H68.1729V255.98H69.6289ZM79.083 260H80.2588V252.631H79.083V255.68H75.4053V252.631H74.2295V260H75.4053V256.664H79.083V260ZM84.6543 260.13C85.6387 260.13 86.4453 259.699 86.9238 258.913H87.0332V260H88.1543V254.955C88.1543 253.424 87.1494 252.501 85.3516 252.501C83.7793 252.501 82.6172 253.28 82.46 254.463H83.6494C83.8135 253.882 84.4287 253.547 85.3105 253.547C86.4111 253.547 86.9785 254.046 86.9785 254.955V255.625L84.8525 255.755C83.1367 255.857 82.166 256.616 82.166 257.936C82.166 259.282 83.2256 260.13 84.6543 260.13ZM84.873 259.098C84.0186 259.098 83.3828 258.66 83.3828 257.908C83.3828 257.17 83.875 256.78 84.9961 256.705L86.9785 256.575V257.252C86.9785 258.305 86.083 259.098 84.873 259.098ZM94.3818 260H95.5576V252.631H92.9941C91.3057 252.631 90.2256 253.554 90.2256 255.071C90.2256 256.083 90.8545 256.849 91.8936 257.143L89.8359 260H91.2373L93.1172 257.361H94.3818V260ZM92.9941 256.377C92.0303 256.377 91.4014 255.823 91.4014 255.044C91.4014 254.148 92.0234 253.615 92.9941 253.615H94.3818V256.377H92.9941ZM107.951 254.887C107.746 253.574 106.652 252.501 104.861 252.501C102.797 252.501 101.484 253.991 101.484 256.288C101.484 258.633 102.804 260.13 104.868 260.13C106.639 260.13 107.739 259.132 107.951 257.778H106.762C106.543 258.612 105.853 259.07 104.861 259.07C103.549 259.07 102.701 257.99 102.701 256.288C102.701 254.62 103.535 253.561 104.861 253.561C105.921 253.561 106.57 254.155 106.762 254.887H107.951ZM112.955 260C114.541 260 115.478 259.166 115.478 257.881C115.478 257.02 114.883 256.363 113.946 256.233V256.124C114.637 255.98 115.149 255.283 115.149 254.552C115.149 253.39 114.336 252.631 112.941 252.631H109.817V260H112.955ZM110.993 253.615H112.791C113.618 253.615 113.987 254.039 113.987 254.675C113.987 255.379 113.557 255.748 112.6 255.748H110.993V253.615ZM110.993 256.732H112.702C113.762 256.732 114.309 257.081 114.309 257.86C114.309 258.605 113.83 259.016 112.928 259.016H110.993V256.732ZM121.411 260H122.587V252.631H120.023C118.335 252.631 117.255 253.554 117.255 255.071C117.255 256.083 117.884 256.849 118.923 257.143L116.865 260H118.267L120.146 257.361H121.411V260ZM120.023 256.377C119.06 256.377 118.431 255.823 118.431 255.044C118.431 254.148 119.053 253.615 120.023 253.615H121.411V256.377H120.023ZM127.434 260.123C129.149 260.123 130.332 259.193 130.332 257.826C130.332 257.006 129.826 256.411 128.849 256.199V256.09C129.58 255.919 130.065 255.242 130.065 254.49C130.065 253.314 129.122 252.501 127.475 252.501C125.95 252.501 124.87 253.267 124.713 254.477H125.875C125.971 253.882 126.613 253.499 127.475 253.499C128.425 253.499 128.903 253.957 128.903 254.579C128.903 255.352 128.377 255.728 127.434 255.728H126.285V256.712H127.434C128.562 256.712 129.163 257.081 129.163 257.888C129.163 258.619 128.521 259.132 127.434 259.132C126.511 259.132 125.861 258.756 125.718 258.113H124.508C124.638 259.337 125.834 260.123 127.434 260.123ZM132.308 260H134.939C136.628 260 137.708 259.029 137.708 257.498C137.708 255.967 136.628 254.996 134.939 254.996H133.483V252.631H132.308V260ZM134.939 255.98C135.903 255.98 136.532 256.575 136.532 257.498C136.532 258.414 135.91 259.016 134.939 259.016H133.483V255.98H134.939Z" fill="#5C6473"/>
<path d="M25.2979 382.232C27.3965 382.232 28.9551 381.063 29.2832 379.252H28.0322C27.7178 380.394 26.6719 381.098 25.2979 381.098C23.3975 381.098 22.208 379.546 22.208 377.071C22.208 374.597 23.3975 373.038 25.291 373.038C26.6514 373.038 27.7041 373.838 28.0322 375.109H29.2832C28.9893 373.209 27.3691 371.903 25.291 371.903C22.6113 371.903 20.9434 373.886 20.9434 377.071C20.9434 380.25 22.6182 382.232 25.2979 382.232ZM34.3623 382.13C36.4609 382.13 37.7598 380.681 37.7598 378.315C37.7598 375.943 36.4609 374.501 34.3623 374.501C32.2637 374.501 30.9648 375.943 30.9648 378.315C30.9648 380.681 32.2637 382.13 34.3623 382.13ZM34.3623 381.07C32.9678 381.07 32.1816 380.059 32.1816 378.315C32.1816 376.565 32.9678 375.561 34.3623 375.561C35.7568 375.561 36.543 376.565 36.543 378.315C36.543 380.059 35.7568 381.07 34.3623 381.07ZM46.8037 383.948V381.016H45.6279V374.631H44.4521V381.016H40.9111V374.631H39.7354V382H45.6963V383.948H46.8037ZM49.5244 382L53.1953 376.504H53.3047V382H54.4805V374.631H53.3047L49.6338 380.127H49.5244V374.631H48.3486V382H49.5244ZM58.8828 382.13C59.8672 382.13 60.6738 381.699 61.1523 380.913H61.2617V382H62.3828V376.955C62.3828 375.424 61.3779 374.501 59.5801 374.501C58.0078 374.501 56.8457 375.28 56.6885 376.463H57.8779C58.042 375.882 58.6572 375.547 59.5391 375.547C60.6396 375.547 61.207 376.046 61.207 376.955V377.625L59.0811 377.755C57.3652 377.857 56.3945 378.616 56.3945 379.936C56.3945 381.282 57.4541 382.13 58.8828 382.13ZM59.1016 381.098C58.2471 381.098 57.6113 380.66 57.6113 379.908C57.6113 379.17 58.1035 378.78 59.2246 378.705L61.207 378.575V379.252C61.207 380.305 60.3115 381.098 59.1016 381.098ZM66.457 378.767L66.6895 375.615H69.2666V382H70.4424V374.631H65.623L65.3359 378.739C65.2402 380.106 64.96 380.961 64.2285 380.961C64.0576 380.961 63.9209 380.927 63.8594 380.906V381.986C63.9414 382.021 64.0781 382.062 64.29 382.062C65.8213 382.062 66.3066 380.79 66.457 378.767ZM72.7803 382H75.4121C77.1006 382 78.1807 381.029 78.1807 379.498C78.1807 377.967 77.1006 376.996 75.4121 376.996H73.9561V374.631H72.7803V382ZM75.4121 377.98C76.376 377.98 77.0049 378.575 77.0049 379.498C77.0049 380.414 76.3828 381.016 75.4121 381.016H73.9561V377.98H75.4121ZM84.8662 382H86.042V374.631H84.8662V377.68H81.1885V374.631H80.0127V382H81.1885V378.664H84.8662V382ZM94.8262 382H96.002V374.631H94.8262V382ZM88.3799 382H91.0117C92.7002 382 93.7803 381.029 93.7803 379.498C93.7803 377.967 92.7002 376.996 91.0117 376.996H89.5557V374.631H88.3799V382ZM91.0117 377.98C91.9756 377.98 92.6045 378.575 92.6045 379.498C92.6045 380.414 91.9824 381.016 91.0117 381.016H89.5557V377.98H91.0117ZM103.234 380.093C102.927 380.742 102.284 381.091 101.334 381.091C100.083 381.091 99.2695 380.168 99.208 378.712V378.657H104.506V378.206C104.506 375.916 103.296 374.501 101.307 374.501C99.2832 374.501 97.9844 376.005 97.9844 378.322C97.9844 380.653 99.2627 382.13 101.307 382.13C102.92 382.13 104.068 381.351 104.41 380.093H103.234ZM101.293 375.54C102.462 375.54 103.241 376.401 103.269 377.707H99.208C99.2969 376.401 100.117 375.54 101.293 375.54ZM116.537 376.887C116.332 375.574 115.238 374.501 113.447 374.501C111.383 374.501 110.07 375.991 110.07 378.288C110.07 380.633 111.39 382.13 113.454 382.13C115.225 382.13 116.325 381.132 116.537 379.778H115.348C115.129 380.612 114.438 381.07 113.447 381.07C112.135 381.07 111.287 379.99 111.287 378.288C111.287 376.62 112.121 375.561 113.447 375.561C114.507 375.561 115.156 376.155 115.348 376.887H116.537ZM123.291 380.093C122.983 380.742 122.341 381.091 121.391 381.091C120.14 381.091 119.326 380.168 119.265 378.712V378.657H124.562V378.206C124.562 375.916 123.353 374.501 121.363 374.501C119.34 374.501 118.041 376.005 118.041 378.322C118.041 380.653 119.319 382.13 121.363 382.13C122.977 382.13 124.125 381.351 124.467 380.093H123.291ZM121.35 375.54C122.519 375.54 123.298 376.401 123.325 377.707H119.265C119.354 376.401 120.174 375.54 121.35 375.54ZM131.33 374.631H125.369V375.615H127.762V382H128.938V375.615H131.33V374.631ZM134.222 382L137.893 376.504H138.002V382H139.178V374.631H138.002L134.331 380.127H134.222V374.631H133.046V382H134.222Z" fill="#5C6473"/>
<g filter="url(#filter1_d)">
<rect x="20" y="405" width="334" height="56" rx="3" fill="white"/>
</g>
<path d="M95.1641 439V434.281H100.008V432.805H95.1641V429.234H100.453V427.727H93.4141V439H95.1641ZM104.383 439.141C105.5 439.141 106.43 438.656 106.938 437.797H107.07V439H108.688V433.195C108.688 431.414 107.484 430.352 105.352 430.352C103.422 430.352 102.047 431.281 101.875 432.711H103.5C103.688 432.094 104.336 431.742 105.273 431.742C106.422 431.742 107.016 432.266 107.016 433.195V433.938L104.711 434.078C102.688 434.203 101.547 435.086 101.547 436.609C101.547 438.156 102.742 439.141 104.383 439.141ZM104.812 437.789C103.898 437.789 103.234 437.328 103.234 436.539C103.234 435.766 103.766 435.352 104.938 435.273L107.016 435.133V435.867C107.016 436.961 106.078 437.789 104.812 437.789ZM118.281 433.242C118.062 431.594 116.773 430.352 114.641 430.352C112.164 430.352 110.656 432.031 110.656 434.727C110.656 437.477 112.172 439.164 114.648 439.164C116.75 439.164 118.062 437.984 118.281 436.312H116.648C116.43 437.234 115.703 437.734 114.641 437.734C113.242 437.734 112.375 436.602 112.375 434.727C112.375 432.891 113.234 431.781 114.641 431.781C115.766 431.781 116.453 432.414 116.648 433.242H118.281ZM125.781 436.727C125.469 437.414 124.773 437.789 123.758 437.789C122.414 437.789 121.547 436.82 121.492 435.281V435.203H127.5V434.625C127.5 431.969 126.07 430.352 123.703 430.352C121.305 430.352 119.781 432.078 119.781 434.773C119.781 437.484 121.273 439.164 123.711 439.164C125.656 439.164 127.031 438.227 127.398 436.727H125.781ZM123.695 431.719C124.938 431.719 125.75 432.617 125.789 433.992H121.492C121.586 432.625 122.453 431.719 123.695 431.719ZM134.023 439.141C136.172 439.141 137.539 437.43 137.539 434.758C137.539 432.062 136.18 430.367 134.023 430.367C132.859 430.367 131.859 430.938 131.406 431.859H131.273V427.188H129.594V439H131.211V437.656H131.336C131.844 438.594 132.836 439.141 134.023 439.141ZM133.539 431.805C134.961 431.805 135.812 432.922 135.812 434.758C135.812 436.594 134.961 437.703 133.539 437.703C132.125 437.703 131.25 436.578 131.242 434.758C131.25 432.938 132.133 431.805 133.539 431.805ZM143.156 439.164C145.641 439.164 147.164 437.5 147.164 434.758C147.164 432.016 145.633 430.352 143.156 430.352C140.672 430.352 139.141 432.023 139.141 434.758C139.141 437.5 140.664 439.164 143.156 439.164ZM143.156 437.734C141.695 437.734 140.875 436.648 140.875 434.758C140.875 432.867 141.695 431.773 143.156 431.773C144.609 431.773 145.438 432.867 145.438 434.758C145.438 436.641 144.609 437.734 143.156 437.734ZM152.781 439.164C155.266 439.164 156.789 437.5 156.789 434.758C156.789 432.016 155.258 430.352 152.781 430.352C150.297 430.352 148.766 432.023 148.766 434.758C148.766 437.5 150.289 439.164 152.781 439.164ZM152.781 437.734C151.32 437.734 150.5 436.648 150.5 434.758C150.5 432.867 151.32 431.773 152.781 431.773C154.234 431.773 155.062 432.867 155.062 434.758C155.062 436.641 154.234 437.734 152.781 437.734ZM160.703 434.094H160.57V427.188H158.891V439H160.57V435.914L161.312 435.203L164.234 439H166.297L162.562 434.148L166.062 430.516H164.078L160.703 434.094Z" fill="#1B3259"/>
<path d="M242.164 439V427.727H240.414V439H242.164ZM244.797 439H246.477V434.023C246.477 432.656 247.266 431.812 248.508 431.812C249.75 431.812 250.344 432.5 250.344 433.906V439H252.023V433.508C252.023 431.484 250.977 430.352 249.078 430.352C247.797 430.352 246.953 430.922 246.539 431.859H246.414V430.516H244.797V439ZM254.195 432.891C254.195 434.148 254.945 434.867 256.562 435.242L258.047 435.594C258.898 435.797 259.297 436.141 259.297 436.672C259.297 437.367 258.555 437.852 257.508 437.852C256.492 437.852 255.867 437.438 255.656 436.773H253.977C254.125 438.25 255.445 439.164 257.469 439.164C259.5 439.164 260.992 438.094 260.992 436.516C260.992 435.281 260.234 434.586 258.617 434.211L257.203 433.883C256.281 433.664 255.852 433.336 255.852 432.812C255.852 432.125 256.562 431.664 257.5 431.664C258.453 431.664 259.062 432.078 259.219 432.711H260.828C260.664 431.242 259.414 430.352 257.5 430.352C255.578 430.352 254.195 431.414 254.195 432.891ZM263.547 428.375V430.539H262.195V431.883H263.547V436.766C263.547 438.398 264.289 439.055 266.156 439.055C266.484 439.055 266.797 439.016 267.07 438.969V437.633C266.836 437.656 266.688 437.672 266.43 437.672C265.594 437.672 265.227 437.273 265.227 436.359V431.883H267.07V430.539H265.227V428.375H263.547ZM271.398 439.141C272.516 439.141 273.445 438.656 273.953 437.797H274.086V439H275.703V433.195C275.703 431.414 274.5 430.352 272.367 430.352C270.438 430.352 269.062 431.281 268.891 432.711H270.516C270.703 432.094 271.352 431.742 272.289 431.742C273.438 431.742 274.031 432.266 274.031 433.195V433.938L271.727 434.078C269.703 434.203 268.562 435.086 268.562 436.609C268.562 438.156 269.758 439.141 271.398 439.141ZM271.828 437.789C270.914 437.789 270.25 437.328 270.25 436.539C270.25 435.766 270.781 435.352 271.953 435.273L274.031 435.133V435.867C274.031 436.961 273.094 437.789 271.828 437.789ZM281.68 442.242C284.086 442.242 285.609 441.016 285.609 439.086V430.516H284V431.867H283.867C283.391 430.945 282.367 430.367 281.195 430.367C279.023 430.367 277.664 432.078 277.664 434.648C277.664 437.195 279.008 438.875 281.18 438.875C282.352 438.875 283.289 438.367 283.805 437.445H283.93V439.078C283.93 440.227 283.102 440.914 281.703 440.914C280.57 440.914 279.859 440.508 279.719 439.867H278C278.18 441.297 279.555 442.242 281.68 442.242ZM281.656 437.484C280.211 437.484 279.398 436.383 279.398 434.648C279.398 432.914 280.211 431.805 281.656 431.805C283.086 431.805 283.961 432.914 283.961 434.648C283.961 436.383 283.094 437.484 281.656 437.484ZM288.047 439H289.727V433.93C289.727 432.734 290.625 431.914 291.898 431.914C292.195 431.914 292.695 431.969 292.836 432.008V430.43C292.656 430.391 292.336 430.367 292.086 430.367C290.977 430.367 290.031 430.969 289.789 431.805H289.664V430.516H288.047V439ZM296.742 439.141C297.859 439.141 298.789 438.656 299.297 437.797H299.43V439H301.047V433.195C301.047 431.414 299.844 430.352 297.711 430.352C295.781 430.352 294.406 431.281 294.234 432.711H295.859C296.047 432.094 296.695 431.742 297.633 431.742C298.781 431.742 299.375 432.266 299.375 433.195V433.938L297.07 434.078C295.047 434.203 293.906 435.086 293.906 436.609C293.906 438.156 295.102 439.141 296.742 439.141ZM297.172 437.789C296.258 437.789 295.594 437.328 295.594 436.539C295.594 435.766 296.125 435.352 297.297 435.273L299.375 435.133V435.867C299.375 436.961 298.438 437.789 297.172 437.789ZM303.438 439H305.117V433.789C305.117 432.68 305.891 431.812 306.914 431.812C307.914 431.812 308.555 432.414 308.555 433.383V439H310.203V433.633C310.203 432.609 310.914 431.812 312 431.812C313.102 431.812 313.648 432.383 313.648 433.555V439H315.328V433.148C315.328 431.383 314.328 430.352 312.609 430.352C311.43 430.352 310.453 430.953 310.023 431.867H309.891C309.516 430.953 308.711 430.352 307.547 430.352C306.414 430.352 305.555 430.914 305.18 431.867H305.055V430.516H303.438V439Z" fill="#1B3259"/>
<path d="M353 461L353 405L355 405C356.657 405 358 406.343 358 408L358 458C358 459.657 356.657 461 355 461L353 461Z" fill="url(#paint4_linear)"/>
<path d="M56 449C64.8366 449 72 441.837 72 433C72 424.163 64.8366 417 56 417C47.1634 417 40 424.163 40 433C40 441.837 47.1634 449 56 449Z" fill="#3B5998"/>
<path d="M60.0224 433.626H57.1674V444.086H52.8418V433.626H50.7845V429.95H52.8418V427.572C52.8418 425.871 53.6498 423.207 57.2059 423.207L60.41 423.221V426.789H58.0852C57.7039 426.789 57.1677 426.979 57.1677 427.791V429.954H60.4003L60.0224 433.626Z" fill="white"/>
<path d="M207.769 425.514H198.231C196.709 425.514 195.47 426.752 195.47 428.274V437.812C195.47 439.334 196.709 440.573 198.231 440.573H207.769C209.291 440.573 210.53 439.335 210.53 437.812V428.274C210.53 426.752 209.291 425.514 207.769 425.514ZM203 438.001C200.267 438.001 198.043 435.777 198.043 433.043C198.043 430.31 200.267 428.086 203 428.086C205.734 428.086 207.958 430.31 207.958 433.043C207.958 435.777 205.733 438.001 203 438.001ZM208.117 429.111C207.47 429.111 206.944 428.585 206.944 427.938C206.944 427.291 207.47 426.765 208.117 426.765C208.764 426.765 209.29 427.291 209.29 427.938C209.29 428.585 208.764 429.111 208.117 429.111Z" fill="#6DB247"/>
<path d="M203 430.181C201.422 430.181 200.137 431.465 200.137 433.043C200.137 434.621 201.422 435.906 203 435.906C204.579 435.906 205.862 434.621 205.862 433.043C205.862 431.465 204.578 430.181 203 430.181Z" fill="#6DB247"/>
<path d="M203 417C194.164 417 187 424.164 187 433C187 441.836 194.164 449 203 449C211.836 449 219 441.836 219 433C219 424.164 211.836 417 203 417ZM212.624 437.812C212.624 440.49 210.447 442.668 207.769 442.668H198.231C195.554 442.668 193.376 440.49 193.376 437.812V428.274C193.376 425.597 195.554 423.419 198.231 423.419H207.769C210.447 423.419 212.624 425.597 212.624 428.274V437.812Z" fill="#6DB247"/>
<g filter="url(#filter2_d)">
<rect x="20" y="158" width="334" height="56" rx="3" fill="white"/>
</g>
<path d="M91.6904 179.731C88.2539 179.731 86.0957 182.147 86.0957 186.007C86.0957 189.858 88.2041 192.291 91.6904 192.291C95.1519 192.291 97.2769 189.85 97.2769 186.007C97.2769 182.155 95.1353 179.731 91.6904 179.731ZM91.6904 181.375C93.9565 181.375 95.376 183.168 95.376 186.007C95.376 188.821 93.9648 190.647 91.6904 190.647C89.3828 190.647 87.9966 188.821 87.9966 186.007C87.9966 183.168 89.4243 181.375 91.6904 181.375ZM103.644 192.174C106.292 192.174 107.935 190.431 107.935 187.584C107.935 184.861 106.325 183.209 103.959 183.209C102.457 183.209 101.46 183.907 100.921 184.895H100.78C101.045 182.753 101.751 181.541 104.092 181.441L105.08 181.408C106.79 181.342 107.337 180.918 107.337 180.918V179.424C107.346 179.424 106.408 179.806 104.98 179.864L103.992 179.906C100.489 180.055 99.3271 182.446 99.3271 186.746C99.3271 190.406 100.913 192.174 103.644 192.174ZM103.627 190.655C102.058 190.655 101.162 189.543 101.162 187.601C101.162 185.75 102.058 184.687 103.627 184.687C105.196 184.687 106.092 185.75 106.092 187.601C106.092 189.543 105.204 190.655 103.627 190.655ZM114.958 182.828C113.729 182.828 112.667 183.45 112.119 184.479H111.986V182.985H110.268V195.005H112.052V190.639H112.193C112.667 191.593 113.688 192.149 114.974 192.149C117.257 192.149 118.709 190.34 118.709 187.493C118.709 184.629 117.257 182.828 114.958 182.828ZM114.451 190.622C112.957 190.622 112.019 189.418 112.019 187.493C112.019 185.559 112.957 184.355 114.459 184.355C115.97 184.355 116.875 185.534 116.875 187.493C116.875 189.452 115.97 190.622 114.451 190.622ZM123.524 192.149C124.711 192.149 125.699 191.635 126.238 190.722H126.379V192H128.098V185.833C128.098 183.94 126.819 182.811 124.553 182.811C122.503 182.811 121.042 183.799 120.859 185.318H122.586C122.785 184.662 123.474 184.289 124.47 184.289C125.69 184.289 126.321 184.845 126.321 185.833V186.621L123.873 186.771C121.723 186.903 120.511 187.841 120.511 189.46C120.511 191.104 121.781 192.149 123.524 192.149ZM123.98 190.713C123.009 190.713 122.304 190.224 122.304 189.385C122.304 188.563 122.868 188.124 124.113 188.041L126.321 187.891V188.671C126.321 189.833 125.325 190.713 123.98 190.713ZM137.536 182.985H130.057V184.413H132.904V192H134.688V184.413H137.536V182.985ZM145.446 192H147.231V182.985H145.446V186.621H141.329V182.985H139.544V192H141.329V188.049H145.446V192ZM152.477 192.149C153.664 192.149 154.652 191.635 155.191 190.722H155.333V192H157.051V185.833C157.051 183.94 155.772 182.811 153.506 182.811C151.456 182.811 149.995 183.799 149.812 185.318H151.539C151.738 184.662 152.427 184.289 153.423 184.289C154.644 184.289 155.274 184.845 155.274 185.833V186.621L152.826 186.771C150.676 186.903 149.464 187.841 149.464 189.46C149.464 191.104 150.734 192.149 152.477 192.149ZM152.934 190.713C151.962 190.713 151.257 190.224 151.257 189.385C151.257 188.563 151.821 188.124 153.066 188.041L155.274 187.891V188.671C155.274 189.833 154.278 190.713 152.934 190.713ZM164.638 192H166.397V182.985H162.928C160.844 182.985 159.483 184.139 159.483 186.015C159.483 187.252 160.247 188.215 161.492 188.572L159.026 192H161.102L163.293 188.879H164.638V192ZM163.019 187.501C161.948 187.501 161.251 186.878 161.251 185.999C161.251 185.011 161.94 184.405 163.019 184.405H164.638V187.501H163.019ZM181.455 185.882C181.223 184.131 179.853 182.811 177.587 182.811C174.956 182.811 173.354 184.596 173.354 187.459C173.354 190.381 174.964 192.174 177.595 192.174C179.828 192.174 181.223 190.921 181.455 189.145H179.72C179.488 190.124 178.716 190.655 177.587 190.655C176.101 190.655 175.18 189.452 175.18 187.459C175.18 185.509 176.093 184.33 177.587 184.33C178.782 184.33 179.513 185.002 179.72 185.882H181.455ZM187.772 192C189.756 192 190.943 190.971 190.943 189.418C190.943 188.339 190.179 187.526 189.009 187.385V187.244C189.897 187.078 190.536 186.239 190.536 185.31C190.536 183.898 189.499 182.985 187.73 182.985H183.655V192H187.772ZM185.423 184.305H187.39C188.336 184.305 188.785 184.795 188.785 185.525C188.785 186.331 188.27 186.762 187.191 186.762H185.423V184.305ZM185.423 188.057H187.332C188.527 188.057 189.142 188.48 189.142 189.352C189.142 190.19 188.594 190.672 187.556 190.672H185.423V188.057ZM198.123 192H199.883V182.985H196.413C194.33 182.985 192.968 184.139 192.968 186.015C192.968 187.252 193.732 188.215 194.977 188.572L192.512 192H194.587L196.778 188.879H198.123V192ZM196.504 187.501C195.434 187.501 194.736 186.878 194.736 185.999C194.736 185.011 195.425 184.405 196.504 184.405H198.123V187.501H196.504ZM205.884 192.166C208.109 192.166 209.57 191.012 209.57 189.335C209.57 188.323 208.956 187.601 207.727 187.352V187.21C208.673 186.995 209.263 186.223 209.263 185.285C209.263 183.791 208.018 182.811 205.934 182.811C203.851 182.811 202.564 183.84 202.373 185.393H204.1C204.208 184.695 204.896 184.247 205.893 184.247C206.98 184.247 207.511 184.77 207.511 185.467C207.511 186.306 206.955 186.746 205.859 186.746H204.523V188.057H205.868C207.121 188.057 207.793 188.472 207.793 189.36C207.793 190.174 207.08 190.73 205.868 190.73C204.813 190.73 204.083 190.307 203.909 189.551H202.132C202.298 191.22 203.851 192.166 205.884 192.166ZM211.894 192H215.463C217.555 192 218.892 190.796 218.892 188.887C218.892 186.986 217.555 185.783 215.463 185.783H213.679V182.985H211.894V192ZM215.331 187.202C216.41 187.202 217.115 187.866 217.115 188.887C217.115 189.9 216.418 190.572 215.331 190.572H213.679V187.202H215.331Z" fill="#1B3259"/>
<path d="M352 213L352 157L354 157C355.657 157 357 158.343 357 160L357 210C357 211.657 355.657 213 354 213L352 213Z" fill="url(#paint5_linear)"/>
<g filter="url(#filter3_d)">
<circle cx="52.5" cy="185.5" r="17.5" fill="white"/>
</g>
<path d="M58.3556 192C58.6853 192 58.9709 191.887 59.2137 191.663L55.0589 187.336C54.9592 187.41 54.8626 187.482 54.7713 187.551C54.4604 187.79 54.208 187.976 54.0142 188.109C53.8205 188.243 53.5627 188.379 53.2409 188.518C52.9189 188.658 52.6189 188.727 52.3406 188.727H52.3325H52.3243C52.046 188.727 51.746 188.658 51.4241 188.518C51.1021 188.379 50.8443 188.243 50.6507 188.109C50.457 187.976 50.2048 187.79 49.8937 187.551C49.807 187.485 49.7108 187.412 49.6069 187.334L45.4512 191.663C45.694 191.887 45.9799 192 46.3095 192H58.3556Z" fill="#6DB247"/>
<path d="M45.8266 184.611C45.5157 184.395 45.24 184.148 45 183.869V190.453L48.6621 186.639C47.9294 186.106 46.9855 185.431 45.8266 184.611Z" fill="#6DB247"/>
<path d="M58.8467 184.611C57.732 185.397 56.7847 186.073 56.0045 186.64L59.6651 190.453V183.869C59.4304 184.142 59.1576 184.389 58.8467 184.611Z" fill="#6DB247"/>
<path d="M58.3568 180H46.3106C45.8904 180 45.5673 180.148 45.3409 180.443C45.1144 180.738 45.0013 181.108 45.0013 181.551C45.0013 181.909 45.1514 182.297 45.4514 182.714C45.7514 183.132 46.0706 183.46 46.4089 183.699C46.5943 183.835 47.1535 184.24 48.0866 184.913C48.5902 185.277 49.0283 185.594 49.4047 185.867C49.7255 186.1 50.0022 186.301 50.2306 186.469C50.2569 186.488 50.2981 186.519 50.3528 186.559C50.4118 186.603 50.4864 186.659 50.5785 186.729C50.7558 186.862 50.9031 186.97 51.0204 187.053C51.1376 187.135 51.2795 187.227 51.446 187.33C51.6124 187.432 51.7693 187.509 51.9166 187.56C52.0639 187.611 52.2003 187.636 52.3258 187.636H52.3339H52.3421C52.4675 187.636 52.6039 187.611 52.7512 187.56C52.8985 187.509 53.0553 187.432 53.2218 187.33C53.3882 187.227 53.5299 187.135 53.6475 187.053C53.7648 186.97 53.9121 186.862 54.0894 186.729C54.1813 186.659 54.2559 186.603 54.3149 186.559C54.3696 186.519 54.4109 186.488 54.4372 186.469C54.6152 186.34 54.8925 186.139 55.2654 185.869C55.9439 185.378 56.943 184.656 58.2672 183.699C58.6654 183.409 58.9981 183.059 59.2655 182.651C59.5324 182.242 59.6663 181.813 59.6663 181.364C59.6663 180.989 59.5365 180.668 59.2776 180.4C59.0184 180.134 58.7114 180 58.3568 180Z" fill="#6DB247"/>
<g filter="url(#filter4_d)">
<rect x="21" y="283" width="334" height="56" rx="3" fill="white"/>
</g>
<path d="M97.2891 317V305.022H87.5854V317H89.4531V306.641H95.4463V317H97.2891ZM104.079 317.174C106.719 317.174 108.337 315.406 108.337 312.493C108.337 309.579 106.71 307.811 104.079 307.811C101.439 307.811 99.8125 309.587 99.8125 312.493C99.8125 315.406 101.431 317.174 104.079 317.174ZM104.079 315.655C102.527 315.655 101.655 314.501 101.655 312.493C101.655 310.484 102.527 309.322 104.079 309.322C105.623 309.322 106.503 310.484 106.503 312.493C106.503 314.493 105.623 315.655 104.079 315.655ZM113.783 317.166C116.007 317.166 117.468 316.012 117.468 314.335C117.468 313.323 116.854 312.601 115.625 312.352V312.21C116.572 311.995 117.161 311.223 117.161 310.285C117.161 308.791 115.916 307.811 113.833 307.811C111.749 307.811 110.462 308.84 110.271 310.393H111.998C112.106 309.695 112.795 309.247 113.791 309.247C114.878 309.247 115.41 309.77 115.41 310.467C115.41 311.306 114.854 311.746 113.758 311.746H112.421V313.057H113.766C115.02 313.057 115.692 313.472 115.692 314.36C115.692 315.174 114.978 315.73 113.766 315.73C112.712 315.73 111.981 315.307 111.807 314.551H110.031C110.197 316.22 111.749 317.166 113.783 317.166ZM123.91 317C125.894 317 127.081 315.971 127.081 314.418C127.081 313.339 126.317 312.526 125.146 312.385V312.244C126.035 312.078 126.674 311.239 126.674 310.31C126.674 308.898 125.636 307.985 123.868 307.985H119.792V317H123.91ZM121.561 309.305H123.528C124.474 309.305 124.922 309.795 124.922 310.525C124.922 311.331 124.408 311.762 123.329 311.762H121.561V309.305ZM121.561 313.057H123.47C124.665 313.057 125.279 313.48 125.279 314.352C125.279 315.19 124.731 315.672 123.694 315.672H121.561V313.057ZM133.165 317.174C135.805 317.174 137.423 315.406 137.423 312.493C137.423 309.579 135.796 307.811 133.165 307.811C130.525 307.811 128.898 309.587 128.898 312.493C128.898 315.406 130.517 317.174 133.165 317.174ZM133.165 315.655C131.613 315.655 130.741 314.501 130.741 312.493C130.741 310.484 131.613 309.322 133.165 309.322C134.709 309.322 135.589 310.484 135.589 312.493C135.589 314.493 134.709 315.655 133.165 315.655ZM145.633 317H147.417V307.985H145.633V311.621H141.516V307.985H139.731V317H141.516V313.049H145.633V317ZM151.925 317L156.05 310.65H156.191V317H157.959V307.985H156.191L152.066 314.311H151.925V307.985H150.157V317H151.925ZM167.456 307.985H159.977V309.413H162.824V317H164.608V309.413H167.456V307.985ZM169.464 317H173.034C175.125 317 176.462 315.796 176.462 313.887C176.462 311.986 175.125 310.783 173.034 310.783H171.249V307.985H169.464V317ZM172.901 312.202C173.98 312.202 174.686 312.866 174.686 313.887C174.686 314.9 173.988 315.572 172.901 315.572H171.249V312.202H172.901ZM189.179 317H190.963V307.985H189.179V311.621H185.062V307.985H183.277V317H185.062V313.049H189.179V317ZM196.209 317.149C197.396 317.149 198.384 316.635 198.924 315.722H199.065V317H200.783V310.833C200.783 308.94 199.505 307.811 197.239 307.811C195.188 307.811 193.728 308.799 193.545 310.318H195.271C195.471 309.662 196.16 309.289 197.156 309.289C198.376 309.289 199.007 309.845 199.007 310.833V311.621L196.558 311.771C194.408 311.903 193.196 312.841 193.196 314.46C193.196 316.104 194.466 317.149 196.209 317.149ZM196.666 315.713C195.695 315.713 194.989 315.224 194.989 314.385C194.989 313.563 195.554 313.124 196.799 313.041L199.007 312.891V313.671C199.007 314.833 198.011 315.713 196.666 315.713ZM205.216 317V310.733H205.374L208.021 316.66H209.333L211.981 310.733H212.139V317H213.882V307.985H211.699L208.777 314.568H208.636L205.722 307.985H203.481V317H205.216Z" fill="#1B3259"/>
<path d="M352 339L352 283L354 283C355.657 283 357 284.343 357 286L357 336C357 337.657 355.657 339 354 339L352 339Z" fill="url(#paint6_linear)"/>
<g filter="url(#filter5_d)">
<circle cx="52.5" cy="310.5" r="17.5" fill="white"/>
</g>
<path d="M59.9694 314.847C59.9298 314.728 59.6778 314.552 59.2137 314.321C59.088 314.247 58.9089 314.148 58.6771 314.022C58.4451 313.896 58.2345 313.78 58.0457 313.674C57.8565 313.568 57.6793 313.465 57.5137 313.366C57.4872 313.346 57.4044 313.288 57.2652 313.192C57.1258 313.096 57.0083 313.025 56.912 312.978C56.8159 312.932 56.7214 312.909 56.6286 312.909C56.4961 312.909 56.3305 313.003 56.1317 313.192C55.9329 313.381 55.7506 313.586 55.5849 313.809C55.4193 314.031 55.2436 314.236 55.0582 314.425C54.8725 314.614 54.7199 314.708 54.6007 314.708C54.5409 314.708 54.4663 314.692 54.3769 314.659C54.2875 314.626 54.2196 314.597 54.1729 314.574C54.1266 314.551 54.0473 314.505 53.9345 314.435C53.8215 314.365 53.7587 314.327 53.7455 314.321C52.8374 313.817 52.0586 313.24 51.4089 312.591C50.7594 311.941 50.1826 311.162 49.6789 310.254C49.6723 310.241 49.6341 310.178 49.5645 310.065C49.4949 309.952 49.4484 309.873 49.4252 309.826C49.402 309.78 49.3739 309.712 49.3408 309.622C49.3077 309.533 49.2911 309.458 49.2911 309.399C49.2911 309.279 49.3856 309.127 49.5745 308.941C49.7634 308.756 49.9689 308.58 50.1909 308.414C50.4131 308.249 50.6184 308.066 50.8074 307.868C50.9963 307.669 51.0907 307.503 51.0907 307.371C51.0907 307.278 51.0675 307.183 51.0212 307.087C50.9748 306.991 50.9035 306.873 50.8074 306.734C50.7112 306.595 50.6532 306.512 50.6333 306.486C50.534 306.32 50.4313 306.143 50.3251 305.954C50.219 305.765 50.1031 305.554 49.9771 305.322C49.8512 305.09 49.7518 304.911 49.6788 304.785C49.4469 304.322 49.2713 304.07 49.152 304.03C49.1055 304.01 49.0359 304 48.9432 304C48.7641 304 48.5305 304.033 48.2422 304.099C47.9537 304.166 47.7268 304.235 47.561 304.308C47.2296 304.447 46.8783 304.852 46.5071 305.521C46.169 306.144 46 306.761 46 307.37C46 307.549 46.0116 307.723 46.0348 307.892C46.058 308.061 46.0994 308.252 46.1592 308.464C46.2188 308.676 46.2669 308.834 46.3032 308.936C46.3396 309.039 46.4076 309.223 46.507 309.488C46.6064 309.753 46.6661 309.916 46.686 309.975C46.9179 310.625 47.193 311.205 47.5112 311.715C48.0346 312.564 48.7489 313.441 49.6537 314.346C50.5585 315.25 51.4351 315.965 52.2836 316.488C52.794 316.806 53.3742 317.081 54.0237 317.314C54.0834 317.333 54.2457 317.393 54.5108 317.493C54.776 317.592 54.96 317.66 55.0626 317.696C55.1653 317.733 55.3229 317.781 55.5348 317.841C55.7472 317.901 55.9376 317.942 56.1066 317.965C56.2757 317.988 56.4498 318 56.6286 318C57.2384 318 57.855 317.831 58.4781 317.493C59.1474 317.122 59.5516 316.77 59.6908 316.439C59.764 316.273 59.8334 316.046 59.8996 315.758C59.9661 315.469 59.9991 315.236 59.9991 315.057C59.9993 314.964 59.9893 314.894 59.9694 314.847Z" fill="#6DB247"/>
</g>
<defs>
<filter id="filter0_d" x="-5" y="37" width="80" height="80" filterUnits="userSpaceOnUse" color-interpolation-filters="sRGB">
<feFlood flood-opacity="0" result="BackgroundImageFix"/>
<feColorMatrix in="SourceAlpha" type="matrix" values="0 0 0 0 0 0 0 0 0 0 0 0 0 0 0 0 0 0 127 0"/>
<feOffset dy="5"/>
<feGaussianBlur stdDeviation="10"/>
<feColorMatrix type="matrix" values="0 0 0 0 0.146644 0 0 0 0 0.2625 0 0 0 0 0.0853125 0 0 0 0.1 0"/>
<feBlend mode="normal" in2="BackgroundImageFix" result="effect1_dropShadow"/>
<feBlend mode="normal" in="SourceGraphic" in2="effect1_dropShadow" result="shape"/>
</filter>
<filter id="filter1_d" x="0" y="389" width="374" height="96" filterUnits="userSpaceOnUse" color-interpolation-filters="sRGB">
<feFlood flood-opacity="0" result="BackgroundImageFix"/>
<feColorMatrix in="SourceAlpha" type="matrix" values="0 0 0 0 0 0 0 0 0 0 0 0 0 0 0 0 0 0 127 0"/>
<feOffset dy="4"/>
<feGaussianBlur stdDeviation="10"/>
<feColorMatrix type="matrix" values="0 0 0 0 0.0688041 0 0 0 0 0.13138 0 0 0 0 0.0343419 0 0 0 0.08 0"/>
<feBlend mode="normal" in2="BackgroundImageFix" result="effect1_dropShadow"/>
<feBlend mode="normal" in="SourceGraphic" in2="effect1_dropShadow" result="shape"/>
</filter>
<filter id="filter2_d" x="0" y="142" width="374" height="96" filterUnits="userSpaceOnUse" color-interpolation-filters="sRGB">
<feFlood flood-opacity="0" result="BackgroundImageFix"/>
<feColorMatrix in="SourceAlpha" type="matrix" values="0 0 0 0 0 0 0 0 0 0 0 0 0 0 0 0 0 0 127 0"/>
<feOffset dy="4"/>
<feGaussianBlur stdDeviation="10"/>
<feColorMatrix type="matrix" values="0 0 0 0 0.0688041 0 0 0 0 0.13138 0 0 0 0 0.0343419 0 0 0 0.08 0"/>
<feBlend mode="normal" in2="BackgroundImageFix" result="effect1_dropShadow"/>
<feBlend mode="normal" in="SourceGraphic" in2="effect1_dropShadow" result="shape"/>
</filter>
<filter id="filter3_d" x="15" y="153" width="75" height="75" filterUnits="userSpaceOnUse" color-interpolation-filters="sRGB">
<feFlood flood-opacity="0" result="BackgroundImageFix"/>
<feColorMatrix in="SourceAlpha" type="matrix" values="0 0 0 0 0 0 0 0 0 0 0 0 0 0 0 0 0 0 127 0"/>
<feOffset dy="5"/>
<feGaussianBlur stdDeviation="10"/>
<feColorMatrix type="matrix" values="0 0 0 0 0.427451 0 0 0 0 0.698039 0 0 0 0 0.278431 0 0 0 0.2 0"/>
<feBlend mode="normal" in2="BackgroundImageFix" result="effect1_dropShadow"/>
<feBlend mode="normal" in="SourceGraphic" in2="effect1_dropShadow" result="shape"/>
</filter>
<filter id="filter4_d" x="1" y="267" width="374" height="96" filterUnits="userSpaceOnUse" color-interpolation-filters="sRGB">
<feFlood flood-opacity="0" result="BackgroundImageFix"/>
<feColorMatrix in="SourceAlpha" type="matrix" values="0 0 0 0 0 0 0 0 0 0 0 0 0 0 0 0 0 0 127 0"/>
<feOffset dy="4"/>
<feGaussianBlur stdDeviation="10"/>
<feColorMatrix type="matrix" values="0 0 0 0 0.0688041 0 0 0 0 0.13138 0 0 0 0 0.0343419 0 0 0 0.08 0"/>
<feBlend mode="normal" in2="BackgroundImageFix" result="effect1_dropShadow"/>
<feBlend mode="normal" in="SourceGraphic" in2="effect1_dropShadow" result="shape"/>
</filter>
<filter id="filter5_d" x="15" y="278" width="75" height="75" filterUnits="userSpaceOnUse" color-interpolation-filters="sRGB">
<feFlood flood-opacity="0" result="BackgroundImageFix"/>
<feColorMatrix in="SourceAlpha" type="matrix" values="0 0 0 0 0 0 0 0 0 0 0 0 0 0 0 0 0 0 127 0"/>
<feOffset dy="5"/>
<feGaussianBlur stdDeviation="10"/>
<feColorMatrix type="matrix" values="0 0 0 0 0.427451 0 0 0 0 0.698039 0 0 0 0 0.278431 0 0 0 0.2 0"/>
<feBlend mode="normal" in2="BackgroundImageFix" result="effect1_dropShadow"/>
<feBlend mode="normal" in="SourceGraphic" in2="effect1_dropShadow" result="shape"/>
</filter>
<linearGradient id="paint0_linear" x1="275" y1="552" x2="364.054" y2="593.866" gradientUnits="userSpaceOnUse">
<stop stop-color="#0C7F86"/>
<stop offset="1" stop-color="#E2EDB3"/>
</linearGradient>
<linearGradient id="paint1_linear" x1="26" y1="67.3143" x2="44" y2="67.3143" gradientUnits="userSpaceOnUse">
<stop stop-color="#0B7E86"/>
<stop offset="0.313008" stop-color="#2B8E67"/>
<stop offset="0.624661" stop-color="#429F49"/>
<stop offset="1" stop-color="#B1CE33"/>
</linearGradient>
<linearGradient id="paint2_linear" x1="26" y1="72.7142" x2="44" y2="72.7142" gradientUnits="userSpaceOnUse">
<stop stop-color="#0B7E86"/>
<stop offset="0.313008" stop-color="#2B8E67"/>
<stop offset="0.624661" stop-color="#429F49"/>
<stop offset="1" stop-color="#B1CE33"/>
</linearGradient>
<linearGradient id="paint3_linear" x1="26" y1="78.1143" x2="44" y2="78.1143" gradientUnits="userSpaceOnUse">
<stop stop-color="#0B7E86"/>
<stop offset="0.313008" stop-color="#2B8E67"/>
<stop offset="0.624661" stop-color="#429F49"/>
<stop offset="1" stop-color="#B1CE33"/>
</linearGradient>
<linearGradient id="paint4_linear" x1="358" y1="449.8" x2="358" y2="406.948" gradientUnits="userSpaceOnUse">
<stop stop-color="#0B7E86"/>
<stop offset="0.402291" stop-color="#2B8E67"/>
<stop offset="0.582349" stop-color="#429F49"/>
<stop offset="0.826715" stop-color="#429F49"/>
<stop offset="1" stop-color="#B1CE33"/>
</linearGradient>
<linearGradient id="paint5_linear" x1="357" y1="201.8" x2="357" y2="158.948" gradientUnits="userSpaceOnUse">
<stop stop-color="#0B7E86"/>
<stop offset="0.402291" stop-color="#2B8E67"/>
<stop offset="0.582349" stop-color="#429F49"/>
<stop offset="0.826715" stop-color="#429F49"/>
<stop offset="1" stop-color="#B1CE33"/>
</linearGradient>
<linearGradient id="paint6_linear" x1="357" y1="327.8" x2="357" y2="284.948" gradientUnits="userSpaceOnUse">
<stop stop-color="#0B7E86"/>
<stop offset="0.402291" stop-color="#2B8E67"/>
<stop offset="0.582349" stop-color="#429F49"/>
<stop offset="0.826715" stop-color="#429F49"/>
<stop offset="1" stop-color="#B1CE33"/>
</linearGradient>
<clipPath id="clip0">
<rect width="375" height="667" fill="white"/>
</clipPath>
</defs>
</svg>
