<svg width="375" height="667" viewBox="0 0 375 667" fill="none" xmlns="http://www.w3.org/2000/svg">
<g clip-path="url(#clip0)">
<rect width="375" height="667" fill="white"/>
<path d="M374 0.37677H0V667H374V0.37677Z" fill="#F9FAF9"/>
<path fill-rule="evenodd" clip-rule="evenodd" d="M345.5 5.5H364.5C365.881 5.5 367 6.61929 367 8V14.5C367 15.8807 365.881 17 364.5 17H345.5C344.119 17 343 15.8807 343 14.5V8C343 6.61929 344.119 5.5 345.5 5.5ZM345.5 6.5C344.672 6.5 344 7.17157 344 8V14.5C344 15.3284 344.672 16 345.5 16H364.5C365.328 16 366 15.3284 366 14.5V8C366 7.17157 365.328 6.5 364.5 6.5H345.5Z" fill="black" fill-opacity="0.38"/>
<path fill-rule="evenodd" clip-rule="evenodd" d="M368 8.79987C368.89 9.25504 369.5 10.1813 369.5 11.25C369.5 12.3187 368.89 13.245 368 13.7002V8.79987Z" fill="black" fill-opacity="0.49"/>
<path fill-rule="evenodd" clip-rule="evenodd" d="M346 7.5H364C364.552 7.5 365 7.94772 365 8.5V14C365 14.5523 364.552 15 364 15H346C345.448 15 345 14.5523 345 14V8.5C345 7.94772 345.448 7.5 346 7.5Z" fill="black"/>
<path d="M314.131 8.16406H314.107L311.869 9.77539V8.66211L314.119 7.04492H315.15V15.5H314.131V8.16406ZM320.254 15.6406C319.762 15.6406 319.322 15.5391 318.936 15.3359C318.549 15.1289 318.221 14.8359 317.951 14.457C317.686 14.0781 317.482 13.6191 317.342 13.0801C317.205 12.541 317.137 11.9375 317.137 11.2695C317.137 10.6094 317.207 10.0098 317.348 9.4707C317.488 8.93164 317.691 8.47266 317.957 8.09375C318.227 7.71484 318.553 7.42188 318.936 7.21484C319.322 7.00781 319.762 6.9043 320.254 6.9043C320.746 6.9043 321.184 7.00781 321.566 7.21484C321.953 7.41797 322.279 7.70898 322.545 8.08789C322.811 8.4668 323.012 8.92578 323.148 9.46484C323.289 10 323.359 10.5996 323.359 11.2637C323.359 11.9316 323.289 12.5352 323.148 13.0742C323.012 13.6133 322.811 14.0742 322.545 14.457C322.279 14.8359 321.953 15.1289 321.566 15.3359C321.184 15.5391 320.746 15.6406 320.254 15.6406ZM320.254 14.7207C320.582 14.7207 320.873 14.6406 321.127 14.4805C321.385 14.3164 321.6 14.0859 321.771 13.7891C321.943 13.4883 322.074 13.125 322.164 12.6992C322.254 12.2734 322.299 11.7969 322.299 11.2695C322.299 10.75 322.254 10.2793 322.164 9.85742C322.074 9.43164 321.941 9.07031 321.766 8.77344C321.594 8.47266 321.381 8.24023 321.127 8.07617C320.873 7.91211 320.582 7.83008 320.254 7.83008C319.926 7.83008 319.635 7.91211 319.381 8.07617C319.127 8.24023 318.912 8.47266 318.736 8.77344C318.561 9.07422 318.426 9.43555 318.332 9.85742C318.242 10.2793 318.197 10.748 318.197 11.2637C318.197 11.791 318.242 12.2676 318.332 12.6934C318.422 13.1191 318.553 13.4824 318.725 13.7832C318.9 14.084 319.115 14.3164 319.369 14.4805C319.627 14.6406 319.922 14.7207 320.254 14.7207ZM327.531 15.6406C327.039 15.6406 326.6 15.5391 326.213 15.3359C325.826 15.1289 325.498 14.8359 325.229 14.457C324.963 14.0781 324.76 13.6191 324.619 13.0801C324.482 12.541 324.414 11.9375 324.414 11.2695C324.414 10.6094 324.484 10.0098 324.625 9.4707C324.766 8.93164 324.969 8.47266 325.234 8.09375C325.504 7.71484 325.83 7.42188 326.213 7.21484C326.6 7.00781 327.039 6.9043 327.531 6.9043C328.023 6.9043 328.461 7.00781 328.844 7.21484C329.23 7.41797 329.557 7.70898 329.822 8.08789C330.088 8.4668 330.289 8.92578 330.426 9.46484C330.566 10 330.637 10.5996 330.637 11.2637C330.637 11.9316 330.566 12.5352 330.426 13.0742C330.289 13.6133 330.088 14.0742 329.822 14.457C329.557 14.8359 329.23 15.1289 328.844 15.3359C328.461 15.5391 328.023 15.6406 327.531 15.6406ZM327.531 14.7207C327.859 14.7207 328.15 14.6406 328.404 14.4805C328.662 14.3164 328.877 14.0859 329.049 13.7891C329.221 13.4883 329.352 13.125 329.441 12.6992C329.531 12.2734 329.576 11.7969 329.576 11.2695C329.576 10.75 329.531 10.2793 329.441 9.85742C329.352 9.43164 329.219 9.07031 329.043 8.77344C328.871 8.47266 328.658 8.24023 328.404 8.07617C328.15 7.91211 327.859 7.83008 327.531 7.83008C327.203 7.83008 326.912 7.91211 326.658 8.07617C326.404 8.24023 326.189 8.47266 326.014 8.77344C325.838 9.07422 325.703 9.43555 325.609 9.85742C325.52 10.2793 325.475 10.748 325.475 11.2637C325.475 11.791 325.52 12.2676 325.609 12.6934C325.699 13.1191 325.83 13.4824 326.002 13.7832C326.178 14.084 326.393 14.3164 326.646 14.4805C326.904 14.6406 327.199 14.7207 327.531 14.7207ZM331.967 15.5L338.154 7.04492H339.162L332.986 15.5H331.967ZM339.707 13.4844C339.707 13.8047 339.664 14.0957 339.578 14.3574C339.496 14.6152 339.377 14.8359 339.221 15.0195C339.068 15.2031 338.883 15.3457 338.664 15.4473C338.449 15.5449 338.207 15.5938 337.938 15.5938C337.668 15.5938 337.424 15.5449 337.205 15.4473C336.99 15.3457 336.805 15.2031 336.648 15.0195C336.492 14.8359 336.371 14.6152 336.285 14.3574C336.203 14.0957 336.162 13.8047 336.162 13.4844C336.162 13.168 336.203 12.8809 336.285 12.623C336.371 12.3613 336.492 12.1387 336.648 11.9551C336.805 11.7715 336.99 11.6309 337.205 11.5332C337.424 11.4316 337.668 11.3809 337.938 11.3809C338.207 11.3809 338.449 11.4316 338.664 11.5332C338.883 11.6309 339.068 11.7715 339.221 11.9551C339.377 12.1387 339.496 12.3613 339.578 12.623C339.664 12.8809 339.707 13.168 339.707 13.4844ZM337.938 14.8789C338.066 14.8789 338.182 14.8477 338.283 14.7852C338.389 14.7188 338.477 14.625 338.547 14.5039C338.617 14.3828 338.672 14.2363 338.711 14.0645C338.75 13.8926 338.77 13.6992 338.77 13.4844C338.77 13.0469 338.697 12.707 338.553 12.4648C338.408 12.2227 338.203 12.1016 337.938 12.1016C337.68 12.1016 337.475 12.2266 337.322 12.4766C337.174 12.7227 337.1 13.0586 337.1 13.4844C337.1 13.6992 337.119 13.8926 337.158 14.0645C337.197 14.2363 337.252 14.3828 337.322 14.5039C337.396 14.625 337.484 14.7188 337.586 14.7852C337.691 14.8477 337.809 14.8789 337.938 14.8789ZM335.002 9.04297C335.002 9.36328 334.959 9.6543 334.873 9.91602C334.791 10.1738 334.672 10.3945 334.516 10.5781C334.363 10.7617 334.178 10.9043 333.959 11.0059C333.744 11.1035 333.502 11.1523 333.232 11.1523C332.963 11.1523 332.719 11.1035 332.5 11.0059C332.285 10.9043 332.1 10.7617 331.943 10.5781C331.787 10.3945 331.666 10.1738 331.58 9.91602C331.498 9.6543 331.457 9.36328 331.457 9.04297C331.457 8.72656 331.498 8.43945 331.58 8.18164C331.666 7.91992 331.787 7.69727 331.943 7.51367C332.1 7.33008 332.285 7.18945 332.5 7.0918C332.719 6.99023 332.963 6.93945 333.232 6.93945C333.502 6.93945 333.744 6.99023 333.959 7.0918C334.178 7.18945 334.363 7.33008 334.516 7.51367C334.672 7.69727 334.791 7.91992 334.873 8.18164C334.959 8.43945 335.002 8.72656 335.002 9.04297ZM333.232 10.4375C333.361 10.4375 333.477 10.4062 333.578 10.3438C333.684 10.2773 333.771 10.1836 333.842 10.0625C333.912 9.94141 333.967 9.79492 334.006 9.62305C334.045 9.45117 334.064 9.25781 334.064 9.04297C334.064 8.60547 333.992 8.26562 333.848 8.02344C333.703 7.78125 333.498 7.66016 333.232 7.66016C332.975 7.66016 332.77 7.78516 332.617 8.03516C332.469 8.28125 332.395 8.61719 332.395 9.04297C332.395 9.25781 332.414 9.45117 332.453 9.62305C332.492 9.79492 332.547 9.94141 332.617 10.0625C332.691 10.1836 332.779 10.2773 332.881 10.3438C332.986 10.4062 333.104 10.4375 333.232 10.4375Z" fill="black"/>
<path fill-rule="evenodd" clip-rule="evenodd" d="M300.874 7.19111L302.524 8.78081L300.874 10.2111V7.19111ZM301.47 10.9993L304 8.80741L299.996 5V5.5V6.34563V9.72135L297.622 7.665L297 8.43104L299.964 10.9993L297 13.5675L297.622 14.3335L299.996 12.2772V15.6529V16.5V16.9985L304 13.1911L301.47 10.9993ZM300.874 14.8074L302.524 13.2177L300.874 11.7874V14.8074Z" fill="black"/>
<path fill-rule="evenodd" clip-rule="evenodd" d="M283.667 6.87174C283.171 6.37609 282.367 6.37609 281.872 6.87174C281.376 7.36739 281.376 8.17101 281.872 8.66666L283.667 6.87174ZM288.833 6.87174C289.329 6.37609 290.133 6.37609 290.628 6.87174C291.124 7.36739 291.124 8.17101 290.628 8.66666L288.833 6.87174ZM290.5 11.25C290.5 13.5972 288.597 15.5 286.25 15.5C283.903 15.5 282 13.5972 282 11.25C282 8.90279 283.903 7 286.25 7C288.597 7 290.5 8.90279 290.5 11.25ZM286.25 8.5H286.997V11.25H287.002V11.9966H286.997V12H286.25V11.9966H284.502V11.25H286.25V8.5Z" fill="black"/>
<path fill-rule="evenodd" clip-rule="evenodd" d="M265 11L275 6.5L270.5 16.5V11H265Z" fill="black"/>
<path fill-rule="evenodd" clip-rule="evenodd" d="M252.5 6C255.093 6 257.224 7.97334 257.475 10.5H259L257 12.5L255 10.5H256.519C256.273 8.49915 254.567 6.95 252.5 6.95C250.263 6.95 248.45 8.76324 248.45 11C248.45 13.2368 250.263 15.05 252.5 15.05C253.945 15.05 255.214 14.2928 255.931 13.1535L256.719 13.6851C255.831 15.0769 254.273 16 252.5 16C249.739 16 247.5 13.7614 247.5 11C247.5 8.23858 249.739 6 252.5 6ZM251 9.25V10.5C250.724 10.5 250.5 10.7239 250.5 11V13C250.5 13.2761 250.724 13.5 251 13.5H254C254.276 13.5 254.5 13.2761 254.5 13V11C254.5 10.7239 254.276 10.5 254 10.5V9.25C254 8.55964 253.44 8 252.75 8H252.25C251.56 8 251 8.55964 251 9.25ZM253.35 9.325V10.5H251.65V9.325C251.65 8.97982 251.93 8.7 252.275 8.7H252.725C253.07 8.7 253.35 8.97982 253.35 9.325Z" fill="#111111"/>
<path d="M169.143 8.16406H169.119L166.881 9.77539V8.66211L169.131 7.04492H170.162V15.5H169.143V8.16406ZM173.145 15.5586C173.051 15.5586 172.963 15.541 172.881 15.5059C172.799 15.4707 172.729 15.4238 172.67 15.3652C172.611 15.3066 172.564 15.2363 172.529 15.1543C172.494 15.0723 172.477 14.9844 172.477 14.8906C172.477 14.7969 172.494 14.709 172.529 14.627C172.564 14.5449 172.611 14.4746 172.67 14.416C172.729 14.3535 172.799 14.3066 172.881 14.2754C172.963 14.2402 173.051 14.2227 173.145 14.2227C173.336 14.2227 173.494 14.2871 173.619 14.416C173.748 14.541 173.812 14.6992 173.812 14.8906C173.812 14.9844 173.795 15.0723 173.76 15.1543C173.729 15.2363 173.682 15.3066 173.619 15.3652C173.561 15.4238 173.49 15.4707 173.408 15.5059C173.326 15.541 173.238 15.5586 173.145 15.5586ZM173.145 11.2461C173.051 11.2461 172.963 11.2285 172.881 11.1934C172.799 11.1582 172.729 11.1113 172.67 11.0527C172.611 10.9941 172.564 10.9238 172.529 10.8418C172.494 10.7598 172.477 10.6719 172.477 10.5781C172.477 10.4844 172.494 10.3965 172.529 10.3145C172.564 10.2324 172.611 10.1621 172.67 10.1035C172.729 10.041 172.799 9.99414 172.881 9.96289C172.963 9.92773 173.051 9.91016 173.145 9.91016C173.336 9.91016 173.494 9.97461 173.619 10.1035C173.748 10.2285 173.812 10.3867 173.812 10.5781C173.812 10.6719 173.795 10.7598 173.76 10.8418C173.729 10.9238 173.682 10.9941 173.619 11.0527C173.561 11.1113 173.49 11.1582 173.408 11.1934C173.326 11.2285 173.238 11.2461 173.145 11.2461ZM175.301 9.48242C175.301 9.11523 175.371 8.77344 175.512 8.45703C175.652 8.14062 175.848 7.86914 176.098 7.64258C176.348 7.41211 176.643 7.23242 176.982 7.10352C177.322 6.9707 177.691 6.9043 178.09 6.9043C178.469 6.9043 178.822 6.96484 179.15 7.08594C179.479 7.20703 179.764 7.37305 180.006 7.58398C180.248 7.79102 180.439 8.03516 180.58 8.31641C180.721 8.59766 180.791 8.90039 180.791 9.22461C180.791 9.45898 180.762 9.68555 180.703 9.9043C180.645 10.1191 180.543 10.3457 180.398 10.584C180.258 10.8223 180.068 11.082 179.83 11.3633C179.596 11.6445 179.303 11.9668 178.951 12.3301L176.812 14.5391V14.5625H180.932V15.5H175.354V14.7734L178.33 11.6387C178.615 11.3418 178.848 11.0859 179.027 10.8711C179.211 10.6523 179.355 10.4551 179.461 10.2793C179.566 10.1035 179.639 9.93945 179.678 9.78711C179.717 9.63086 179.736 9.46484 179.736 9.28906C179.736 9.08594 179.691 8.89648 179.602 8.7207C179.516 8.54102 179.396 8.38477 179.244 8.25195C179.096 8.11914 178.92 8.01562 178.717 7.94141C178.514 7.86328 178.295 7.82422 178.061 7.82422C177.814 7.82422 177.584 7.86719 177.369 7.95312C177.158 8.03516 176.975 8.15039 176.818 8.29883C176.662 8.44727 176.539 8.62305 176.449 8.82617C176.363 9.0293 176.32 9.24805 176.32 9.48242V9.48828H175.301V9.48242ZM185.109 15.6406C184.617 15.6406 184.178 15.5391 183.791 15.3359C183.404 15.1289 183.076 14.8359 182.807 14.457C182.541 14.0781 182.338 13.6191 182.197 13.0801C182.061 12.541 181.992 11.9375 181.992 11.2695C181.992 10.6094 182.062 10.0098 182.203 9.4707C182.344 8.93164 182.547 8.47266 182.812 8.09375C183.082 7.71484 183.408 7.42188 183.791 7.21484C184.178 7.00781 184.617 6.9043 185.109 6.9043C185.602 6.9043 186.039 7.00781 186.422 7.21484C186.809 7.41797 187.135 7.70898 187.4 8.08789C187.666 8.4668 187.867 8.92578 188.004 9.46484C188.145 10 188.215 10.5996 188.215 11.2637C188.215 11.9316 188.145 12.5352 188.004 13.0742C187.867 13.6133 187.666 14.0742 187.4 14.457C187.135 14.8359 186.809 15.1289 186.422 15.3359C186.039 15.5391 185.602 15.6406 185.109 15.6406ZM185.109 14.7207C185.438 14.7207 185.729 14.6406 185.982 14.4805C186.24 14.3164 186.455 14.0859 186.627 13.7891C186.799 13.4883 186.93 13.125 187.02 12.6992C187.109 12.2734 187.154 11.7969 187.154 11.2695C187.154 10.75 187.109 10.2793 187.02 9.85742C186.93 9.43164 186.797 9.07031 186.621 8.77344C186.449 8.47266 186.236 8.24023 185.982 8.07617C185.729 7.91211 185.438 7.83008 185.109 7.83008C184.781 7.83008 184.49 7.91211 184.236 8.07617C183.982 8.24023 183.768 8.47266 183.592 8.77344C183.416 9.07422 183.281 9.43555 183.188 9.85742C183.098 10.2793 183.053 10.748 183.053 11.2637C183.053 11.791 183.098 12.2676 183.188 12.6934C183.277 13.1191 183.408 13.4824 183.58 13.7832C183.756 14.084 183.971 14.3164 184.225 14.4805C184.482 14.6406 184.777 14.7207 185.109 14.7207ZM195.627 7.04492C196.025 7.04492 196.389 7.11133 196.717 7.24414C197.049 7.37695 197.334 7.5625 197.572 7.80078C197.814 8.03906 198.002 8.32617 198.135 8.66211C198.268 8.99414 198.334 9.35938 198.334 9.75781C198.334 10.1602 198.266 10.5293 198.129 10.8652C197.996 11.1973 197.809 11.4844 197.566 11.7266C197.328 11.9648 197.043 12.1504 196.711 12.2832C196.379 12.416 196.014 12.4824 195.615 12.4824H193.488V15.5H192.434V7.04492H195.627ZM193.488 11.5449H195.352C195.652 11.5449 195.92 11.5059 196.154 11.4277C196.393 11.3457 196.592 11.2285 196.752 11.0762C196.916 10.9199 197.039 10.7324 197.121 10.5137C197.207 10.291 197.25 10.0391 197.25 9.75781C197.25 9.19531 197.086 8.75977 196.758 8.45117C196.43 8.13867 195.961 7.98242 195.352 7.98242H193.488V11.5449ZM207.879 15.5H206.895V8.98438H206.854L204.158 15.4414H203.268L200.572 8.98438H200.531V15.5H199.547V7.04492H200.771L203.689 14.0996H203.736L206.654 7.04492H207.879V15.5Z" fill="black"/>
<path fill-rule="evenodd" clip-rule="evenodd" d="M82.1672 11.546C79.6288 9.00755 75.5133 9.00755 72.9749 11.546L74.3891 12.9602C76.1464 11.2028 78.9957 11.2028 80.753 12.9602L82.1672 11.546ZM79.6924 14.0208C78.5208 12.8493 76.6213 12.8493 75.4497 14.0208L77.571 16.1422L79.6924 14.0208Z" fill="black"/>
<path fill-rule="evenodd" clip-rule="evenodd" d="M70.5 9.07108C74.4052 5.16584 80.7369 5.16584 84.6421 9.07108L83.2279 10.4853C80.1037 7.3611 75.0384 7.3611 71.9142 10.4853L70.5 9.07108Z" fill="black" fill-opacity="0.25"/>
<path d="M30.3008 15.6406C29.7188 15.6406 29.1914 15.5391 28.7188 15.3359C28.25 15.1289 27.8496 14.8359 27.5176 14.457C27.1895 14.0781 26.9355 13.6191 26.7559 13.0801C26.5801 12.541 26.4922 11.9375 26.4922 11.2695C26.4922 10.6055 26.582 10.0059 26.7617 9.4707C26.9414 8.93164 27.1973 8.47266 27.5293 8.09375C27.8613 7.71094 28.2617 7.41797 28.7305 7.21484C29.1992 7.00781 29.7227 6.9043 30.3008 6.9043C30.7617 6.9043 31.1895 6.97266 31.584 7.10938C31.9824 7.24219 32.3359 7.43164 32.6445 7.67773C32.9531 7.91992 33.207 8.21484 33.4062 8.5625C33.6094 8.90625 33.7441 9.28906 33.8105 9.71094H32.7441C32.6777 9.43359 32.5684 9.18359 32.416 8.96094C32.2676 8.73438 32.0859 8.54102 31.8711 8.38086C31.6602 8.2207 31.4199 8.09766 31.1504 8.01172C30.8848 7.92188 30.6016 7.87695 30.3008 7.87695C29.8867 7.87695 29.5117 7.95703 29.1758 8.11719C28.8398 8.27734 28.5527 8.50586 28.3145 8.80273C28.0801 9.09961 27.8984 9.45703 27.7695 9.875C27.6406 10.2891 27.5762 10.7539 27.5762 11.2695C27.5762 11.7891 27.6387 12.2578 27.7637 12.6758C27.8926 13.0938 28.0762 13.4512 28.3145 13.748C28.5527 14.041 28.8398 14.2676 29.1758 14.4277C29.5117 14.5879 29.8887 14.668 30.3066 14.668C30.6152 14.668 30.9023 14.6328 31.168 14.5625C31.4336 14.4883 31.6699 14.3809 31.877 14.2402C32.084 14.0996 32.2598 13.9297 32.4043 13.7305C32.5527 13.5273 32.666 13.2969 32.7441 13.0391H33.8105C33.6152 13.8789 33.2168 14.5234 32.6152 14.9727C32.0137 15.418 31.2422 15.6406 30.3008 15.6406ZM36.9422 14.6738C37.2 14.6738 37.4383 14.6348 37.657 14.5566C37.8758 14.4785 38.0633 14.3691 38.2195 14.2285C38.3797 14.0879 38.5047 13.9219 38.5945 13.7305C38.6844 13.5352 38.7293 13.3242 38.7293 13.0977V12.5879L37.077 12.6934C36.6004 12.7246 36.241 12.8262 35.9988 12.998C35.7566 13.166 35.6355 13.4023 35.6355 13.707C35.6355 13.8555 35.6648 13.9883 35.7234 14.1055C35.7859 14.2227 35.8738 14.3242 35.9871 14.4102C36.1043 14.4961 36.243 14.5625 36.4031 14.6094C36.5633 14.6523 36.743 14.6738 36.9422 14.6738ZM36.7254 15.5586C36.4051 15.5586 36.1141 15.5156 35.8523 15.4297C35.5906 15.3398 35.366 15.2148 35.1785 15.0547C34.991 14.8906 34.8465 14.6953 34.7449 14.4688C34.6434 14.2383 34.5926 13.9824 34.5926 13.7012C34.5926 13.1543 34.7937 12.7266 35.1961 12.418C35.5984 12.1094 36.1863 11.9316 36.9598 11.8848L38.7293 11.7793V11.252C38.7293 10.8574 38.6043 10.5566 38.3543 10.3496C38.1082 10.1387 37.7508 10.0332 37.282 10.0332C37.0984 10.0332 36.9285 10.0566 36.7723 10.1035C36.616 10.1465 36.4754 10.2109 36.3504 10.2969C36.2293 10.3789 36.1277 10.4805 36.0457 10.6016C35.9676 10.7227 35.9129 10.8574 35.8816 11.0059H34.9031C34.9109 10.7402 34.9773 10.4922 35.1023 10.2617C35.2273 10.0312 35.3973 9.83203 35.6121 9.66406C35.827 9.49609 36.077 9.36523 36.3621 9.27148C36.6512 9.17383 36.9617 9.125 37.2937 9.125C37.6687 9.125 38.0066 9.17383 38.3074 9.27148C38.6082 9.36523 38.866 9.50195 39.0809 9.68164C39.2957 9.85742 39.4598 10.0723 39.573 10.3262C39.6902 10.5762 39.7488 10.8555 39.7488 11.1641V15.5H38.782V14.4043H38.7586C38.6687 14.5801 38.5535 14.7402 38.4129 14.8848C38.2723 15.0254 38.1141 15.1465 37.9383 15.248C37.7625 15.3457 37.5711 15.4219 37.3641 15.4766C37.1609 15.5312 36.948 15.5586 36.7254 15.5586ZM41.0523 9.18359H42.0133V10.209H42.0367C42.0836 10.0449 42.1539 9.89648 42.2477 9.76367C42.3453 9.62695 42.4605 9.51172 42.5934 9.41797C42.7262 9.32422 42.8746 9.25195 43.0387 9.20117C43.2066 9.15039 43.3824 9.125 43.566 9.125C43.6285 9.125 43.6988 9.12891 43.777 9.13672C43.8551 9.14453 43.9156 9.1543 43.9586 9.16602V10.1738C43.9156 10.1543 43.8395 10.1387 43.7301 10.127C43.6207 10.1113 43.5211 10.1035 43.4312 10.1035C43.2242 10.1035 43.0367 10.1406 42.8687 10.2148C42.7047 10.2852 42.5621 10.3848 42.441 10.5137C42.3238 10.6426 42.232 10.7988 42.1656 10.9824C42.1031 11.166 42.0719 11.3691 42.0719 11.5918V15.5H41.0523V9.18359ZM44.8109 9.18359H45.7719V10.209H45.7953C45.8422 10.0449 45.9125 9.89648 46.0063 9.76367C46.1039 9.62695 46.2191 9.51172 46.352 9.41797C46.4848 9.32422 46.6332 9.25195 46.7973 9.20117C46.9652 9.15039 47.141 9.125 47.3246 9.125C47.3871 9.125 47.4574 9.12891 47.5355 9.13672C47.6137 9.14453 47.6742 9.1543 47.7172 9.16602V10.1738C47.6742 10.1543 47.598 10.1387 47.4887 10.127C47.3793 10.1113 47.2797 10.1035 47.1898 10.1035C46.9828 10.1035 46.7953 10.1406 46.6273 10.2148C46.4633 10.2852 46.3207 10.3848 46.1996 10.5137C46.0824 10.6426 45.9906 10.7988 45.9242 10.9824C45.8617 11.166 45.8305 11.3691 45.8305 11.5918V15.5H44.8109V9.18359ZM48.6281 9.18359H49.6477V15.5H48.6281V9.18359ZM49.1379 8.16406C49.048 8.16406 48.9641 8.14844 48.8859 8.11719C48.8078 8.08203 48.7395 8.03516 48.6809 7.97656C48.6223 7.91797 48.5754 7.84961 48.5402 7.77148C48.509 7.69336 48.4934 7.60938 48.4934 7.51953C48.4934 7.42969 48.509 7.3457 48.5402 7.26758C48.5754 7.18945 48.6223 7.12109 48.6809 7.0625C48.7395 7.00391 48.8078 6.95898 48.8859 6.92773C48.9641 6.89258 49.048 6.875 49.1379 6.875C49.2277 6.875 49.3117 6.89258 49.3898 6.92773C49.468 6.95898 49.5363 7.00391 49.5949 7.0625C49.6535 7.12109 49.6984 7.18945 49.7297 7.26758C49.7648 7.3457 49.7824 7.42969 49.7824 7.51953C49.7824 7.60938 49.7648 7.69336 49.7297 7.77148C49.6984 7.84961 49.6535 7.91797 49.5949 7.97656C49.5363 8.03516 49.468 8.08203 49.3898 8.11719C49.3117 8.14844 49.2277 8.16406 49.1379 8.16406ZM53.5586 10.0215C53.3125 10.0215 53.084 10.0645 52.873 10.1504C52.6621 10.2363 52.4785 10.3574 52.3223 10.5137C52.1699 10.6699 52.0449 10.8594 51.9473 11.082C51.8535 11.3008 51.7988 11.543 51.7832 11.8086H55.2578C55.25 11.5391 55.2031 11.2949 55.1172 11.0762C55.0352 10.8574 54.9199 10.6699 54.7715 10.5137C54.623 10.3574 54.4453 10.2363 54.2383 10.1504C54.0352 10.0645 53.8086 10.0215 53.5586 10.0215ZM56.2422 13.6953C56.1992 13.9648 56.1016 14.2148 55.9492 14.4453C55.7969 14.6719 55.6035 14.8691 55.3691 15.0371C55.1387 15.2012 54.873 15.3301 54.5723 15.4238C54.2754 15.5137 53.959 15.5586 53.623 15.5586C53.1777 15.5586 52.7773 15.4844 52.4219 15.3359C52.0664 15.1875 51.7617 14.9746 51.5078 14.6973C51.2578 14.4199 51.0645 14.084 50.9277 13.6895C50.7949 13.2949 50.7285 12.8535 50.7285 12.3652C50.7285 11.877 50.7949 11.4336 50.9277 11.0352C51.0645 10.6367 51.2559 10.2969 51.502 10.0156C51.752 9.73047 52.0527 9.51172 52.4043 9.35938C52.7559 9.20312 53.1465 9.125 53.5762 9.125C53.998 9.125 54.377 9.19727 54.7129 9.3418C55.0527 9.48633 55.3418 9.69336 55.5801 9.96289C55.8184 10.2285 56 10.5527 56.125 10.9355C56.2539 11.3184 56.3184 11.748 56.3184 12.2246V12.623H51.7832V12.6816C51.7832 12.9824 51.8262 13.2559 51.9121 13.502C52.002 13.7441 52.1289 13.9512 52.293 14.123C52.457 14.2949 52.6523 14.4277 52.8789 14.5215C53.1094 14.6152 53.3652 14.6621 53.6465 14.6621C53.8457 14.6621 54.0312 14.6406 54.2031 14.5977C54.375 14.5508 54.5293 14.4863 54.666 14.4043C54.8066 14.3184 54.9238 14.2168 55.0176 14.0996C55.1152 13.9785 55.1875 13.8438 55.2344 13.6953H56.2422ZM57.3406 9.18359H58.3016V10.209H58.325C58.3719 10.0449 58.4422 9.89648 58.5359 9.76367C58.6336 9.62695 58.7488 9.51172 58.8816 9.41797C59.0145 9.32422 59.1629 9.25195 59.327 9.20117C59.4949 9.15039 59.6707 9.125 59.8543 9.125C59.9168 9.125 59.9871 9.12891 60.0652 9.13672C60.1434 9.14453 60.2039 9.1543 60.2469 9.16602V10.1738C60.2039 10.1543 60.1277 10.1387 60.0184 10.127C59.909 10.1113 59.8094 10.1035 59.7195 10.1035C59.5125 10.1035 59.325 10.1406 59.157 10.2148C58.993 10.2852 58.8504 10.3848 58.7293 10.5137C58.6121 10.6426 58.5203 10.7988 58.4539 10.9824C58.3914 11.166 58.3602 11.3691 58.3602 11.5918V15.5H57.3406V9.18359Z" fill="black"/>
<path fill-rule="evenodd" clip-rule="evenodd" d="M20.5 6H21.5C22.0523 6 22.5 6.44772 22.5 7V15C22.5 15.5523 22.0523 16 21.5 16H20.5C19.9477 16 19.5 15.5523 19.5 15V7C19.5 6.44772 19.9477 6 20.5 6Z" fill="black" fill-opacity="0.25"/>
<path fill-rule="evenodd" clip-rule="evenodd" d="M17 8H16C15.4477 8 15 8.44772 15 9V15C15 15.5523 15.4477 16 16 16H17C17.5523 16 18 15.5523 18 15V9C18 8.44772 17.5523 8 17 8ZM11.5 10H12.5C13.0523 10 13.5 10.4477 13.5 11V15C13.5 15.5523 13.0523 16 12.5 16H11.5C10.9477 16 10.5 15.5523 10.5 15V11C10.5 10.4477 10.9477 10 11.5 10ZM7 11.5H8C8.55228 11.5 9 11.9477 9 12.5V15C9 15.5523 8.55228 16 8 16H7C6.44772 16 6 15.5523 6 15V12.5C6 11.9477 6.44772 11.5 7 11.5Z" fill="black"/>
<path d="M93 242H369C368.989 238.356 368.978 234.304 368.89 230.249V229.948H191.444L208.253 217.683L244.612 209.04L265.535 163.667L285.429 189.054L312.87 205.798L291.474 176.629V145.305L326.248 201.479L333.107 180.953L368.932 188.064C368.932 182.893 368.936 177.725 368.945 172.554L366.381 171.231L343.056 167.992L332.766 154.488L323.162 152.327L294.692 121.539L280.971 121L265.535 135.583L250.442 123.161L237.064 121.539L233.29 126.94L241.179 137.744L228.831 151.787L238.091 159.891L198.988 175.556L229.174 132.886L147.197 196.079L178.412 187.978L178.755 193.378L205.51 187.436L212.029 194.997L162.974 229.027L175.322 208.501L93 242Z" fill="url(#paint0_linear)" fill-opacity="0.2"/>
<path d="M121.549 63.6738C123.6 63.6738 125.224 64.3281 126.422 65.6367C127.626 66.9453 128.229 68.7194 128.229 70.959C128.229 73.1986 127.626 74.9727 126.422 76.2812C125.224 77.5833 123.6 78.2344 121.549 78.2344C119.492 78.2344 117.861 77.5833 116.656 76.2812C115.458 74.9727 114.859 73.1986 114.859 70.959C114.859 68.7194 115.458 66.9453 116.656 65.6367C117.861 64.3281 119.492 63.6738 121.549 63.6738ZM124.547 67.2188C123.805 66.2878 122.805 65.8223 121.549 65.8223C120.292 65.8223 119.293 66.2845 118.551 67.209C117.809 68.1335 117.438 69.3835 117.438 70.959C117.438 72.528 117.809 73.7747 118.551 74.6992C119.293 75.6237 120.292 76.0859 121.549 76.0859C122.805 76.0859 123.805 75.6237 124.547 74.6992C125.289 73.7747 125.66 72.528 125.66 70.959C125.66 69.39 125.289 68.1432 124.547 67.2188ZM134.928 78.2051C133.281 78.2051 132.018 77.681 131.139 76.6328C130.266 75.5846 129.83 74.0482 129.83 72.0234C129.83 70.1029 130.035 68.5469 130.445 67.3555C130.862 66.1576 131.48 65.2786 132.301 64.7188C133.128 64.1589 134.195 63.8561 135.504 63.8105L136.549 63.7812C137.135 63.7552 137.685 63.6966 138.199 63.6055C138.714 63.5143 139.068 63.4167 139.264 63.3125V65.2559C139.146 65.3665 138.844 65.474 138.355 65.5781C137.874 65.6758 137.32 65.7376 136.695 65.7637L135.689 65.793C135.019 65.8125 134.452 65.9069 133.99 66.0762C133.535 66.2389 133.154 66.4961 132.848 66.8477C132.548 67.1927 132.314 67.6094 132.145 68.0977C131.975 68.5794 131.845 69.1849 131.754 69.9141H131.832C132.158 69.2891 132.62 68.8138 133.219 68.4883C133.818 68.1562 134.527 67.9902 135.348 67.9902C136.747 67.9902 137.864 68.4395 138.697 69.3379C139.531 70.2298 139.947 71.4342 139.947 72.9512C139.947 74.5788 139.498 75.8613 138.6 76.7988C137.708 77.7363 136.484 78.2051 134.928 78.2051ZM134.898 76.2324C135.706 76.2324 136.334 75.9525 136.783 75.3926C137.232 74.8262 137.457 74.0286 137.457 73C137.457 72.0104 137.232 71.2454 136.783 70.7051C136.334 70.1582 135.706 69.8848 134.898 69.8848C134.085 69.8848 133.45 70.1582 132.994 70.7051C132.545 71.2454 132.32 72.0104 132.32 73C132.32 74.0352 132.545 74.8327 132.994 75.3926C133.443 75.9525 134.078 76.2324 134.898 76.2324ZM147.398 67.4727C148.714 67.4727 149.758 67.9512 150.533 68.9082C151.308 69.8652 151.695 71.1706 151.695 72.8242C151.695 74.4714 151.311 75.7734 150.543 76.7305C149.775 77.6875 148.74 78.166 147.438 78.166C146.695 78.166 146.041 78 145.475 77.668C144.908 77.3294 144.482 76.8672 144.195 76.2812H144.146V81.4082H141.715V67.6484H144.088V69.4355H144.137C144.436 68.8236 144.869 68.3451 145.436 68C146.002 67.6484 146.656 67.4727 147.398 67.4727ZM146.656 76.1738C147.444 76.1738 148.066 75.8743 148.521 75.2754C148.977 74.6699 149.205 73.8529 149.205 72.8242C149.205 71.8021 148.974 70.9883 148.512 70.3828C148.056 69.7773 147.438 69.4746 146.656 69.4746C145.901 69.4746 145.292 69.7806 144.83 70.3926C144.368 71.0046 144.133 71.8151 144.127 72.8242C144.133 73.8398 144.368 74.6536 144.83 75.2656C145.292 75.8711 145.901 76.1738 146.656 76.1738ZM157.252 76.3301C157.949 76.3301 158.535 76.125 159.01 75.7148C159.492 75.2982 159.732 74.7806 159.732 74.1621V73.3711L157.34 73.5176C156.754 73.5566 156.298 73.7031 155.973 73.957C155.654 74.2044 155.494 74.5332 155.494 74.9434C155.494 75.3665 155.654 75.7051 155.973 75.959C156.298 76.2064 156.725 76.3301 157.252 76.3301ZM156.52 78.166C155.51 78.166 154.68 77.8763 154.029 77.2969C153.385 76.7174 153.062 75.9655 153.062 75.041C153.062 74.123 153.401 73.3971 154.078 72.8633C154.762 72.3294 155.735 72.0234 156.998 71.9453L159.732 71.7891V71.0469C159.732 70.5065 159.56 70.0866 159.215 69.7871C158.876 69.4876 158.404 69.3379 157.799 69.3379C157.232 69.3379 156.77 69.4648 156.412 69.7188C156.054 69.9727 155.836 70.3177 155.758 70.7539H153.502C153.554 69.7708 153.974 68.9733 154.762 68.3613C155.556 67.7428 156.601 67.4336 157.896 67.4336C159.179 67.4336 160.204 67.7461 160.973 68.3711C161.747 68.9961 162.135 69.8294 162.135 70.8711V78H159.791V76.3496H159.742C159.449 76.903 159.007 77.3457 158.414 77.6777C157.822 78.0033 157.19 78.166 156.52 78.166ZM172.232 67.6484V69.5234H169.049V78H166.637V69.5234H163.453V67.6484H172.232ZM180.533 78V73.6055H176.158V78H173.736V67.6484H176.158V71.7305H180.533V67.6484H182.955V78H180.533ZM188.932 76.3301C189.628 76.3301 190.214 76.125 190.689 75.7148C191.171 75.2982 191.412 74.7806 191.412 74.1621V73.3711L189.02 73.5176C188.434 73.5566 187.978 73.7031 187.652 73.957C187.333 74.2044 187.174 74.5332 187.174 74.9434C187.174 75.3665 187.333 75.7051 187.652 75.959C187.978 76.2064 188.404 76.3301 188.932 76.3301ZM188.199 78.166C187.19 78.166 186.36 77.8763 185.709 77.2969C185.064 76.7174 184.742 75.9655 184.742 75.041C184.742 74.123 185.081 73.3971 185.758 72.8633C186.441 72.3294 187.415 72.0234 188.678 71.9453L191.412 71.7891V71.0469C191.412 70.5065 191.24 70.0866 190.895 69.7871C190.556 69.4876 190.084 69.3379 189.479 69.3379C188.912 69.3379 188.45 69.4648 188.092 69.7188C187.734 69.9727 187.516 70.3177 187.438 70.7539H185.182C185.234 69.7708 185.654 68.9733 186.441 68.3613C187.236 67.7428 188.281 67.4336 189.576 67.4336C190.859 67.4336 191.884 67.7461 192.652 68.3711C193.427 68.9961 193.814 69.8294 193.814 70.8711V78H191.471V76.3496H191.422C191.129 76.903 190.686 77.3457 190.094 77.6777C189.501 78.0033 188.87 78.166 188.199 78.166ZM200.035 72.7559H201.832V69.5039H200.035C199.475 69.5039 199.029 69.6536 198.697 69.9531C198.372 70.2526 198.209 70.6595 198.209 71.1738C198.209 71.6361 198.375 72.0169 198.707 72.3164C199.039 72.6094 199.482 72.7559 200.035 72.7559ZM201.832 78V74.5332H200.445L198.033 78H195.318L198.102 74.1523C197.379 73.931 196.812 73.5632 196.402 73.0488C195.999 72.528 195.797 71.9062 195.797 71.1836C195.797 70.0964 196.161 69.237 196.891 68.6055C197.626 67.9674 198.613 67.6484 199.85 67.6484H204.215V78H201.832ZM219.449 71.0566H217.145C217.008 70.5684 216.751 70.1712 216.373 69.8652C215.995 69.5592 215.517 69.4062 214.938 69.4062C214.169 69.4062 213.557 69.7155 213.102 70.334C212.652 70.946 212.428 71.776 212.428 72.8242C212.428 73.8854 212.652 74.722 213.102 75.334C213.557 75.9395 214.173 76.2422 214.947 76.2422C215.527 76.2422 216.005 76.099 216.383 75.8125C216.767 75.526 217.027 75.1224 217.164 74.6016H219.469C219.319 75.6953 218.837 76.571 218.023 77.2285C217.216 77.8796 216.184 78.2051 214.928 78.2051C213.411 78.2051 212.206 77.7233 211.314 76.7598C210.423 75.7962 209.977 74.4844 209.977 72.8242C209.977 71.1836 210.423 69.875 211.314 68.8984C212.206 67.9219 213.404 67.4336 214.908 67.4336C216.171 67.4336 217.206 67.7754 218.014 68.459C218.821 69.1426 219.299 70.0085 219.449 71.0566ZM225.445 69.2988H223.482V71.877H225.26C226.406 71.877 226.979 71.4408 226.979 70.5684C226.979 70.1647 226.845 69.8522 226.578 69.6309C226.318 69.4095 225.94 69.2988 225.445 69.2988ZM225.406 73.4199H223.482V76.3496H225.602C226.181 76.3496 226.624 76.2259 226.93 75.9785C227.236 75.7246 227.389 75.36 227.389 74.8848C227.389 73.9082 226.728 73.4199 225.406 73.4199ZM221.1 78V67.6484H226.012C227.053 67.6484 227.87 67.8828 228.463 68.3516C229.055 68.8138 229.352 69.4551 229.352 70.2754C229.352 70.8158 229.176 71.3008 228.824 71.7305C228.479 72.1536 228.049 72.4108 227.535 72.502V72.5801C228.219 72.6712 228.769 72.9382 229.186 73.3809C229.602 73.8236 229.811 74.3672 229.811 75.0117C229.811 75.9297 229.475 76.6589 228.805 77.1992C228.141 77.7331 227.236 78 226.09 78H221.1ZM235.602 72.7559H237.398V69.5039H235.602C235.042 69.5039 234.596 69.6536 234.264 69.9531C233.938 70.2526 233.775 70.6595 233.775 71.1738C233.775 71.6361 233.941 72.0169 234.273 72.3164C234.605 72.6094 235.048 72.7559 235.602 72.7559ZM237.398 78V74.5332H236.012L233.6 78H230.885L233.668 74.1523C232.945 73.931 232.379 73.5632 231.969 73.0488C231.565 72.528 231.363 71.9062 231.363 71.1836C231.363 70.0964 231.728 69.237 232.457 68.6055C233.193 67.9674 234.179 67.6484 235.416 67.6484H239.781V78H237.398ZM245.895 78.2051C244.618 78.2051 243.58 77.9121 242.779 77.3262C241.985 76.7402 241.539 75.9395 241.441 74.9238H243.805C243.909 75.3665 244.14 75.7051 244.498 75.9395C244.863 76.1738 245.328 76.291 245.895 76.291C246.507 76.291 246.985 76.1641 247.33 75.9102C247.675 75.6497 247.848 75.3047 247.848 74.875C247.848 73.9635 247.197 73.5078 245.895 73.5078H244.42V71.8281H245.846C246.965 71.8281 247.525 71.4115 247.525 70.5781C247.525 70.194 247.385 69.888 247.105 69.6602C246.826 69.4323 246.412 69.3184 245.865 69.3184C245.331 69.3184 244.895 69.4323 244.557 69.6602C244.225 69.8815 244.026 70.1908 243.961 70.5879H241.656C241.76 69.6113 242.184 68.8431 242.926 68.2832C243.674 67.7168 244.654 67.4336 245.865 67.4336C247.154 67.4336 248.147 67.694 248.844 68.2148C249.547 68.7292 249.898 69.4355 249.898 70.334C249.898 70.8613 249.752 71.3236 249.459 71.7207C249.166 72.1178 248.772 72.3815 248.277 72.5117V72.5898C248.922 72.7461 249.413 73.026 249.752 73.4297C250.09 73.8333 250.26 74.3281 250.26 74.9141C250.26 75.9167 249.866 76.7174 249.078 77.3164C248.29 77.9089 247.229 78.2051 245.895 78.2051ZM256.168 72.5996H254.479V76.1348H256.168C256.734 76.1348 257.187 75.972 257.525 75.6465C257.864 75.321 258.033 74.8945 258.033 74.3672C258.033 73.8333 257.861 73.4069 257.516 73.0879C257.177 72.7624 256.728 72.5996 256.168 72.5996ZM252.057 78V67.6484H254.479V70.7539H256.48C257.691 70.7539 258.655 71.0827 259.371 71.7402C260.087 72.3913 260.445 73.2702 260.445 74.377C260.445 75.4837 260.087 76.3659 259.371 77.0234C258.655 77.6745 257.691 78 256.48 78H252.057Z" fill="#1B3259"/>
<g filter="url(#filter0_d)">
<circle cx="40" cy="71" r="20" fill="white"/>
</g>
<path fill-rule="evenodd" clip-rule="evenodd" d="M43 79.75C43.192 79.75 43.384 79.677 43.5305 79.5305C43.823 79.2375 43.823 78.7625 43.5305 78.4695L36.0605 71L43.5305 63.5305C43.823 63.2375 43.823 62.7625 43.5305 62.4695C43.2375 62.177 42.7625 62.177 42.4695 62.4695L34.4695 70.4695C34.177 70.7625 34.177 71.2375 34.4695 71.5305L42.4695 79.5305C42.616 79.677 42.808 79.75 43 79.75Z" fill="#6DB247"/>
<path d="M26.7236 122.723C23.2456 122.723 21.0542 125.139 21.0542 129.007C21.0542 132.867 23.2124 135.299 26.7236 135.299C30.2183 135.299 32.3848 132.867 32.3848 129.007C32.3848 125.139 30.21 122.723 26.7236 122.723ZM26.7236 124.574C28.8486 124.574 30.2017 126.292 30.2017 129.007C30.2017 131.705 28.8569 133.448 26.7236 133.448C24.5654 133.448 23.2456 131.705 23.2456 129.007C23.2456 126.292 24.5986 124.574 26.7236 124.574ZM41.6816 125.927H34.0283V127.538H36.8257V135H38.8843V127.538H41.6816V125.927ZM49.4512 135H51.5098V125.927H43.6323V135H45.6909V127.538H49.4512V135ZM59.1465 125.778C57.9014 125.778 56.8472 126.4 56.3242 127.43H56.1831V125.927H54.1992V138.013H56.2578V133.622H56.3989C56.8638 134.585 57.8682 135.149 59.1714 135.149C61.4624 135.149 62.8901 133.348 62.8901 130.468C62.8901 127.562 61.4458 125.778 59.1465 125.778ZM58.499 133.439C57.0962 133.439 56.2246 132.302 56.2163 130.468C56.2246 128.633 57.1045 127.496 58.5073 127.496C59.9185 127.496 60.7734 128.608 60.7734 130.468C60.7734 132.327 59.9268 133.439 58.499 133.439ZM67.6216 135.149C68.8086 135.149 69.8047 134.635 70.311 133.755H70.4521V135H72.436V128.799C72.436 126.882 71.1245 125.753 68.792 125.753C66.6338 125.753 65.1313 126.766 64.9653 128.351H66.9077C67.0986 127.729 67.7461 127.388 68.6924 127.388C69.8047 127.388 70.4023 127.895 70.4023 128.799V129.58L68.0615 129.721C65.8535 129.845 64.6167 130.8 64.6167 132.427C64.6167 134.087 65.8701 135.149 67.6216 135.149ZM68.2275 133.564C67.3145 133.564 66.6587 133.107 66.6587 132.327C66.6587 131.572 67.1982 131.148 68.3521 131.074L70.4023 130.933V131.671C70.4023 132.75 69.4727 133.564 68.2275 133.564ZM79.4253 135C81.4424 135 82.6709 133.962 82.6709 132.41C82.6709 131.306 81.8823 130.476 80.687 130.343V130.202C81.6084 130.044 82.2642 129.206 82.2642 128.251C82.2642 126.849 81.1934 125.927 79.3672 125.927H75.0757V135H79.4253ZM77.1094 127.355H78.894C79.8071 127.355 80.2471 127.82 80.2471 128.517C80.2471 129.281 79.749 129.696 78.728 129.696H77.1094V127.355ZM77.1094 131.082H78.8774C80.0063 131.082 80.5874 131.497 80.5874 132.319C80.5874 133.107 80.0645 133.572 79.0684 133.572H77.1094V131.082ZM87.0039 135L90.8721 128.891H91.0132V135H93.0469V125.927H91.0132L87.145 132.003H87.0039V125.927H84.9702V135H87.0039ZM102.659 125.927H95.0059V127.538H97.8032V135H99.8618V127.538H102.659V125.927ZM104.61 135H108.47C110.586 135 111.939 133.771 111.939 131.837C111.939 129.903 110.586 128.667 108.47 128.667H106.668V125.927H104.61V135ZM108.221 130.26C109.233 130.26 109.889 130.883 109.889 131.829C109.889 132.767 109.242 133.398 108.221 133.398H106.668V130.26H108.221ZM126.458 128.957C126.242 127.081 124.831 125.753 122.498 125.753C119.767 125.753 118.165 127.504 118.165 130.443C118.165 133.415 119.775 135.183 122.506 135.183C124.806 135.183 126.233 133.904 126.458 132.028H124.499C124.283 132.983 123.569 133.489 122.498 133.489C121.095 133.489 120.249 132.369 120.249 130.443C120.249 128.55 121.087 127.438 122.498 127.438C123.627 127.438 124.308 128.077 124.499 128.957H126.458ZM132.476 135.183C135.19 135.183 136.842 133.406 136.842 130.459C136.842 127.529 135.182 125.753 132.476 125.753C129.778 125.753 128.109 127.538 128.109 130.459C128.109 133.406 129.753 135.183 132.476 135.183ZM132.476 133.498C131.04 133.498 130.218 132.385 130.218 130.468C130.218 128.55 131.04 127.438 132.476 127.438C133.903 127.438 134.725 128.55 134.725 130.468C134.725 132.385 133.912 133.498 132.476 133.498ZM143.001 135.183C145.715 135.183 147.367 133.406 147.367 130.459C147.367 127.529 145.707 125.753 143.001 125.753C140.303 125.753 138.635 127.538 138.635 130.459C138.635 133.406 140.278 135.183 143.001 135.183ZM143.001 133.498C141.565 133.498 140.743 132.385 140.743 130.468C140.743 128.55 141.565 127.438 143.001 127.438C144.429 127.438 145.25 128.55 145.25 130.468C145.25 132.385 144.437 133.498 143.001 133.498ZM153.618 135.183C156.324 135.183 158 133.423 158 130.559C158 127.853 156.382 126.201 154.008 126.201C152.505 126.201 151.509 126.89 150.961 127.903H150.82C151.069 125.811 151.8 124.649 154.107 124.558L155.153 124.516C156.813 124.458 157.403 124.068 157.403 124.068V122.399C157.411 122.399 156.448 122.756 155.029 122.814L153.958 122.856C150.513 122.997 149.185 125.296 149.185 129.746C149.185 133.398 150.812 135.183 153.618 135.183ZM153.593 133.498C152.132 133.498 151.302 132.443 151.302 130.601C151.302 128.841 152.14 127.82 153.593 127.82C155.045 127.82 155.884 128.841 155.884 130.601C155.884 132.443 155.045 133.498 153.593 133.498ZM160.258 135H171.738V137.366H173.664V133.398H172.228V125.927H170.169V133.398H167.272V125.927H165.214V133.398H162.317V125.927H160.258V135ZM181.342 132.518C181.043 133.199 180.338 133.581 179.317 133.581C177.964 133.581 177.092 132.618 177.042 131.082V130.974H183.384V130.318C183.384 127.471 181.832 125.753 179.242 125.753C176.611 125.753 174.976 127.587 174.976 130.501C174.976 133.406 176.586 135.183 179.259 135.183C181.4 135.183 182.919 134.153 183.293 132.518H181.342ZM179.234 127.355C180.471 127.355 181.284 128.227 181.326 129.604H177.051C177.142 128.243 178.005 127.355 179.234 127.355ZM191.511 135H193.569V125.927H191.511V129.521H187.667V125.927H185.609V135H187.667V131.132H191.511V135ZM198.284 135L202.152 128.891H202.293V135H204.327V125.927H202.293L198.425 132.003H198.284V125.927H196.25V135H198.284ZM212.935 132.518C212.636 133.199 211.931 133.581 210.91 133.581C209.557 133.581 208.685 132.618 208.635 131.082V130.974H214.977V130.318C214.977 127.471 213.425 125.753 210.835 125.753C208.204 125.753 206.568 127.587 206.568 130.501C206.568 133.406 208.179 135.183 210.852 135.183C212.993 135.183 214.512 134.153 214.886 132.518H212.935ZM210.827 127.355C212.063 127.355 212.877 128.227 212.918 129.604H208.644C208.735 128.243 209.598 127.355 210.827 127.355Z" fill="#1B3259"/>
<path d="M22.8438 160.509H24.2314C25.7217 160.509 26.5693 161.199 26.5693 162.307C26.5693 163.373 25.667 164.139 24.2793 164.139C22.9121 164.139 21.9824 163.462 21.873 162.43H20.6836C20.7725 164.111 22.208 165.232 24.293 165.232C26.2822 165.232 27.834 163.968 27.834 162.341C27.834 160.926 26.9043 160.044 25.6465 159.914V159.805C26.7402 159.531 27.4854 158.615 27.4854 157.542C27.4854 156.004 26.1729 154.903 24.3203 154.903C22.3584 154.903 21.0801 155.956 20.957 157.665H22.1533C22.2559 156.619 23.0557 155.997 24.2725 155.997C25.5166 155.997 26.2344 156.66 26.2344 157.651C26.2344 158.684 25.4277 159.415 24.1768 159.415H22.8438V160.509ZM29.8574 166.948V165H35.6201V166.948H36.7275V164.016H35.5518V157.631H30.5273L30.2402 161.739C30.1719 162.73 29.9053 163.66 29.3652 164.016H28.75V166.948H29.8574ZM34.376 164.016H30.7393V163.906C31.0879 163.448 31.2793 162.662 31.3477 161.767L31.5801 158.615H34.376V164.016ZM43.1602 163.093C42.8525 163.742 42.21 164.091 41.2598 164.091C40.0088 164.091 39.1953 163.168 39.1338 161.712V161.657H44.4316V161.206C44.4316 158.916 43.2217 157.501 41.2324 157.501C39.209 157.501 37.9102 159.005 37.9102 161.322C37.9102 163.653 39.1885 165.13 41.2324 165.13C42.8457 165.13 43.9941 164.351 44.3359 163.093H43.1602ZM41.2188 158.54C42.3877 158.54 43.167 159.401 43.1943 160.707H39.1338C39.2227 159.401 40.043 158.54 41.2188 158.54ZM52.5117 159.887C52.3066 158.574 51.2129 157.501 49.4219 157.501C47.3574 157.501 46.0449 158.991 46.0449 161.288C46.0449 163.633 47.3643 165.13 49.4287 165.13C51.1992 165.13 52.2998 164.132 52.5117 162.778H51.3223C51.1035 163.612 50.4131 164.07 49.4219 164.07C48.1094 164.07 47.2617 162.99 47.2617 161.288C47.2617 159.62 48.0957 158.561 49.4219 158.561C50.4814 158.561 51.1309 159.155 51.3223 159.887H52.5117ZM54.3779 165H57.0098C58.6982 165 59.7783 164.029 59.7783 162.498C59.7783 160.967 58.6982 159.996 57.0098 159.996H55.5537V157.631H54.3779V165ZM57.0098 160.98C57.9736 160.98 58.6025 161.575 58.6025 162.498C58.6025 163.414 57.9805 164.016 57.0098 164.016H55.5537V160.98H57.0098ZM68.6992 165C70.2852 165 71.2217 164.166 71.2217 162.881C71.2217 162.02 70.627 161.363 69.6904 161.233V161.124C70.3809 160.98 70.8936 160.283 70.8936 159.552C70.8936 158.39 70.0801 157.631 68.6855 157.631H65.5615V165H68.6992ZM66.7373 158.615H68.5352C69.3623 158.615 69.7314 159.039 69.7314 159.675C69.7314 160.379 69.3008 160.748 68.3438 160.748H66.7373V158.615ZM66.7373 161.732H68.4463C69.5059 161.732 70.0527 162.081 70.0527 162.86C70.0527 163.605 69.5742 164.016 68.6719 164.016H66.7373V161.732ZM79.6777 165H80.8535V157.631H79.6777V165ZM73.2314 165H75.8633C77.5518 165 78.6318 164.029 78.6318 162.498C78.6318 160.967 77.5518 159.996 75.8633 159.996H74.4072V157.631H73.2314V165ZM75.8633 160.98C76.8271 160.98 77.4561 161.575 77.4561 162.498C77.4561 163.414 76.834 164.016 75.8633 164.016H74.4072V160.98H75.8633ZM88.3252 165V159.757H88.4551L90.7861 164.795H91.7021L94.0332 159.757H94.1631V165H95.3457V157.631H93.9717L91.3262 163.346H91.2168L88.5781 157.631H87.1494V165H88.3252ZM100.726 165.13C102.824 165.13 104.123 163.681 104.123 161.315C104.123 158.943 102.824 157.501 100.726 157.501C98.627 157.501 97.3281 158.943 97.3281 161.315C97.3281 163.681 98.627 165.13 100.726 165.13ZM100.726 164.07C99.3311 164.07 98.5449 163.059 98.5449 161.315C98.5449 159.565 99.3311 158.561 100.726 158.561C102.12 158.561 102.906 159.565 102.906 161.315C102.906 163.059 102.12 164.07 100.726 164.07ZM106.413 165L109.059 161.623H109.496V165H110.645V161.623H111.082L113.728 165H115.218L112.019 161.09L115.067 157.631H113.659L111.082 160.734H110.645V157.631H109.496V160.734H109.059L106.481 157.631H105.053L108.122 161.117L104.943 165H106.413ZM121.432 163.093C121.124 163.742 120.481 164.091 119.531 164.091C118.28 164.091 117.467 163.168 117.405 161.712V161.657H122.703V161.206C122.703 158.916 121.493 157.501 119.504 157.501C117.48 157.501 116.182 159.005 116.182 161.322C116.182 163.653 117.46 165.13 119.504 165.13C121.117 165.13 122.266 164.351 122.607 163.093H121.432ZM119.49 158.54C120.659 158.54 121.438 159.401 121.466 160.707H117.405C117.494 159.401 118.314 158.54 119.49 158.54ZM129.471 157.631H123.51V158.615H125.902V165H127.078V158.615H129.471V157.631ZM135.801 163.093C135.493 163.742 134.851 164.091 133.9 164.091C132.649 164.091 131.836 163.168 131.774 161.712V161.657H137.072V161.206C137.072 158.916 135.862 157.501 133.873 157.501C131.85 157.501 130.551 159.005 130.551 161.322C130.551 163.653 131.829 165.13 133.873 165.13C135.486 165.13 136.635 164.351 136.977 163.093H135.801ZM133.859 158.54C135.028 158.54 135.808 159.401 135.835 160.707H131.774C131.863 159.401 132.684 158.54 133.859 158.54ZM146.034 165.13C148.133 165.13 149.432 163.681 149.432 161.315C149.432 158.943 148.133 157.501 146.034 157.501C143.936 157.501 142.637 158.943 142.637 161.315C142.637 163.681 143.936 165.13 146.034 165.13ZM146.034 164.07C144.64 164.07 143.854 163.059 143.854 161.315C143.854 159.565 144.64 158.561 146.034 158.561C147.429 158.561 148.215 159.565 148.215 161.315C148.215 163.059 147.429 164.07 146.034 164.07ZM156.268 157.631H150.307V158.615H152.699V165H153.875V158.615H156.268V157.631ZM162.769 165H163.944V157.631H157.983V165H159.159V158.615H162.769V165ZM169.878 157.501C168.873 157.501 167.991 158.014 167.52 158.861H167.41V157.631H166.289V167.461H167.465V163.893H167.574C167.978 164.672 168.825 165.13 169.878 165.13C171.751 165.13 172.975 163.619 172.975 161.315C172.975 158.998 171.758 157.501 169.878 157.501ZM169.598 164.07C168.271 164.07 167.431 163.004 167.431 161.315C167.431 159.62 168.271 158.561 169.604 158.561C170.951 158.561 171.758 159.593 171.758 161.315C171.758 163.038 170.951 164.07 169.598 164.07ZM177.008 165.13C177.992 165.13 178.799 164.699 179.277 163.913H179.387V165H180.508V159.955C180.508 158.424 179.503 157.501 177.705 157.501C176.133 157.501 174.971 158.28 174.813 159.463H176.003C176.167 158.882 176.782 158.547 177.664 158.547C178.765 158.547 179.332 159.046 179.332 159.955V160.625L177.206 160.755C175.49 160.857 174.52 161.616 174.52 162.936C174.52 164.282 175.579 165.13 177.008 165.13ZM177.227 164.098C176.372 164.098 175.736 163.66 175.736 162.908C175.736 162.17 176.229 161.78 177.35 161.705L179.332 161.575V162.252C179.332 163.305 178.437 164.098 177.227 164.098ZM185.949 165C187.535 165 188.472 164.166 188.472 162.881C188.472 162.02 187.877 161.363 186.94 161.233V161.124C187.631 160.98 188.144 160.283 188.144 159.552C188.144 158.39 187.33 157.631 185.936 157.631H182.812V165H185.949ZM183.987 158.615H185.785C186.612 158.615 186.981 159.039 186.981 159.675C186.981 160.379 186.551 160.748 185.594 160.748H183.987V158.615ZM183.987 161.732H185.696C186.756 161.732 187.303 162.081 187.303 162.86C187.303 163.605 186.824 164.016 185.922 164.016H183.987V161.732ZM191.657 165L195.328 159.504H195.438V165H196.613V157.631H195.438L191.767 163.127H191.657V157.631H190.481V165H191.657ZM204.297 157.631H198.336V158.615H200.729V165H201.904V158.615H204.297V157.631ZM206.013 165H208.645C210.333 165 211.413 164.029 211.413 162.498C211.413 160.967 210.333 159.996 208.645 159.996H207.188V157.631H206.013V165ZM208.645 160.98C209.608 160.98 210.237 161.575 210.237 162.498C210.237 163.414 209.615 164.016 208.645 164.016H207.188V160.98H208.645ZM223.301 159.887C223.096 158.574 222.002 157.501 220.211 157.501C218.146 157.501 216.834 158.991 216.834 161.288C216.834 163.633 218.153 165.13 220.218 165.13C221.988 165.13 223.089 164.132 223.301 162.778H222.111C221.893 163.612 221.202 164.07 220.211 164.07C218.898 164.07 218.051 162.99 218.051 161.288C218.051 159.62 218.885 158.561 220.211 158.561C221.271 158.561 221.92 159.155 222.111 159.887H223.301ZM228.202 165.13C230.301 165.13 231.6 163.681 231.6 161.315C231.6 158.943 230.301 157.501 228.202 157.501C226.104 157.501 224.805 158.943 224.805 161.315C224.805 163.681 226.104 165.13 228.202 165.13ZM228.202 164.07C226.808 164.07 226.021 163.059 226.021 161.315C226.021 159.565 226.808 158.561 228.202 158.561C229.597 158.561 230.383 159.565 230.383 161.315C230.383 163.059 229.597 164.07 228.202 164.07ZM236.61 165.13C238.709 165.13 240.008 163.681 240.008 161.315C240.008 158.943 238.709 157.501 236.61 157.501C234.512 157.501 233.213 158.943 233.213 161.315C233.213 163.681 234.512 165.13 236.61 165.13ZM236.61 164.07C235.216 164.07 234.43 163.059 234.43 161.315C234.43 159.565 235.216 158.561 236.61 158.561C238.005 158.561 238.791 159.565 238.791 161.315C238.791 163.059 238.005 164.07 236.61 164.07ZM245.053 165.13C247.172 165.13 248.484 163.708 248.484 161.384C248.484 159.135 247.172 157.781 245.23 157.781C243.993 157.781 243.18 158.362 242.735 159.142H242.626C242.852 157.323 243.419 156.277 245.381 156.188L246.133 156.154C247.582 156.093 247.999 155.717 247.999 155.717V154.664C248.006 154.664 247.247 155.006 246.078 155.061L245.34 155.095C242.407 155.225 241.621 157.289 241.621 160.68C241.621 163.701 242.872 165.13 245.053 165.13ZM245.053 164.07C243.638 164.07 242.838 163.086 242.838 161.384C242.838 159.764 243.638 158.834 245.053 158.834C246.468 158.834 247.268 159.764 247.268 161.384C247.268 163.086 246.468 164.07 245.053 164.07ZM250.46 165H259.613V166.948H260.755V164.016H259.565V157.631H258.39V164.016H255.601V157.631H254.425V164.016H251.636V157.631H250.46V165ZM267.188 163.093C266.88 163.742 266.237 164.091 265.287 164.091C264.036 164.091 263.223 163.168 263.161 161.712V161.657H268.459V161.206C268.459 158.916 267.249 157.501 265.26 157.501C263.236 157.501 261.938 159.005 261.938 161.322C261.938 163.653 263.216 165.13 265.26 165.13C266.873 165.13 268.021 164.351 268.363 163.093H267.188ZM265.246 158.54C266.415 158.54 267.194 159.401 267.222 160.707H263.161C263.25 159.401 264.07 158.54 265.246 158.54ZM275.288 165H276.464V157.631H275.288V160.68H271.61V157.631H270.435V165H271.61V161.664H275.288V165ZM279.978 165L283.648 159.504H283.758V165H284.934V157.631H283.758L280.087 163.127H279.978V157.631H278.802V165H279.978ZM292.166 163.093C291.858 163.742 291.216 164.091 290.266 164.091C289.015 164.091 288.201 163.168 288.14 161.712V161.657H293.438V161.206C293.438 158.916 292.228 157.501 290.238 157.501C288.215 157.501 286.916 159.005 286.916 161.322C286.916 163.653 288.194 165.13 290.238 165.13C291.852 165.13 293 164.351 293.342 163.093H292.166ZM290.225 158.54C291.394 158.54 292.173 159.401 292.2 160.707H288.14C288.229 159.401 289.049 158.54 290.225 158.54ZM26.0225 186H27.1982V178.631H26.0225V181.68H22.3447V178.631H21.1689V186H22.3447V182.664H26.0225V186ZM31.5938 186.13C32.5781 186.13 33.3848 185.699 33.8633 184.913H33.9727V186H35.0938V180.955C35.0938 179.424 34.0889 178.501 32.291 178.501C30.7188 178.501 29.5566 179.28 29.3994 180.463H30.5889C30.7529 179.882 31.3682 179.547 32.25 179.547C33.3506 179.547 33.918 180.046 33.918 180.955V181.625L31.792 181.755C30.0762 181.857 29.1055 182.616 29.1055 183.936C29.1055 185.282 30.165 186.13 31.5938 186.13ZM31.8125 185.098C30.958 185.098 30.3223 184.66 30.3223 183.908C30.3223 183.17 30.8145 182.78 31.9355 182.705L33.918 182.575V183.252C33.918 184.305 33.0225 185.098 31.8125 185.098ZM37.3975 186H46.5029V178.631H45.3271V185.016H42.5381V178.631H41.3623V185.016H38.5732V178.631H37.3975V186ZM53.7285 184.093C53.4209 184.742 52.7783 185.091 51.8281 185.091C50.5771 185.091 49.7637 184.168 49.7021 182.712V182.657H55V182.206C55 179.916 53.79 178.501 51.8008 178.501C49.7773 178.501 48.4785 180.005 48.4785 182.322C48.4785 184.653 49.7568 186.13 51.8008 186.13C53.4141 186.13 54.5625 185.351 54.9043 184.093H53.7285ZM51.7871 179.54C52.9561 179.54 53.7354 180.401 53.7627 181.707H49.7021C49.791 180.401 50.6113 179.54 51.7871 179.54ZM58.1514 186V180.757H58.2812L60.6123 185.795H61.5283L63.8594 180.757H63.9893V186H65.1719V178.631H63.7979L61.1523 184.346H61.043L58.4043 178.631H56.9756V186H58.1514ZM68.1523 188.666C69.458 188.666 70.0459 188.16 70.6748 186.451L73.5527 178.631H72.3018L70.2852 184.694H70.1758L68.1523 178.631H66.8809L69.6084 186.007L69.4717 186.444C69.1641 187.333 68.7949 187.654 68.1182 187.654C67.9541 187.654 67.7695 187.647 67.626 187.62V188.625C67.79 188.652 67.9951 188.666 68.1523 188.666ZM81.2637 186.13C82.248 186.13 83.0547 185.699 83.5332 184.913H83.6426V186H84.7637V180.955C84.7637 179.424 83.7588 178.501 81.9609 178.501C80.3887 178.501 79.2266 179.28 79.0693 180.463H80.2588C80.4229 179.882 81.0381 179.547 81.9199 179.547C83.0205 179.547 83.5879 180.046 83.5879 180.955V181.625L81.4619 181.755C79.7461 181.857 78.7754 182.616 78.7754 183.936C78.7754 185.282 79.835 186.13 81.2637 186.13ZM81.4824 185.098C80.6279 185.098 79.9922 184.66 79.9922 183.908C79.9922 183.17 80.4844 182.78 81.6055 182.705L83.5879 182.575V183.252C83.5879 184.305 82.6924 185.098 81.4824 185.098ZM87.2383 187.948V186H93.001V187.948H94.1084V185.016H92.9326V178.631H87.9082L87.6211 182.739C87.5527 183.73 87.2861 184.66 86.7461 185.016H86.1309V187.948H87.2383ZM91.7568 185.016H88.1201V184.906C88.4688 184.448 88.6602 183.662 88.7285 182.767L88.9609 179.615H91.7568V185.016ZM96.8291 186V180.757H96.959L99.29 185.795H100.206L102.537 180.757H102.667V186H103.85V178.631H102.476L99.8301 184.346H99.7207L97.082 178.631H95.6533V186H96.8291ZM107.37 186L111.041 180.504H111.15V186H112.326V178.631H111.15L107.479 184.127H107.37V178.631H106.194V186H107.37ZM119.524 186H120.7V178.631H119.524V181.68H115.847V178.631H114.671V186H115.847V182.664H119.524V186ZM124.214 186L127.885 180.504H127.994V186H129.17V178.631H127.994L124.323 184.127H124.214V178.631H123.038V186H124.214ZM137.619 180.887C137.414 179.574 136.32 178.501 134.529 178.501C132.465 178.501 131.152 179.991 131.152 182.288C131.152 184.633 132.472 186.13 134.536 186.13C136.307 186.13 137.407 185.132 137.619 183.778H136.43C136.211 184.612 135.521 185.07 134.529 185.07C133.217 185.07 132.369 183.99 132.369 182.288C132.369 180.62 133.203 179.561 134.529 179.561C135.589 179.561 136.238 180.155 136.43 180.887H137.619ZM144.482 178.631H138.521V179.615H140.914V186H142.09V179.615H144.482V178.631ZM149.794 178.501C148.789 178.501 147.907 179.014 147.436 179.861H147.326V178.631H146.205V188.461H147.381V184.893H147.49C147.894 185.672 148.741 186.13 149.794 186.13C151.667 186.13 152.891 184.619 152.891 182.315C152.891 179.998 151.674 178.501 149.794 178.501ZM149.514 185.07C148.188 185.07 147.347 184.004 147.347 182.315C147.347 180.62 148.188 179.561 149.521 179.561C150.867 179.561 151.674 180.593 151.674 182.315C151.674 184.038 150.867 185.07 149.514 185.07ZM156.924 186.13C157.908 186.13 158.715 185.699 159.193 184.913H159.303V186H160.424V180.955C160.424 179.424 159.419 178.501 157.621 178.501C156.049 178.501 154.887 179.28 154.729 180.463H155.919C156.083 179.882 156.698 179.547 157.58 179.547C158.681 179.547 159.248 180.046 159.248 180.955V181.625L157.122 181.755C155.406 181.857 154.436 182.616 154.436 183.936C154.436 185.282 155.495 186.13 156.924 186.13ZM157.143 185.098C156.288 185.098 155.652 184.66 155.652 183.908C155.652 183.17 156.145 182.78 157.266 182.705L159.248 182.575V183.252C159.248 184.305 158.353 185.098 157.143 185.098ZM168.066 178.631H162.105V179.615H164.498V186H165.674V179.615H168.066V178.631ZM172.544 186.13C174.643 186.13 175.941 184.681 175.941 182.315C175.941 179.943 174.643 178.501 172.544 178.501C170.445 178.501 169.146 179.943 169.146 182.315C169.146 184.681 170.445 186.13 172.544 186.13ZM172.544 185.07C171.149 185.07 170.363 184.059 170.363 182.315C170.363 180.565 171.149 179.561 172.544 179.561C173.938 179.561 174.725 180.565 174.725 182.315C174.725 184.059 173.938 185.07 172.544 185.07ZM181.513 178.501C180.508 178.501 179.626 179.014 179.154 179.861H179.045V178.631H177.924V188.461H179.1V184.893H179.209C179.612 185.672 180.46 186.13 181.513 186.13C183.386 186.13 184.609 184.619 184.609 182.315C184.609 179.998 183.393 178.501 181.513 178.501ZM181.232 185.07C179.906 185.07 179.065 184.004 179.065 182.315C179.065 180.62 179.906 179.561 181.239 179.561C182.586 179.561 183.393 180.593 183.393 182.315C183.393 184.038 182.586 185.07 181.232 185.07ZM186.947 188.666C188.253 188.666 188.841 188.16 189.47 186.451L192.348 178.631H191.097L189.08 184.694H188.971L186.947 178.631H185.676L188.403 186.007L188.267 186.444C187.959 187.333 187.59 187.654 186.913 187.654C186.749 187.654 186.564 187.647 186.421 187.62V188.625C186.585 188.652 186.79 188.666 186.947 188.666Z" fill="#414348"/>
<g filter="url(#filter1_d)">
<rect x="15" y="222" width="345" height="462" rx="3" fill="white"/>
</g>
<g filter="url(#filter2_d)">
<rect y="606" width="375" height="61" rx="3" fill="white"/>
</g>
<g filter="url(#filter3_d)">
<circle cx="340.5" cy="636.5" r="14.5" fill="#6DB247"/>
</g>
<g clip-path="url(#clip1)">
<path d="M341.46 629.191L345.627 633.357C345.881 633.611 345.881 634.023 345.627 634.277C345.372 634.532 344.96 634.532 344.706 634.277L341.651 631.223L341.651 642.349C341.651 642.709 341.36 643 341 643C340.641 643 340.349 642.709 340.349 642.349L340.349 631.223L337.294 634.277C337.04 634.532 336.628 634.532 336.374 634.277C336.247 634.15 336.183 633.984 336.183 633.817C336.183 633.65 336.247 633.484 336.374 633.357L340.54 629.191C340.794 628.936 341.206 628.936 341.46 629.191Z" fill="white"/>
</g>
<rect x="66" y="616" width="240" height="41" rx="3" fill="#F7F8F7" fill-opacity="0.35"/>
<path d="M108.052 642V633.243H111.23V632.136H103.643V633.243H106.821V642H108.052ZM112.721 644.666C114.026 644.666 114.614 644.16 115.243 642.451L118.121 634.631H116.87L114.854 640.694H114.744L112.721 634.631H111.449L114.177 642.007L114.04 642.444C113.732 643.333 113.363 643.654 112.687 643.654C112.522 643.654 112.338 643.647 112.194 643.62V644.625C112.358 644.652 112.563 644.666 112.721 644.666ZM123.282 634.501C122.277 634.501 121.396 635.014 120.924 635.861H120.814V634.631H119.693V644.461H120.869V640.893H120.979C121.382 641.672 122.229 642.13 123.282 642.13C125.155 642.13 126.379 640.619 126.379 638.315C126.379 635.998 125.162 634.501 123.282 634.501ZM123.002 641.07C121.676 641.07 120.835 640.004 120.835 638.315C120.835 636.62 121.676 635.561 123.009 635.561C124.355 635.561 125.162 636.593 125.162 638.315C125.162 640.038 124.355 641.07 123.002 641.07ZM133.105 640.093C132.798 640.742 132.155 641.091 131.205 641.091C129.954 641.091 129.141 640.168 129.079 638.712V638.657H134.377V638.206C134.377 635.916 133.167 634.501 131.178 634.501C129.154 634.501 127.855 636.005 127.855 638.322C127.855 640.653 129.134 642.13 131.178 642.13C132.791 642.13 133.939 641.351 134.281 640.093H133.105ZM131.164 635.54C132.333 635.54 133.112 636.401 133.14 637.707H129.079C129.168 636.401 129.988 635.54 131.164 635.54ZM140.803 644.666C142.108 644.666 142.696 644.16 143.325 642.451L146.203 634.631H144.952L142.936 640.694H142.826L140.803 634.631H139.531L142.259 642.007L142.122 642.444C141.814 643.333 141.445 643.654 140.769 643.654C140.604 643.654 140.42 643.647 140.276 643.62V644.625C140.44 644.652 140.646 644.666 140.803 644.666ZM150.53 642.13C152.629 642.13 153.928 640.681 153.928 638.315C153.928 635.943 152.629 634.501 150.53 634.501C148.432 634.501 147.133 635.943 147.133 638.315C147.133 640.681 148.432 642.13 150.53 642.13ZM150.53 641.07C149.136 641.07 148.35 640.059 148.35 638.315C148.35 636.565 149.136 635.561 150.53 635.561C151.925 635.561 152.711 636.565 152.711 638.315C152.711 640.059 151.925 641.07 150.53 641.07ZM161.734 634.631H160.559V638.992C160.559 640.284 159.848 641.057 158.549 641.057C157.373 641.057 156.881 640.441 156.881 639.115V634.631H155.705V639.402C155.705 641.146 156.566 642.13 158.221 642.13C159.349 642.13 160.135 641.665 160.504 640.845H160.613V642H161.734V634.631ZM163.949 642H165.125V637.434C165.125 636.395 165.938 635.643 167.06 635.643C167.292 635.643 167.716 635.684 167.812 635.711V634.535C167.661 634.515 167.415 634.501 167.224 634.501C166.246 634.501 165.398 635.007 165.18 635.725H165.07V634.631H163.949V642ZM173.232 642H174.408V637.434C174.408 636.395 175.153 635.561 176.117 635.561C177.047 635.561 177.655 636.121 177.655 636.996V642H178.831V637.263C178.831 636.326 179.515 635.561 180.54 635.561C181.579 635.561 182.092 636.094 182.092 637.181V642H183.268V636.907C183.268 635.362 182.427 634.501 180.923 634.501C179.904 634.501 179.063 635.014 178.667 635.793H178.558C178.216 635.027 177.519 634.501 176.521 634.501C175.536 634.501 174.798 634.973 174.463 635.793H174.354V634.631H173.232V642ZM190.295 640.093C189.987 640.742 189.345 641.091 188.395 641.091C187.144 641.091 186.33 640.168 186.269 638.712V638.657H191.566V638.206C191.566 635.916 190.356 634.501 188.367 634.501C186.344 634.501 185.045 636.005 185.045 638.322C185.045 640.653 186.323 642.13 188.367 642.13C189.98 642.13 191.129 641.351 191.471 640.093H190.295ZM188.354 635.54C189.522 635.54 190.302 636.401 190.329 637.707H186.269C186.357 636.401 187.178 635.54 188.354 635.54ZM193.241 636.647C193.241 637.714 193.87 638.309 195.251 638.644L196.516 638.951C197.302 639.143 197.685 639.484 197.685 639.99C197.685 640.667 196.974 641.139 195.982 641.139C195.039 641.139 194.451 640.742 194.253 640.12H193.043C193.173 641.344 194.301 642.13 195.941 642.13C197.616 642.13 198.895 641.221 198.895 639.901C198.895 638.842 198.225 638.24 196.837 637.905L195.702 637.632C194.834 637.42 194.424 637.105 194.424 636.6C194.424 635.943 195.107 635.499 195.982 635.499C196.871 635.499 197.445 635.889 197.603 636.477H198.765C198.607 635.267 197.534 634.501 195.989 634.501C194.424 634.501 193.241 635.424 193.241 636.647ZM200.433 636.647C200.433 637.714 201.062 638.309 202.442 638.644L203.707 638.951C204.493 639.143 204.876 639.484 204.876 639.99C204.876 640.667 204.165 641.139 203.174 641.139C202.23 641.139 201.643 640.742 201.444 640.12H200.234C200.364 641.344 201.492 642.13 203.133 642.13C204.808 642.13 206.086 641.221 206.086 639.901C206.086 638.842 205.416 638.24 204.028 637.905L202.894 637.632C202.025 637.42 201.615 637.105 201.615 636.6C201.615 635.943 202.299 635.499 203.174 635.499C204.062 635.499 204.637 635.889 204.794 636.477H205.956C205.799 635.267 204.726 634.501 203.181 634.501C201.615 634.501 200.433 635.424 200.433 636.647ZM209.982 642.13C210.967 642.13 211.773 641.699 212.252 640.913H212.361V642H213.482V636.955C213.482 635.424 212.478 634.501 210.68 634.501C209.107 634.501 207.945 635.28 207.788 636.463H208.978C209.142 635.882 209.757 635.547 210.639 635.547C211.739 635.547 212.307 636.046 212.307 636.955V637.625L210.181 637.755C208.465 637.857 207.494 638.616 207.494 639.936C207.494 641.282 208.554 642.13 209.982 642.13ZM210.201 641.098C209.347 641.098 208.711 640.66 208.711 639.908C208.711 639.17 209.203 638.78 210.324 638.705L212.307 638.575V639.252C212.307 640.305 211.411 641.098 210.201 641.098ZM218.691 644.83C220.701 644.83 221.973 643.777 221.973 642.13V634.631H220.852V635.8H220.742C220.318 635.007 219.409 634.501 218.377 634.501C216.483 634.501 215.287 635.998 215.287 638.206C215.287 640.414 216.47 641.891 218.377 641.891C219.389 641.891 220.223 641.433 220.688 640.619H220.797V642.068C220.797 643.155 220.011 643.805 218.691 643.805C217.632 643.805 216.976 643.415 216.846 642.813H215.602C215.779 644.03 216.914 644.83 218.691 644.83ZM218.637 640.852C217.27 640.852 216.504 639.812 216.504 638.206C216.504 636.6 217.27 635.561 218.637 635.561C219.997 635.561 220.824 636.6 220.824 638.206C220.824 639.812 220.004 640.852 218.637 640.852ZM229.068 640.093C228.761 640.742 228.118 641.091 227.168 641.091C225.917 641.091 225.104 640.168 225.042 638.712V638.657H230.34V638.206C230.34 635.916 229.13 634.501 227.141 634.501C225.117 634.501 223.818 636.005 223.818 638.322C223.818 640.653 225.097 642.13 227.141 642.13C228.754 642.13 229.902 641.351 230.244 640.093H229.068ZM227.127 635.54C228.296 635.54 229.075 636.401 229.103 637.707H225.042C225.131 636.401 225.951 635.54 227.127 635.54Z" fill="#A5A5A7"/>
<g clip-path="url(#clip2)">
<path d="M36.694 623.302C37.8888 623.091 39.0941 623.358 40.0879 624.054C42.1394 625.49 42.6397 628.328 41.2033 630.38L32.9369 642.185C31.9616 643.578 30.0347 643.918 28.6418 642.943C27.2488 641.967 26.9091 640.04 27.8845 638.647L33.9648 629.964C34.2064 629.619 34.682 629.535 35.0271 629.776C35.3721 630.018 35.456 630.494 35.2144 630.839L29.134 639.522C28.6411 640.226 28.8128 641.2 29.5167 641.693C29.8578 641.932 30.2714 642.024 30.6813 641.951C31.0913 641.879 31.4486 641.651 31.6874 641.31L39.9537 629.505C40.9078 628.142 40.5754 626.257 39.2129 625.303C38.5529 624.841 37.7524 624.664 36.9589 624.804C36.1654 624.944 35.4738 625.384 35.0117 626.044L26.5513 638.127C25.8658 639.106 25.6025 640.293 25.8101 641.47C26.0176 642.647 26.6711 643.673 27.6501 644.359C29.6712 645.774 32.4668 645.281 33.8819 643.26L40.1564 634.299C40.3979 633.954 40.8735 633.87 41.2186 634.112C41.5636 634.353 41.6475 634.829 41.4059 635.174L35.1315 644.135C33.2339 646.845 29.4853 647.506 26.7752 645.608C25.4624 644.689 24.5861 643.314 24.3078 641.735C24.0295 640.157 24.3825 638.565 25.3018 637.252L33.7621 625.169C34.458 624.175 35.4992 623.512 36.694 623.302Z" fill="#1B3259"/>
</g>
<path d="M44.2012 367V357.136H42.9707V361.401H37.5566V357.136H36.3262V367H37.5566V362.509H42.9707V367H44.2012ZM48.7539 367.13C49.7383 367.13 50.5449 366.699 51.0234 365.913H51.1328V367H52.2539V361.955C52.2539 360.424 51.249 359.501 49.4512 359.501C47.8789 359.501 46.7168 360.28 46.5596 361.463H47.749C47.9131 360.882 48.5283 360.547 49.4102 360.547C50.5107 360.547 51.0781 361.046 51.0781 361.955V362.625L48.9521 362.755C47.2363 362.857 46.2656 363.616 46.2656 364.936C46.2656 366.282 47.3252 367.13 48.7539 367.13ZM48.9727 366.098C48.1182 366.098 47.4824 365.66 47.4824 364.908C47.4824 364.17 47.9746 363.78 49.0957 363.705L51.0781 363.575V364.252C51.0781 365.305 50.1826 366.098 48.9727 366.098ZM59.3428 367H60.5186V359.631H54.5576V367H55.7334V360.615H59.3428V367ZM64.0322 367L67.7031 361.504H67.8125V367H68.9883V359.631H67.8125L64.1416 365.127H64.0322V359.631H62.8564V367H64.0322ZM77.4375 361.887C77.2324 360.574 76.1387 359.501 74.3477 359.501C72.2832 359.501 70.9707 360.991 70.9707 363.288C70.9707 365.633 72.29 367.13 74.3545 367.13C76.125 367.13 77.2256 366.132 77.4375 364.778H76.248C76.0293 365.612 75.3389 366.07 74.3477 366.07C73.0352 366.07 72.1875 364.99 72.1875 363.288C72.1875 361.62 73.0215 360.561 74.3477 360.561C75.4072 360.561 76.0566 361.155 76.248 361.887H77.4375ZM81.3613 367.13C82.3457 367.13 83.1523 366.699 83.6309 365.913H83.7402V367H84.8613V361.955C84.8613 360.424 83.8564 359.501 82.0586 359.501C80.4863 359.501 79.3242 360.28 79.167 361.463H80.3564C80.5205 360.882 81.1357 360.547 82.0176 360.547C83.1182 360.547 83.6855 361.046 83.6855 361.955V362.625L81.5596 362.755C79.8438 362.857 78.873 363.616 78.873 364.936C78.873 366.282 79.9326 367.13 81.3613 367.13ZM81.5801 366.098C80.7256 366.098 80.0898 365.66 80.0898 364.908C80.0898 364.17 80.582 363.78 81.7031 363.705L83.6855 363.575V364.252C83.6855 365.305 82.79 366.098 81.5801 366.098ZM92.5039 359.631H86.543V360.615H88.9355V367H90.1113V360.615H92.5039V359.631ZM94.2197 367H96.8516C98.54 367 99.6201 366.029 99.6201 364.498C99.6201 362.967 98.54 361.996 96.8516 361.996H95.3955V359.631H94.2197V367ZM96.8516 362.98C97.8154 362.98 98.4443 363.575 98.4443 364.498C98.4443 365.414 97.8223 366.016 96.8516 366.016H95.3955V362.98H96.8516ZM111.508 361.887C111.303 360.574 110.209 359.501 108.418 359.501C106.354 359.501 105.041 360.991 105.041 363.288C105.041 365.633 106.36 367.13 108.425 367.13C110.195 367.13 111.296 366.132 111.508 364.778H110.318C110.1 365.612 109.409 366.07 108.418 366.07C107.105 366.07 106.258 364.99 106.258 363.288C106.258 361.62 107.092 360.561 108.418 360.561C109.478 360.561 110.127 361.155 110.318 361.887H111.508ZM116.409 367.13C118.508 367.13 119.807 365.681 119.807 363.315C119.807 360.943 118.508 359.501 116.409 359.501C114.311 359.501 113.012 360.943 113.012 363.315C113.012 365.681 114.311 367.13 116.409 367.13ZM116.409 366.07C115.015 366.07 114.229 365.059 114.229 363.315C114.229 361.565 115.015 360.561 116.409 360.561C117.804 360.561 118.59 361.565 118.59 363.315C118.59 365.059 117.804 366.07 116.409 366.07ZM124.817 367.13C126.916 367.13 128.215 365.681 128.215 363.315C128.215 360.943 126.916 359.501 124.817 359.501C122.719 359.501 121.42 360.943 121.42 363.315C121.42 365.681 122.719 367.13 124.817 367.13ZM124.817 366.07C123.423 366.07 122.637 365.059 122.637 363.315C122.637 361.565 123.423 360.561 124.817 360.561C126.212 360.561 126.998 361.565 126.998 363.315C126.998 365.059 126.212 366.07 124.817 366.07ZM133.26 367.13C135.379 367.13 136.691 365.708 136.691 363.384C136.691 361.135 135.379 359.781 133.438 359.781C132.2 359.781 131.387 360.362 130.942 361.142H130.833C131.059 359.323 131.626 358.277 133.588 358.188L134.34 358.154C135.789 358.093 136.206 357.717 136.206 357.717V356.664C136.213 356.664 135.454 357.006 134.285 357.061L133.547 357.095C130.614 357.225 129.828 359.289 129.828 362.68C129.828 365.701 131.079 367.13 133.26 367.13ZM133.26 366.07C131.845 366.07 131.045 365.086 131.045 363.384C131.045 361.764 131.845 360.834 133.26 360.834C134.675 360.834 135.475 361.764 135.475 363.384C135.475 365.086 134.675 366.07 133.26 366.07ZM138.667 367H147.82V368.948H148.962V366.016H147.772V359.631H146.597V366.016H143.808V359.631H142.632V366.016H139.843V359.631H138.667V367ZM155.395 365.093C155.087 365.742 154.444 366.091 153.494 366.091C152.243 366.091 151.43 365.168 151.368 363.712V363.657H156.666V363.206C156.666 360.916 155.456 359.501 153.467 359.501C151.443 359.501 150.145 361.005 150.145 363.322C150.145 365.653 151.423 367.13 153.467 367.13C155.08 367.13 156.229 366.351 156.57 365.093H155.395ZM153.453 360.54C154.622 360.54 155.401 361.401 155.429 362.707H151.368C151.457 361.401 152.277 360.54 153.453 360.54ZM163.495 367H164.671V359.631H163.495V362.68H159.817V359.631H158.642V367H159.817V363.664H163.495V367ZM168.185 367L171.855 361.504H171.965V367H173.141V359.631H171.965L168.294 365.127H168.185V359.631H167.009V367H168.185ZM180.373 365.093C180.065 365.742 179.423 366.091 178.473 366.091C177.222 366.091 176.408 365.168 176.347 363.712V363.657H181.645V363.206C181.645 360.916 180.435 359.501 178.445 359.501C176.422 359.501 175.123 361.005 175.123 363.322C175.123 365.653 176.401 367.13 178.445 367.13C180.059 367.13 181.207 366.351 181.549 365.093H180.373ZM178.432 360.54C179.601 360.54 180.38 361.401 180.407 362.707H176.347C176.436 361.401 177.256 360.54 178.432 360.54ZM184.529 367.068C185.021 367.068 185.418 366.665 185.418 366.18C185.418 365.688 185.021 365.291 184.529 365.291C184.044 365.291 183.641 365.688 183.641 366.18C183.641 366.665 184.044 367.068 184.529 367.068ZM188.686 367.068C189.178 367.068 189.574 366.665 189.574 366.18C189.574 365.688 189.178 365.291 188.686 365.291C188.2 365.291 187.797 365.688 187.797 366.18C187.797 366.665 188.2 367.068 188.686 367.068ZM192.842 367.068C193.334 367.068 193.73 366.665 193.73 366.18C193.73 365.688 193.334 365.291 192.842 365.291C192.356 365.291 191.953 365.688 191.953 366.18C191.953 366.665 192.356 367.068 192.842 367.068Z" fill="#A5A5A7"/>
<path d="M40.8516 312V301.992H44.4844V300.727H35.8125V301.992H39.4453V312H40.8516ZM51.125 309.82C50.7734 310.562 50.0391 310.961 48.9531 310.961C47.5234 310.961 46.5938 309.906 46.5234 308.242V308.18H52.5781V307.664C52.5781 305.047 51.1953 303.43 48.9219 303.43C46.6094 303.43 45.125 305.148 45.125 307.797C45.125 310.461 46.5859 312.148 48.9219 312.148C50.7656 312.148 52.0781 311.258 52.4688 309.82H51.125ZM48.9062 304.617C50.2422 304.617 51.1328 305.602 51.1641 307.094H46.5234C46.625 305.602 47.5625 304.617 48.9062 304.617ZM56.1797 312V306.008H56.3281L58.9922 311.766H60.0391L62.7031 306.008H62.8516V312H64.2031V303.578H62.6328L59.6094 310.109H59.4844L56.4688 303.578H54.8359V312H56.1797ZM69.2344 312.148C70.3594 312.148 71.2812 311.656 71.8281 310.758H71.9531V312H73.2344V306.234C73.2344 304.484 72.0859 303.43 70.0312 303.43C68.2344 303.43 66.9062 304.32 66.7266 305.672H68.0859C68.2734 305.008 68.9766 304.625 69.9844 304.625C71.2422 304.625 71.8906 305.195 71.8906 306.234V307L69.4609 307.148C67.5 307.266 66.3906 308.133 66.3906 309.641C66.3906 311.18 67.6016 312.148 69.2344 312.148ZM69.4844 310.969C68.5078 310.969 67.7812 310.469 67.7812 309.609C67.7812 308.766 68.3438 308.32 69.625 308.234L71.8906 308.086V308.859C71.8906 310.062 70.8672 310.969 69.4844 310.969ZM76.9062 306.031C77.4688 306.031 77.9219 305.57 77.9219 305.016C77.9219 304.453 77.4688 304 76.9062 304C76.3516 304 75.8906 304.453 75.8906 305.016C75.8906 305.57 76.3516 306.031 76.9062 306.031ZM76.9062 312.078C77.4688 312.078 77.9219 311.617 77.9219 311.062C77.9219 310.5 77.4688 310.047 76.9062 310.047C76.3516 310.047 75.8906 310.5 75.8906 311.062C75.8906 311.617 76.3516 312.078 76.9062 312.078Z" fill="#5C6473"/>
<line x1="35" y1="333.5" x2="340" y2="333.5" stroke="#A5A5A7" stroke-opacity="0.45"/>
<path d="M41.25 244.461C38.0625 244.461 36.0781 246.734 36.0781 250.359C36.0781 253.969 38.0156 256.266 41.25 256.266C44.4688 256.266 46.4219 253.961 46.4219 250.359C46.4219 246.742 44.4531 244.461 41.25 244.461ZM41.25 245.758C43.5547 245.758 44.9766 247.539 44.9766 250.359C44.9766 253.156 43.5625 254.969 41.25 254.969C38.9062 254.969 37.5234 253.156 37.5234 250.359C37.5234 247.539 38.9531 245.758 41.25 245.758ZM54.9375 247.578H48.125V248.703H50.8594V256H52.2031V248.703H54.9375V247.578ZM57.9375 250.031C58.5 250.031 58.9531 249.57 58.9531 249.016C58.9531 248.453 58.5 248 57.9375 248C57.3828 248 56.9219 248.453 56.9219 249.016C56.9219 249.57 57.3828 250.031 57.9375 250.031ZM57.9375 256.078C58.5 256.078 58.9531 255.617 58.9531 255.062C58.9531 254.5 58.5 254.047 57.9375 254.047C57.3828 254.047 56.9219 254.5 56.9219 255.062C56.9219 255.617 57.3828 256.078 57.9375 256.078Z" fill="#5C6473"/>
<path d="M77.8438 253.82C77.4922 254.562 76.7578 254.961 75.6719 254.961C74.2422 254.961 73.3125 253.906 73.2422 252.242V252.18H79.2969V251.664C79.2969 249.047 77.9141 247.43 75.6406 247.43C73.3281 247.43 71.8438 249.148 71.8438 251.797C71.8438 254.461 73.3047 256.148 75.6406 256.148C77.4844 256.148 78.7969 255.258 79.1875 253.82H77.8438ZM75.625 248.617C76.9609 248.617 77.8516 249.602 77.8828 251.094H73.2422C73.3438 249.602 74.2812 248.617 75.625 248.617ZM84.0703 252.844L86.0625 256.023H87.6562L84.7578 251.758L87.6172 247.602H86.0938L84.1172 250.734H83.9922L81.9922 247.602H80.3906L83.3047 251.812L80.4219 256.023H81.9453L83.9453 252.844H84.0703ZM91.8281 256.148C92.9531 256.148 93.875 255.656 94.4219 254.758H94.5469V256H95.8281V250.234C95.8281 248.484 94.6797 247.43 92.625 247.43C90.8281 247.43 89.5 248.32 89.3203 249.672H90.6797C90.8672 249.008 91.5703 248.625 92.5781 248.625C93.8359 248.625 94.4844 249.195 94.4844 250.234V251L92.0547 251.148C90.0938 251.266 88.9844 252.133 88.9844 253.641C88.9844 255.18 90.1953 256.148 91.8281 256.148ZM92.0781 254.969C91.1016 254.969 90.375 254.469 90.375 253.609C90.375 252.766 90.9375 252.32 92.2188 252.234L94.4844 252.086V252.859C94.4844 254.062 93.4609 254.969 92.0781 254.969ZM98.3125 256H99.6562V250.781C99.6562 249.594 100.508 248.641 101.609 248.641C102.672 248.641 103.367 249.281 103.367 250.281V256H104.711V250.586C104.711 249.516 105.492 248.641 106.664 248.641C107.852 248.641 108.438 249.25 108.438 250.492V256H109.781V250.18C109.781 248.414 108.82 247.43 107.102 247.43C105.938 247.43 104.977 248.016 104.523 248.906H104.398C104.008 248.031 103.211 247.43 102.07 247.43C100.945 247.43 100.102 247.969 99.7188 248.906H99.5938V247.578H98.3125V256ZM116.336 247.43C115.188 247.43 114.18 248.016 113.641 248.984H113.516V247.578H112.234V258.812H113.578V254.734H113.703C114.164 255.625 115.133 256.148 116.336 256.148C118.477 256.148 119.875 254.422 119.875 251.789C119.875 249.141 118.484 247.43 116.336 247.43ZM116.016 254.938C114.5 254.938 113.539 253.719 113.539 251.789C113.539 249.852 114.5 248.641 116.023 248.641C117.562 248.641 118.484 249.82 118.484 251.789C118.484 253.758 117.562 254.938 116.016 254.938ZM122.062 256H123.406V244.234H122.062V256ZM131.594 253.82C131.242 254.562 130.508 254.961 129.422 254.961C127.992 254.961 127.062 253.906 126.992 252.242V252.18H133.047V251.664C133.047 249.047 131.664 247.43 129.391 247.43C127.078 247.43 125.594 249.148 125.594 251.797C125.594 254.461 127.055 256.148 129.391 256.148C131.234 256.148 132.547 255.258 132.938 253.82H131.594ZM129.375 248.617C130.711 248.617 131.602 249.602 131.633 251.094H126.992C127.094 249.602 128.031 248.617 129.375 248.617ZM141.461 244.789C137.633 244.789 135.008 247.438 135.008 251.305C135.008 255.297 137.562 257.828 141.594 257.828C142.578 257.828 143.523 257.688 144.227 257.445V256.461C143.734 256.688 142.68 256.836 141.609 256.836C138.266 256.836 136.109 254.688 136.109 251.352C136.109 248.102 138.305 245.773 141.359 245.773C144.484 245.773 146.625 247.703 146.625 250.523C146.625 252.445 145.992 253.688 145.008 253.688C144.445 253.688 144.125 253.367 144.125 252.82V248.234H142.945V249.188H142.82C142.516 248.508 141.812 248.086 140.992 248.086C139.391 248.086 138.273 249.414 138.273 251.312C138.273 253.297 139.367 254.633 140.992 254.633C141.906 254.633 142.609 254.188 142.945 253.391H143.07C143.164 254.156 143.875 254.703 144.789 254.703C146.586 254.703 147.727 253.086 147.727 250.539C147.727 247.148 145.156 244.789 141.461 244.789ZM141.188 249.164C142.25 249.164 142.93 250.008 142.93 251.344C142.93 252.68 142.242 253.531 141.172 253.531C140.148 253.531 139.523 252.703 139.523 251.344C139.523 249.977 140.141 249.164 141.188 249.164ZM153.312 259.234C155.609 259.234 157.062 258.031 157.062 256.148V247.578H155.781V248.914H155.656C155.172 248.008 154.133 247.43 152.953 247.43C150.789 247.43 149.422 249.141 149.422 251.664C149.422 254.188 150.773 255.875 152.953 255.875C154.109 255.875 155.062 255.352 155.594 254.422H155.719V256.078C155.719 257.32 154.82 258.062 153.312 258.062C152.102 258.062 151.352 257.617 151.203 256.93H149.781C149.984 258.32 151.281 259.234 153.312 259.234ZM153.25 254.688C151.688 254.688 150.812 253.5 150.812 251.664C150.812 249.828 151.688 248.641 153.25 248.641C154.805 248.641 155.75 249.828 155.75 251.664C155.75 253.5 154.812 254.688 153.25 254.688ZM159.594 256H160.938V250.781C160.938 249.594 161.789 248.641 162.891 248.641C163.953 248.641 164.648 249.281 164.648 250.281V256H165.992V250.586C165.992 249.516 166.773 248.641 167.945 248.641C169.133 248.641 169.719 249.25 169.719 250.492V256H171.062V250.18C171.062 248.414 170.102 247.43 168.383 247.43C167.219 247.43 166.258 248.016 165.805 248.906H165.68C165.289 248.031 164.492 247.43 163.352 247.43C162.227 247.43 161.383 247.969 161 248.906H160.875V247.578H159.594V256ZM175.859 256.148C176.984 256.148 177.906 255.656 178.453 254.758H178.578V256H179.859V250.234C179.859 248.484 178.711 247.43 176.656 247.43C174.859 247.43 173.531 248.32 173.352 249.672H174.711C174.898 249.008 175.602 248.625 176.609 248.625C177.867 248.625 178.516 249.195 178.516 250.234V251L176.086 251.148C174.125 251.266 173.016 252.133 173.016 253.641C173.016 255.18 174.227 256.148 175.859 256.148ZM176.109 254.969C175.133 254.969 174.406 254.469 174.406 253.609C174.406 252.766 174.969 252.32 176.25 252.234L178.516 252.086V252.859C178.516 254.062 177.492 254.969 176.109 254.969ZM183.047 245.953C183.562 245.953 183.984 245.531 183.984 245.016C183.984 244.5 183.562 244.078 183.047 244.078C182.531 244.078 182.109 244.5 182.109 245.016C182.109 245.531 182.531 245.953 183.047 245.953ZM182.375 256H183.719V247.578H182.375V256ZM186.359 256H187.703V244.234H186.359V256ZM191.422 256.078C191.984 256.078 192.438 255.617 192.438 255.062C192.438 254.5 191.984 254.047 191.422 254.047C190.867 254.047 190.406 254.5 190.406 255.062C190.406 255.617 190.867 256.078 191.422 256.078ZM201.719 250.156C201.484 248.656 200.234 247.43 198.188 247.43C195.828 247.43 194.328 249.133 194.328 251.758C194.328 254.438 195.836 256.148 198.195 256.148C200.219 256.148 201.477 255.008 201.719 253.461H200.359C200.109 254.414 199.32 254.938 198.188 254.938C196.688 254.938 195.719 253.703 195.719 251.758C195.719 249.852 196.672 248.641 198.188 248.641C199.398 248.641 200.141 249.32 200.359 250.156H201.719ZM207.164 256.148C209.562 256.148 211.047 254.492 211.047 251.789C211.047 249.078 209.562 247.43 207.164 247.43C204.766 247.43 203.281 249.078 203.281 251.789C203.281 254.492 204.766 256.148 207.164 256.148ZM207.164 254.938C205.57 254.938 204.672 253.781 204.672 251.789C204.672 249.789 205.57 248.641 207.164 248.641C208.758 248.641 209.656 249.789 209.656 251.789C209.656 253.781 208.758 254.938 207.164 254.938ZM213.156 256H214.5V250.781C214.5 249.594 215.352 248.641 216.453 248.641C217.516 248.641 218.211 249.281 218.211 250.281V256H219.555V250.586C219.555 249.516 220.336 248.641 221.508 248.641C222.695 248.641 223.281 249.25 223.281 250.492V256H224.625V250.18C224.625 248.414 223.664 247.43 221.945 247.43C220.781 247.43 219.82 248.016 219.367 248.906H219.242C218.852 248.031 218.055 247.43 216.914 247.43C215.789 247.43 214.945 247.969 214.562 248.906H214.438V247.578H213.156V256Z" fill="#5C6473"/>
<line x1="35" y1="277.5" x2="340" y2="277.5" stroke="#A5A5A7" stroke-opacity="0.45"/>
</g>
<defs>
<filter id="filter0_d" x="0" y="36" width="80" height="80" filterUnits="userSpaceOnUse" color-interpolation-filters="sRGB">
<feFlood flood-opacity="0" result="BackgroundImageFix"/>
<feColorMatrix in="SourceAlpha" type="matrix" values="0 0 0 0 0 0 0 0 0 0 0 0 0 0 0 0 0 0 127 0"/>
<feOffset dy="5"/>
<feGaussianBlur stdDeviation="10"/>
<feColorMatrix type="matrix" values="0 0 0 0 0.146644 0 0 0 0 0.2625 0 0 0 0 0.0853125 0 0 0 0.1 0"/>
<feBlend mode="normal" in2="BackgroundImageFix" result="effect1_dropShadow"/>
<feBlend mode="normal" in="SourceGraphic" in2="effect1_dropShadow" result="shape"/>
</filter>
<filter id="filter1_d" x="-5" y="206" width="385" height="502" filterUnits="userSpaceOnUse" color-interpolation-filters="sRGB">
<feFlood flood-opacity="0" result="BackgroundImageFix"/>
<feColorMatrix in="SourceAlpha" type="matrix" values="0 0 0 0 0 0 0 0 0 0 0 0 0 0 0 0 0 0 127 0"/>
<feOffset dy="4"/>
<feGaussianBlur stdDeviation="10"/>
<feColorMatrix type="matrix" values="0 0 0 0 0.0688041 0 0 0 0 0.13138 0 0 0 0 0.0343419 0 0 0 0.12 0"/>
<feBlend mode="normal" in2="BackgroundImageFix" result="effect1_dropShadow"/>
<feBlend mode="normal" in="SourceGraphic" in2="effect1_dropShadow" result="shape"/>
</filter>
<filter id="filter2_d" x="-20" y="591" width="415" height="101" filterUnits="userSpaceOnUse" color-interpolation-filters="sRGB">
<feFlood flood-opacity="0" result="BackgroundImageFix"/>
<feColorMatrix in="SourceAlpha" type="matrix" values="0 0 0 0 0 0 0 0 0 0 0 0 0 0 0 0 0 0 127 0"/>
<feOffset dy="5"/>
<feGaussianBlur stdDeviation="10"/>
<feColorMatrix type="matrix" values="0 0 0 0 0.0705882 0 0 0 0 0.133333 0 0 0 0 0.0352941 0 0 0 0.1 0"/>
<feBlend mode="normal" in2="BackgroundImageFix" result="effect1_dropShadow"/>
<feBlend mode="normal" in="SourceGraphic" in2="effect1_dropShadow" result="shape"/>
</filter>
<filter id="filter3_d" x="306" y="607" width="69" height="69" filterUnits="userSpaceOnUse" color-interpolation-filters="sRGB">
<feFlood flood-opacity="0" result="BackgroundImageFix"/>
<feColorMatrix in="SourceAlpha" type="matrix" values="0 0 0 0 0 0 0 0 0 0 0 0 0 0 0 0 0 0 127 0"/>
<feOffset dy="5"/>
<feGaussianBlur stdDeviation="10"/>
<feColorMatrix type="matrix" values="0 0 0 0 0.446333 0 0 0 0 0.698039 0 0 0 0 0.278431 0 0 0 0.2 0"/>
<feBlend mode="normal" in2="BackgroundImageFix" result="effect1_dropShadow"/>
<feBlend mode="normal" in="SourceGraphic" in2="effect1_dropShadow" result="shape"/>
</filter>
<linearGradient id="paint0_linear" x1="231" y1="121" x2="310.267" y2="158.291" gradientUnits="userSpaceOnUse">
<stop stop-color="#0C7F86"/>
<stop offset="1" stop-color="#E2EDB3"/>
</linearGradient>
<clipPath id="clip0">
<rect width="375" height="667" fill="white"/>
</clipPath>
<clipPath id="clip1">
<rect width="14" height="14" transform="matrix(-4.37114e-08 -1 -1 4.37114e-08 348 643)" fill="white"/>
</clipPath>
<clipPath id="clip2">
<rect x="46" y="644" width="22" height="22" transform="rotate(170 46 644)" fill="white"/>
</clipPath>
</defs>
</svg>
