<svg width="375" height="668" viewBox="0 0 375 668" fill="none" xmlns="http://www.w3.org/2000/svg">
<path d="M374.869 0.376709H0V667.093H374.869V0.376709Z" fill="#F9FAF9"/>
<path fill-rule="evenodd" clip-rule="evenodd" d="M345.5 4.5H364.5C365.881 4.5 367 5.61929 367 7V13.5C367 14.8807 365.881 16 364.5 16H345.5C344.119 16 343 14.8807 343 13.5V7C343 5.61929 344.119 4.5 345.5 4.5ZM345.5 5.5C344.672 5.5 344 6.17157 344 7V13.5C344 14.3284 344.672 15 345.5 15H364.5C365.328 15 366 14.3284 366 13.5V7C366 6.17157 365.328 5.5 364.5 5.5H345.5Z" fill="black" fill-opacity="0.38"/>
<path fill-rule="evenodd" clip-rule="evenodd" d="M368 7.7998C368.89 8.25498 369.5 9.18128 369.5 10.2499C369.5 11.3186 368.89 12.2449 368 12.7001V7.7998Z" fill="black" fill-opacity="0.49"/>
<path fill-rule="evenodd" clip-rule="evenodd" d="M346 6.5H364C364.552 6.5 365 6.94772 365 7.5V13C365 13.5523 364.552 14 364 14H346C345.448 14 345 13.5523 345 13V7.5C345 6.94772 345.448 6.5 346 6.5Z" fill="black"/>
<path d="M314.131 7.16406H314.107L311.869 8.77539V7.66211L314.119 6.04492H315.15V14.5H314.131V7.16406ZM320.254 14.6406C319.762 14.6406 319.322 14.5391 318.936 14.3359C318.549 14.1289 318.221 13.8359 317.951 13.457C317.686 13.0781 317.482 12.6191 317.342 12.0801C317.205 11.541 317.137 10.9375 317.137 10.2695C317.137 9.60938 317.207 9.00977 317.348 8.4707C317.488 7.93164 317.691 7.47266 317.957 7.09375C318.227 6.71484 318.553 6.42188 318.936 6.21484C319.322 6.00781 319.762 5.9043 320.254 5.9043C320.746 5.9043 321.184 6.00781 321.566 6.21484C321.953 6.41797 322.279 6.70898 322.545 7.08789C322.811 7.4668 323.012 7.92578 323.148 8.46484C323.289 9 323.359 9.59961 323.359 10.2637C323.359 10.9316 323.289 11.5352 323.148 12.0742C323.012 12.6133 322.811 13.0742 322.545 13.457C322.279 13.8359 321.953 14.1289 321.566 14.3359C321.184 14.5391 320.746 14.6406 320.254 14.6406ZM320.254 13.7207C320.582 13.7207 320.873 13.6406 321.127 13.4805C321.385 13.3164 321.6 13.0859 321.771 12.7891C321.943 12.4883 322.074 12.125 322.164 11.6992C322.254 11.2734 322.299 10.7969 322.299 10.2695C322.299 9.75 322.254 9.2793 322.164 8.85742C322.074 8.43164 321.941 8.07031 321.766 7.77344C321.594 7.47266 321.381 7.24023 321.127 7.07617C320.873 6.91211 320.582 6.83008 320.254 6.83008C319.926 6.83008 319.635 6.91211 319.381 7.07617C319.127 7.24023 318.912 7.47266 318.736 7.77344C318.561 8.07422 318.426 8.43555 318.332 8.85742C318.242 9.2793 318.197 9.74805 318.197 10.2637C318.197 10.791 318.242 11.2676 318.332 11.6934C318.422 12.1191 318.553 12.4824 318.725 12.7832C318.9 13.084 319.115 13.3164 319.369 13.4805C319.627 13.6406 319.922 13.7207 320.254 13.7207ZM327.531 14.6406C327.039 14.6406 326.6 14.5391 326.213 14.3359C325.826 14.1289 325.498 13.8359 325.229 13.457C324.963 13.0781 324.76 12.6191 324.619 12.0801C324.482 11.541 324.414 10.9375 324.414 10.2695C324.414 9.60938 324.484 9.00977 324.625 8.4707C324.766 7.93164 324.969 7.47266 325.234 7.09375C325.504 6.71484 325.83 6.42188 326.213 6.21484C326.6 6.00781 327.039 5.9043 327.531 5.9043C328.023 5.9043 328.461 6.00781 328.844 6.21484C329.23 6.41797 329.557 6.70898 329.822 7.08789C330.088 7.4668 330.289 7.92578 330.426 8.46484C330.566 9 330.637 9.59961 330.637 10.2637C330.637 10.9316 330.566 11.5352 330.426 12.0742C330.289 12.6133 330.088 13.0742 329.822 13.457C329.557 13.8359 329.23 14.1289 328.844 14.3359C328.461 14.5391 328.023 14.6406 327.531 14.6406ZM327.531 13.7207C327.859 13.7207 328.15 13.6406 328.404 13.4805C328.662 13.3164 328.877 13.0859 329.049 12.7891C329.221 12.4883 329.352 12.125 329.441 11.6992C329.531 11.2734 329.576 10.7969 329.576 10.2695C329.576 9.75 329.531 9.2793 329.441 8.85742C329.352 8.43164 329.219 8.07031 329.043 7.77344C328.871 7.47266 328.658 7.24023 328.404 7.07617C328.15 6.91211 327.859 6.83008 327.531 6.83008C327.203 6.83008 326.912 6.91211 326.658 7.07617C326.404 7.24023 326.189 7.47266 326.014 7.77344C325.838 8.07422 325.703 8.43555 325.609 8.85742C325.52 9.2793 325.475 9.74805 325.475 10.2637C325.475 10.791 325.52 11.2676 325.609 11.6934C325.699 12.1191 325.83 12.4824 326.002 12.7832C326.178 13.084 326.393 13.3164 326.646 13.4805C326.904 13.6406 327.199 13.7207 327.531 13.7207ZM331.967 14.5L338.154 6.04492H339.162L332.986 14.5H331.967ZM339.707 12.4844C339.707 12.8047 339.664 13.0957 339.578 13.3574C339.496 13.6152 339.377 13.8359 339.221 14.0195C339.068 14.2031 338.883 14.3457 338.664 14.4473C338.449 14.5449 338.207 14.5938 337.938 14.5938C337.668 14.5938 337.424 14.5449 337.205 14.4473C336.99 14.3457 336.805 14.2031 336.648 14.0195C336.492 13.8359 336.371 13.6152 336.285 13.3574C336.203 13.0957 336.162 12.8047 336.162 12.4844C336.162 12.168 336.203 11.8809 336.285 11.623C336.371 11.3613 336.492 11.1387 336.648 10.9551C336.805 10.7715 336.99 10.6309 337.205 10.5332C337.424 10.4316 337.668 10.3809 337.938 10.3809C338.207 10.3809 338.449 10.4316 338.664 10.5332C338.883 10.6309 339.068 10.7715 339.221 10.9551C339.377 11.1387 339.496 11.3613 339.578 11.623C339.664 11.8809 339.707 12.168 339.707 12.4844ZM337.938 13.8789C338.066 13.8789 338.182 13.8477 338.283 13.7852C338.389 13.7188 338.477 13.625 338.547 13.5039C338.617 13.3828 338.672 13.2363 338.711 13.0645C338.75 12.8926 338.77 12.6992 338.77 12.4844C338.77 12.0469 338.697 11.707 338.553 11.4648C338.408 11.2227 338.203 11.1016 337.938 11.1016C337.68 11.1016 337.475 11.2266 337.322 11.4766C337.174 11.7227 337.1 12.0586 337.1 12.4844C337.1 12.6992 337.119 12.8926 337.158 13.0645C337.197 13.2363 337.252 13.3828 337.322 13.5039C337.396 13.625 337.484 13.7188 337.586 13.7852C337.691 13.8477 337.809 13.8789 337.938 13.8789ZM335.002 8.04297C335.002 8.36328 334.959 8.6543 334.873 8.91602C334.791 9.17383 334.672 9.39453 334.516 9.57812C334.363 9.76172 334.178 9.9043 333.959 10.0059C333.744 10.1035 333.502 10.1523 333.232 10.1523C332.963 10.1523 332.719 10.1035 332.5 10.0059C332.285 9.9043 332.1 9.76172 331.943 9.57812C331.787 9.39453 331.666 9.17383 331.58 8.91602C331.498 8.6543 331.457 8.36328 331.457 8.04297C331.457 7.72656 331.498 7.43945 331.58 7.18164C331.666 6.91992 331.787 6.69727 331.943 6.51367C332.1 6.33008 332.285 6.18945 332.5 6.0918C332.719 5.99023 332.963 5.93945 333.232 5.93945C333.502 5.93945 333.744 5.99023 333.959 6.0918C334.178 6.18945 334.363 6.33008 334.516 6.51367C334.672 6.69727 334.791 6.91992 334.873 7.18164C334.959 7.43945 335.002 7.72656 335.002 8.04297ZM333.232 9.4375C333.361 9.4375 333.477 9.40625 333.578 9.34375C333.684 9.27734 333.771 9.18359 333.842 9.0625C333.912 8.94141 333.967 8.79492 334.006 8.62305C334.045 8.45117 334.064 8.25781 334.064 8.04297C334.064 7.60547 333.992 7.26562 333.848 7.02344C333.703 6.78125 333.498 6.66016 333.232 6.66016C332.975 6.66016 332.77 6.78516 332.617 7.03516C332.469 7.28125 332.395 7.61719 332.395 8.04297C332.395 8.25781 332.414 8.45117 332.453 8.62305C332.492 8.79492 332.547 8.94141 332.617 9.0625C332.691 9.18359 332.779 9.27734 332.881 9.34375C332.986 9.40625 333.104 9.4375 333.232 9.4375Z" fill="black"/>
<path fill-rule="evenodd" clip-rule="evenodd" d="M300.874 6.19111L302.524 7.78081L300.874 9.21109V6.19111ZM301.47 9.99927L304 7.80741L299.996 4V4.5V5.34563V8.72135L297.622 6.665L297 7.43104L299.964 9.99927L297 12.5675L297.622 13.3335L299.996 11.2772V14.6529V15.5V15.9985L304 12.1911L301.47 9.99927ZM300.874 13.8074L302.524 12.2177L300.874 10.7874V13.8074Z" fill="black"/>
<path fill-rule="evenodd" clip-rule="evenodd" d="M283.667 5.87174C283.171 5.37609 282.367 5.37609 281.872 5.87174C281.376 6.36739 281.376 7.17101 281.872 7.66666L283.667 5.87174ZM288.833 5.87174C289.329 5.37609 290.133 5.37609 290.628 5.87174C291.124 6.36739 291.124 7.17101 290.628 7.66666L288.833 5.87174ZM290.5 10.25C290.5 12.5972 288.597 14.5 286.25 14.5C283.903 14.5 282 12.5972 282 10.25C282 7.90279 283.903 6 286.25 6C288.597 6 290.5 7.90279 290.5 10.25ZM286.25 7.5H286.997V10.25H287.002V10.9966H286.997V11H286.25V10.9966H284.502V10.25H286.25V7.5Z" fill="black"/>
<path fill-rule="evenodd" clip-rule="evenodd" d="M265 10L275 5.5L270.5 15.5V10H265Z" fill="black"/>
<path fill-rule="evenodd" clip-rule="evenodd" d="M252.5 5C255.093 5 257.224 6.97334 257.475 9.5H259L257 11.5L255 9.5H256.519C256.273 7.49915 254.567 5.95 252.5 5.95C250.263 5.95 248.45 7.76324 248.45 10C248.45 12.2368 250.263 14.05 252.5 14.05C253.945 14.05 255.214 13.2928 255.931 12.1535L256.719 12.6851C255.831 14.0769 254.273 15 252.5 15C249.739 15 247.5 12.7614 247.5 10C247.5 7.23858 249.739 5 252.5 5ZM251 8.25V9.5C250.724 9.5 250.5 9.72386 250.5 10V12C250.5 12.2761 250.724 12.5 251 12.5H254C254.276 12.5 254.5 12.2761 254.5 12V10C254.5 9.72386 254.276 9.5 254 9.5V8.25C254 7.55964 253.44 7 252.75 7H252.25C251.56 7 251 7.55964 251 8.25ZM253.35 8.325V9.5H251.65V8.325C251.65 7.97982 251.93 7.7 252.275 7.7H252.725C253.07 7.7 253.35 7.97982 253.35 8.325Z" fill="#111111"/>
<path d="M169.143 7.16406H169.119L166.881 8.77539V7.66211L169.131 6.04492H170.162V14.5H169.143V7.16406ZM173.145 14.5586C173.051 14.5586 172.963 14.541 172.881 14.5059C172.799 14.4707 172.729 14.4238 172.67 14.3652C172.611 14.3066 172.564 14.2363 172.529 14.1543C172.494 14.0723 172.477 13.9844 172.477 13.8906C172.477 13.7969 172.494 13.709 172.529 13.627C172.564 13.5449 172.611 13.4746 172.67 13.416C172.729 13.3535 172.799 13.3066 172.881 13.2754C172.963 13.2402 173.051 13.2227 173.145 13.2227C173.336 13.2227 173.494 13.2871 173.619 13.416C173.748 13.541 173.812 13.6992 173.812 13.8906C173.812 13.9844 173.795 14.0723 173.76 14.1543C173.729 14.2363 173.682 14.3066 173.619 14.3652C173.561 14.4238 173.49 14.4707 173.408 14.5059C173.326 14.541 173.238 14.5586 173.145 14.5586ZM173.145 10.2461C173.051 10.2461 172.963 10.2285 172.881 10.1934C172.799 10.1582 172.729 10.1113 172.67 10.0527C172.611 9.99414 172.564 9.92383 172.529 9.8418C172.494 9.75977 172.477 9.67188 172.477 9.57812C172.477 9.48438 172.494 9.39648 172.529 9.31445C172.564 9.23242 172.611 9.16211 172.67 9.10352C172.729 9.04102 172.799 8.99414 172.881 8.96289C172.963 8.92773 173.051 8.91016 173.145 8.91016C173.336 8.91016 173.494 8.97461 173.619 9.10352C173.748 9.22852 173.812 9.38672 173.812 9.57812C173.812 9.67188 173.795 9.75977 173.76 9.8418C173.729 9.92383 173.682 9.99414 173.619 10.0527C173.561 10.1113 173.49 10.1582 173.408 10.1934C173.326 10.2285 173.238 10.2461 173.145 10.2461ZM175.301 8.48242C175.301 8.11523 175.371 7.77344 175.512 7.45703C175.652 7.14062 175.848 6.86914 176.098 6.64258C176.348 6.41211 176.643 6.23242 176.982 6.10352C177.322 5.9707 177.691 5.9043 178.09 5.9043C178.469 5.9043 178.822 5.96484 179.15 6.08594C179.479 6.20703 179.764 6.37305 180.006 6.58398C180.248 6.79102 180.439 7.03516 180.58 7.31641C180.721 7.59766 180.791 7.90039 180.791 8.22461C180.791 8.45898 180.762 8.68555 180.703 8.9043C180.645 9.11914 180.543 9.3457 180.398 9.58398C180.258 9.82227 180.068 10.082 179.83 10.3633C179.596 10.6445 179.303 10.9668 178.951 11.3301L176.812 13.5391V13.5625H180.932V14.5H175.354V13.7734L178.33 10.6387C178.615 10.3418 178.848 10.0859 179.027 9.87109C179.211 9.65234 179.355 9.45508 179.461 9.2793C179.566 9.10352 179.639 8.93945 179.678 8.78711C179.717 8.63086 179.736 8.46484 179.736 8.28906C179.736 8.08594 179.691 7.89648 179.602 7.7207C179.516 7.54102 179.396 7.38477 179.244 7.25195C179.096 7.11914 178.92 7.01562 178.717 6.94141C178.514 6.86328 178.295 6.82422 178.061 6.82422C177.814 6.82422 177.584 6.86719 177.369 6.95312C177.158 7.03516 176.975 7.15039 176.818 7.29883C176.662 7.44727 176.539 7.62305 176.449 7.82617C176.363 8.0293 176.32 8.24805 176.32 8.48242V8.48828H175.301V8.48242ZM185.109 14.6406C184.617 14.6406 184.178 14.5391 183.791 14.3359C183.404 14.1289 183.076 13.8359 182.807 13.457C182.541 13.0781 182.338 12.6191 182.197 12.0801C182.061 11.541 181.992 10.9375 181.992 10.2695C181.992 9.60938 182.062 9.00977 182.203 8.4707C182.344 7.93164 182.547 7.47266 182.812 7.09375C183.082 6.71484 183.408 6.42188 183.791 6.21484C184.178 6.00781 184.617 5.9043 185.109 5.9043C185.602 5.9043 186.039 6.00781 186.422 6.21484C186.809 6.41797 187.135 6.70898 187.4 7.08789C187.666 7.4668 187.867 7.92578 188.004 8.46484C188.145 9 188.215 9.59961 188.215 10.2637C188.215 10.9316 188.145 11.5352 188.004 12.0742C187.867 12.6133 187.666 13.0742 187.4 13.457C187.135 13.8359 186.809 14.1289 186.422 14.3359C186.039 14.5391 185.602 14.6406 185.109 14.6406ZM185.109 13.7207C185.438 13.7207 185.729 13.6406 185.982 13.4805C186.24 13.3164 186.455 13.0859 186.627 12.7891C186.799 12.4883 186.93 12.125 187.02 11.6992C187.109 11.2734 187.154 10.7969 187.154 10.2695C187.154 9.75 187.109 9.2793 187.02 8.85742C186.93 8.43164 186.797 8.07031 186.621 7.77344C186.449 7.47266 186.236 7.24023 185.982 7.07617C185.729 6.91211 185.438 6.83008 185.109 6.83008C184.781 6.83008 184.49 6.91211 184.236 7.07617C183.982 7.24023 183.768 7.47266 183.592 7.77344C183.416 8.07422 183.281 8.43555 183.188 8.85742C183.098 9.2793 183.053 9.74805 183.053 10.2637C183.053 10.791 183.098 11.2676 183.188 11.6934C183.277 12.1191 183.408 12.4824 183.58 12.7832C183.756 13.084 183.971 13.3164 184.225 13.4805C184.482 13.6406 184.777 13.7207 185.109 13.7207ZM195.627 6.04492C196.025 6.04492 196.389 6.11133 196.717 6.24414C197.049 6.37695 197.334 6.5625 197.572 6.80078C197.814 7.03906 198.002 7.32617 198.135 7.66211C198.268 7.99414 198.334 8.35938 198.334 8.75781C198.334 9.16016 198.266 9.5293 198.129 9.86523C197.996 10.1973 197.809 10.4844 197.566 10.7266C197.328 10.9648 197.043 11.1504 196.711 11.2832C196.379 11.416 196.014 11.4824 195.615 11.4824H193.488V14.5H192.434V6.04492H195.627ZM193.488 10.5449H195.352C195.652 10.5449 195.92 10.5059 196.154 10.4277C196.393 10.3457 196.592 10.2285 196.752 10.0762C196.916 9.91992 197.039 9.73242 197.121 9.51367C197.207 9.29102 197.25 9.03906 197.25 8.75781C197.25 8.19531 197.086 7.75977 196.758 7.45117C196.43 7.13867 195.961 6.98242 195.352 6.98242H193.488V10.5449ZM207.879 14.5H206.895V7.98438H206.854L204.158 14.4414H203.268L200.572 7.98438H200.531V14.5H199.547V6.04492H200.771L203.689 13.0996H203.736L206.654 6.04492H207.879V14.5Z" fill="black"/>
<path fill-rule="evenodd" clip-rule="evenodd" d="M82.1672 10.5459C79.6288 8.00749 75.5133 8.00749 72.9749 10.5459L74.3891 11.9601C76.1464 10.2027 78.9957 10.2027 80.753 11.9601L82.1672 10.5459ZM79.6924 13.0208C78.5208 11.8492 76.6213 11.8492 75.4497 13.0208L77.571 15.1421L79.6924 13.0208Z" fill="black"/>
<path fill-rule="evenodd" clip-rule="evenodd" d="M70.5 8.07102C74.4052 4.16578 80.7369 4.16578 84.6421 8.07102L83.2279 9.48524C80.1037 6.36104 75.0384 6.36104 71.9142 9.48524L70.5 8.07102Z" fill="black" fill-opacity="0.25"/>
<path d="M30.3008 14.6406C29.7188 14.6406 29.1914 14.5391 28.7188 14.3359C28.25 14.1289 27.8496 13.8359 27.5176 13.457C27.1895 13.0781 26.9355 12.6191 26.7559 12.0801C26.5801 11.541 26.4922 10.9375 26.4922 10.2695C26.4922 9.60547 26.582 9.00586 26.7617 8.4707C26.9414 7.93164 27.1973 7.47266 27.5293 7.09375C27.8613 6.71094 28.2617 6.41797 28.7305 6.21484C29.1992 6.00781 29.7227 5.9043 30.3008 5.9043C30.7617 5.9043 31.1895 5.97266 31.584 6.10938C31.9824 6.24219 32.3359 6.43164 32.6445 6.67773C32.9531 6.91992 33.207 7.21484 33.4062 7.5625C33.6094 7.90625 33.7441 8.28906 33.8105 8.71094H32.7441C32.6777 8.43359 32.5684 8.18359 32.416 7.96094C32.2676 7.73438 32.0859 7.54102 31.8711 7.38086C31.6602 7.2207 31.4199 7.09766 31.1504 7.01172C30.8848 6.92188 30.6016 6.87695 30.3008 6.87695C29.8867 6.87695 29.5117 6.95703 29.1758 7.11719C28.8398 7.27734 28.5527 7.50586 28.3145 7.80273C28.0801 8.09961 27.8984 8.45703 27.7695 8.875C27.6406 9.28906 27.5762 9.75391 27.5762 10.2695C27.5762 10.7891 27.6387 11.2578 27.7637 11.6758C27.8926 12.0938 28.0762 12.4512 28.3145 12.748C28.5527 13.041 28.8398 13.2676 29.1758 13.4277C29.5117 13.5879 29.8887 13.668 30.3066 13.668C30.6152 13.668 30.9023 13.6328 31.168 13.5625C31.4336 13.4883 31.6699 13.3809 31.877 13.2402C32.084 13.0996 32.2598 12.9297 32.4043 12.7305C32.5527 12.5273 32.666 12.2969 32.7441 12.0391H33.8105C33.6152 12.8789 33.2168 13.5234 32.6152 13.9727C32.0137 14.418 31.2422 14.6406 30.3008 14.6406ZM36.9422 13.6738C37.2 13.6738 37.4383 13.6348 37.657 13.5566C37.8758 13.4785 38.0633 13.3691 38.2195 13.2285C38.3797 13.0879 38.5047 12.9219 38.5945 12.7305C38.6844 12.5352 38.7293 12.3242 38.7293 12.0977V11.5879L37.077 11.6934C36.6004 11.7246 36.241 11.8262 35.9988 11.998C35.7566 12.166 35.6355 12.4023 35.6355 12.707C35.6355 12.8555 35.6648 12.9883 35.7234 13.1055C35.7859 13.2227 35.8738 13.3242 35.9871 13.4102C36.1043 13.4961 36.243 13.5625 36.4031 13.6094C36.5633 13.6523 36.743 13.6738 36.9422 13.6738ZM36.7254 14.5586C36.4051 14.5586 36.1141 14.5156 35.8523 14.4297C35.5906 14.3398 35.366 14.2148 35.1785 14.0547C34.991 13.8906 34.8465 13.6953 34.7449 13.4688C34.6434 13.2383 34.5926 12.9824 34.5926 12.7012C34.5926 12.1543 34.7937 11.7266 35.1961 11.418C35.5984 11.1094 36.1863 10.9316 36.9598 10.8848L38.7293 10.7793V10.252C38.7293 9.85742 38.6043 9.55664 38.3543 9.34961C38.1082 9.13867 37.7508 9.0332 37.282 9.0332C37.0984 9.0332 36.9285 9.05664 36.7723 9.10352C36.616 9.14648 36.4754 9.21094 36.3504 9.29688C36.2293 9.37891 36.1277 9.48047 36.0457 9.60156C35.9676 9.72266 35.9129 9.85742 35.8816 10.0059H34.9031C34.9109 9.74023 34.9773 9.49219 35.1023 9.26172C35.2273 9.03125 35.3973 8.83203 35.6121 8.66406C35.827 8.49609 36.077 8.36523 36.3621 8.27148C36.6512 8.17383 36.9617 8.125 37.2937 8.125C37.6687 8.125 38.0066 8.17383 38.3074 8.27148C38.6082 8.36523 38.866 8.50195 39.0809 8.68164C39.2957 8.85742 39.4598 9.07227 39.573 9.32617C39.6902 9.57617 39.7488 9.85547 39.7488 10.1641V14.5H38.782V13.4043H38.7586C38.6687 13.5801 38.5535 13.7402 38.4129 13.8848C38.2723 14.0254 38.1141 14.1465 37.9383 14.248C37.7625 14.3457 37.5711 14.4219 37.3641 14.4766C37.1609 14.5312 36.948 14.5586 36.7254 14.5586ZM41.0523 8.18359H42.0133V9.20898H42.0367C42.0836 9.04492 42.1539 8.89648 42.2477 8.76367C42.3453 8.62695 42.4605 8.51172 42.5934 8.41797C42.7262 8.32422 42.8746 8.25195 43.0387 8.20117C43.2066 8.15039 43.3824 8.125 43.566 8.125C43.6285 8.125 43.6988 8.12891 43.777 8.13672C43.8551 8.14453 43.9156 8.1543 43.9586 8.16602V9.17383C43.9156 9.1543 43.8395 9.13867 43.7301 9.12695C43.6207 9.11133 43.5211 9.10352 43.4312 9.10352C43.2242 9.10352 43.0367 9.14062 42.8687 9.21484C42.7047 9.28516 42.5621 9.38477 42.441 9.51367C42.3238 9.64258 42.232 9.79883 42.1656 9.98242C42.1031 10.166 42.0719 10.3691 42.0719 10.5918V14.5H41.0523V8.18359ZM44.8109 8.18359H45.7719V9.20898H45.7953C45.8422 9.04492 45.9125 8.89648 46.0063 8.76367C46.1039 8.62695 46.2191 8.51172 46.352 8.41797C46.4848 8.32422 46.6332 8.25195 46.7973 8.20117C46.9652 8.15039 47.141 8.125 47.3246 8.125C47.3871 8.125 47.4574 8.12891 47.5355 8.13672C47.6137 8.14453 47.6742 8.1543 47.7172 8.16602V9.17383C47.6742 9.1543 47.598 9.13867 47.4887 9.12695C47.3793 9.11133 47.2797 9.10352 47.1898 9.10352C46.9828 9.10352 46.7953 9.14062 46.6273 9.21484C46.4633 9.28516 46.3207 9.38477 46.1996 9.51367C46.0824 9.64258 45.9906 9.79883 45.9242 9.98242C45.8617 10.166 45.8305 10.3691 45.8305 10.5918V14.5H44.8109V8.18359ZM48.6281 8.18359H49.6477V14.5H48.6281V8.18359ZM49.1379 7.16406C49.048 7.16406 48.9641 7.14844 48.8859 7.11719C48.8078 7.08203 48.7395 7.03516 48.6809 6.97656C48.6223 6.91797 48.5754 6.84961 48.5402 6.77148C48.509 6.69336 48.4934 6.60938 48.4934 6.51953C48.4934 6.42969 48.509 6.3457 48.5402 6.26758C48.5754 6.18945 48.6223 6.12109 48.6809 6.0625C48.7395 6.00391 48.8078 5.95898 48.8859 5.92773C48.9641 5.89258 49.048 5.875 49.1379 5.875C49.2277 5.875 49.3117 5.89258 49.3898 5.92773C49.468 5.95898 49.5363 6.00391 49.5949 6.0625C49.6535 6.12109 49.6984 6.18945 49.7297 6.26758C49.7648 6.3457 49.7824 6.42969 49.7824 6.51953C49.7824 6.60938 49.7648 6.69336 49.7297 6.77148C49.6984 6.84961 49.6535 6.91797 49.5949 6.97656C49.5363 7.03516 49.468 7.08203 49.3898 7.11719C49.3117 7.14844 49.2277 7.16406 49.1379 7.16406ZM53.5586 9.02148C53.3125 9.02148 53.084 9.06445 52.873 9.15039C52.6621 9.23633 52.4785 9.35742 52.3223 9.51367C52.1699 9.66992 52.0449 9.85938 51.9473 10.082C51.8535 10.3008 51.7988 10.543 51.7832 10.8086H55.2578C55.25 10.5391 55.2031 10.2949 55.1172 10.0762C55.0352 9.85742 54.9199 9.66992 54.7715 9.51367C54.623 9.35742 54.4453 9.23633 54.2383 9.15039C54.0352 9.06445 53.8086 9.02148 53.5586 9.02148ZM56.2422 12.6953C56.1992 12.9648 56.1016 13.2148 55.9492 13.4453C55.7969 13.6719 55.6035 13.8691 55.3691 14.0371C55.1387 14.2012 54.873 14.3301 54.5723 14.4238C54.2754 14.5137 53.959 14.5586 53.623 14.5586C53.1777 14.5586 52.7773 14.4844 52.4219 14.3359C52.0664 14.1875 51.7617 13.9746 51.5078 13.6973C51.2578 13.4199 51.0645 13.084 50.9277 12.6895C50.7949 12.2949 50.7285 11.8535 50.7285 11.3652C50.7285 10.877 50.7949 10.4336 50.9277 10.0352C51.0645 9.63672 51.2559 9.29688 51.502 9.01562C51.752 8.73047 52.0527 8.51172 52.4043 8.35938C52.7559 8.20312 53.1465 8.125 53.5762 8.125C53.998 8.125 54.377 8.19727 54.7129 8.3418C55.0527 8.48633 55.3418 8.69336 55.5801 8.96289C55.8184 9.22852 56 9.55273 56.125 9.93555C56.2539 10.3184 56.3184 10.748 56.3184 11.2246V11.623H51.7832V11.6816C51.7832 11.9824 51.8262 12.2559 51.9121 12.502C52.002 12.7441 52.1289 12.9512 52.293 13.123C52.457 13.2949 52.6523 13.4277 52.8789 13.5215C53.1094 13.6152 53.3652 13.6621 53.6465 13.6621C53.8457 13.6621 54.0312 13.6406 54.2031 13.5977C54.375 13.5508 54.5293 13.4863 54.666 13.4043C54.8066 13.3184 54.9238 13.2168 55.0176 13.0996C55.1152 12.9785 55.1875 12.8438 55.2344 12.6953H56.2422ZM57.3406 8.18359H58.3016V9.20898H58.325C58.3719 9.04492 58.4422 8.89648 58.5359 8.76367C58.6336 8.62695 58.7488 8.51172 58.8816 8.41797C59.0145 8.32422 59.1629 8.25195 59.327 8.20117C59.4949 8.15039 59.6707 8.125 59.8543 8.125C59.9168 8.125 59.9871 8.12891 60.0652 8.13672C60.1434 8.14453 60.2039 8.1543 60.2469 8.16602V9.17383C60.2039 9.1543 60.1277 9.13867 60.0184 9.12695C59.909 9.11133 59.8094 9.10352 59.7195 9.10352C59.5125 9.10352 59.325 9.14062 59.157 9.21484C58.993 9.28516 58.8504 9.38477 58.7293 9.51367C58.6121 9.64258 58.5203 9.79883 58.4539 9.98242C58.3914 10.166 58.3602 10.3691 58.3602 10.5918V14.5H57.3406V8.18359Z" fill="black"/>
<path fill-rule="evenodd" clip-rule="evenodd" d="M20.5 5H21.5C22.0523 5 22.5 5.44772 22.5 6V14C22.5 14.5523 22.0523 15 21.5 15H20.5C19.9477 15 19.5 14.5523 19.5 14V6C19.5 5.44772 19.9477 5 20.5 5Z" fill="black" fill-opacity="0.25"/>
<path fill-rule="evenodd" clip-rule="evenodd" d="M17 7H16C15.4477 7 15 7.44772 15 8V14C15 14.5523 15.4477 15 16 15H17C17.5523 15 18 14.5523 18 14V8C18 7.44772 17.5523 7 17 7ZM11.5 9H12.5C13.0523 9 13.5 9.44772 13.5 10V14C13.5 14.5523 13.0523 15 12.5 15H11.5C10.9477 15 10.5 14.5523 10.5 14V10C10.5 9.44772 10.9477 9 11.5 9ZM7 10.5H8C8.55228 10.5 9 10.9477 9 11.5V14C9 14.5523 8.55228 15 8 15H7C6.44772 15 6 14.5523 6 14V11.5C6 10.9477 6.44772 10.5 7 10.5Z" fill="black"/>
<circle cx="205" cy="455" r="6" fill="#1B3259" fill-opacity="0.12"/>
<circle cx="174" cy="455" r="6" fill="#1B3259" fill-opacity="0.12"/>
<circle cx="236" cy="455" r="6" fill="#1B3259" fill-opacity="0.12"/>
<circle cx="143" cy="455" r="6" fill="#1B3259"/>
<path d="M123.836 326.908V341H126.355V336.342H129.412C132.264 336.342 134.256 334.438 134.256 331.654C134.256 328.822 132.332 326.908 129.52 326.908H123.836ZM126.355 328.969H128.855C130.672 328.969 131.697 329.906 131.697 331.654C131.697 333.354 130.643 334.311 128.846 334.311H126.355V328.969ZM143.709 338.08C143.357 338.881 142.527 339.33 141.326 339.33C139.734 339.33 138.709 338.197 138.65 336.391V336.264H146.111V335.492C146.111 332.143 144.285 330.121 141.238 330.121C138.143 330.121 136.219 332.279 136.219 335.707C136.219 339.125 138.113 341.215 141.258 341.215C143.777 341.215 145.564 340.004 146.004 338.08H143.709ZM141.229 332.006C142.684 332.006 143.641 333.031 143.689 334.652H138.66C138.768 333.051 139.783 332.006 141.229 332.006ZM155.926 332.221V330.326H148.729V341H151.15V332.221H155.926ZM160.77 341L165.32 333.812H165.486V341H167.879V330.326H165.486L160.936 337.475H160.77V330.326H158.377V341H160.77ZM180.271 333.891C180.018 331.684 178.357 330.121 175.613 330.121C172.4 330.121 170.516 332.182 170.516 335.639C170.516 339.135 172.41 341.215 175.623 341.215C178.328 341.215 180.008 339.711 180.271 337.504H177.967C177.713 338.627 176.873 339.223 175.613 339.223C173.963 339.223 172.967 337.904 172.967 335.639C172.967 333.412 173.953 332.104 175.613 332.104C176.941 332.104 177.742 332.855 177.967 333.891H180.271ZM190.496 330.326H181.492V332.221H184.783V341H187.205V332.221H190.496V330.326ZM198.621 330.15C197.156 330.15 195.916 330.883 195.301 332.094H195.135V330.326H192.801V344.545H195.223V339.379H195.389C195.936 340.512 197.117 341.176 198.65 341.176C201.346 341.176 203.025 339.057 203.025 335.668C203.025 332.25 201.326 330.15 198.621 330.15ZM197.859 339.164C196.209 339.164 195.184 337.826 195.174 335.668C195.184 333.51 196.219 332.172 197.869 332.172C199.529 332.172 200.535 333.48 200.535 335.668C200.535 337.855 199.539 339.164 197.859 339.164ZM208.592 341.176C209.988 341.176 211.16 340.57 211.756 339.535H211.922V341H214.256V333.705C214.256 331.449 212.713 330.121 209.969 330.121C207.43 330.121 205.662 331.312 205.467 333.178H207.752C207.977 332.445 208.738 332.045 209.852 332.045C211.16 332.045 211.863 332.641 211.863 333.705V334.623L209.109 334.789C206.512 334.936 205.057 336.059 205.057 337.973C205.057 339.926 206.531 341.176 208.592 341.176ZM209.305 339.311C208.23 339.311 207.459 338.773 207.459 337.855C207.459 336.967 208.094 336.469 209.451 336.381L211.863 336.215V337.084C211.863 338.354 210.77 339.311 209.305 339.311ZM228.201 343.783V339.115H226.561V330.326H224.148V339.115H219.783V330.326H217.361V341H225.975V343.783H228.201ZM232.664 341L237.215 333.812H237.381V341H239.773V330.326H237.381L232.83 337.475H232.664V330.326H230.271V341H232.664ZM248.777 341H251.16V330.326H246.756C244.266 330.326 242.625 331.723 242.625 333.959C242.625 335.434 243.514 336.576 244.969 337.006L242.107 341H244.881L247.381 337.406H248.777V341ZM246.941 335.609C245.779 335.609 245.018 334.926 245.018 333.959C245.018 332.885 245.77 332.211 246.941 332.211H248.777V335.609H246.941Z" fill="#1B3259"/>
<path d="M95.7031 390V378.727H94.0703L90.2109 388.133H90.0859L86.2266 378.727H84.5938V390H85.9062V381.391H86L89.5547 390H90.7422L94.2969 381.391H94.3906V390H95.7031ZM105.922 390H107.266V381.578H105.922V390ZM98.5547 390H101.562C103.492 390 104.727 388.891 104.727 387.141C104.727 385.391 103.492 384.281 101.562 384.281H99.8984V381.578H98.5547V390ZM101.562 385.406C102.664 385.406 103.383 386.086 103.383 387.141C103.383 388.188 102.672 388.875 101.562 388.875H99.8984V385.406H101.562ZM118.047 390C119.859 390 120.93 389.047 120.93 387.578C120.93 386.594 120.25 385.844 119.18 385.695V385.57C119.969 385.406 120.555 384.609 120.555 383.773C120.555 382.445 119.625 381.578 118.031 381.578H114.461V390H118.047ZM115.805 382.703H117.859C118.805 382.703 119.227 383.188 119.227 383.914C119.227 384.719 118.734 385.141 117.641 385.141H115.805V382.703ZM115.805 386.266H117.758C118.969 386.266 119.594 386.664 119.594 387.555C119.594 388.406 119.047 388.875 118.016 388.875H115.805V386.266ZM130.594 390H131.938V381.578H130.594V390ZM123.227 390H126.234C128.164 390 129.398 388.891 129.398 387.141C129.398 385.391 128.164 384.281 126.234 384.281H124.57V381.578H123.227V390ZM126.234 385.406C127.336 385.406 128.055 386.086 128.055 387.141C128.055 388.188 127.344 388.875 126.234 388.875H124.57V385.406H126.234ZM141.594 384.156C141.359 382.656 140.109 381.43 138.062 381.43C135.703 381.43 134.203 383.133 134.203 385.758C134.203 388.438 135.711 390.148 138.07 390.148C140.094 390.148 141.352 389.008 141.594 387.461H140.234C139.984 388.414 139.195 388.938 138.062 388.938C136.562 388.938 135.594 387.703 135.594 385.758C135.594 383.852 136.547 382.641 138.062 382.641C139.273 382.641 140.016 383.32 140.234 384.156H141.594ZM151.094 390H152.438V381.578H151.094V390ZM143.727 390H146.734C148.664 390 149.898 388.891 149.898 387.141C149.898 385.391 148.664 384.281 146.734 384.281H145.07V381.578H143.727V390ZM146.734 385.406C147.836 385.406 148.555 386.086 148.555 387.141C148.555 388.188 147.844 388.875 146.734 388.875H145.07V385.406H146.734ZM157.141 386.305L157.406 382.703H160.352V390H161.695V381.578H156.188L155.859 386.273C155.75 387.836 155.43 388.812 154.594 388.812C154.398 388.812 154.242 388.773 154.172 388.75V389.984C154.266 390.023 154.422 390.07 154.664 390.07C156.414 390.07 156.969 388.617 157.141 386.305ZM166.719 390.148C167.844 390.148 168.766 389.656 169.312 388.758H169.438V390H170.719V384.234C170.719 382.484 169.57 381.43 167.516 381.43C165.719 381.43 164.391 382.32 164.211 383.672H165.57C165.758 383.008 166.461 382.625 167.469 382.625C168.727 382.625 169.375 383.195 169.375 384.234V385L166.945 385.148C164.984 385.266 163.875 386.133 163.875 387.641C163.875 389.18 165.086 390.148 166.719 390.148ZM166.969 388.969C165.992 388.969 165.266 388.469 165.266 387.609C165.266 386.766 165.828 386.32 167.109 386.234L169.375 386.086V386.859C169.375 388.062 168.352 388.969 166.969 388.969ZM178.938 387.82C178.586 388.562 177.852 388.961 176.766 388.961C175.336 388.961 174.406 387.906 174.336 386.242V386.18H180.391V385.664C180.391 383.047 179.008 381.43 176.734 381.43C174.422 381.43 172.938 383.148 172.938 385.797C172.938 388.461 174.398 390.148 176.734 390.148C178.578 390.148 179.891 389.258 180.281 387.82H178.938ZM176.719 382.617C178.055 382.617 178.945 383.602 178.977 385.094H174.336C174.438 383.602 175.375 382.617 176.719 382.617ZM183.992 390V384.008H184.141L186.805 389.766H187.852L190.516 384.008H190.664V390H192.016V381.578H190.445L187.422 388.109H187.297L184.281 381.578H182.648V390H183.992ZM204.68 390H206.023V381.578H199.211V390H200.555V382.703H204.68V390ZM212.805 381.43C211.656 381.43 210.648 382.016 210.109 382.984H209.984V381.578H208.703V392.812H210.047V388.734H210.172C210.633 389.625 211.602 390.148 212.805 390.148C214.945 390.148 216.344 388.422 216.344 385.789C216.344 383.141 214.953 381.43 212.805 381.43ZM212.484 388.938C210.969 388.938 210.008 387.719 210.008 385.789C210.008 383.852 210.969 382.641 212.492 382.641C214.031 382.641 214.953 383.82 214.953 385.789C214.953 387.758 214.031 388.938 212.484 388.938ZM219.945 390L224.141 383.719H224.266V390H225.609V381.578H224.266L220.07 387.859H219.945V381.578H218.602V390H219.945ZM233.68 382.703V381.578H228.289V390H229.633V382.703H233.68ZM237.125 386.305L237.391 382.703H240.336V390H241.68V381.578H236.172L235.844 386.273C235.734 387.836 235.414 388.812 234.578 388.812C234.383 388.812 234.227 388.773 234.156 388.75V389.984C234.25 390.023 234.406 390.07 234.648 390.07C236.398 390.07 236.953 388.617 237.125 386.305ZM246.703 390.148C247.828 390.148 248.75 389.656 249.297 388.758H249.422V390H250.703V384.234C250.703 382.484 249.555 381.43 247.5 381.43C245.703 381.43 244.375 382.32 244.195 383.672H245.555C245.742 383.008 246.445 382.625 247.453 382.625C248.711 382.625 249.359 383.195 249.359 384.234V385L246.93 385.148C244.969 385.266 243.859 386.133 243.859 387.641C243.859 389.18 245.07 390.148 246.703 390.148ZM246.953 388.969C245.977 388.969 245.25 388.469 245.25 387.609C245.25 386.766 245.812 386.32 247.094 386.234L249.359 386.086V386.859C249.359 388.062 248.336 388.969 246.953 388.969ZM253.336 390H263.742V381.578H262.398V388.875H259.211V381.578H257.867V388.875H254.68V381.578H253.336V390ZM272 387.82C271.648 388.562 270.914 388.961 269.828 388.961C268.398 388.961 267.469 387.906 267.398 386.242V386.18H273.453V385.664C273.453 383.047 272.07 381.43 269.797 381.43C267.484 381.43 266 383.148 266 385.797C266 388.461 267.461 390.148 269.797 390.148C271.641 390.148 272.953 389.258 273.344 387.82H272ZM269.781 382.617C271.117 382.617 272.008 383.602 272.039 385.094H267.398C267.5 383.602 268.438 382.617 269.781 382.617ZM281.258 390H282.602V381.578H281.258V385.062H277.055V381.578H275.711V390H277.055V386.188H281.258V390ZM286.617 390L290.812 383.719H290.938V390H292.281V381.578H290.938L286.742 387.859H286.617V381.578H285.273V390H286.617ZM300.547 387.82C300.195 388.562 299.461 388.961 298.375 388.961C296.945 388.961 296.016 387.906 295.945 386.242V386.18H302V385.664C302 383.047 300.617 381.43 298.344 381.43C296.031 381.43 294.547 383.148 294.547 385.797C294.547 388.461 296.008 390.148 298.344 390.148C300.188 390.148 301.5 389.258 301.891 387.82H300.547ZM298.328 382.617C299.664 382.617 300.555 383.602 300.586 385.094H295.945C296.047 383.602 296.984 382.617 298.328 382.617ZM83.1562 405.43C82.0078 405.43 81 406.016 80.4609 406.984H80.3359V405.578H79.0547V416.812H80.3984V412.734H80.5234C80.9844 413.625 81.9531 414.148 83.1562 414.148C85.2969 414.148 86.6953 412.422 86.6953 409.789C86.6953 407.141 85.3047 405.43 83.1562 405.43ZM82.8359 412.938C81.3203 412.938 80.3594 411.719 80.3594 409.789C80.3594 407.852 81.3203 406.641 82.8438 406.641C84.3828 406.641 85.3047 407.82 85.3047 409.789C85.3047 411.758 84.3828 412.938 82.8359 412.938ZM94.5391 411.82C94.1875 412.562 93.4531 412.961 92.3672 412.961C90.9375 412.961 90.0078 411.906 89.9375 410.242V410.18H95.9922V409.664C95.9922 407.047 94.6094 405.43 92.3359 405.43C90.0234 405.43 88.5391 407.148 88.5391 409.797C88.5391 412.461 90 414.148 92.3359 414.148C94.1797 414.148 95.4922 413.258 95.8828 411.82H94.5391ZM92.3203 406.617C93.6562 406.617 94.5469 407.602 94.5781 409.094H89.9375C90.0391 407.602 90.9766 406.617 92.3203 406.617ZM103.641 406.703V405.578H98.25V414H99.5938V406.703H103.641ZM107.031 414L111.227 407.719H111.352V414H112.695V405.578H111.352L107.156 411.859H107.031V405.578H105.688V414H107.031ZM122.352 408.156C122.117 406.656 120.867 405.43 118.82 405.43C116.461 405.43 114.961 407.133 114.961 409.758C114.961 412.438 116.469 414.148 118.828 414.148C120.852 414.148 122.109 413.008 122.352 411.461H120.992C120.742 412.414 119.953 412.938 118.82 412.938C117.32 412.938 116.352 411.703 116.352 409.758C116.352 407.852 117.305 406.641 118.82 406.641C120.031 406.641 120.773 407.32 120.992 408.156H122.352ZM130.195 405.578H123.383V406.703H126.117V414H127.461V406.703H130.195V405.578ZM136.266 405.43C135.117 405.43 134.109 406.016 133.57 406.984H133.445V405.578H132.164V416.812H133.508V412.734H133.633C134.094 413.625 135.062 414.148 136.266 414.148C138.406 414.148 139.805 412.422 139.805 409.789C139.805 407.141 138.414 405.43 136.266 405.43ZM135.945 412.938C134.43 412.938 133.469 411.719 133.469 409.789C133.469 407.852 134.43 406.641 135.953 406.641C137.492 406.641 138.414 407.82 138.414 409.789C138.414 411.758 137.492 412.938 135.945 412.938ZM144.414 414.148C145.539 414.148 146.461 413.656 147.008 412.758H147.133V414H148.414V408.234C148.414 406.484 147.266 405.43 145.211 405.43C143.414 405.43 142.086 406.32 141.906 407.672H143.266C143.453 407.008 144.156 406.625 145.164 406.625C146.422 406.625 147.07 407.195 147.07 408.234V409L144.641 409.148C142.68 409.266 141.57 410.133 141.57 411.641C141.57 413.18 142.781 414.148 144.414 414.148ZM144.664 412.969C143.688 412.969 142.961 412.469 142.961 411.609C142.961 410.766 143.523 410.32 144.805 410.234L147.07 410.086V410.859C147.07 412.062 146.047 412.969 144.664 412.969ZM159.125 416.227V412.875H157.781V405.578H156.438V412.875H152.391V405.578H151.047V414H157.859V416.227H159.125ZM162.234 414L166.43 407.719H166.555V414H167.898V405.578H166.555L162.359 411.859H162.234V405.578H160.891V414H162.234ZM174.047 414.148C176.445 414.148 177.93 412.492 177.93 409.789C177.93 407.078 176.445 405.43 174.047 405.43C171.648 405.43 170.164 407.078 170.164 409.789C170.164 412.492 171.648 414.148 174.047 414.148ZM174.047 412.938C172.453 412.938 171.555 411.781 171.555 409.789C171.555 407.789 172.453 406.641 174.047 406.641C175.641 406.641 176.539 407.789 176.539 409.789C176.539 411.781 175.641 412.938 174.047 412.938ZM185.734 414H187.078V405.578H185.734V409.062H181.531V405.578H180.188V414H181.531V410.188H185.734V414ZM195.297 414H196.641V405.578H195.297V409.062H191.094V405.578H189.75V414H191.094V410.188H195.297V414ZM202.781 414.148C205.18 414.148 206.664 412.492 206.664 409.789C206.664 407.078 205.18 405.43 202.781 405.43C200.383 405.43 198.898 407.078 198.898 409.789C198.898 412.492 200.383 414.148 202.781 414.148ZM202.781 412.938C201.188 412.938 200.289 411.781 200.289 409.789C200.289 407.789 201.188 406.641 202.781 406.641C204.375 406.641 205.273 407.789 205.273 409.789C205.273 411.781 204.375 412.938 202.781 412.938ZM214.312 406.703V405.578H208.922V414H210.266V406.703H214.312ZM219.594 414.148C221.992 414.148 223.477 412.492 223.477 409.789C223.477 407.078 221.992 405.43 219.594 405.43C217.195 405.43 215.711 407.078 215.711 409.789C215.711 412.492 217.195 414.148 219.594 414.148ZM219.594 412.938C218 412.938 217.102 411.781 217.102 409.789C217.102 407.789 218 406.641 219.594 406.641C221.188 406.641 222.086 407.789 222.086 409.789C222.086 411.781 221.188 412.938 219.594 412.938ZM231.758 414V402.727H230.352V414H231.758ZM234.633 402.727V414H238.5C241.852 414 243.82 411.914 243.82 408.359C243.82 404.812 241.844 402.727 238.5 402.727H234.633ZM236.039 403.992H238.406C240.906 403.992 242.383 405.617 242.383 408.375C242.383 411.125 240.922 412.734 238.406 412.734H236.039V403.992ZM256.141 414H257.484V405.578H250.672V414H252.016V406.703H256.141V414ZM263.625 414.148C266.023 414.148 267.508 412.492 267.508 409.789C267.508 407.078 266.023 405.43 263.625 405.43C261.227 405.43 259.742 407.078 259.742 409.789C259.742 412.492 261.227 414.148 263.625 414.148ZM263.625 412.938C262.031 412.938 261.133 411.781 261.133 409.789C261.133 407.789 262.031 406.641 263.625 406.641C265.219 406.641 266.117 407.789 266.117 409.789C266.117 411.781 265.219 412.938 263.625 412.938ZM279.789 411.82C279.438 412.562 278.703 412.961 277.617 412.961C276.188 412.961 275.258 411.906 275.188 410.242V410.18H281.242V409.664C281.242 407.047 279.859 405.43 277.586 405.43C275.273 405.43 273.789 407.148 273.789 409.797C273.789 412.461 275.25 414.148 277.586 414.148C279.43 414.148 280.742 413.258 281.133 411.82H279.789ZM277.57 406.617C278.906 406.617 279.797 407.602 279.828 409.094H275.188C275.289 407.602 276.227 406.617 277.57 406.617ZM283.352 414H284.695V408.781C284.695 407.594 285.547 406.641 286.648 406.641C287.711 406.641 288.406 407.281 288.406 408.281V414H289.75V408.586C289.75 407.516 290.531 406.641 291.703 406.641C292.891 406.641 293.477 407.25 293.477 408.492V414H294.82V408.18C294.82 406.414 293.859 405.43 292.141 405.43C290.977 405.43 290.016 406.016 289.562 406.906H289.438C289.047 406.031 288.25 405.43 287.109 405.43C285.984 405.43 285.141 405.969 284.758 406.906H284.633V405.578H283.352V414ZM299.617 414.148C300.742 414.148 301.664 413.656 302.211 412.758H302.336V414H303.617V408.234C303.617 406.484 302.469 405.43 300.414 405.43C298.617 405.43 297.289 406.32 297.109 407.672H298.469C298.656 407.008 299.359 406.625 300.367 406.625C301.625 406.625 302.273 407.195 302.273 408.234V409L299.844 409.148C297.883 409.266 296.773 410.133 296.773 411.641C296.773 413.18 297.984 414.148 299.617 414.148ZM299.867 412.969C298.891 412.969 298.164 412.469 298.164 411.609C298.164 410.766 298.727 410.32 300.008 410.234L302.273 410.086V410.859C302.273 412.062 301.25 412.969 299.867 412.969ZM306.805 403.953C307.32 403.953 307.742 403.531 307.742 403.016C307.742 402.5 307.32 402.078 306.805 402.078C306.289 402.078 305.867 402.5 305.867 403.016C305.867 403.531 306.289 403.953 306.805 403.953ZM306.133 414H307.477V405.578H306.133V414ZM310.117 414H311.461V402.234H310.117V414Z" fill="#414348"/>
<g filter="url(#filter0_d)">
<rect x="30" y="521" width="316" height="43" rx="3" fill="#6DB247"/>
</g>
<path d="M109.947 549.091C112.055 549.091 112.96 547.83 113.923 545.572L117.592 537.022H115.649L112.752 544.385H112.611L109.631 537.022H107.647L111.698 546.335C111.25 547.132 110.677 547.456 109.839 547.456C109.44 547.456 109.233 547.406 109.15 547.381V548.983C109.233 549.017 109.54 549.091 109.947 549.091ZM126.009 549V542.733H126.167L128.814 548.66H130.126L132.774 542.733H132.932V549H134.675V539.985H132.492L129.57 546.568H129.429L126.515 539.985H124.274V549H126.009ZM143.357 546.584C143.025 547.315 142.287 547.713 141.208 547.713C139.78 547.713 138.858 546.684 138.8 545.049V544.966H145.184V544.352C145.184 541.529 143.665 539.811 141.149 539.811C138.601 539.811 136.982 541.646 136.982 544.509C136.982 547.39 138.568 549.174 141.158 549.174C143.225 549.174 144.686 548.178 145.076 546.584H143.357ZM141.141 541.264C142.461 541.264 143.324 542.218 143.366 543.679H138.8C138.9 542.227 139.821 541.264 141.141 541.264ZM153.385 549H155.169V539.985H153.385V543.621H149.268V539.985H147.483V549H149.268V545.049H153.385V549ZM162.798 549H164.558V539.985H161.088C159.004 539.985 157.643 541.139 157.643 543.015C157.643 544.252 158.407 545.215 159.652 545.572L157.187 549H159.262L161.453 545.879H162.798V549ZM161.179 544.501C160.108 544.501 159.411 543.878 159.411 542.999C159.411 542.011 160.1 541.405 161.179 541.405H162.798V544.501H161.179ZM172.858 552.271C174.701 552.271 175.556 551.582 176.328 549.415L179.698 539.985H177.806L175.548 547.207H175.407L173.141 539.985H171.198L174.469 549.025L174.336 549.49C174.029 550.444 173.547 550.801 172.701 550.801C172.535 550.801 172.261 550.793 172.12 550.768V552.229C172.286 552.254 172.709 552.271 172.858 552.271ZM182.678 549L185.633 544.982H186.156V549H187.899V544.982H188.431L191.377 549H193.552L189.858 544.177L193.361 539.985H191.303L188.422 543.696H187.899V539.985H186.156V543.696H185.642L182.761 539.985H180.678L184.206 544.202L180.537 549H182.678ZM200.981 546.584C200.649 547.315 199.911 547.713 198.832 547.713C197.404 547.713 196.482 546.684 196.424 545.049V544.966H202.808V544.352C202.808 541.529 201.289 539.811 198.773 539.811C196.225 539.811 194.606 541.646 194.606 544.509C194.606 547.39 196.192 549.174 198.782 549.174C200.849 549.174 202.31 548.178 202.7 546.584H200.981ZM198.765 541.264C200.085 541.264 200.948 542.218 200.99 543.679H196.424C196.524 542.227 197.445 541.264 198.765 541.264ZM215.69 546.584C215.358 547.315 214.62 547.713 213.541 547.713C212.113 547.713 211.191 546.684 211.133 545.049V544.966H217.517V544.352C217.517 541.529 215.998 539.811 213.482 539.811C210.934 539.811 209.315 541.646 209.315 544.509C209.315 547.39 210.901 549.174 213.491 549.174C215.558 549.174 217.019 548.178 217.409 546.584H215.69ZM213.474 541.264C214.794 541.264 215.657 542.218 215.699 543.679H211.133C211.233 542.227 212.154 541.264 213.474 541.264ZM227.478 542.882C227.245 541.131 225.875 539.811 223.609 539.811C220.978 539.811 219.376 541.596 219.376 544.459C219.376 547.381 220.986 549.174 223.618 549.174C225.851 549.174 227.245 547.921 227.478 546.145H225.743C225.51 547.124 224.738 547.655 223.609 547.655C222.124 547.655 221.202 546.452 221.202 544.459C221.202 542.509 222.115 541.33 223.609 541.33C224.805 541.33 225.535 542.002 225.743 542.882H227.478ZM236.036 539.985H228.557V541.413H231.404V549H233.188V541.413H236.036V539.985ZM238.044 549H241.614C243.706 549 245.042 547.796 245.042 545.887C245.042 543.986 243.706 542.783 241.614 542.783H239.829V539.985H238.044V549ZM241.481 544.202C242.56 544.202 243.266 544.866 243.266 545.887C243.266 546.9 242.568 547.572 241.481 547.572H239.829V544.202H241.481ZM253.849 549V537.022H251.99V549H253.849ZM256.854 537.022V549H261.179C264.748 549 266.815 546.792 266.815 542.982C266.815 539.213 264.731 537.022 261.179 537.022H256.854ZM258.713 538.624H260.971C263.453 538.624 264.922 540.243 264.922 543.007C264.922 545.796 263.478 547.398 260.971 547.398H258.713V538.624Z" fill="white"/>
<rect x="29" y="574" width="316" height="43" rx="3" fill="#EDF2EC"/>
<path d="M112.947 602.091C115.055 602.091 115.96 600.83 116.923 598.572L120.592 590.022H118.649L115.752 597.385H115.611L112.631 590.022H110.647L114.698 599.335C114.25 600.132 113.677 600.456 112.839 600.456C112.44 600.456 112.233 600.406 112.15 600.381V601.983C112.233 602.017 112.54 602.091 112.947 602.091ZM129.009 602V595.733H129.167L131.814 601.66H133.126L135.774 595.733H135.932V602H137.675V592.985H135.492L132.57 599.568H132.429L129.515 592.985H127.274V602H129.009ZM146.357 599.584C146.025 600.315 145.287 600.713 144.208 600.713C142.78 600.713 141.858 599.684 141.8 598.049V597.966H148.184V597.352C148.184 594.529 146.665 592.811 144.149 592.811C141.601 592.811 139.982 594.646 139.982 597.509C139.982 600.39 141.568 602.174 144.158 602.174C146.225 602.174 147.686 601.178 148.076 599.584H146.357ZM144.141 594.264C145.461 594.264 146.324 595.218 146.366 596.679H141.8C141.9 595.227 142.821 594.264 144.141 594.264ZM156.385 602H158.169V592.985H156.385V596.621H152.268V592.985H150.483V602H152.268V598.049H156.385V602ZM165.798 602H167.558V592.985H164.088C162.004 592.985 160.643 594.139 160.643 596.015C160.643 597.252 161.407 598.215 162.652 598.572L160.187 602H162.262L164.453 598.879H165.798V602ZM164.179 597.501C163.108 597.501 162.411 596.878 162.411 595.999C162.411 595.011 163.1 594.405 164.179 594.405H165.798V597.501H164.179ZM180.889 599.584C180.557 600.315 179.818 600.713 178.739 600.713C177.311 600.713 176.39 599.684 176.332 598.049V597.966H182.715V597.352C182.715 594.529 181.196 592.811 178.681 592.811C176.132 592.811 174.514 594.646 174.514 597.509C174.514 600.39 176.099 602.174 178.689 602.174C180.756 602.174 182.217 601.178 182.607 599.584H180.889ZM178.672 594.264C179.992 594.264 180.855 595.218 180.897 596.679H176.332C176.431 595.227 177.353 594.264 178.672 594.264ZM185.014 602H196.336V604.366H198.03V600.572H196.594V592.985H194.809V600.572H191.696V592.985H189.912V600.572H186.799V592.985H185.014V602ZM205.774 599.584C205.442 600.315 204.704 600.713 203.625 600.713C202.197 600.713 201.275 599.684 201.217 598.049V597.966H207.601V597.352C207.601 594.529 206.082 592.811 203.566 592.811C201.018 592.811 199.399 594.646 199.399 597.509C199.399 600.39 200.985 602.174 203.575 602.174C205.642 602.174 207.103 601.178 207.493 599.584H205.774ZM203.558 594.264C204.878 594.264 205.741 595.218 205.783 596.679H201.217C201.317 595.227 202.238 594.264 203.558 594.264ZM220.45 602H222.235V592.985H220.45V596.621H216.333V592.985H214.548V602H216.333V598.049H220.45V602ZM230.909 599.584C230.577 600.315 229.838 600.713 228.759 600.713C227.332 600.713 226.41 599.684 226.352 598.049V597.966H232.735V597.352C232.735 594.529 231.216 592.811 228.701 592.811C226.153 592.811 224.534 594.646 224.534 597.509C224.534 600.39 226.12 602.174 228.709 602.174C230.776 602.174 232.237 601.178 232.627 599.584H230.909ZM228.693 594.264C230.013 594.264 230.876 595.218 230.917 596.679H226.352C226.452 595.227 227.373 594.264 228.693 594.264ZM241.21 592.985H233.731V594.413H236.579V602H238.363V594.413H241.21V592.985ZM249.86 602V590.022H248V602H249.86ZM252.865 590.022V602H257.189C260.759 602 262.826 599.792 262.826 595.982C262.826 592.213 260.742 590.022 257.189 590.022H252.865ZM254.724 591.624H256.982C259.464 591.624 260.933 593.243 260.933 596.007C260.933 598.796 259.489 600.398 256.982 600.398H254.724V591.624Z" fill="#1B3259"/>
<path fill-rule="evenodd" clip-rule="evenodd" d="M182.442 201.943L170.725 194.531L160.341 193.563L157.412 196.787L163.536 203.233L153.95 211.613L161.14 216.447L130.785 225.793L154.216 200.332L90.5787 238.041L114.809 233.206L115.075 236.429L135.845 232.884L140.903 237.396L102.827 257.701L112.413 245.454L48.5081 265.436L326.491 265.759L276.966 229.661L260.724 223.215L242.617 221.281L234.629 213.224L227.173 211.934L205.074 193.563L194.424 193.242L182.442 201.943ZM202.678 226.438L202.411 207.745L229.571 241.264L234.895 229.016L266.581 233.851L304.924 258.024L124.928 258.668L137.975 250.933L166.199 245.776L182.442 218.703L197.884 233.851L219.186 243.842L202.678 226.438Z" fill="url(#paint0_linear)"/>
<defs>
<filter id="filter0_d" x="10" y="506" width="356" height="83" filterUnits="userSpaceOnUse" color-interpolation-filters="sRGB">
<feFlood flood-opacity="0" result="BackgroundImageFix"/>
<feColorMatrix in="SourceAlpha" type="matrix" values="0 0 0 0 0 0 0 0 0 0 0 0 0 0 0 0 0 0 127 0"/>
<feOffset dy="5"/>
<feGaussianBlur stdDeviation="10"/>
<feColorMatrix type="matrix" values="0 0 0 0 0.427451 0 0 0 0 0.698039 0 0 0 0 0.278431 0 0 0 0.13 0"/>
<feBlend mode="normal" in2="BackgroundImageFix" result="effect1_dropShadow"/>
<feBlend mode="normal" in="SourceGraphic" in2="effect1_dropShadow" result="shape"/>
</filter>
<linearGradient id="paint0_linear" x1="48.5081" y1="227.047" x2="315.706" y2="295.657" gradientUnits="userSpaceOnUse">
<stop stop-color="#3F81AE"/>
<stop offset="1" stop-color="#C4D150"/>
</linearGradient>
</defs>
</svg>
